<svg xmlns="http://www.w3.org/2000/svg" width="162" height="46" fill="none"><g fill="#1B202F" clip-path="url(#a)"><path d="M87.75 29.65c0 4.94-6.221 4.647-6.221 4.647h-6.222v-8.929h6.222c6.407-.036 6.222 4.282 6.222 4.282ZM75.307 11.756h4.741c4.926.257 4.74 3.879 4.74 3.879 0 4.5-5.444 4.574-5.444 4.574h-4.037v-8.453Zm11.297 10.21s4.259-1.794 4.222-6.55c0 0 .647-7.794-9.806-8.746H69.418v32.676h13.296s11.11.037 11.11-9.22c0 0 .26-6.295-7.221-8.16ZM56.583.265h48.834v45.467H56.583V.267ZM31.437 29.65c0 4.94-6.222 4.647-6.222 4.647h-6.222v-8.929h6.222c6.407-.036 6.222 4.282 6.222 4.282ZM18.993 11.756h4.74c4.927.257 4.741 3.879 4.741 3.879 0 4.5-5.444 4.574-5.444 4.574h-4.037v-8.453Zm11.296 10.21s4.26-1.794 4.222-6.55c0 0 .648-7.794-9.805-8.746H13.104v32.676H26.4s11.111.037 11.111-9.22c0 0 .26-6.295-7.222-8.16ZM.27.265h48.833v45.467H.27V.267ZM151.767 9.012v6.038s-5.963-3.623-12.555-3.696c0 0-12.296-.237-12.851 11.646 0 0-.445 10.931 12.703 11.554 0 0 5.519.658 13-4.062v6.257s-10.037 5.891-21.666 1.354c0 0-9.778-3.53-10.149-15.103 0 0-.407-11.902 12.63-15.854 0 0 3.482-1.317 9.74-.732 0 0 3.741.366 9.148 2.598Zm-38.87 36.721h48.833V.267h-48.833v45.466Z"/></g><defs><clipPath id="a"><path fill="#fff" d="M0 0h162v46H0z"/></clipPath></defs></svg>