<svg width="207" height="42" viewBox="0 0 207 42" fill="none" xmlns="http://www.w3.org/2000/svg">
<path d="M5.43136 5.41937H9.95025C14.0781 5.41937 15.8596 6.73049 15.8596 9.39647C15.8596 11.7128 14.0346 13.2862 10.4282 13.2862H5.47481V5.41937H5.43136ZM0 31.5109H11.0365C16.8155 31.5109 22.6379 29.4131 22.6379 22.7263C22.6379 18.7492 19.857 15.7336 16.0334 15.2966V15.2092C19.2053 14.2477 21.3344 11.9313 21.3344 8.47868C21.3344 2.88451 16.5982 0.742981 11.949 0.742981H0V31.5109ZM5.43136 17.9625H10.6455C15.0775 17.9625 17.1196 19.0989 17.1196 22.333C17.1196 26.3975 13.2091 26.8783 10.4282 26.8783H5.43136V17.9625Z" fill="black"/>
<path d="M26.1575 0H31.3281V31.5109H26.1575V0Z" fill="black"/>
<path d="M40.0183 21.0656C40.0183 17.7878 42.3212 14.8159 46.1014 14.8159C49.9251 14.8159 52.1846 17.8315 52.1846 21.0656C52.1846 24.3435 49.8817 27.3154 46.1014 27.3154C42.3212 27.3591 40.0183 24.3435 40.0183 21.0656ZM34.8477 21.0656C34.8477 27.6213 39.8445 32.0354 46.1449 32.0354C52.4018 32.0354 57.4421 27.6213 57.4421 21.0656C57.4421 14.5099 52.4453 10.0958 46.1449 10.0958C39.8445 10.1395 34.8477 14.5099 34.8477 21.0656Z" fill="black"/>
<path d="M64.959 21.0656C64.959 17.7878 67.2619 14.8159 71.0421 14.8159C74.8658 14.8159 77.1252 17.8315 77.1252 21.0656C77.1252 24.3435 74.8223 27.3154 71.0421 27.3154C67.2184 27.3591 64.959 24.3435 64.959 21.0656ZM59.7449 21.0656C59.7449 27.6213 64.7417 32.0354 71.0421 32.0354C77.299 32.0354 82.3393 27.6213 82.3393 21.0656C82.3393 14.5099 77.3425 10.0958 71.0421 10.0958C64.7852 10.1395 59.7449 14.5099 59.7449 21.0656Z" fill="black"/>
<path d="M85.5112 10.6639H90.4212V13.9417H90.5081C91.4205 11.975 93.4193 10.1394 96.8519 10.1394C100.067 10.1394 102.24 11.4068 103.326 14.0291C104.847 11.3631 107.063 10.1394 110.148 10.1394C115.666 10.1394 117.621 14.1165 117.621 19.0988V31.5546H112.451V19.7107C112.451 17.0884 111.669 14.8595 108.584 14.8595C105.325 14.8595 104.108 17.5692 104.108 20.2351V31.5546H98.9375V19.0988C98.9375 16.5203 97.8947 14.8158 95.3746 14.8158C91.9419 14.8158 90.6384 17.3506 90.6384 20.104V31.5109H85.4678V10.6639H85.5112Z" fill="black"/>
<path d="M139.086 21.0656C139.086 24.3434 136.783 27.3153 133.003 27.3153C129.179 27.3153 126.92 24.2997 126.92 21.0656C126.92 17.7877 129.223 14.8158 133.003 14.8158C136.783 14.8158 139.086 17.8314 139.086 21.0656ZM121.88 31.5109H126.79V28.3642H126.876C128.397 30.8991 131.135 32.0354 134.002 32.0354C140.39 32.0354 144.257 27.2716 144.257 21.0656C144.257 14.9032 140.129 10.0957 134.22 10.0957C130.309 10.0957 128.267 11.9313 127.181 13.2862H127.05V0H121.88V31.5109Z" fill="black"/>
<path d="M151.817 19.0115C152.208 15.9959 154.12 14.0729 157.162 14.0729C160.421 14.0729 162.376 15.9959 162.419 19.0115H151.817ZM167.633 22.9012V21.4589C167.633 14.204 163.679 10.0958 157.9 10.0958C151.644 10.0958 146.603 14.5099 146.603 21.0656C146.603 27.6213 151.6 32.0354 157.9 32.0354C161.203 32.0354 164.244 30.8554 166.678 27.8398L162.941 24.999C161.637 26.6161 159.943 27.8398 157.379 27.8398C154.468 27.8398 152.165 25.9605 151.817 22.9012H167.633Z" fill="black"/>
<path d="M171.023 10.6639H176.193V13.9854H176.28C177.41 11.5816 179.713 10.1394 182.407 10.1394C183.059 10.1394 183.667 10.2705 184.275 10.4453V15.4714C183.406 15.2528 182.581 15.078 181.755 15.078C176.889 15.078 176.193 19.2299 176.193 20.3226V31.5109H171.023V10.6639Z" fill="black"/>
<path d="M195.92 14.8158C199.7 14.8158 202.047 17.3507 202.047 20.9344C202.047 24.4308 199.7 27.0531 195.877 27.0531C192.357 27.0531 189.793 24.2997 189.793 21.0218C189.793 17.3506 192.27 14.8158 195.92 14.8158ZM202.047 10.6639V13.8106H201.96C200.439 11.2757 197.702 10.1394 194.834 10.1394C188.446 10.1394 184.579 14.9469 184.579 21.1092C184.579 27.0093 188.707 31.8168 194.921 31.8168C197.528 31.8168 200.178 30.8116 201.699 28.7575H201.786V30.2872C201.786 34.4391 200.222 37.2799 195.225 37.2799C192.314 37.2799 190.185 36.1873 188.099 34.2643L184.97 38.5473C187.925 41.1696 191.401 42 195.268 42C203.35 42 207 37.2362 207 29.6753V10.6639H202.047Z" fill="black"/>
</svg>
