<svg width="207" height="42" viewBox="0 0 207 42" fill="none" xmlns="http://www.w3.org/2000/svg">
<g clip-path="url(#clip0_228_852)">
<path d="M5.43136 5.41955H9.95025C14.0781 5.41955 15.8596 6.73067 15.8596 9.39665C15.8596 11.713 14.0346 13.2864 10.4282 13.2864H5.47481V5.41955H5.43136ZM0 31.5111H11.0365C16.8155 31.5111 22.6379 29.4133 22.6379 22.7265C22.6379 18.7494 19.857 15.7338 16.0334 15.2968V15.2094C19.2053 14.2479 21.3344 11.9315 21.3344 8.47886C21.3344 2.88469 16.5982 0.743164 11.949 0.743164H0V31.5111ZM5.43136 17.9627H10.6455C15.0775 17.9627 17.1196 19.0991 17.1196 22.3332C17.1196 26.3977 13.2091 26.8785 10.4282 26.8785H5.43136V17.9627Z" fill="white"/>
<path d="M26.1572 0H31.3278V31.5109H26.1572V0Z" fill="white"/>
<path d="M40.0183 21.0655C40.0183 17.7877 42.3212 14.8158 46.1014 14.8158C49.9251 14.8158 52.1846 17.8314 52.1846 21.0655C52.1846 24.3434 49.8817 27.3153 46.1014 27.3153C42.3212 27.359 40.0183 24.3434 40.0183 21.0655ZM34.8477 21.0655C34.8477 27.6212 39.8445 32.0353 46.1449 32.0353C52.4018 32.0353 57.4421 27.6212 57.4421 21.0655C57.4421 14.5098 52.4453 10.0957 46.1449 10.0957C39.8445 10.1394 34.8477 14.5098 34.8477 21.0655Z" fill="white"/>
<path d="M64.9592 21.0655C64.9592 17.7877 67.2621 14.8158 71.0423 14.8158C74.866 14.8158 77.1254 17.8314 77.1254 21.0655C77.1254 24.3434 74.8225 27.3153 71.0423 27.3153C67.2186 27.359 64.9592 24.3434 64.9592 21.0655ZM59.7451 21.0655C59.7451 27.6212 64.7419 32.0353 71.0423 32.0353C77.2992 32.0353 82.3395 27.6212 82.3395 21.0655C82.3395 14.5098 77.3427 10.0957 71.0423 10.0957C64.7854 10.1394 59.7451 14.5098 59.7451 21.0655Z" fill="white"/>
<path d="M85.5112 10.6641H90.4212V13.9419H90.5081C91.4205 11.9752 93.4193 10.1396 96.8519 10.1396C100.067 10.1396 102.24 11.407 103.326 14.0293C104.847 11.3633 107.063 10.1396 110.148 10.1396C115.666 10.1396 117.621 14.1167 117.621 19.099V31.5548H112.451V19.7109C112.451 17.0886 111.669 14.8597 108.584 14.8597C105.325 14.8597 104.108 17.5694 104.108 20.2353V31.5548H98.9375V19.099C98.9375 16.5205 97.8947 14.816 95.3746 14.816C91.9419 14.816 90.6384 17.3508 90.6384 20.1042V31.5112H85.4678V10.6641H85.5112Z" fill="white"/>
<path d="M139.086 21.0656C139.086 24.3434 136.783 27.3153 133.003 27.3153C129.179 27.3153 126.92 24.2997 126.92 21.0656C126.92 17.7877 129.223 14.8158 133.003 14.8158C136.783 14.8158 139.086 17.8314 139.086 21.0656ZM121.88 31.5109H126.79V28.3642H126.876C128.397 30.8991 131.135 32.0354 134.002 32.0354C140.39 32.0354 144.257 27.2716 144.257 21.0656C144.257 14.9032 140.129 10.0957 134.22 10.0957C130.309 10.0957 128.267 11.9313 127.181 13.2862H127.05V0H121.88V31.5109Z" fill="white"/>
<path d="M151.817 19.0114C152.208 15.9958 154.12 14.0728 157.162 14.0728C160.421 14.0728 162.376 15.9958 162.419 19.0114H151.817ZM167.633 22.9011V21.4588C167.633 14.2039 163.679 10.0957 157.9 10.0957C151.644 10.0957 146.603 14.5098 146.603 21.0655C146.603 27.6212 151.6 32.0353 157.9 32.0353C161.203 32.0353 164.244 30.8553 166.678 27.8397L162.941 24.9989C161.637 26.616 159.943 27.8397 157.379 27.8397C154.468 27.8397 152.165 25.9604 151.817 22.9011H167.633Z" fill="white"/>
<path d="M171.023 10.6641H176.193V13.9856H176.28C177.41 11.5818 179.713 10.1396 182.407 10.1396C183.059 10.1396 183.667 10.2707 184.275 10.4455V15.4716C183.406 15.253 182.581 15.0782 181.755 15.0782C176.889 15.0782 176.193 19.2301 176.193 20.3228V31.5112H171.023V10.6641Z" fill="white"/>
<path d="M195.92 14.816C199.7 14.816 202.047 17.3509 202.047 20.9346C202.047 24.431 199.7 27.0533 195.877 27.0533C192.357 27.0533 189.793 24.2999 189.793 21.022C189.793 17.3508 192.27 14.816 195.92 14.816ZM202.047 10.6641V13.8108H201.96C200.439 11.2759 197.702 10.1396 194.834 10.1396C188.446 10.1396 184.579 14.9471 184.579 21.1094C184.579 27.0095 188.707 31.817 194.921 31.817C197.528 31.817 200.178 30.8118 201.699 28.7577H201.786V30.2874C201.786 34.4393 200.222 37.2801 195.225 37.2801C192.314 37.2801 190.185 36.1875 188.099 34.2645L184.97 38.5475C187.925 41.1698 191.401 42.0002 195.268 42.0002C203.35 42.0002 207 37.2364 207 29.6755V10.6641H202.047Z" fill="white"/>
</g>
<defs>
<clipPath id="clip0_228_852">
<rect width="207" height="42" fill="white"/>
</clipPath>
</defs>
</svg>
