<svg width="259" height="23" viewBox="0 0 259 23" fill="none" xmlns="http://www.w3.org/2000/svg">
<g clip-path="url(#clip0_8717_5803)">
<path fill-rule="evenodd" clip-rule="evenodd" d="M0 0.471402H9.31641C14.4983 0.471402 17.2078 3.17774 17.2078 6.50124C17.2078 8.79549 15.9271 10.3537 14.1511 11.1779V11.2373C16.4223 12.0615 17.7031 13.8842 17.7031 16.2072C17.7031 19.5307 15.17 22.4422 9.6959 22.4422H0V0.471402ZM9.0261 9.1769C10.5687 9.1769 11.2689 8.3834 11.2689 7.49982C11.2689 6.61624 10.5706 5.79399 9.0261 5.79399H6.29V9.1769H9.0261ZM9.11338 17.1177C10.7433 17.1177 11.5307 16.3242 11.5307 15.2949C11.5307 14.2657 10.7148 13.4722 9.14374 13.4722H6.29V17.1196H9.11338V17.1177ZM19.0408 13.5009V0.471402H25.3877V13.4415C25.3877 15.8833 26.5812 17.1771 28.619 17.1771C30.6569 17.1771 31.9376 15.8833 31.9376 13.4127V0.471402H38.3149V13.5009C38.3149 19.0305 34.6472 23.0018 28.619 23.0018C22.5909 23.0018 19.0389 19.0305 19.0389 13.5009H19.0408ZM54.4754 1.5294V7.1759C53.1073 6.20607 50.7773 5.52949 48.8855 5.52949C47.1684 5.52949 46.2936 6.08915 46.2936 6.82324C46.2936 7.55732 47.2537 7.94065 48.9728 8.55782C51.8854 9.58707 55.8434 10.969 55.8434 15.6457C55.8434 19.8221 52.7278 22.9098 47.2537 22.9098C44.4304 22.9098 41.8385 22.0857 40.237 20.9989V15.0572C41.81 16.351 44.197 17.3802 46.4967 17.3802C48.4472 17.3802 49.3504 16.6442 49.3504 15.822C49.3504 14.764 47.8647 14.2925 46.0887 13.6447C43.7587 12.7917 40.0625 11.2622 40.0625 6.99765C40.0625 3.14515 43.0623 -0.00201416 48.4188 -0.00201416C50.7773 -0.00201416 52.9024 0.615152 54.4754 1.52749V1.5294ZM57.4733 0.471402H63.8203V22.4422H57.4733V0.471402ZM86.3865 22.4422H80.3298L72.4972 10.6489H72.4688V22.4422H66.4425V0.471402H72.4991L80.3317 12.0596H80.3602V0.471402H86.3865V22.4422ZM89.0068 0.471402H104.031V6.17732H95.3537V8.82424H103.156V14.0012H95.3537V16.7362H104.031V22.4422H89.0068V0.471402ZM119.958 1.5294V7.1759C118.59 6.20607 116.26 5.52949 114.368 5.52949C112.651 5.52949 111.776 6.08915 111.776 6.82324C111.776 7.55732 112.736 7.94065 114.455 8.55782C117.368 9.58707 121.326 10.969 121.326 15.6457C121.326 19.8221 118.21 22.9098 112.736 22.9098C109.913 22.9098 107.321 22.0857 105.719 20.9989V15.0572C107.292 16.351 109.679 17.3802 111.979 17.3802C113.93 17.3802 114.833 16.6442 114.833 15.822C114.833 14.764 113.347 14.2925 111.571 13.6447C109.241 12.7917 105.545 11.2622 105.545 6.99765C105.545 3.14515 108.545 -0.00201416 113.901 -0.00201416C116.26 -0.00201416 118.385 0.615152 119.958 1.52749V1.5294ZM136.758 1.5294V7.1759C135.39 6.20607 133.06 5.52949 131.168 5.52949C129.451 5.52949 128.576 6.08915 128.576 6.82324C128.576 7.55732 129.536 7.94065 131.255 8.55782C134.168 9.58707 138.126 10.969 138.126 15.6457C138.126 19.8221 135.01 22.9098 129.536 22.9098C126.713 22.9098 124.121 22.0857 122.519 20.9989V15.0572C124.092 16.351 126.479 17.3802 128.779 17.3802C130.73 17.3802 131.633 16.6442 131.633 15.822C131.633 14.764 130.147 14.2925 128.371 13.6447C126.041 12.7917 122.345 11.2622 122.345 6.99765C122.345 3.14515 125.345 -0.00201416 130.701 -0.00201416C133.06 -0.00201416 135.185 0.615152 136.758 1.52749V1.5294ZM145.48 22.4843H151.827V0.515486H145.48V22.4862V22.4843ZM174.39 0.515486H168.363V12.1037H168.335L160.502 0.515486H154.446V22.4862H160.472V10.693H160.5L168.333 22.4862H174.39V0.515486ZM184.605 0.0439858C179.247 0.0439858 176.249 3.19115 176.249 7.04365C176.249 11.3082 179.947 12.8377 182.275 13.6907C184.051 14.3385 185.537 14.8081 185.537 15.868C185.537 16.6922 184.634 17.4262 182.683 17.4262C180.384 17.4262 177.995 16.397 176.424 15.1032V21.0449C178.025 22.1336 180.617 22.9558 183.44 22.9558C188.914 22.9558 192.03 19.8681 192.03 15.6917C192.03 11.015 188.07 9.63307 185.159 8.60382C183.442 7.98665 182.48 7.63399 182.48 6.86924C182.48 6.10449 183.353 5.57549 185.072 5.57549C186.964 5.57549 189.294 6.25207 190.662 7.2219V1.57349C189.089 0.661152 186.964 0.0439858 184.605 0.0439858ZM193.512 22.4843H199.859V0.515486H193.512V22.4862V22.4843ZM208.826 16.6902H210.05C213.34 16.6902 215.465 14.8081 215.465 11.5133C215.465 8.21857 213.34 6.30765 210.05 6.30765H208.826V16.6902ZM221.871 11.5133C221.871 18.1316 216.921 22.4843 209.817 22.4843H202.479V0.515486H209.817C216.921 0.515486 221.871 4.89699 221.871 11.5152V11.5133ZM223.592 22.4843H238.616V16.7784H229.939V14.0433H237.741V8.8664H229.939V6.21949H238.616V0.515486H223.592V22.4862V22.4843ZM248.606 10.8962C250.207 10.8962 251.46 10.1314 251.46 8.6019C251.46 7.0724 250.207 6.30765 248.577 6.30765H247.238V10.8962H248.606ZM259 22.4843H251.517L247.382 15.6897H247.236V22.4843H240.889V0.515486H248.634C254.08 0.515486 257.863 2.95732 257.863 8.16299C257.863 10.2215 256.96 13.2211 253.349 14.7506L258.998 22.4862L259 22.4843Z" fill="#0A0A0A"/>
</g>
<defs>
<clipPath id="clip0_8717_5803">
<rect width="259" height="23" fill="white"/>
</clipPath>
</defs>
</svg>
