<svg width="259" height="23" viewBox="0 0 259 23" fill="none" xmlns="http://www.w3.org/2000/svg">
<g clip-path="url(#clip0_228_880)">
<mask id="mask0_228_880" style="mask-type:luminance" maskUnits="userSpaceOnUse" x="0" y="0" width="259" height="23">
<path d="M259 0H0V23H259V0Z" fill="white"/>
</mask>
<g mask="url(#mask0_228_880)">
<path fill-rule="evenodd" clip-rule="evenodd" d="M0 0.471463H9.31641C14.4983 0.471463 17.2078 3.1778 17.2078 6.5013C17.2078 8.79555 15.9271 10.3538 14.1511 11.178V11.2374C16.4223 12.0616 17.7031 13.8843 17.7031 16.2073C17.7031 19.5308 15.17 22.4423 9.6959 22.4423H0V0.471463ZM9.0261 9.17696C10.5687 9.17696 11.2689 8.38346 11.2689 7.49988C11.2689 6.6163 10.5706 5.79405 9.0261 5.79405H6.29V9.17696H9.0261ZM9.11338 17.1178C10.7433 17.1178 11.5307 16.3243 11.5307 15.295C11.5307 14.2658 10.7148 13.4723 9.14374 13.4723H6.29V17.1197H9.11338V17.1178ZM19.0408 13.501V0.471463H25.3877V13.4416C25.3877 15.8834 26.5812 17.1772 28.619 17.1772C30.6569 17.1772 31.9376 15.8834 31.9376 13.4128V0.471463H38.3149V13.501C38.3149 19.0306 34.6472 23.0019 28.619 23.0019C22.5909 23.0019 19.0389 19.0306 19.0389 13.501H19.0408ZM54.4754 1.52946V7.17596C53.1073 6.20613 50.7773 5.52955 48.8855 5.52955C47.1684 5.52955 46.2936 6.08921 46.2936 6.8233C46.2936 7.55738 47.2537 7.94071 48.9728 8.55788C51.8854 9.58713 55.8434 10.9691 55.8434 15.6458C55.8434 19.8222 52.7278 22.9099 47.2537 22.9099C44.4304 22.9099 41.8385 22.0858 40.237 20.999V15.0573C41.81 16.3511 44.197 17.3803 46.4967 17.3803C48.4472 17.3803 49.3504 16.6443 49.3504 15.8221C49.3504 14.7641 47.8647 14.2926 46.0887 13.6448C43.7587 12.7918 40.0625 11.2623 40.0625 6.99771C40.0625 3.14521 43.0623 -0.00195312 48.4188 -0.00195312C50.7773 -0.00195312 52.9024 0.615213 54.4754 1.52755V1.52946ZM57.4733 0.471463H63.8203V22.4423H57.4733V0.471463ZM86.3865 22.4423H80.3298L72.4972 10.649H72.4688V22.4423H66.4425V0.471463H72.4991L80.3317 12.0597H80.3602V0.471463H86.3865V22.4423ZM89.0068 0.471463H104.031V6.17738H95.3537V8.8243H103.156V14.0013H95.3537V16.7363H104.031V22.4423H89.0068V0.471463ZM119.958 1.52946V7.17596C118.59 6.20613 116.26 5.52955 114.368 5.52955C112.651 5.52955 111.776 6.08921 111.776 6.8233C111.776 7.55738 112.736 7.94071 114.455 8.55788C117.368 9.58713 121.326 10.9691 121.326 15.6458C121.326 19.8222 118.21 22.9099 112.736 22.9099C109.913 22.9099 107.321 22.0858 105.719 20.999V15.0573C107.292 16.3511 109.679 17.3803 111.979 17.3803C113.93 17.3803 114.833 16.6443 114.833 15.8221C114.833 14.7641 113.347 14.2926 111.571 13.6448C109.241 12.7918 105.545 11.2623 105.545 6.99771C105.545 3.14521 108.545 -0.00195312 113.901 -0.00195312C116.26 -0.00195312 118.385 0.615213 119.958 1.52755V1.52946ZM136.758 1.52946V7.17596C135.39 6.20613 133.06 5.52955 131.168 5.52955C129.451 5.52955 128.576 6.08921 128.576 6.8233C128.576 7.55738 129.536 7.94071 131.255 8.55788C134.168 9.58713 138.126 10.9691 138.126 15.6458C138.126 19.8222 135.01 22.9099 129.536 22.9099C126.713 22.9099 124.121 22.0858 122.519 20.999V15.0573C124.092 16.3511 126.479 17.3803 128.779 17.3803C130.73 17.3803 131.633 16.6443 131.633 15.8221C131.633 14.7641 130.147 14.2926 128.371 13.6448C126.041 12.7918 122.345 11.2623 122.345 6.99771C122.345 3.14521 125.345 -0.00195312 130.701 -0.00195312C133.06 -0.00195312 135.185 0.615213 136.758 1.52755V1.52946ZM145.48 22.4844H151.827V0.515547H145.48V22.4863V22.4844ZM174.39 0.515547H168.363V12.1038H168.335L160.502 0.515547H154.446V22.4863H160.472V10.6931H160.5L168.333 22.4863H174.39V0.515547ZM184.605 0.0440468C179.247 0.0440468 176.249 3.19121 176.249 7.04371C176.249 11.3083 179.947 12.8378 182.275 13.6908C184.051 14.3386 185.537 14.8082 185.537 15.8681C185.537 16.6923 184.634 17.4263 182.683 17.4263C180.384 17.4263 177.995 16.3971 176.424 15.1033V21.045C178.025 22.1337 180.617 22.9559 183.44 22.9559C188.914 22.9559 192.03 19.8682 192.03 15.6918C192.03 11.0151 188.07 9.63313 185.159 8.60388C183.442 7.98671 182.48 7.63405 182.48 6.8693C182.48 6.10455 183.353 5.57555 185.072 5.57555C186.964 5.57555 189.294 6.25213 190.662 7.22196V1.57355C189.089 0.661213 186.964 0.0440468 184.605 0.0440468ZM193.512 22.4844H199.859V0.515547H193.512V22.4863V22.4844ZM208.826 16.6903H210.05C213.34 16.6903 215.465 14.8082 215.465 11.5134C215.465 8.21863 213.34 6.30771 210.05 6.30771H208.826V16.6903ZM221.871 11.5134C221.871 18.1317 216.921 22.4844 209.817 22.4844H202.479V0.515547H209.817C216.921 0.515547 221.871 4.89705 221.871 11.5153V11.5134ZM223.592 22.4844H238.616V16.7785H229.939V14.0434H237.741V8.86646H229.939V6.21955H238.616V0.515547H223.592V22.4863V22.4844ZM248.606 10.8963C250.207 10.8963 251.46 10.1315 251.46 8.60196C251.46 7.07246 250.207 6.30771 248.577 6.30771H247.238V10.8963H248.606ZM259 22.4844H251.517L247.382 15.6898H247.236V22.4844H240.889V0.515547H248.634C254.08 0.515547 257.863 2.95738 257.863 8.16305C257.863 10.2216 256.96 13.2212 253.349 14.7507L258.998 22.4863L259 22.4844Z" fill="white"/>
</g>
</g>
<defs>
<clipPath id="clip0_228_880">
<rect width="259" height="23" fill="white"/>
</clipPath>
</defs>
</svg>
