<svg width="233" height="46" viewBox="0 0 233 46" fill="none" xmlns="http://www.w3.org/2000/svg">
<g clip-path="url(#clip0_8717_5835)">
<path d="M0.86684 30.867L3.80156 30.3953V3.35396L0.5 2.88231L0.657217 0H21.0954L20.6238 8.17529L16.5361 8.07048L16.2741 2.93472H9.98543V15.0928H12.7629L13.3918 12.3153L16.2741 12.3677V20.7527H13.4442L12.7629 17.8703H9.98543V30.7621H16.3265L16.903 25.1547L21.2002 25.3119L21.5147 33.8541H0.709623L0.86684 30.867Z" fill="#01010F"/>
<path d="M23.4012 33.9065L23.506 31.391L25.8118 30.9194V13.8875L23.1392 13.6255V11.0576L29.8471 10.1143L30.3711 11.5817V12.525C31.9957 10.848 33.9347 9.85229 36.4502 9.85229C40.1186 9.85229 42.7913 12.0533 42.7913 16.4554V30.9194L45.2544 31.391L45.0447 33.9065H37.1315V17.6607C37.1315 15.3025 36.293 13.9923 34.1968 13.9923C33.4631 13.9923 32.9914 14.1496 32.415 14.3068C32.0481 14.5688 31.7337 15.0405 31.4717 15.4073V30.9194L33.8823 31.391L33.7251 33.9065C33.6727 33.9065 23.4012 33.9065 23.4012 33.9065Z" fill="#01010F"/>
<path d="M151.586 33.9065L151.69 31.391L153.996 30.9194V13.8875L151.323 13.6255V11.0576L158.031 10.1143L158.555 11.5817V12.525C160.18 10.848 162.119 9.85229 164.635 9.85229C168.303 9.85229 170.976 12.0533 170.976 16.4554V30.9194L173.439 31.391L173.281 33.9065H165.368V17.6607C165.368 15.3025 164.53 13.9923 162.433 13.9923C161.7 13.9923 161.228 14.1496 160.652 14.3068C160.285 14.5688 159.97 15.0405 159.708 15.4073V30.9194L162.119 31.391L161.962 33.9065H151.586Z" fill="#01010F"/>
<path d="M57.8319 33.4348C56.8886 33.8017 55.264 34.2733 53.063 34.2733C50.2331 34.2733 47.5604 33.0156 47.5604 28.8231V13.8351L44.8877 13.4158L44.9925 10.4287L48.032 10.2715L49.3422 5.71221L53.2202 5.55499V10.4287H57.4651L57.1506 13.4158L53.325 13.8351V28.7707C53.325 30.0285 54.0063 30.8145 55.264 30.8145H57.5699L57.8319 33.4348Z" fill="#01010F"/>
<path d="M216.674 33.9065L216.778 31.4434L218.927 30.9718V13.8875L216.359 13.6255V11.0576L223.277 10.1143L223.748 11.7913V12.3153C225.583 10.9528 228.046 10.0619 230.98 10.0619L232.028 10.9528L231.295 17.3463L227.469 17.1891L227.102 13.7303C226.211 13.8875 225.373 14.0971 224.639 14.6212V30.9194L227.05 31.391L226.893 33.8541L216.674 33.9065Z" fill="#01010F"/>
<path d="M116.736 33.9065L116.841 31.4434L118.989 30.9718V13.8875L116.421 13.6255V11.0576L123.339 10.1143L123.811 11.7913V12.3153C125.645 10.9528 128.108 10.0619 131.043 10.0619L132.091 10.9528L131.357 17.3463L127.531 17.1891L127.165 13.7303C126.274 13.8875 125.435 14.0971 124.701 14.6212V30.9194L127.112 31.391L126.955 33.8541L116.736 33.9065Z" fill="#01010F"/>
<path d="M59.5613 33.9065L59.6661 31.4434L61.8147 30.9718V13.8875L59.2468 13.6255V11.0576L66.1644 10.1143L66.636 11.7913V12.3153C68.4702 10.9528 70.9333 10.0619 73.868 10.0619L74.9161 10.9528L74.1825 17.3463L70.3568 17.1891L69.99 13.7303C69.0991 13.8875 68.2606 14.0971 67.5269 14.6212V30.9194L69.9376 31.391L69.7804 33.8541L59.5613 33.9065Z" fill="#01010F"/>
<path d="M81.5192 23.5302C81.5192 27.6178 83.301 30.7622 86.8121 30.7622C88.5939 30.7622 90.0613 30.3953 91.7907 29.6092L92.734 31.8627C91.0046 33.2252 88.4891 34.3258 85.2924 34.3258C79.1085 34.3258 75.5449 28.9804 75.5449 22.1152C75.5449 16.2458 78.1128 9.85229 85.24 9.85229C91.4238 9.85229 93.7821 15.5645 93.7821 21.958L93.2056 23.4778L81.5192 23.5302ZM81.4144 20.7527L88.5415 20.4382C88.3843 17.6083 87.8079 13.1014 85.0304 13.1014C84.3491 13.1014 83.8774 13.2063 83.0389 13.6779C81.886 15.6169 81.4144 19.1281 81.4144 20.7527Z" fill="#01010F"/>
<path d="M180.147 23.5302C180.147 27.6178 181.928 30.7622 185.44 30.7622C187.274 30.7622 188.689 30.3953 190.418 29.6092L191.361 31.8627C189.632 33.2252 187.117 34.3258 183.92 34.3258C177.736 34.3258 174.172 28.9804 174.172 22.1152C174.172 16.2458 176.74 9.85229 183.867 9.85229C190.051 9.85229 192.41 15.5645 192.41 21.958L191.833 23.4778L180.147 23.5302ZM180.042 20.7527L187.169 20.4382C187.012 17.6083 186.435 13.1014 183.658 13.1014C182.977 13.1014 182.505 13.2063 181.666 13.6779C180.513 15.6169 179.989 19.1281 180.042 20.7527Z" fill="#01010F"/>
<path d="M138.694 23.5302C138.694 27.6178 140.476 30.7622 143.987 30.7622C145.821 30.7622 147.236 30.3953 148.965 29.6092L149.909 31.8627C148.179 33.2252 145.664 34.3258 142.467 34.3258C136.283 34.3258 132.719 28.9804 132.719 22.1152C132.719 16.2458 135.287 9.85229 142.415 9.85229C148.598 9.85229 150.957 15.5645 150.957 21.958L150.328 23.4778L138.694 23.5302ZM138.589 20.7527L145.716 20.4382C145.559 17.6083 144.982 13.1014 142.205 13.1014C141.524 13.1014 141.052 13.2063 140.213 13.6779C139.061 15.6169 138.589 19.1281 138.589 20.7527Z" fill="#01010F"/>
<path d="M208.393 33.9065L207.817 31.8627C206.245 33.33 204.725 34.2209 202.367 34.2209C198.698 34.2209 195.449 32.3867 195.449 27.3558V13.2062L192.776 12.9442V10.6908L200.48 9.79987L201.056 11.8437V26.6221C201.056 29.19 202.105 30.5525 204.201 30.5525C204.777 30.5525 205.563 30.5001 206.245 30.1857C206.611 29.8188 206.978 29.3472 207.293 28.8755V13.2586L204.515 12.9966V10.7432L212.324 9.85227L212.953 11.8961V30.9194L215.363 31.391L215.101 33.9065H208.393Z" fill="#01010F"/>
<path d="M105.311 30.867C104.054 30.867 103.11 30.6573 102.324 30.2381V15.1977C102.639 14.726 103.058 14.2543 103.425 13.8351C104.158 13.5731 104.787 13.4683 105.521 13.4683C108.718 13.4683 109.242 16.7174 109.242 22.482C109.242 28.037 108.403 29.5568 108.194 30.1857C107.355 30.6573 106.464 30.867 105.311 30.867ZM114.797 21.4339C114.797 14.2544 112.648 9.79987 107.408 9.79987C103.896 9.79987 102.219 11.8437 101.538 12.6822V11.8961L100.962 9.85227L94.0442 10.7956V13.2586L96.7169 13.6255V42.5534L94.4634 43.0251L94.3586 45.4357H104.578L104.735 43.0251L102.324 42.5534V33.3824C103.268 33.9065 104.63 34.2733 106.15 34.2733C114.744 34.2733 114.797 25.4692 114.797 21.4339Z" fill="#01010F"/>
<path d="M230.561 30.6049C231.714 30.6049 232.448 31.2862 232.448 32.2819C232.448 33.2776 231.661 33.9589 230.561 33.9589C229.408 33.9589 228.674 33.2776 228.674 32.2819C228.674 31.2862 229.46 30.6049 230.561 30.6049ZM230.561 33.3824C231.347 33.3824 231.871 32.9108 231.871 32.2295C231.871 31.5482 231.347 31.0766 230.561 31.0766C229.775 31.0766 229.251 31.5482 229.251 32.2295C229.251 32.9108 229.775 33.3824 230.561 33.3824ZM229.722 33.0156V32.806L229.932 32.7536V31.7054H229.722V31.4958H230.613C230.98 31.4958 231.347 31.6006 231.347 31.9675C231.347 32.2295 231.19 32.3343 231.033 32.4391C231.137 32.5963 231.295 32.7536 231.347 32.806H231.504V33.0156H231.033C230.875 32.9108 230.718 32.7011 230.613 32.4391H230.456V32.7536L230.666 32.806V33.0156H229.722ZM230.456 31.7054V32.1247H230.613C230.823 32.1247 230.875 32.0199 230.875 31.9151C230.875 31.7054 230.718 31.7054 230.561 31.7054H230.456Z" fill="#01010F"/>
</g>
<defs>
<clipPath id="clip0_8717_5835">
<rect width="232" height="45.4357" fill="white" transform="translate(0.5)"/>
</clipPath>
</defs>
</svg>
