<svg width="233" height="46" viewBox="0 0 233 46" fill="none" xmlns="http://www.w3.org/2000/svg">
<g clip-path="url(#clip0_228_862)">
<mask id="mask0_228_862" style="mask-type:luminance" maskUnits="userSpaceOnUse" x="0" y="0" width="233" height="46">
<path d="M232.5 0H0.5V45.4357H232.5V0Z" fill="white"/>
</mask>
<g mask="url(#mask0_228_862)">
<path d="M0.86684 30.867L3.80156 30.3953V3.35396L0.5 2.88231L0.657217 0H21.0954L20.6238 8.17529L16.5361 8.07048L16.2741 2.93472H9.98543V15.0928H12.7629L13.3918 12.3153L16.2741 12.3677V20.7527H13.4442L12.7629 17.8703H9.98543V30.7621H16.3265L16.903 25.1547L21.2002 25.3119L21.5147 33.8541H0.709623L0.86684 30.867Z" fill="white"/>
<path d="M23.4016 33.9067L23.5064 31.3913L25.8122 30.9196V13.8877L23.1396 13.6257V11.0578L29.8475 10.1145L30.3715 11.5819V12.5252C31.9961 10.8482 33.9351 9.85254 36.4506 9.85254C40.119 9.85254 42.7917 12.0535 42.7917 16.4556V30.9196L45.2548 31.3913L45.0451 33.9067H37.1319V17.6609C37.1319 15.3027 36.2934 13.9925 34.1972 13.9925C33.4635 13.9925 32.9918 14.1498 32.4154 14.307C32.0485 14.569 31.7341 15.0407 31.4721 15.4075V30.9196L33.8827 31.3913L33.7255 33.9067C33.6731 33.9067 23.4016 33.9067 23.4016 33.9067Z" fill="white"/>
<path d="M151.586 33.9067L151.69 31.3913L153.996 30.9196V13.8877L151.323 13.6257V11.0578L158.031 10.1145L158.555 11.5819V12.5252C160.18 10.8482 162.119 9.85254 164.635 9.85254C168.303 9.85254 170.976 12.0535 170.976 16.4556V30.9196L173.439 31.3913L173.281 33.9067H165.368V17.6609C165.368 15.3027 164.53 13.9925 162.433 13.9925C161.7 13.9925 161.228 14.1498 160.652 14.307C160.285 14.569 159.97 15.0407 159.708 15.4075V30.9196L162.119 31.3913L161.962 33.9067H151.586Z" fill="white"/>
<path d="M57.8319 33.4345C56.8886 33.8014 55.264 34.273 53.063 34.273C50.2331 34.273 47.5604 33.0153 47.5604 28.8228V13.8348L44.8877 13.4155L44.9925 10.4284L48.032 10.2712L49.3422 5.71191L53.2202 5.55469V10.4284H57.4651L57.1506 13.4155L53.325 13.8348V28.7704C53.325 30.0282 54.0063 30.8142 55.264 30.8142H57.5699L57.8319 33.4345Z" fill="white"/>
<path d="M216.674 33.9061L216.778 31.443L218.927 30.9714V13.8871L216.359 13.6251V11.0572L223.277 10.1139L223.748 11.7909V12.3149C225.583 10.9524 228.046 10.0615 230.98 10.0615L232.028 10.9524L231.295 17.3459L227.469 17.1887L227.102 13.7299C226.211 13.8871 225.373 14.0967 224.639 14.6208V30.919L227.05 31.3906L226.893 33.8537L216.674 33.9061Z" fill="white"/>
<path d="M116.736 33.9061L116.841 31.443L118.989 30.9714V13.8871L116.421 13.6251V11.0572L123.339 10.1139L123.811 11.7909V12.3149C125.645 10.9524 128.108 10.0615 131.043 10.0615L132.091 10.9524L131.357 17.3459L127.531 17.1887L127.165 13.7299C126.274 13.8871 125.435 14.0967 124.701 14.6208V30.919L127.112 31.3906L126.955 33.8537L116.736 33.9061Z" fill="white"/>
<path d="M59.5616 33.9061L59.6664 31.443L61.815 30.9714V13.8871L59.2471 13.6251V11.0572L66.1647 10.1139L66.6363 11.7909V12.3149C68.4705 10.9524 70.9336 10.0615 73.8683 10.0615L74.9164 10.9524L74.1828 17.3459L70.3571 17.1887L69.9903 13.7299C69.0994 13.8871 68.2609 14.0967 67.5272 14.6208V30.919L69.9379 31.3906L69.7807 33.8537L59.5616 33.9061Z" fill="white"/>
<path d="M81.5192 23.5304C81.5192 27.618 83.301 30.7624 86.8121 30.7624C88.5939 30.7624 90.0613 30.3955 91.7907 29.6094L92.734 31.8629C91.0046 33.2254 88.4891 34.326 85.2924 34.326C79.1085 34.326 75.5449 28.9806 75.5449 22.1154C75.5449 16.246 78.1128 9.85254 85.24 9.85254C91.4238 9.85254 93.7821 15.5647 93.7821 21.9582L93.2056 23.478L81.5192 23.5304ZM81.4144 20.7529L88.5415 20.4384C88.3843 17.6085 87.8079 13.1016 85.0304 13.1016C84.3491 13.1016 83.8774 13.2065 83.0389 13.6781C81.886 15.6171 81.4144 19.1283 81.4144 20.7529Z" fill="white"/>
<path d="M180.147 23.5304C180.147 27.618 181.928 30.7624 185.44 30.7624C187.274 30.7624 188.689 30.3955 190.418 29.6094L191.361 31.8629C189.632 33.2254 187.117 34.326 183.92 34.326C177.736 34.326 174.172 28.9806 174.172 22.1154C174.172 16.246 176.74 9.85254 183.867 9.85254C190.051 9.85254 192.41 15.5647 192.41 21.9582L191.833 23.478L180.147 23.5304ZM180.042 20.7529L187.169 20.4384C187.012 17.6085 186.435 13.1016 183.658 13.1016C182.977 13.1016 182.505 13.2065 181.666 13.6781C180.513 15.6171 179.989 19.1283 180.042 20.7529Z" fill="white"/>
<path d="M138.694 23.5304C138.694 27.618 140.476 30.7624 143.987 30.7624C145.821 30.7624 147.236 30.3955 148.965 29.6094L149.909 31.8629C148.179 33.2254 145.664 34.326 142.467 34.326C136.283 34.326 132.719 28.9806 132.719 22.1154C132.719 16.246 135.287 9.85254 142.415 9.85254C148.598 9.85254 150.957 15.5647 150.957 21.9582L150.328 23.478L138.694 23.5304ZM138.589 20.7529L145.716 20.4384C145.559 17.6085 144.982 13.1016 142.205 13.1016C141.524 13.1016 141.052 13.2065 140.213 13.6781C139.061 15.6171 138.589 19.1283 138.589 20.7529Z" fill="white"/>
<path d="M208.393 33.9064L207.817 31.8626C206.245 33.3299 204.725 34.2208 202.367 34.2208C198.698 34.2208 195.449 32.3866 195.449 27.3557V13.2061L192.776 12.9441V10.6907L200.48 9.7998L201.056 11.8436V26.622C201.056 29.1899 202.105 30.5524 204.201 30.5524C204.777 30.5524 205.563 30.5 206.245 30.1856C206.611 29.8187 206.978 29.3471 207.293 28.8754V13.2585L204.515 12.9965V10.7431L212.324 9.85221L212.953 11.896V30.9193L215.363 31.3909L215.101 33.9064H208.393Z" fill="white"/>
<path d="M105.311 30.8669C104.054 30.8669 103.11 30.6572 102.324 30.238V15.1976C102.639 14.7259 103.058 14.2542 103.425 13.835C104.158 13.573 104.787 13.4682 105.521 13.4682C108.718 13.4682 109.242 16.7173 109.242 22.4819C109.242 28.0369 108.403 29.5567 108.194 30.1856C107.355 30.6572 106.464 30.8669 105.311 30.8669ZM114.797 21.4338C114.797 14.2543 112.648 9.7998 107.408 9.7998C103.896 9.7998 102.219 11.8436 101.538 12.6821V11.896L100.962 9.85221L94.0439 10.7955V13.2585L96.7167 13.6254V42.5533L94.4632 43.025L94.3583 45.4356H104.578L104.735 43.025L102.324 42.5533V33.3823C103.268 33.9064 104.63 34.2732 106.15 34.2732C114.744 34.2732 114.797 25.4691 114.797 21.4338Z" fill="white"/>
<path d="M230.561 30.6045C231.714 30.6045 232.448 31.2858 232.448 32.2815C232.448 33.2772 231.661 33.9585 230.561 33.9585C229.408 33.9585 228.674 33.2772 228.674 32.2815C228.674 31.2858 229.46 30.6045 230.561 30.6045ZM230.561 33.382C231.347 33.382 231.871 32.9104 231.871 32.2291C231.871 31.5478 231.347 31.0762 230.561 31.0762C229.775 31.0762 229.251 31.5478 229.251 32.2291C229.251 32.9104 229.775 33.382 230.561 33.382ZM229.722 33.0152V32.8056L229.932 32.7532V31.705H229.722V31.4954H230.613C230.98 31.4954 231.347 31.6002 231.347 31.9671C231.347 32.2291 231.19 32.3339 231.033 32.4387C231.137 32.5959 231.295 32.7532 231.347 32.8056H231.504V33.0152H231.033C230.875 32.9104 230.718 32.7007 230.613 32.4387H230.456V32.7532L230.666 32.8056V33.0152H229.722ZM230.456 31.705V32.1243H230.613C230.823 32.1243 230.875 32.0195 230.875 31.9147C230.875 31.705 230.718 31.705 230.561 31.705H230.456Z" fill="white"/>
</g>
</g>
<defs>
<clipPath id="clip0_228_862">
<rect width="233" height="46" fill="white"/>
</clipPath>
</defs>
</svg>
