<svg xmlns="http://www.w3.org/2000/svg" width="89" height="122" fill="none"><path fill="#F2F2F2" d="M88.19 0H.13v88.401h88.06V0Z"/><path fill="#1B202F" d="M41.91 118.199h.376c.375 1.375 1.745 2.749 3.243 2.749 1.244 0 1.744-.867 1.744-1.745 0-2.378-5.235-2.762-5.235-5.757 0-1.387 1.37-2.637 2.868-2.637 1.498 0 2.121.508 2.743.508.246 0 .5-.259.5-.508h.377v3.256h-.377c-.376-1.498-1.498-2.501-2.867-2.501-1.122 0-1.498.755-1.498 1.374 0 2.13 5.241 2.13 5.241 5.757 0 1.634-1.375 2.885-3.12 2.885s-2.245-.631-2.997-.631c-.247 0-.5.136-.5.506h-.499v-3.256Zm-10.723 3.133v-.384c.999 0 1.245-.124 1.245-1.25v-6.883c0-1.127-.246-1.127-1.245-1.251v-.384h8.478v2.266h-.37c-.376-1.127-.752-1.511-2.744-1.511h-1.497c-.5 0-.623.124-.623.509v3.256h1.744c1.621 0 1.868-.261 2.121-1.387h.37v3.639h-.37c-.253-1.25-.752-1.511-2.12-1.511H34.43v3.505c0 .63.123.878 1.99.878 1.875 0 2.875-.372 3.744-2.13h.376l-.746 2.76h-8.608v-.122Zm-4.989-10.152h3.49v.384c-.998 0-1.245.124-1.245 1.251v7.006c0 1.127.247 1.127 1.246 1.263v.371H25.07v-.371c1 0 1.252-.136 1.252-1.263v-7.129l-3.366 8.888h-.5l-3.372-8.888v6.882c0 1.003.252 1.374 1.374 1.51v.371h-3.62v-.371c1.123-.136 1.376-.507 1.376-1.51v-6.882c0-.757-.253-1.004-1.375-1.004v-.371h3.743l2.744 7.13 2.872-7.267Zm-12.226 8.518c0 1.126.253 1.126 1.498 1.25v.384h-4.988v-.384c1.245 0 1.492-.124 1.492-1.25v-6.883c0-1.128-.247-1.128-1.492-1.251v-.384h4.988v.384c-1.245 0-1.498.124-1.498 1.251v6.883Zm-11.728 1.25c1.129 0 1.498-.124 1.498-1.25v-7.886H2.497c-1.122 0-1.622.507-1.998 1.882H0l.253-2.637H9.23l.252 2.637h-.5c-.375-1.375-.751-1.882-1.997-1.882H5.741v7.886c0 1.127.246 1.127 1.498 1.25v.384H2.374v-.384h-.13Zm77.339-16.019v-.384c.998 0 1.245-.125 1.245-1.25v-7.006c0-1.129-.247-1.129-1.245-1.251v-.384h4.735v.384c-1.122 0-1.368.123-1.368 1.251v7.129c0 .631.123.879 1.368.879 1.876 0 2.874-.371 3.742-2.129h.377l-.745 2.761h-8.109Zm-8.108-3.764 1.498-3.998 1.492 3.998h-2.99Zm7.233 3.764v-.384c-.746 0-1-.372-1.37-1.25l-3.618-8.766h-.5l-3.743 9.149c-.247.62-.622.867-1.245.99v.384h3.243v-.384c-.751 0-1-.123-1-.618 0-.372.5-1.498.624-1.882h3.743c.124.384.622 1.51.622 1.882 0 .495-.368.618-1.122.618v.384h4.366v-.123Zm-12.973-1.634c0 1.126.252 1.126 1.497 1.25v.384h-4.988v-.384c1.246 0 1.499-.125 1.499-1.25v-7.006c0-1.129-.253-1.129-1.499-1.251v-.384h4.988v.384c-1.245 0-1.497.123-1.497 1.251v7.006Zm-4.866-.879c-1.122 1.882-2.49 2.636-4.611 2.636-3.367 0-5.242-2.129-5.242-5.384 0-2.377 1.875-5.262 5.365-5.262 1.122 0 2.62.632 2.744.632.252 0 .375-.125.622-.632h.5l.253 3.38H60c-.623-1.622-1.621-2.748-3.495-2.748-2.368 0-3.49 2.624-3.49 4.63 0 2.748 1.122 4.629 3.741 4.629 1.993 0 3.12-1.498 3.492-2.129l.621.248Zm-12.842-5.88c0-1.003-.254-1.375-1.375-1.498v-.384h3.619v.384c-1.122.123-1.376.495-1.376 1.497v8.517h-.5l-6.98-8.008v5.879c0 1.003.248 1.375 1.37 1.498v.383h-3.619v-.383c1.122-.123 1.375-.495 1.375-1.498v-6.882c-.376-.632-.746-.88-1.375-1.003v-.384h2.744l6.117 7.02v-5.139Zm-17.216 4.629 1.498-3.998 1.498 3.998h-2.996Zm7.232 3.764v-.384c-.746 0-.992-.372-1.368-1.25l-3.62-8.766h-.5l-3.742 9.149c-.247.62-.623.867-1.245.99v.384h3.243v-.384c-.746 0-.999-.123-.999-.618 0-.372.5-1.498.622-1.882h3.744c.123.384.623 1.51.623 1.882 0 .495-.37.618-1.123.618v.384h4.366v-.123Zm-12.72-8.394c0-1.002-.253-1.374-1.375-1.497v-.384h3.62v.384c-1.123.123-1.37.495-1.37 1.497v8.517h-.5l-6.985-8.008v5.879c0 1.003.247 1.375 1.369 1.498v.383h-3.613v-.383c1.122-.123 1.369-.495 1.369-1.498v-6.882c-.376-.632-.746-.88-1.369-1.003v-.384h2.867l6.11 7.02v-5.139h-.123Zm-11.974 6.76c0 1.126.246 1.126 1.498 1.25v.384H9.854v-.384c1.251 0 1.498-.125 1.498-1.25v-7.006c0-1.129-.247-1.129-1.498-1.251v-.384h4.995v.384c-1.253 0-1.499.123-1.499 1.251v7.006Zm-9.976 0c0 1.126.246 1.126 1.492 1.25v.384H0v-.384c.999 0 1.252-.125 1.252-1.25v-7.006c0-1.129-.253-1.129-1.252-1.251v-.384h8.484v2.253h-.376c-.37-1.127-.746-1.499-2.743-1.499H3.866c-.493 0-.623.124-.623.495v3.269h1.752c1.615 0 1.867-.26 2.114-1.386h.376v3.639H7.11c-.247-1.263-.746-1.51-2.114-1.51H3.243v3.38h.13ZM80.706 12.64H45.782l-.753 8.764h1.998c1.245-4.258 3.12-5.88 7.356-5.88h4.864V46.2c0 4.134-1.121 4.63-5.61 4.752v1.512h19.206v-1.512c-4.49-.123-5.611-.618-5.611-4.753V15.524h4.864c4.243 0 6.112 1.498 7.363 5.88h1.99l-.743-8.764ZM22.703 46.2c0 4.135 1.122 4.63 5.863 4.753v1.512H9.73v-1.512c3.865-.123 4.987-.618 4.987-4.753V18.904c0-4.135-1.122-4.63-4.864-4.754v-1.51h33.185l.246 8.764h-1.622c-1.374-4.505-2.866-5.88-10.729-5.88h-5.986c-1.868 0-2.244.372-2.244 2.005v12.64H25.7c6.234 0 7.48-1.127 8.355-5.261h1.498v14.149h-1.498c-.875-4.753-3.12-5.88-8.355-5.88h-2.996V46.2Z"/></svg>