<svg xmlns="http://www.w3.org/2000/svg" width="152" height="58" fill="none"><g clip-path="url(#a)"><path fill="#1B202F" d="M0 .014h152v57.973H0V.014Z"/><path fill="#fff" d="M88.971 20.456c-1.911 0-3.413.404-4.915 1.209 0-4.298 0-8.191.138-9.534l-9.15 1.61v.807l.956.134c1.227.268 1.639.939 1.91 2.551.275 3.223.137 20.412 0 23.233 2.457.537 5.053.94 7.648.94 7.237 0 11.606-4.431 11.606-11.415 0-5.505-3.55-9.535-8.193-9.535Zm-3.14 19.473c-.547 0-1.23 0-1.64-.134-.136-1.88-.272-9.804-.136-16.787.819-.269 1.365-.403 2.048-.403 3.006 0 4.645 3.491 4.645 7.788 0 5.373-2.05 9.535-4.918 9.535Zm-45.2-27.261H16.597v1.208l1.366.134c1.775.268 2.458 1.343 2.73 3.894.411 4.835.274 13.564 0 17.726-.273 2.552-.955 3.761-2.73 3.894l-1.366.27v1.074h15.431v-1.075l-1.639-.27c-1.775-.133-2.457-1.341-2.73-3.893-.138-1.747-.274-4.567-.274-8.058l3.277.134c2.049 0 3.004 1.612 3.414 3.894h1.23v-9.532h-1.23c-.41 2.284-1.365 3.894-3.414 3.894l-3.276.135c0-4.566.136-8.863.273-11.414h4.78c3.687 0 5.599 2.282 6.964 6.311l1.365-.403-.137-7.923Z"/><path fill="#fff" d="M48.415 20.188c6.828 0 10.242 4.566 10.242 10.609 0 5.774-3.824 10.61-10.652 10.61-6.827 0-10.241-4.567-10.241-10.61 0-5.775 3.823-10.61 10.651-10.61Zm-.41 1.343c-3.004 0-3.824 4.029-3.824 9.266 0 5.103 1.366 9.266 4.098 9.266 3.138 0 3.959-4.03 3.959-9.266 0-5.103-1.364-9.266-4.233-9.266Zm50.934 9.4c0-5.505 3.55-10.743 10.514-10.743 5.734 0 8.466 4.164 8.466 9.669H105.22c-.138 4.969 2.32 8.595 7.237 8.595 2.185 0 3.277-.536 4.644-1.477l.545.671c-1.366 1.88-4.37 3.761-8.193 3.761-6.145 0-10.514-4.297-10.514-10.475Zm6.281-2.55 6.418-.136c0-2.685-.41-6.714-2.731-6.714-2.321 0-3.552 3.76-3.687 6.85Zm28.952-7.118c-1.639-.673-3.823-1.075-6.281-1.075-5.052 0-8.194 2.954-8.194 6.446 0 3.492 2.319 4.969 5.6 6.043 3.413 1.208 4.369 2.149 4.369 3.76 0 1.612-1.229 3.088-3.414 3.088-2.594 0-4.507-1.476-6.008-5.506l-.957.27.138 5.908c1.638.671 4.642 1.21 7.237 1.21 5.326 0 8.74-2.688 8.74-6.85 0-2.82-1.503-4.431-5.053-5.775-3.824-1.477-5.188-2.416-5.188-4.163 0-1.745 1.231-2.954 2.869-2.954 2.457 0 4.095 1.477 5.326 5.103l.955-.268-.139-5.237Zm-57.764-.538c-2.32-1.341-6.418-.671-8.602 4.164l.135-4.7-9.148 1.745v.806l.956.134c1.23.135 1.775.806 1.912 2.553.273 3.223.137 8.864 0 11.683-.137 1.61-.682 2.416-1.912 2.55l-.956.136v1.074h12.7v-1.074l-1.64-.135c-1.364-.135-1.774-.94-1.912-2.55-.273-2.553-.273-7.656-.135-10.879.682-.94 3.686-1.745 6.417 0l2.185-5.507Z"/></g><defs><clipPath id="a"><path fill="#fff" d="M0 0h152v58H0z"/></clipPath></defs></svg>