<?xml version="1.0" encoding="UTF-8" standalone="no"?>
<!DOCTYPE svg PUBLIC "-//W3C//DTD SVG 1.1//EN" "http://www.w3.org/Graphics/SVG/1.1/DTD/svg11.dtd">
<svg width="100%" height="100%" viewBox="0 0 566 566" version="1.1" xmlns="http://www.w3.org/2000/svg" xmlns:xlink="http://www.w3.org/1999/xlink" xml:space="preserve" xmlns:serif="http://www.serif.com/" style="fill-rule:evenodd;clip-rule:evenodd;stroke-linecap:round;stroke-linejoin:round;stroke-miterlimit:1.5;">
    <g transform="matrix(1,0,0,1,-640.338,-254.653)">
        <path d="M1206.14,254.653L1206.14,820.453L640.338,820.453L640.338,254.653L1206.14,254.653ZM1204.98,255.807L641.492,255.807L641.492,819.299L1204.98,819.299L1204.98,255.807Z" style="fill:rgb(230,0,0);"/>
        <rect x="640.338" y="254.653" width="565.8" height="565.8" style="fill:rgb(255,0,0);"/>
        <g transform="matrix(5.43797,0,0,5.43797,-274.856,-3652.7)">
            <g transform="matrix(1,0,0,1,179.364,798.253)">
                <text x="0px" y="0px" style="font-family:'Oswald-Bold', 'Oswald';font-weight:700;font-size:12px;fill:white;">INVEST CONNECT</text>
            </g>
            <g transform="matrix(1,0,0,1,193.158,809.977)">
                <text x="0px" y="0px" style="font-family:'Oswald-Bold', 'Oswald';font-weight:700;font-size:9.195px;fill:white;">MARKETPLA<tspan x="44.743px " y="0px ">C</tspan>E</text>
            </g>
        </g>
        <g transform="matrix(0.375428,0,0,0.375428,-85.0585,9.88296)">
            <path d="M2685.73,876.772L2974.09,1043.26L2974.09,1376.23L2685.73,1542.72L2397.37,1376.23L2397.37,1043.26L2685.73,876.772Z" style="fill:none;stroke:white;stroke-width:18.1px;"/>
            <path d="M2685.73,876.772L2974.09,1043.26L2974.09,1376.23L2685.73,1542.72L2397.37,1376.23L2397.37,1043.26L2685.73,876.772Z" style="fill:rgb(255,0,0);stroke:white;stroke-width:18.1px;stroke-linecap:butt;stroke-miterlimit:2;"/>
        </g>
        <g transform="matrix(0.217556,0,0,0.217556,666.154,185.383)">
            <circle cx="1181.69" cy="706.321" r="47.447" style="fill:none;stroke:white;stroke-width:55.16px;"/>
            <circle cx="1181.69" cy="706.321" r="47.447" style="fill:rgb(255,0,0);"/>
            <circle cx="1181.69" cy="706.321" r="47.447" style="fill:none;stroke:white;stroke-width:55.16px;stroke-linecap:butt;stroke-miterlimit:2;"/>
            <circle cx="1181.69" cy="706.321" r="47.447" style="fill:rgb(255,0,0);"/>
        </g>
        <g transform="matrix(0.217556,0,0,0.217556,645.509,317.198)">
            <circle cx="1181.69" cy="706.321" r="47.447" style="fill:white;stroke:white;stroke-width:31.23px;stroke-linecap:butt;stroke-miterlimit:2;"/>
        </g>
        <g transform="matrix(0.217556,0,0,0.217556,712.427,275.467)">
            <circle cx="1181.69" cy="706.321" r="47.447" style="fill:white;stroke:white;stroke-width:31.23px;stroke-linecap:butt;stroke-miterlimit:2;"/>
        </g>
        <g transform="matrix(0.217556,0,0,0.217556,666.154,435.397)">
            <circle cx="1181.69" cy="706.321" r="47.447" style="fill:white;stroke:white;stroke-width:31.23px;stroke-linecap:butt;stroke-miterlimit:2;"/>
        </g>
        <g transform="matrix(0.217556,0,0,0.217556,557.894,369.926)">
            <circle cx="1181.69" cy="706.321" r="47.447" style="fill:none;stroke:white;stroke-width:55.16px;"/>
            <circle cx="1181.69" cy="706.321" r="47.447" style="fill:rgb(255,0,0);"/>
            <circle cx="1181.69" cy="706.321" r="47.447" style="fill:none;stroke:white;stroke-width:55.16px;stroke-linecap:butt;stroke-miterlimit:2;"/>
            <circle cx="1181.69" cy="706.321" r="47.447" style="fill:rgb(255,0,0);"/>
        </g>
        <g transform="matrix(0.217556,0,0,0.217556,774.413,369.93)">
            <circle cx="1181.69" cy="706.321" r="47.447" style="fill:none;stroke:white;stroke-width:55.16px;"/>
            <circle cx="1181.69" cy="706.321" r="47.447" style="fill:rgb(255,0,0);"/>
            <circle cx="1181.69" cy="706.321" r="47.447" style="fill:none;stroke:white;stroke-width:55.16px;stroke-linecap:butt;stroke-miterlimit:2;"/>
            <circle cx="1181.69" cy="706.321" r="47.447" style="fill:rgb(255,0,0);"/>
        </g>
        <g transform="matrix(0.217556,0,0,0.217556,557.894,250.846)">
            <circle cx="1181.69" cy="706.321" r="47.447" style="fill:white;stroke:white;stroke-width:55.16px;stroke-linecap:butt;stroke-miterlimit:2;"/>
        </g>
        <g transform="matrix(0.217556,0,0,0.217556,774.413,250.85)">
            <circle cx="1181.69" cy="706.321" r="47.447" style="fill:white;stroke:white;stroke-width:31.23px;stroke-linecap:butt;stroke-miterlimit:2;"/>
        </g>
        <g transform="matrix(0.286544,-0.0158859,-0.0158859,0.306374,598.944,146.609)">
            <path d="M1149.35,730.769L863.061,1246.93" style="fill:none;stroke:white;stroke-width:24.2px;"/>
        </g>
        <g transform="matrix(0.278257,-0.003396,-0.003396,0.299729,596.609,137.236)">
            <path d="M1186.52,730.769L1115.53,1128.24" style="fill:none;stroke:white;stroke-width:23.78px;"/>
        </g>
        <g transform="matrix(0.285557,0.0140928,0.0140928,0.303116,570.069,113.486)">
            <path d="M1223.68,730.769L1511.2,1248.66" style="fill:none;stroke:white;stroke-width:22.02px;"/>
        </g>
        <g transform="matrix(0.306796,0,0,0.318372,557.681,112.215)">
            <path d="M878.903,1275L1351.8,995.428L1124.35,1133.41L1499.15,1292.13" style="fill:none;stroke:white;stroke-width:21.73px;"/>
        </g>
        <g transform="matrix(0.28922,-1.85208e-05,-1.85208e-05,0.277733,573.153,156.09)">
            <path d="M883.212,1307.17L1499.15,1307.29" style="fill:none;stroke:white;stroke-width:23.97px;"/>
        </g>
    </g>
</svg>
