<?xml version="1.0" encoding="UTF-8" standalone="no"?>
<!DOCTYPE svg PUBLIC "-//W3C//DTD SVG 1.1//EN" "http://www.w3.org/Graphics/SVG/1.1/DTD/svg11.dtd">
<svg width="100%" height="100%" viewBox="0 0 438 433" version="1.1" xmlns="http://www.w3.org/2000/svg" xmlns:xlink="http://www.w3.org/1999/xlink" xml:space="preserve" xmlns:serif="http://www.serif.com/" style="fill-rule:evenodd;clip-rule:evenodd;stroke-linejoin:round;stroke-miterlimit:2;">
    <g transform="matrix(1,0,0,1,-64.1626,-65.8075)">
        <g transform="matrix(1,0,0,1,-640.338,-254.653)">
            <g transform="matrix(5.43797,0,0,5.43797,-274.856,-3652.7)">
                <g transform="matrix(1,0,0,1,179.364,798.253)">
                    <text x="0px" y="0px" style="font-family:'Oswald-Bold', 'Oswald';font-weight:700;font-size:12px;fill:white;">INVEST CONNECT</text>
                </g>
                <g transform="matrix(1,0,0,1,193.158,809.977)">
                    <text x="0px" y="0px" style="font-family:'Oswald-Bold', 'Oswald';font-weight:700;font-size:9.195px;fill:white;">MARKETPLA<tspan x="44.743px " y="0px ">C</tspan>E</text>
                </g>
            </g>
        </g>
        <g transform="matrix(1,0,0,1,-640.338,-254.653)">
            <g transform="matrix(0.375428,0,0,0.375428,-85.0585,9.88296)">
                <path d="M2397.37,1335.72L2397.37,1043.26L2658.06,892.749" style="fill:none;stroke:white;stroke-width:18.1px;"/>
            </g>
        </g>
        <g transform="matrix(1,0,0,1,-640.338,-254.653)">
            <g transform="matrix(0.375428,0,0,0.375428,-85.0585,9.88296)">
                <path d="M2712.08,891.986L2974.09,1043.26L2974.09,1333.53" style="fill:none;stroke:white;stroke-width:18.1px;"/>
            </g>
        </g>
        <g transform="matrix(1,0,0,1,-640.338,-254.653)">
            <g transform="matrix(0.375428,0,0,0.375428,-85.0585,9.88296)">
                <path d="M2952.94,1397.38L2685.73,1542.72L2424.86,1392.1" style="fill:none;stroke:white;stroke-width:18.1px;"/>
            </g>
        </g>
        <g transform="matrix(1,0,0,1,-640.338,-254.653)">
            <g transform="matrix(0.217556,0,0,0.217556,645.509,317.198)">
                <circle cx="1181.69" cy="706.321" r="47.447" style="fill:white;stroke:white;stroke-width:31.23px;"/>
            </g>
        </g>
        <g transform="matrix(1,0,0,1,-640.338,-254.653)">
            <g transform="matrix(0.217556,0,0,0.217556,712.427,275.467)">
                <circle cx="1181.69" cy="706.321" r="47.447" style="fill:white;stroke:white;stroke-width:31.23px;"/>
            </g>
        </g>
        <g transform="matrix(1,0,0,1,-640.338,-254.653)">
            <g transform="matrix(0.217556,0,0,0.217556,666.154,435.397)">
                <circle cx="1181.69" cy="706.321" r="47.447" style="fill:white;stroke:white;stroke-width:31.23px;"/>
            </g>
        </g>
        <g transform="matrix(1,0,0,1,-640.338,-254.653)">
            <g transform="matrix(0.217556,0,0,0.217556,557.894,250.846)">
                <circle cx="1181.69" cy="706.321" r="47.447" style="fill:white;stroke:white;stroke-width:55.16px;"/>
            </g>
        </g>
        <g transform="matrix(1,0,0,1,-640.338,-254.653)">
            <g transform="matrix(0.217556,0,0,0.217556,774.413,250.85)">
                <circle cx="1181.69" cy="706.321" r="47.447" style="fill:white;stroke:white;stroke-width:31.23px;"/>
            </g>
        </g>
        <g transform="matrix(1,0,0,1,-640.338,-254.653)">
            <g transform="matrix(0.286544,-0.0158859,-0.0158859,0.306374,598.944,146.609)">
                <path d="M1149.35,730.769L863.061,1246.93" style="fill:none;stroke:white;stroke-width:24.2px;stroke-linecap:round;stroke-miterlimit:1.5;"/>
            </g>
        </g>
        <g transform="matrix(1,0,0,1,-640.338,-254.653)">
            <g transform="matrix(0.278257,-0.003396,-0.003396,0.299729,596.609,137.236)">
                <path d="M1186.52,730.769L1115.53,1128.24" style="fill:none;stroke:white;stroke-width:23.78px;stroke-linecap:round;stroke-miterlimit:1.5;"/>
            </g>
        </g>
        <g transform="matrix(1,0,0,1,-640.338,-254.653)">
            <g transform="matrix(0.285557,0.0140928,0.0140928,0.303116,570.069,113.486)">
                <path d="M1223.68,730.769L1511.2,1248.66" style="fill:none;stroke:white;stroke-width:22.02px;stroke-linecap:round;stroke-miterlimit:1.5;"/>
            </g>
        </g>
        <g transform="matrix(1,0,0,1,-640.338,-254.653)">
            <g transform="matrix(0.306796,0,0,0.318372,557.681,112.215)">
                <path d="M878.903,1275L1351.8,995.428L1124.35,1133.41L1499.15,1292.13" style="fill:none;stroke:white;stroke-width:21.73px;stroke-linecap:round;stroke-miterlimit:1.5;"/>
            </g>
        </g>
        <g transform="matrix(1,0,0,1,-640.338,-254.653)">
            <g transform="matrix(0.28922,-1.85208e-05,-1.85208e-05,0.277733,573.153,156.09)">
                <path d="M883.212,1307.17L1499.15,1307.29" style="fill:none;stroke:white;stroke-width:23.97px;stroke-linecap:round;stroke-miterlimit:1.5;"/>
            </g>
        </g>
        <g transform="matrix(1,0,0,1,-640.338,-254.653)">
            <g transform="matrix(0.363377,0,0,0.363377,385.579,266.934)">
                <path d="M1181.69,658.874C1207.88,658.874 1229.14,680.134 1229.14,706.321C1229.14,732.508 1207.88,753.768 1181.69,753.768C1155.5,753.768 1134.24,732.508 1134.24,706.321C1134.24,680.134 1155.5,658.874 1181.69,658.874ZM1181.7,677.903C1166.02,677.903 1153.29,690.632 1153.29,706.31C1153.29,721.988 1166.02,734.717 1181.7,734.717C1197.38,734.717 1210.11,721.988 1210.11,706.31C1210.11,690.632 1197.38,677.903 1181.7,677.903Z" style="fill:white;"/>
            </g>
        </g>
        <g transform="matrix(1,0,0,1,-640.338,-254.653)">
            <g transform="matrix(0.363377,0,0,0.363377,602.098,266.934)">
                <path d="M1181.69,658.874C1207.88,658.874 1229.14,680.134 1229.14,706.321C1229.14,732.508 1207.88,753.768 1181.69,753.768C1155.5,753.768 1134.24,732.508 1134.24,706.321C1134.24,680.134 1155.5,658.874 1181.69,658.874ZM1181.7,677.903C1166.02,677.903 1153.29,690.632 1153.29,706.31C1153.29,721.988 1166.02,734.717 1181.7,734.717C1197.38,734.717 1210.11,721.988 1210.11,706.31C1210.11,690.632 1197.38,677.903 1181.7,677.903Z" style="fill:white;"/>
            </g>
        </g>
        <g transform="matrix(1,0,0,1,-640.338,-254.653)">
            <g transform="matrix(0.363377,0,0,0.363377,493.839,81.0408)">
                <path d="M1181.69,658.874C1207.88,658.874 1229.14,680.134 1229.14,706.321C1229.14,732.508 1207.88,753.768 1181.69,753.768C1155.5,753.768 1134.24,732.508 1134.24,706.321C1134.24,680.134 1155.5,658.874 1181.69,658.874ZM1181.7,677.903C1166.02,677.903 1153.29,690.632 1153.29,706.31C1153.29,721.988 1166.02,734.717 1181.7,734.717C1197.38,734.717 1210.11,721.988 1210.11,706.31C1210.11,690.632 1197.38,677.903 1181.7,677.903Z" style="fill:white;"/>
            </g>
        </g>
    </g>
</svg>
