<svg width="186" height="44" viewBox="0 0 186 44" fill="none" xmlns="http://www.w3.org/2000/svg">
<g clip-path="url(#clip0_228_1000)">
<mask id="mask0_228_1000" style="mask-type:luminance" maskUnits="userSpaceOnUse" x="0" y="0" width="186" height="44">
<path d="M186 0H0V44H186V0Z" fill="white"/>
</mask>
<g mask="url(#mask0_228_1000)">
<path d="M11.7111 33.825C9.91999 33.825 8.12888 33.55 6.33776 33.1375C4.68443 32.725 3.0311 32.175 1.65332 31.4875L1.92888 24.75H3.30665L4.82221 28.05C5.23554 28.875 5.64888 29.7 6.19999 30.3875C6.7511 31.075 7.43999 31.4875 8.12888 31.7625C8.67999 32.0375 9.2311 32.175 9.64443 32.175C10.1955 32.3125 10.7467 32.3125 11.2978 32.3125C12.9511 32.45 14.7422 31.9 15.9822 30.8C17.0844 29.8375 17.7733 28.325 17.7733 26.8125C17.9111 25.575 17.36 24.2 16.5333 23.2375C15.4311 22.1375 14.1911 21.3125 12.6755 20.7625L10.6089 19.9375C8.26665 18.975 6.06221 17.6 4.13332 15.8125C2.47999 14.1625 1.65332 11.825 1.7911 9.4875C1.7911 7.7 2.20443 5.9125 3.30665 4.5375C4.40888 3.1625 5.78665 2.0625 7.43999 1.375C9.64443 0.275 11.7111 0 13.7778 0C15.4311 0 17.0844 0.275 18.6 0.6875C19.9778 1.1 21.3555 1.7875 22.5955 2.475L22.32 8.525H20.9422L19.1511 4.8125C18.7378 4.125 18.1867 3.3 17.6355 2.6125C17.2222 2.2 16.5333 1.7875 15.8444 1.65C15.4311 1.65 15.1555 1.5125 14.88 1.5125C14.4667 1.5125 14.1911 1.5125 13.7778 1.5125C12.2622 1.5125 10.8844 1.925 9.64443 2.8875C8.54221 3.85 7.85332 5.225 7.9911 6.7375C7.9911 8.1125 8.40443 9.4875 9.36888 10.5875C10.4711 11.6875 11.7111 12.5125 13.2267 13.2L15.4311 14.1625C18.6 15.5375 20.8044 16.9125 22.1822 18.5625C23.56 20.2125 24.2489 22.275 24.2489 24.475C24.3867 27.225 23.1467 29.7 20.9422 31.35C18.6 32.8625 15.5689 33.825 11.7111 33.825ZM34.4444 33.6875C32.7911 33.825 31 33.275 29.76 32.175C28.6578 31.2125 27.9689 29.5625 27.9689 27.3625V25.1625V22.6875V11.1375H24.5244V10.175L25.9022 10.0375C26.7289 9.9 27.5555 9.625 28.2444 9.2125C28.9333 8.8 29.6222 8.1125 30.0355 7.425L33.2044 3.025H34.72L34.5822 9.625H40.0933V11.1375H34.4444V27.6375C34.3067 28.6 34.5822 29.5625 35.1333 30.25C35.5466 30.8 36.2355 31.075 37.0622 31.075C37.6133 31.075 38.3022 30.9375 38.8533 30.6625C39.4044 30.3875 39.9555 29.8375 40.3689 29.425L41.0578 30.1125C40.5067 31.2125 39.5422 32.0375 38.44 32.5875C37.2 33.4125 35.8222 33.6875 34.4444 33.6875ZM51.8044 30.525C52.4933 30.525 53.0444 30.3875 53.5955 30.1125C54.4222 29.7 55.1111 29.15 55.8 28.6V20.7625C54.9733 20.9 54.1467 21.0375 53.1822 21.3125C51.9422 21.5875 50.7022 22.1375 49.8755 23.1C49.0489 24.0625 48.4978 25.3 48.6355 26.675C48.4978 27.775 48.9111 28.7375 49.6 29.5625C50.1511 30.25 50.9778 30.525 51.8044 30.525ZM49.0489 33.6875C47.3955 33.6875 45.7422 33.1375 44.3644 32.175C42.9867 31.075 42.2978 29.425 42.4355 27.6375C42.4355 26.125 43.2622 24.6125 44.64 23.375C46.1555 22 48.4978 21.0375 51.8044 20.4875C52.3555 20.35 53.0444 20.2125 53.7333 20.075C54.4222 19.9375 55.2489 19.8 55.9378 19.6625V16.225C55.9378 14.025 55.6622 12.5125 55.1111 11.6875C54.56 10.8625 53.4578 10.3125 52.4933 10.45H52.3555C51.6666 10.45 50.9778 10.5875 50.5644 11.1375C50.0133 11.825 49.7378 12.65 49.7378 13.475L49.6 14.1625C49.6 15.2625 49.1866 16.225 48.6355 17.05C48.0844 17.6 47.2578 18.0125 46.4311 18.0125C45.7422 18.0125 44.9155 17.7375 44.3644 17.1875C43.8133 16.6375 43.5378 15.95 43.5378 15.2625C43.5378 14.025 43.9511 12.7875 44.9155 11.9625C45.88 10.725 47.12 10.0375 48.36 9.625C50.0133 9.2125 51.5289 8.9375 53.1822 8.9375C56.0755 8.9375 58.28 9.625 59.7955 11C61.4489 12.375 62.2755 14.7125 62.2755 17.875V28.7375C62.2755 30.1125 62.9644 30.8 64.3422 30.8H65.4444L65.9955 31.35C65.4444 32.0375 64.7555 32.5875 64.0667 33.1375C63.1022 33.55 62.1378 33.825 61.1733 33.6875C59.9333 33.825 58.8311 33.4125 57.8666 32.725C57.04 32.0375 56.4889 31.075 56.2133 30.1125C55.2489 31.075 54.2844 32.0375 53.1822 32.725C51.8044 33.4125 50.4267 33.6875 49.0489 33.6875ZM66.1333 33V32.0375L66.8222 31.7625C67.3733 31.625 67.7867 31.35 68.2 30.9375C68.4755 30.525 68.6133 29.975 68.6133 29.425V15.2625C68.6133 14.7125 68.4755 14.1625 68.2 13.6125C67.9244 13.2 67.3733 12.925 66.8222 12.925L66.1333 12.7875V11.6875L74.1244 8.9375L74.6755 9.4875L75.0889 13.75V14.025C75.64 13.0625 76.1911 12.2375 76.88 11.55C77.5689 10.8625 78.3955 10.175 79.36 9.625C80.1867 9.2125 81.0133 8.9375 81.9778 8.9375C82.9422 8.8 84.0444 9.2125 84.7333 9.9C85.4222 10.5875 85.6978 11.4125 85.6978 12.375C85.6978 13.3375 85.4222 14.1625 84.7333 14.85C84.1822 15.4 83.3555 15.675 82.5289 15.675C81.1511 15.675 79.9111 14.9875 79.2222 13.8875L79.0844 13.75C78.8089 13.3375 78.3955 13.2 77.9822 13.0625C77.5689 13.0625 77.0178 13.3375 76.7422 13.6125C76.4667 14.025 76.0533 14.3 75.7778 14.7125C75.5022 15.2625 75.2266 15.675 75.0889 16.225V29.0125C75.0889 29.5625 75.2266 30.1125 75.5022 30.525C75.7778 30.9375 76.3289 31.35 76.88 31.35L78.3955 31.7625V33H66.1333ZM96.1689 33.6875C94.5155 33.825 92.7244 33.275 91.4844 32.175C90.3822 31.2125 89.6933 29.5625 89.6933 27.3625V25.1625V22.6875V11.1375H86.2489V10.175L87.4889 10.0375C88.3155 9.9 89.1422 9.625 89.8311 9.2125C90.52 8.8 91.2089 8.1125 91.6222 7.425L94.7911 3.025H96.3066V9.625H101.818V11.1375H96.1689V27.6375C96.0311 28.6 96.3066 29.5625 96.8578 30.25C97.2711 30.8 97.96 31.075 98.7867 31.075C99.3378 31.075 100.027 30.9375 100.578 30.6625C101.129 30.25 101.68 29.8375 102.093 29.425L102.782 30.1125C102.231 31.2125 101.267 32.0375 100.164 32.5875C98.9244 33.4125 97.5466 33.6875 96.1689 33.6875ZM112.151 33.6875C110.911 33.6875 109.809 33.55 108.707 33C107.604 32.45 106.778 31.625 106.227 30.6625C105.538 29.2875 105.262 27.9125 105.4 26.4L105.538 14.1625C105.538 13.6125 105.4 13.0625 105.262 12.65C104.987 12.2375 104.573 12.1 104.022 11.9625L103.471 11.825V10.8625L111.876 9.2125L112.427 9.7625L112.151 16.6375V27.6375C112.013 28.6 112.427 29.425 113.116 29.975C113.804 30.525 114.493 30.8 115.32 30.8C116.147 30.8 117.111 30.6625 117.938 30.3875C118.764 30.1125 119.591 29.7 120.28 29.15L120.418 14.1625C120.418 13.6125 120.418 13.0625 120.142 12.65C119.591 12.375 119.178 12.1 118.764 11.9625L118.213 11.825V11L126.342 9.35L126.893 9.9L126.756 16.775V29.5625C126.756 30.1125 126.756 30.6625 127.031 31.2125C127.307 31.625 127.72 32.0375 128.271 32.175L128.96 32.3125V33L120.693 33.55L120.142 30.3875C119.04 31.35 117.8 32.0375 116.56 32.725C115.182 33.4125 113.667 33.6875 112.151 33.6875ZM142.738 31.7625C144.391 31.7625 145.907 30.9375 146.733 29.425C147.698 27.9125 148.249 25.1625 148.249 21.45C148.249 17.7375 147.836 14.9875 146.871 13.6125C146.044 12.2375 144.529 11.275 142.876 11.4125C142.187 11.4125 141.498 11.55 140.809 11.6875C139.982 11.9625 139.293 12.2375 138.467 12.65V30.9375C139.982 31.4875 141.36 31.7625 142.738 31.7625ZM129.649 44.275V43.3125L130.338 43.175C130.889 43.0375 131.302 42.7625 131.716 42.35C131.991 41.9375 132.129 41.3875 132.129 40.8375V37.125V33.6875V17.6C132.129 16.9125 132.129 16.0875 132.129 15.125C132.129 14.575 131.991 14.025 131.853 13.6125C131.578 13.2 131.027 12.925 130.476 12.7875L129.787 12.65V11.6875L137.64 8.9375L138.053 9.4875L138.467 11.275C140.671 9.7625 143.289 8.9375 146.044 8.9375C148.662 8.8 151.142 10.0375 152.796 12.1C154.449 14.1625 155.276 17.1875 155.276 21.3125C155.276 25.1625 154.311 28.325 152.52 30.525C150.729 32.725 147.973 33.9625 145.08 33.825C143.84 33.825 142.738 33.6875 141.498 33.55C140.396 33.4125 139.431 33 138.467 32.5875V34.1V37.2625V40.975C138.329 42.075 139.018 43.175 140.12 43.45L141.084 43.725V44.6875H129.649V44.275ZM165.196 33.6875C163.818 33.6875 162.302 33.55 160.924 33.1375C159.684 32.8625 158.444 32.3125 157.342 31.7625V25.9875H158.72L160.236 28.7375C160.787 29.8375 161.476 30.6625 162.302 31.35C163.129 31.9 164.231 32.3125 165.333 32.175C166.573 32.175 167.951 31.9 169.053 31.2125C169.88 30.6625 170.431 29.5625 170.431 28.6C170.431 27.6375 170.156 26.675 169.467 26.125C168.364 25.3 167.124 24.6125 165.747 24.3375L163.542 23.65C161.751 23.2375 160.236 22.275 158.996 21.0375C157.893 19.8 157.204 18.2875 157.342 16.6375C157.342 15.2625 157.756 14.025 158.444 12.7875C159.271 11.55 160.373 10.5875 161.751 10.0375C163.404 9.35 165.196 8.9375 166.987 9.075C168.227 9.075 169.467 9.2125 170.707 9.4875C171.809 9.7625 172.911 10.175 174.013 10.725L173.738 15.95H172.498L170.982 13.2C170.569 12.375 170.018 11.6875 169.467 11C168.778 10.5875 167.813 10.3125 166.987 10.45C165.884 10.45 164.782 10.725 163.956 11.4125C163.129 11.9625 162.578 12.925 162.578 13.8875C162.578 14.85 162.991 15.675 163.68 16.3625C164.782 17.1875 166.022 17.7375 167.262 18.15L169.329 18.8375C171.671 19.525 173.324 20.625 174.427 21.8625C175.391 23.1 175.942 24.6125 175.942 26.2625C175.942 28.4625 174.978 30.525 173.187 31.7625C171.12 33 168.502 33.6875 165.196 33.6875ZM181.867 33.6875C180.764 33.6875 179.8 33.275 178.973 32.5875C178.147 31.9 177.733 30.8 177.733 29.7C177.733 28.6 178.147 27.5 178.973 26.8125C180.489 25.1625 183.107 25.1625 184.622 26.675C184.622 26.675 184.622 26.675 184.76 26.8125C185.587 27.6375 186 28.6 186 29.7C186 30.8 185.587 31.7625 184.76 32.5875C183.933 33.275 182.969 33.6875 181.867 33.6875Z" fill="white"/>
</g>
</g>
<defs>
<clipPath id="clip0_228_1000">
<rect width="186" height="44" fill="white"/>
</clipPath>
</defs>
</svg>
