<svg xmlns="http://www.w3.org/2000/svg" width="218" height="31" fill="none"><g clip-path="url(#a)"><path fill="#000" d="M61.085 0H40.724v10.308h20.361V0Z"/><path fill="#1B202F" d="M0 0v10.308h10.219V31h10.143V10.308H30.58V0H0ZM30.58 31H61.162V20.692H40.724V10.308H30.58V31ZM87.124 7.825H72.137v4.29h4.996v13.467h4.996V12.114h4.995V7.825ZM92.726 11.964c-3.558 0-6.132 2.332-6.132 6.922 0 4.063 2.196 6.922 6.283 6.922 2.12 0 3.785-.526 5.45-1.505l-1.74-2.934c-1.363.677-2.272.903-3.483.903-1.287 0-2.12-.677-2.27-2.107h7.872v-.903c0-4.89-2.271-7.298-5.98-7.298Zm-1.893 5.417c.152-1.354.757-2.031 1.817-2.031 1.362 0 1.817.677 2.044 2.031h-3.86ZM107.41 22.121c-1.286 0-1.892-1.128-1.892-3.235s.606-3.31 1.741-3.31c.984 0 1.438.526 2.044 1.73l3.179-2.408c-1.211-1.881-2.649-3.01-5.147-3.01-4.315 0-6.359 2.784-6.359 6.923 0 4.514 2.347 6.997 6.283 6.997 2.346 0 3.86-.903 5.374-3.16l-2.876-2.257c-.833 1.279-1.438 1.73-2.347 1.73ZM123.306 11.964c-1.589 0-2.498.526-3.406 1.204V7.073l-4.617 1.806v16.703h4.617v-7.599c0-1.655.606-2.107 1.59-2.107.908 0 1.513.452 1.513 2.182v7.524h4.618v-8.126c0-3.536-1.438-5.492-4.315-5.492ZM138.672 21.595c-2.119 0-3.028-2.182-3.028-4.891 0-2.784.909-4.89 2.953-4.89 1.665 0 2.27 1.053 2.876 2.708l4.466-1.73c-1.211-3.387-2.952-5.268-7.342-5.268-4.769 0-8.175 3.462-8.175 9.18 0 5.267 2.8 9.18 8.175 9.18 4.238 0 6.206-2.258 7.418-4.59l-4.164-2.182c-.908 1.655-1.589 2.483-3.179 2.483ZM153.508 13.243v-.979h-4.617v13.319h4.617v-7.299c0-1.655.682-2.182 1.817-2.182.908 0 1.59.451 2.119 1.129l1.06-4.74c-.53-.302-1.211-.527-2.195-.527-1.135 0-2.044.526-2.801 1.279ZM168.42 19.864c0 1.655-.605 2.107-1.514 2.107-.908 0-1.514-.452-1.514-2.182v-7.524h-4.617v8.126c0 3.536 1.438 5.493 4.315 5.493 1.589 0 2.498-.527 3.33-1.204v.902h4.618V12.265h-4.618v7.6ZM184.316 11.964c-1.59 0-2.498.526-3.406 1.203v-.902h-4.542v13.317h4.617v-7.599c0-1.655.606-2.107 1.59-2.107.908 0 1.514.452 1.514 2.182v7.524h4.617v-8.126c0-3.536-1.438-5.492-4.39-5.492ZM197.79 22.121c-1.287 0-1.893-1.128-1.893-3.235s.606-3.31 1.741-3.31c.984 0 1.438.526 2.044 1.73l3.179-2.408c-1.211-1.881-2.649-3.01-5.147-3.01-4.315 0-6.358 2.784-6.358 6.923 0 4.514 2.346 6.997 6.282 6.997 2.347 0 3.861-.903 5.375-3.16l-2.877-2.257c-.833 1.279-1.438 1.73-2.346 1.73ZM213.685 11.964c-1.589 0-2.497.526-3.406 1.204V7.073l-4.617 1.806v16.703h4.617v-7.599c0-1.655.606-2.107 1.59-2.107.908 0 1.514.452 1.514 2.182v7.524H218v-8.126c0-3.536-1.438-5.492-4.315-5.492Z"/></g><defs><clipPath id="a"><path fill="#fff" d="M0 0h218v31H0z"/></clipPath></defs></svg>