<svg xmlns="http://www.w3.org/2000/svg" xml:space="preserve" width="365.148" height="42.927" viewBox="0 0 96.612 11.358"><path d="M105.915 184.74a1.818 1.818 0 0 0-.297-.049c-.189-.016-.196-.02-.254-.104-.047-.07-.06-.119-.06-.237 0-.087-.025-.235-.06-.357a2.047 2.047 0 0 1-.06-.244c0-.02.044-.064.099-.098l.098-.062-.13-.138a2.205 2.205 0 0 1-.2-.24c-.037-.057-.072-.1-.077-.094a.437.437 0 0 0 .017.127c.115.512-.104 1.01-.459 1.043-.18.017-.27-.048-.493-.357-.103-.143-.342-.288-.638-.386-.205-.068-.255-.076-.389-.063-.172.018-.516.122-.81.246a2.177 2.177 0 0 1-.212.082.385.385 0 0 1-.09-.105l-.074-.106.187-.085a5.99 5.99 0 0 1 .404-.162c.809-.285 1.202-.221 1.755.285.147.135.227.156.295.08.08-.089.052-.157-.146-.342-.288-.268-.463-.383-.71-.462-.456-.147-.663-.104-2.826.584-1.207.384-1.73.531-2.26.639-.56.113-.767.132-1.703.158-1.146.03-2.004-.008-3.964-.183-.961-.085-.862-.054-.961-.309a1 1 0 0 1-.071-.224c.006-.006.147.017.313.05.242.05.551.078 1.556.145.69.046 1.52.096 1.846.111.769.036 2.116.017 2.368-.033.853-.172 1.747-.426 3.334-.947 1.237-.406 1.61-.488 2.103-.465.184.008.294.026.396.066.162.062.508.33.856.662.123.118.23.21.235.205a.574.574 0 0 0-.028-.159c-.033-.134-.063-.178-.31-.458-.149-.17-.388-.424-.53-.564l-.26-.253-.045.056c-.06.074-.141.06-.192-.033-.051-.092-.1-.1-.208-.038-.1.06-.209.065-.251.014-.046-.055-.105-.043-.182.037-.077.08-.267.149-.354.127-.07-.017-.14-.076-.14-.12s-.066-.04-.092.006c-.011.02-.06.043-.11.051l-.089.015v-.108c0-.1-.062-.213-.117-.213-.07 0-.11.082-.163.34-.075.359-.076.343.03.323.065-.012.085-.01.077.014-.009.027-.64.242-.713.242-.05 0-.038-.043.016-.06.087-.028.137-.128.206-.41.096-.393.072-.408-.195-.122-.179.19-.202.208-.19.145l.03-.194.016-.12.423-.146c.233-.08.437-.154.453-.164.08-.051-.027-.186-.147-.186-.019 0-.615.19-1.324.42-1.71.559-2.322.735-2.921.84-.208.037-1.39.045-2.02.014l-.387-.02-.033.127c-.042.163-.107.226-.275.264a.994.994 0 0 0-.137.036c0 .003.016.051.037.108a.44.44 0 0 1 .03.11 7.031 7.031 0 0 1-.513.247 3.336 3.336 0 0 1-.069-.195l-.062-.189.057-.022c.032-.012.136-.045.23-.074.172-.052.231-.104.167-.146a.115.115 0 0 0-.082-.008c-.292.087-.342.092-.426.043-.07-.04-.084-.064-.094-.155-.011-.098-.018-.108-.085-.115-.051-.006-.09-.034-.135-.099-.06-.085-.077-.093-.251-.123l-.187-.032-.08.095c-.069.08-.087.09-.126.066a.187.187 0 0 0-.113-.014c-.04.008-.075 0-.086-.017-.014-.023-.03-.024-.067-.004a.37.37 0 0 1-.17.01c-.11-.012-.124-.02-.13-.076-.007-.05-.028-.068-.115-.093-.13-.038-.171-.072-.114-.094.038-.014.038-.02.004-.072-.049-.076-.046-.112.013-.188a.148.148 0 0 1 .122-.064c.06 0 .077-.014.099-.075.023-.067.033-.073.098-.06.04.008.086.004.102-.01.019-.015.057-.015.111 0 .127.037.28.03.324-.015.059-.059.012-.089-.156-.101-.084-.006-.147-.022-.148-.038a.384.384 0 0 1 .054-.23c.026-.045.041-.087.035-.094a.441.441 0 0 0-.15.015c-.238.048-.283.04-.35-.062-.042-.065-.083-.096-.148-.111-.092-.022-.114-.048-.064-.079.036-.022-.021-.058-.094-.058-.031 0-.054-.015-.054-.036 0-.022-.04-.046-.105-.063-.086-.021-.116-.044-.16-.122a.425.425 0 0 0-.1-.125c-.062-.038-.06-.088.004-.072.028.007.076 0 .107-.017.032-.017.075-.024.097-.016.022.008.172-.017.334-.057.162-.04.335-.072.384-.072.098 0 .164-.065.164-.163 0-.045-.013-.055-.073-.055a.542.542 0 0 0-.189.059.955.955 0 0 1-.204.075c-.075.014-.09.01-.09-.024 0-.027-.014-.037-.042-.028-.156.046-.178.046-.192-.006-.01-.036-.032-.051-.078-.051-.079 0-.123-.04-.123-.112 0-.033-.029-.075-.072-.106-.051-.036-.073-.072-.073-.12 0-.037-.016-.08-.036-.097-.02-.017-.036-.043-.036-.058 0-.015-.036-.056-.08-.091-.062-.05-.097-.11-.148-.261-.037-.109-.06-.204-.052-.213.008-.008.064.01.124.038.09.044.111.047.122.018.01-.027.042-.016.144.05.072.045.158.093.191.106.055.02.061.017.061-.037 0-.073.023-.075.107-.009.045.036.073.044.094.026.021-.018.047-.011.09.021.068.053.12.06.12.02 0-.017.025-.007.054.02.03.027.082.056.115.064.08.018.218.265.218.386 0 .048.01.093.024.101.039.024.117-.01.127-.055.01-.047-.045-.246-.144-.52-.056-.155-.062-.191-.034-.208.023-.015.03-.045.019-.096-.01-.053-.006-.075.016-.075s.028-.024.021-.073c-.008-.054-.001-.072.027-.072.05 0 .072-.04.088-.156.018-.131.064-.135.119-.009a.836.836 0 0 0 .187.235c.192.175.226.232.226.376 0 .093.007.113.03.09.04-.04.091-.036.2.02.115.058.109.058.109.004 0-.063.069-.116.174-.135.05-.009.096-.026.104-.04.008-.012-.03-.084-.083-.158-.125-.175-.14-.26-.08-.437.053-.16.038-.27-.05-.367-.051-.055-.061-.056-.31-.04l-.256.015-.145-.12c-.121-.102-.151-.144-.187-.257-.023-.074-.036-.142-.027-.15a.755.755 0 0 1 .215.013c.332.048.47.038.672-.045.19-.079.365-.112.464-.087a.795.795 0 0 1 .2.135l.141.12.186-.005c.176-.005.19 0 .26.065.076.072.124.225.124.394v.087l.114-.015c.063-.008.262-.037.441-.064.619-.093.979-.058 1.256.12.217.139.332.31.44.653.046.15.056.234.056.483 0 .276-.005.311-.058.405-.057.099-.058.105-.02.186.03.062.063.09.132.108.135.038.16.034.143-.022a38.56 38.56 0 0 0-.03-.094c-.011-.039.004-.048.103-.063.065-.01.152-.031.194-.049.08-.033.181-.159.14-.174-.112-.043-.386-.194-.393-.217-.011-.04.166-.136.411-.222.117-.04.236-.09.266-.108.03-.019.112-.054.182-.078.133-.046.159-.088.08-.13-.089-.048-.213-.026-.42.073-.249.12-.442.14-.527.054l-.05-.05.125-.027a.56.56 0 0 0 .334-.177.606.606 0 0 1 .37-.174.71.71 0 0 0 .229-.09l.117-.075-.084-.043a.624.624 0 0 1-.141-.106c-.055-.058-.058-.072-.042-.27.008-.114.007-.204-.004-.2-.011.004-.07.041-.13.08l-.112.073.013.176c.012.152.008.175-.027.175-.022 0-.074-.048-.115-.106a.534.534 0 0 0-.187-.16c-.167-.083-.317-.196-.378-.285-.047-.07-.051-.094-.032-.18a.699.699 0 0 1 .043-.136c.012-.02.01-.06-.005-.091-.019-.043-.015-.07.017-.119.023-.035.038-.065.034-.068a.932.932 0 0 1-.248-.23l-.068-.098.129-.297c.07-.163.18-.392.244-.51.064-.116.116-.215.116-.22 0-.004-.033-.014-.073-.022-.048-.01-.072-.029-.072-.059 0-.076-.05-.107-.101-.061-.061.055-.165.009-.165-.074 0-.078-.05-.115-.15-.108-.155.01-.19-.078-.07-.18.101-.084.107-.165.015-.21-.095-.049-.103-.106-.025-.207.07-.091.153-.11.215-.046.031.03.046.031.087.006a.11.11 0 0 0 .049-.082c0-.03.024-.062.062-.079.087-.04.12-.035.159.023.024.035.053.048.1.042l.068-.008-.062-.083a.369.369 0 0 1-.061-.106c0-.014.062-.018.152-.01l.152.015.029-.075c.015-.041.023-.082.017-.092a.685.685 0 0 0-.156-.072c-.08-.03-.139-.064-.132-.076.008-.012.176-.104.374-.203.397-.198.376-.204.256.065-.053.118-.056.14-.024.151.074.029.113.012.202-.088l.092-.103.016.073c.038.167.08.266.113.272.028.005.035-.018.034-.107-.001-.104.005-.118.071-.15l.109-.053c.02-.01.032-.033.026-.05a.958.958 0 0 1-.02-.121c-.01-.075-.002-.091.042-.106a.342.342 0 0 1 .136 0c.117.021.167 0 .224-.097.078-.132.194-.111.233.042.015.062.021.064.134.05.184-.021.242.068.154.238-.052.1-.036.126.084.132.146.007.185.052.153.176-.024.097-.024.097.096.2l.121.101-.016.135c-.035.277-.01.313.132.198l.099-.08.379.017.38.017.106-.078c.101-.074.108-.076.139-.034.043.06.04.137-.008.238-.037.078-.037.088 0 .146.036.054.057.062.18.062a.6.6 0 0 0 .26-.058c.172-.08.214-.055.168.099-.045.15-.086.185-.234.2-.069.007-.13.025-.134.041-.012.037.129.107.332.165.086.025.16.048.166.052.013.01-.128.226-.148.226-.08 0 .125.23.255.286.037.015.062.038.054.05-.027.044-.245.073-.379.052-.071-.012-.137-.014-.147-.005-.033.03.234.22.398.283.09.035.163.072.163.084a.48.48 0 0 1-.04.106l-.04.085.127.135.127.134-.015.126a.331.331 0 0 0 .042.24.427.427 0 0 1 .049.115.514.514 0 0 1-.298-.249c-.165-.26-.166-.262-.25-.254-.112.011-.108.07.016.256.07.103.115.202.126.271.024.158.041.18.244.317.177.12.187.131.29.348.058.124.123.23.143.239.045.017.246-.061.415-.162.1-.06.135-.098.162-.173.203-.584.207-.526-.056-.794a2.96 2.96 0 0 1-.22-.238c0-.007.066-.021.146-.03.264-.03.262-.025.105-.245a4.99 4.99 0 0 0-.201-.266c-.065-.074-.138-.221-.12-.24.018-.017.439.098.525.143.045.023.086.037.092.03a1.433 1.433 0 0 0-.097-.26c-.095-.224-.16-.411-.16-.463 0-.046.077-.005.287.151.125.093.236.17.248.17.011 0 .02-.156.021-.345 0-.19.01-.36.021-.378.016-.024.068.026.203.193.1.125.212.256.25.29.147.135.266.152.237.034-.013-.048 0-.076.06-.13.04-.04.074-.089.074-.11 0-.023.017-.074.038-.114.041-.08.039-.085-.083-.22-.037-.04-.085-.067-.124-.067-.105 0-.152-.051-.14-.153l.01-.089h-.104c-.168 0-.26-.132-.156-.225.024-.022.056-.04.072-.04.068 0 .021-.069-.056-.083-.09-.017-.133-.071-.133-.168 0-.1.025-.134.111-.15.106-.02.12-.045.059-.106-.07-.069-.061-.131.025-.204.087-.073.113-.076.188-.024.055.039.055.038.038-.05-.012-.066-.006-.099.027-.135.05-.056.172-.061.24-.01.068.052.093.044.075-.025-.032-.13.173-.212.276-.109.027.027.048.07.048.097 0 .082.084.059.11-.03.018-.062.038-.08.093-.087.112-.013.18.016.22.093.021.04.048.072.06.072a.53.53 0 0 0 .124-.133.653.653 0 0 1 .117-.133c.01 0 .082.05.16.109.08.06.152.108.162.108.01 0 .018-.147.018-.328v-.329l.087.016.087.017-.009-.098-.009-.099h.257c.141 0 .406.007.588.016l.332.016-.016.092-.015.091.09-.014.09-.015-.015.366c-.01.202-.008.367.002.367s.086-.06.17-.133c.148-.129.242-.194.258-.177a.888.888 0 0 1 .045.098c.034.083.088.124.088.067 0-.04.186-.028.228.013.021.021.038.049.038.06 0 .05.042.018.08-.06.03-.066.058-.087.129-.1.075-.014.096-.008.134.037.024.03.044.07.044.087 0 .02.023.01.059-.026.12-.12.279-.053.279.117 0 .102 0 .102.14.05.1-.04.107-.039.17.007a.172.172 0 0 1 .04.24c-.054.084-.013.131.098.113.12-.02.165.026.148.149-.014.108-.085.182-.173.182-.08 0-.093.062-.023.108.064.042.077.127.033.21-.02.039-.046.047-.133.042-.122-.008-.196.038-.125.078.1.056.002.207-.118.184-.048-.009-.093.007-.17.064-.11.082-.125.113-.068.16.02.017.036.07.036.118 0 .08.015.1.193.239.107.083.198.15.203.15.005 0 .126-.158.268-.351.143-.194.263-.348.267-.344.004.004.02.121.034.26.044.413.053.46.088.46.019 0 .112-.098.207-.217.096-.12.179-.213.184-.208.005.005-.007.095-.027.2a5.74 5.74 0 0 0-.053.316l-.015.127.06-.023c.035-.013.114-.05.178-.082a1.104 1.104 0 0 1 .305-.104c.057-.017-.147.395-.31.628l-.112.16h.516l-.105.127c-.058.07-.189.215-.291.322l-.187.196.126.379.126.38.432.17c.238.093.516.19.62.216.235.059.625.1.751.08l.095-.015-.063-.083c-.06-.08-.062-.092-.048-.293a13.1 13.1 0 0 0 .025-.473c.01-.296.014-.304.182-.304.103 0 .113.006.186.114.042.063.1.172.13.242.029.07.06.127.07.127.04 0 .236-.15.297-.228a.314.314 0 0 1 .163-.11c.096-.027.097-.028.097-.143 0-.113-.003-.118-.12-.19-.1-.063-.123-.092-.146-.18-.038-.15-.074-.211-.163-.279-.094-.072-.17-.061-.287.041-.115.102-.23.133-.364.1-.225-.057-.29.005-.42.397a.652.652 0 0 1-.133.247l-.078.079h-.254c-.298 0-.329.017-.39.21-.035.106-.051.127-.114.141-.04.009-.084.006-.097-.007-.038-.038-.054-.463-.022-.58.037-.136.106-.21.279-.303a.52.52 0 0 0 .187-.152l.043-.074-.123-.179c-.091-.132-.117-.188-.1-.215l.056-.09c.028-.047.027-.072-.01-.183-.084-.243-.016-.343.254-.372a.978.978 0 0 0 .502-.26c.076-.08.095-.087.22-.087.086 0 .178.018.244.048.12.055.292.064.33.017.02-.023.003-.067-.069-.175-.1-.15-.123-.252-.058-.252.02 0 .09.027.156.06s.159.06.207.06h.089l-.083-.102a2.394 2.394 0 0 1-.124-.17l-.042-.067.224.016c.184.013.23.009.255-.02.025-.03.014-.042-.065-.073a.347.347 0 0 1-.15-.121.434.434 0 0 0-.153-.13.327.327 0 0 1-.154-.148c-.048-.088-.067-.103-.134-.103-.09 0-.184-.083-.184-.162 0-.062-.044-.1-.14-.119-.084-.016-.113-.043-.171-.159a.204.204 0 0 0-.112-.1c-.1-.03-.135-.063-.174-.156-.034-.081-.041-.086-.16-.112-.087-.02-.143-.145-.133-.3.006-.093.016-.112.056-.112.027 0 .068.032.096.077.035.056.068.078.115.079.049 0 .081.023.121.085.031.048.069.08.087.073.062-.023.151.018.186.086.026.05.056.07.113.075.058.006.093.03.135.093.049.072.069.083.136.077.07-.007.096.01.203.121.09.095.152.137.232.158.088.024.12.048.164.126a.247.247 0 0 0 .14.125c.047.016.147.072.223.126a.543.543 0 0 0 .148.087l.16-.24c.082-.127.153-.233.156-.236.022-.022.16.056.173.098.01.028.018.217.02.419.003.329.008.372.05.42l.048.052.016-.056a.744.744 0 0 0 .019-.15c.002-.077.028-.12.166-.277a4.71 4.71 0 0 0 .204-.244c.038-.055.047-.057.136-.03l.094.028.012.187a.727.727 0 0 0 .163.455c.039.055.084.153.101.218.042.164.062.188.126.147.028-.018.14-.073.25-.122l.198-.09.192.05c.254.065.29.063.305-.012l.025-.121c.021-.101.09-.146.309-.2a2.53 2.53 0 0 1 .238-.053c.058 0-.015.042-.147.085-.175.057-.243.127-.243.25 0 .053-.01.125-.024.159-.02.052-.039.062-.12.062-.052 0-.17-.017-.26-.039a.85.85 0 0 0-.242-.025 1.669 1.669 0 0 0-.32.148c-.235.132-.364.25-.364.335 0 .021.07.132.153.246.233.315.343.514.423.763.109.34.154.582.167.907.015.34-.009.474-.173.976-.107.326-.107.326-.058.368l.05.042-.056.133c-.03.073-.047.14-.038.15.009.009.093-.008.187-.038.168-.054.172-.054.29-.011l.121.043.331-.112a4.35 4.35 0 0 1 .433-.128c.128-.02.317.032.473.132.064.04.132.073.151.073.032 0 .109.134.274.477.034.07.075.131.093.138.076.03.1-.014.117-.22.023-.273-.004-.525-.072-.675l-.056-.123.077-.028a.467.467 0 0 1 .11-.028c.018 0 .122.087.231.194.11.106.21.193.224.193.037 0 .047-.052.076-.37.014-.158.042-.326.062-.374.034-.081.04-.084.077-.047.043.044.076.26.078.519 0 .083.01.151.021.151.011 0 .047-.029.079-.064.085-.093.48-.405.573-.453.067-.034.095-.037.163-.014l.083.027-.182.268c-.198.29-.2.307-.026.308.07 0 .115.02.176.073.052.046.11.073.154.073.067 0 .072-.006.072-.091 0-.05-.022-.166-.048-.258a1.214 1.214 0 0 1-.042-.173.33.33 0 0 1 .055-.02c.04-.012.058.002.09.07.046.096.212.215.24.172.01-.015.046-.11.08-.213.05-.148.079-.195.14-.234.09-.057.103-.044.126.123.01.064.025.116.036.116.01 0 .107-.082.212-.181l.193-.181.086.036.086.035-.083.246c-.046.135-.09.3-.099.365l-.016.119.119-.02c.295-.05.879-.007.879.065 0 .012-.117.06-.26.105a4.57 4.57 0 0 0-.513.208l-.254.124.133-.02c.172-.024.715-.025.74 0 .047.048-.052.109-.32.199-.264.088-.495.198-.527.251-.007.012.035.028.095.037.114.017.404.11.492.157.051.027.137.166.116.187a1.084 1.084 0 0 1-.225-.03c-.265-.05-.755-.036-.933.026l-.115.04v.204c0 .112.01.203.022.203.012 0 .101-.034.2-.076.097-.041.272-.111.39-.155.174-.065.21-.072.2-.039a4.165 4.165 0 0 0-.078.529c.017.016.381-.084.544-.15a.492.492 0 0 1 .167-.05c.028.029-.088.228-.224.385-.254.291-.244.268-.145.33.107.066.138.059.475-.11.144-.072.262-.125.262-.117 0 .008-.035.148-.077.31l-.078.296-.62.342-.62.34-.227-.074a1.968 1.968 0 0 1-.246-.093c-.01-.009.194-.145.455-.3.26-.157.47-.288.466-.292a7.634 7.634 0 0 0-.463-.133c-.006 0 .006.054.027.12.036.113.036.125 0 .162-.034.033-.052.035-.102.013-.042-.02-.065-.02-.076-.002-.009.014-.047.02-.085.015-.06-.009-.07-.002-.07.047 0 .08-.042.089-.303.064a1.04 1.04 0 0 0-.228-.01c0 .008.031.068.069.134.055.095.064.129.043.162-.022.036-.01.06.077.149l.104.106-.132.142-.131.141-.16-.14c-.17-.15-.176-.169-.066-.268.028-.025.05-.059.05-.075s-.075-.1-.167-.187c-.173-.164-.284-.21-.498-.21-.072 0-.084.007-.084.058 0 .054.012.06.155.075l.155.016.078.173.089.203c.008.02-.01.03-.05.03-.042 0-.074-.022-.103-.07-.04-.068-.096-.098-.182-.099-.022 0-.07.039-.106.087-.065.086-.066.09-.034.22.025.106.047.144.106.18l.073.044h-.086c-.048 0-.19.006-.315.014-.216.012-.224.01-.173-.027.087-.065.07-.107-.043-.107-.108 0-.207-.043-.343-.15-.098-.078-.107-.066-.065.085.02.072.045.1.109.127.045.02.083.04.083.047 0 .006-.147.011-.327.011-.201 0-.326-.009-.326-.024 0-.013.027-.024.06-.024.031 0 .065-.01.073-.024.016-.026-.141-.487-.196-.574-.02-.03-.051-.054-.071-.054a.488.488 0 0 1-.126-.038l-.09-.038.078-.034c.043-.018.079-.047.078-.064 0-.09-.041-.101-.45-.133-1.19-.093-1.684-.199-3.974-.854-1.333-.382-1.394-.398-1.726-.434-.311-.034-.97-.036-1.058-.003-.138.053-.231.194-.343.522-.16.472-.33.842-.486 1.067-.19.272-.279.46-.3.63-.007.07-.008.127-.001.126a.964.964 0 0 0 .11-.161c.14-.232.511-.597.749-.736.377-.22.628-.292.995-.29.326.002.577.057 1.236.272 1.87.61 3.508.976 4.995 1.114.512.048 2.13.04 2.683-.012a24.035 24.035 0 0 0 2.345-.33c.03 0-.417.539-.46.555-.123.046-1.477.21-2.212.268a14.64 14.64 0 0 1-2.03-.01c-1.03-.103-2.342-.296-2.972-.438a27.734 27.734 0 0 1-1.33-.399c-2.16-.69-2.293-.724-2.605-.65-.272.063-.836.392-1.095.637-.139.131-.119.217.058.246.075.012.098 0 .24-.129.285-.258.78-.45 1.155-.451.172 0 .246.014.459.086.25.085.677.27.677.294 0 .043-.18.306-.202.296-.515-.213-.89-.33-1.058-.33-.241 0-.533.152-.88.459a1.236 1.236 0 0 1-.249.186c-.115.029-.345-.011-.502-.089-.223-.11-.239-.148-.239-.574 0-.19-.003-.344-.008-.344a.712.712 0 0 0-.088.06c-.075.058-.079.068-.06.152.04.172.03.211-.103.356l-.126.138-.156-.016-.156-.016-.248.151c-.21.127-.245.157-.226.193.057.107-.007.284-.127.35-.075.042-.37.04-.761-.002a3.296 3.296 0 0 1-.817-.17 1.649 1.649 0 0 0-.312-.076c-.024.01-.074.1-.16.285-.068.148-.346.21-.598.13zm.313-.283c.133-.05.1-.193-.061-.27-.154-.072-.302-.041-.424.09-.048.051-.066.057-.125.036-.096-.034-.104-.079-.035-.214a.566.566 0 0 0 .06-.166c0-.067-.135-.172-.22-.172-.124 0-.132.07-.05.396.04.156.077.29.083.295.018.018.532.052.622.04a.797.797 0 0 0 .15-.035zm2.109-.028c.067-.049.028-.08-.12-.099-.073-.009-.138-.026-.145-.037-.007-.011.103-.083.244-.158.266-.143.36-.214.335-.254-.029-.047-.105-.02-.435.157-.327.176-.392.196-.519.16-.053-.014-.025-.036.24-.185.163-.093.297-.18.296-.192-.005-.06-.122-.026-.43.128-.3.15-.342.164-.4.14-.062-.026-.055-.032.224-.181.158-.085.288-.163.288-.173 0-.01-.021-.026-.047-.034-.03-.01-.154.039-.356.14l-.31.155-.108-.037-.107-.036.307-.154c.168-.084.306-.163.306-.176 0-.067-.113-.038-.42.107-.345.164-.366.171-.425.134-.027-.017.061-.068.347-.205l.382-.182.233.072c.431.133.865.193 1.398.193.23 0 .25-.004.32-.062.132-.11.109-.118-.33-.12-.497-.002-.76-.037-1.102-.147-.57-.185-.888-.343-1.288-.641-.211-.158-.665-.548-.697-.6-.027-.043-.083-.027-.123.035-.036.055-.036.07-.001.173.036.105.036.115-.004.145-.047.036-.092.039-.163.011-.054-.021-.148.012-.166.06-.008.02.018.036.071.046.06.01.094.036.12.088.043.082.092.082.104 0 .004-.03.042-.075.083-.1.07-.042.08-.043.12-.007.023.022.043.046.043.055 0 .024-.643.34-.692.34-.015 0-.04-.016-.055-.034-.023-.027-.015-.044.034-.08.043-.03.058-.058.047-.087-.022-.055-.066-.052-.12.007-.056.063-.075.061-.161-.012-.079-.066-.09-.069-.136-.04-.023.015-.025.036-.006.087.046.12.416.573.563.687.296.231.746.455 1.371.683.546.2 1.268.319 1.389.23zm-1.83-.709c-.055-.014-.054-.037.006-.074.115-.072.007-.108-.123-.041-.1.051-.141.017-.048-.04.081-.05.09-.07.046-.113-.022-.022-.053-.015-.135.033-.082.049-.113.056-.14.034-.026-.023.036-.063.316-.207.191-.099.365-.18.385-.18.056 0 .045.038-.023.083-.073.048-.077.078-.012.099.03.009.08-.003.128-.033.055-.035.09-.042.114-.026.03.02.03.027-.006.048-.085.05-.119.099-.091.132.021.026.05.021.157-.026.072-.032.149-.051.17-.043.027.01-.068.072-.295.192-.325.173-.36.185-.45.162zm.297-.155a.175.175 0 0 0 .013-.108c-.027-.108-.241-.17-.339-.099-.077.056-.033.1.097.1h.12l-.009.08c-.007.065 0 .078.042.078.027 0 .061-.023.076-.05zm-.913-.17c-.038-.038.682-.393.736-.363.035.02-.13.12-.542.327-.143.072-.156.074-.194.036zm-.198-.14c-.026-.016.012-.043.145-.101.099-.044.268-.125.377-.181.165-.086.204-.097.238-.072.036.026.02.04-.125.116a6.251 6.251 0 0 1-.593.26.198.198 0 0 1-.042-.022zm-.159-.146c-.012-.02.663-.363.715-.363.01 0 .026.011.035.025.013.022-.657.362-.714.362-.011 0-.027-.011-.036-.024zm13.933.249c0-.009-.056-.145-.123-.302-.114-.267-.142-.381-.081-.34.014.01.093.107.175.216.142.187.23.273.279.273.056 0-.022-.194-.21-.523a3.309 3.309 0 0 1-.22-.434c-.01-.05-.06-.114-.152-.192-.116-.1-.154-.157-.265-.392-.233-.494-.318-.725-.396-1.075-.087-.393-.16-.643-.2-.693a1.156 1.156 0 0 0-.22-.126c-.295-.143-.434-.128-.795.086a.74.74 0 0 0-.191.146.369.369 0 0 1-.082.093c-.067.053-.076.138-.015.137a.645.645 0 0 0 .176-.074l.133-.073.036.056c.02.03.062.081.093.113.055.056.065.057.299.042.133-.009.268-.022.3-.03.046-.012.057-.005.057.034 0 .034-.04.071-.127.12-.176.1-.255.2-.212.27.014.023.06.012.19-.044a.992.992 0 0 1 .173-.064c0 .005.006.025.014.044.009.023-.033.072-.115.137-.222.177-.211.23.046.23.153 0 .16.004.178.065.015.059.007.07-.089.12-.18.096-.16.19.039.19.114 0 .115.001.14.097l.024.096-.1.055c-.17.094-.133.162.11.2.075.011.09.024.105.088.011.054.007.081-.019.095-.182.102-.181.191.003.191.078 0 .133.014.159.04.053.052.038.082-.059.114-.101.034-.144.095-.107.154.046.072.157.087.351.048.13-.026.183-.029.196-.009.029.044.022.056-.048.085a.696.696 0 0 0-.137.084c-.059.047-.067.066-.052.125.022.088.317.377.482.472.113.064.257.095.257.055zm-.42-.864c-.014-.039.048-.072.07-.037.016.027-.006.071-.036.071-.01 0-.026-.015-.033-.034zm.165-.093c-.023-.06.014-.106.043-.055.015.028.015.05-.003.068-.018.018-.03.015-.04-.013zm-10.384.754c.004-.02-.109-.198-.25-.395l-.258-.356-.07.067a.299.299 0 0 0-.07.084c0 .02.336.433.457.56.09.095.177.113.19.04zm.281-.037c.021-.008.038-.025.038-.037 0-.013-.115-.176-.257-.364-.257-.34-.294-.41-.226-.423.022-.004.15.148.334.392.163.22.313.398.333.398.092 0 .046-.09-.233-.456-.162-.212-.287-.398-.278-.412.009-.015.133.108.286.282l.346.39.075.085.259-.252c.427-.416.562-.621.795-1.208.131-.33.22-.633.276-.93.05-.27.056-1.043.01-1.33-.09-.565-.307-1.301-.489-1.664a2.947 2.947 0 0 0-.89-1.028c-.168-.124-.214-.147-.27-.135-.05.011-.125-.015-.312-.109-.77-.386-1.49-.459-2.356-.238-.294.074-.662.226-.843.347-.16.108-.248.132-.297.083-.033-.032-.327.28-.58.614-.346.458-.645 1.19-.807 1.974-.04.194-.053.336-.052.61 0 .43.016.542.078.562.079.025.24-.033.264-.095.017-.043.046-.059.133-.07.071-.01.129-.006.159.014.039.024.086.02.259-.026.236-.063.252-.073.252-.153l-.004-.335c-.011-.811.354-1.625.907-2.02.423-.301 1.09-.488 1.642-.46.527.025.82.154 1.219.537.636.61.874 1.136.873 1.928 0 .846-.176 1.504-.516 1.938-.113.145-.4.423-.727.706-.064.056-.085.089-.069.11.013.015.155.2.317.409.162.21.299.38.304.38a.292.292 0 0 0 .047-.014zm.364-.57c-.07-.056-.078-.092-.016-.076.05.013.255-.131.264-.186.003-.02-.037-.065-.089-.1-.106-.074-.158-.058-.19.057l-.017.065-.085-.073c-.065-.055-.072-.069-.032-.057.037.01.068-.002.103-.04.028-.03.05-.06.05-.069a.409.409 0 0 0-.079-.091l-.079-.077-.09.084c-.074.067-.088.094-.076.144.02.076-.014.078-.083.005l-.052-.056.175-.2c.158-.181.176-.195.183-.14.009.073.405.403.512.425l.07.015-.204.209-.205.208zm.442-.522c-.104-.076-.116-.11-.033-.088.124.031.301-.135.233-.218-.04-.047-.123-.048-.234-.001-.186.077-.395.02-.395-.108 0-.103.022-.144.098-.183.045-.023.064-.049.055-.072-.02-.052.004-.045.151.042.124.074.18.14.088.104-.109-.042-.165-.04-.23.011-.082.065-.084.114-.006.15.05.023.08.017.184-.037.182-.094.325-.076.382.048.052.114.034.17-.08.249-.081.056-.103.084-.094.122.017.064-.01.06-.119-.019zm.405-.51c-.013-.06-.052-.087-.304-.21a2.267 2.267 0 0 1-.289-.154c0-.008.125-.057.278-.11.153-.052.278-.102.278-.109 0-.007-.093-.041-.207-.076-.168-.051-.21-.057-.22-.03-.007.018-.023.027-.035.02-.024-.015.042-.155.073-.155.012 0 .027.015.034.033.008.02.124.06.287.097.32.074.348.076.368.023.008-.021.021-.034.028-.027.007.007 0 .041-.017.077-.025.055-.073.077-.345.162a2.822 2.822 0 0 0-.338.12c-.024.022.373.216.442.216a.114.114 0 0 0 .07-.03c.016-.015.03-.022.03-.014 0 .026-.095.237-.107.237-.006 0-.018-.032-.026-.07zm.21-.817c-.051-.01-.078-.056-.031-.056.048 0 .098-.08.098-.155 0-.07-.009-.082-.075-.095a.826.826 0 0 0-.118-.015c-.056 0-.086.112-.043.163.027.034.023.036-.03.022a.487.487 0 0 0-.094-.016c-.027 0-.026-.009.006-.044a.167.167 0 0 0 .04-.095c0-.042-.021-.055-.127-.073-.07-.012-.135-.015-.144-.007-.01.008-.025.049-.033.09-.013.064-.005.083.048.117.091.06.077.087-.028.05-.102-.035-.1-.025-.057-.22l.044-.205c.012-.058.013-.059.032-.009.025.067.046.073.334.108.196.024.251.024.28 0 .047-.039.047-.038.01.245-.014.117-.033.211-.042.21-.008-.003-.039-.009-.069-.014zm-.267-.63a.617.617 0 0 1-.033-.139c-.006-.066-.015-.073-.11-.08-.08-.006-.103.001-.103.03 0 .021-.012.038-.027.038-.018 0-.022-.03-.012-.09a1.32 1.32 0 0 0 .015-.127c0-.028.005-.03.02-.005.014.021.102.032.287.036.228.005.275-.001.316-.038.046-.042.048-.04.063.033.03.15.017.28-.035.345-.045.057-.067.064-.203.064-.143 0-.153-.004-.178-.066zm.333-.065a.133.133 0 0 0 .021-.09c-.007-.05-.022-.057-.147-.063l-.139-.007v.081c0 .045.007.09.017.098.03.031.219.017.248-.018zm-6.403-.34c0-.165.022-.197.068-.096.022.048.045.06.113.06h.085v-.362h-.095c-.07 0-.098.01-.106.042-.006.023-.012-.026-.014-.109-.003-.157.017-.19.058-.096.022.05.046.055.277.07.167.012.263.009.284-.008.024-.02.03 0 .03.098 0 .131-.021.153-.075.077-.02-.03-.075-.053-.148-.064l-.115-.016v.34l.102.017c.086.014.107.009.142-.034.023-.029.048-.052.056-.052s.015.06.015.133c0 .136-.02.161-.073.097-.023-.028-.086-.036-.269-.036-.212 0-.241.005-.268.048-.051.081-.067.055-.067-.109zm6.404-.14c0-.018-.07-.082-.154-.143-.152-.11-.157-.11-.302-.098-.123.011-.148.021-.148.059 0 .024-.01.045-.024.045-.013 0-.024-.043-.024-.095a.52.52 0 0 0-.017-.139c-.015-.042-.013-.042.036 0 .044.04.07.043.189.025l.137-.02.123-.187c.068-.102.131-.186.14-.187.018-.001.066.196.053.213-.004.005-.024-.004-.045-.02-.047-.04-.079-.014-.157.131l-.06.112.058.045c.033.024.09.062.127.084.06.036.068.036.068.003 0-.02.011-.037.024-.037.014 0 .025.054.025.12 0 .067-.011.121-.025.121-.013 0-.024-.014-.024-.032zm-.394-.008c-.033-.033-.016-.085.026-.077.023.004.042.024.042.042 0 .039-.043.06-.068.035zm-5.687-.494c-.191-.046-.283-.21-.202-.362.095-.177.543-.151.667.04.034.051.036.075.012.156a.278.278 0 0 1-.09.136c-.074.048-.252.062-.387.03zm.367-.13c.07-.105.039-.164-.11-.21-.157-.05-.317-.056-.358-.016-.016.016-.029.071-.029.122 0 .082.01.097.079.128a.737.737 0 0 0 .229.035c.133 0 .155-.006.189-.058zm5.21.116c.011-.053.105-.06.105-.008 0 .02-.025.04-.056.044-.044.006-.055-.002-.048-.036zm-.255-.17a1.951 1.951 0 0 0-.054-.208c-.041-.128-.032-.164.028-.105.035.035.058.03.27-.046.255-.092.306-.123.287-.172-.007-.018.002-.032.02-.032.017 0 .044.042.06.093.035.12.035.126-.009.109-.048-.019-.544.16-.56.2a.184.184 0 0 0 .003.093c.012.048.035.063.113.076.115.018.098.046-.042.068l-.1.017zm-4.855-.306c-.017-.045-.512-.22-.553-.194-.021.013-.019 0 .007-.04.032-.048.085-.07.278-.113.132-.03.276-.054.322-.054.11-.001.092-.013-.136-.097-.177-.064-.2-.067-.26-.035a.542.542 0 0 1-.075.034c-.017 0 .068-.183.104-.223.05-.057.07-.054.068.011-.002.046.035.069.258.16.336.138.33.168-.052.232-.147.025-.268.053-.268.063 0 .01.078.046.172.081.164.06.174.062.205.021.043-.056.045-.004.005.107-.031.085-.055.1-.075.047zm4.712-.13a.807.807 0 0 1-.036-.11c-.022-.08-.02-.089.009-.065.046.04.107.012.107-.047a.416.416 0 0 0-.04-.134c-.033-.07-.055-.085-.112-.085-.067 0-.07.004-.056.078l.016.079-.06-.06c-.096-.099-.089-.128.035-.134.06-.003.233-.03.385-.057.152-.027.282-.045.289-.038.007.007-.099.124-.234.26-.136.136-.247.266-.247.289 0 .042-.036.057-.056.024zm.285-.382c.11-.098.115-.108.06-.107a.89.89 0 0 0-.254.053c-.012.013.044.164.061.163.007 0 .067-.05.133-.109zm-4.693-.016c.01-.028-.049-.077-.226-.188-.138-.087-.255-.145-.276-.137-.05.02-.046.005.026-.119.064-.108.122-.146.096-.06-.012.036.023.073.172.18.183.132.256.16.286.112.008-.014.03-.025.05-.025.028 0 .022.027-.025.12-.057.112-.136.202-.103.117zm4.053-.226c-.055-.088-.05-.135.008-.087.024.02.047.017.091-.014.087-.059.315-.254.307-.262a3.063 3.063 0 0 0-.313.074l-.306.08.035-.112c.018-.062.065-.21.103-.33.1-.311.073-.315-.093-.014a1.707 1.707 0 0 0-.113.236c-.022.088-.06.093-.125.017l-.06-.07.058-.008c.045-.006.089-.058.187-.223.11-.183.127-.226.112-.292l-.016-.077.07.051c.145.102.145.104.055.38a1.22 1.22 0 0 0-.068.265c.007.007.129-.014.27-.048.142-.033.274-.06.293-.06.02 0 .053.032.073.07.046.09.047.113.002.075-.02-.016-.05-.02-.066-.01-.074.044-.406.362-.406.389 0 .065-.048.05-.098-.03zm-3.872-.225c-.102-.112-.113-.137-.044-.1a.349.349 0 0 0 .133.024c.07 0 .093-.012.115-.06.042-.094-.003-.12-.246-.134-.225-.014-.315-.055-.315-.145 0-.07.095-.166.195-.196.058-.017.095-.043.095-.066 0-.026.03-.008.09.051.103.103.094.132-.028.092-.073-.025-.1-.022-.177.015-.107.053-.13.117-.05.143.031.01.137.018.236.016a.593.593 0 0 1 .249.033c.064.034.069.045.062.16-.008.128-.025.15-.144.174-.036.007-.069.032-.073.054-.006.03-.03.015-.098-.06zm-.342-.017c-.026-.067-.016-.086.037-.079a.151.151 0 0 1 .087.063c.035.052.033.054-.037.054-.044 0-.078-.015-.087-.038zm.755-.37c-.204-.13-.26-.302-.165-.5.104-.215.34-.229.484-.03a.52.52 0 0 1 .106.389c-.035.212-.217.273-.425.141zm.3-.06c.03-.046.02-.207-.017-.279-.042-.08-.195-.22-.242-.22-.058 0-.134.122-.134.215 0 .215.297.429.392.283zm2.477.08c-.101-.054-.12-.094-.036-.08.048.009.067-.02.172-.256.096-.219.112-.274.087-.303-.044-.053.006-.047.128.016.098.05.1.054.042.068-.086.02-.3.434-.278.536.018.08.005.083-.115.019zm-2.165-.21c.003-.092-.185-.524-.232-.534-.064-.013-.042-.07.038-.098.099-.035.096-.036.08.03-.02.08.178.547.242.571.043.016.04.022-.029.058-.1.051-.102.05-.1-.027zm1.706.029c-.13-.071-.141-.151-.063-.462.04-.163.046-.218.024-.253-.043-.069-.035-.073.062-.033.108.046.122.058.089.08-.038.024-.164.453-.147.498.026.067.125.097.207.064.054-.023.093-.074.158-.208.098-.201.1-.211.05-.253-.08-.066-.03-.072.084-.01.066.036.114.076.106.088-.008.012-.029.016-.047.009-.024-.01-.069.06-.151.236-.09.192-.131.253-.176.265-.084.022-.122.018-.196-.022zm.753-.001c-.022-.026-.023-.044-.003-.063.033-.033.102-.008.102.038 0 .05-.064.066-.099.025zm-1.128-.037c-.043-.028-.079-.061-.079-.074 0-.015-.038-.018-.096-.008-.09.015-.105.009-.183-.069l-.085-.085.016-.225c.02-.286.043-.337.172-.378.089-.028.112-.027.19.01.122.058.158.152.14.364a.879.879 0 0 1-.06.253l-.043.088.09.063c.05.035.107.064.127.064.03 0 .029.004-.001.024-.055.035-.1.028-.188-.027zm-.159-.209c-.004-.052.006-.066.044-.066.07 0 .107-.236.057-.367-.036-.095-.08-.119-.178-.094-.074.018-.108.135-.108.365 0 .188.022.229.124.229.057 0 .065-.01.061-.067zm-.838.15c0-.01.016-.03.035-.044.03-.023.027-.062-.025-.28a1.777 1.777 0 0 0-.078-.272c-.01-.01-.05-.01-.09.002-.054.014-.073.035-.08.084-.003.036-.016.065-.026.065-.025 0-.085-.142-.068-.159.056-.056.67-.167.67-.121.001.014.007.053.015.086.012.056.01.057-.021.019-.069-.084-.235-.047-.235.05 0 .14.073.476.11.503.02.015.029.033.018.04-.037.022-.225.045-.225.028zm.343-.28c.004-.031.024-.057.044-.057.052 0 .045.094-.008.105-.034.007-.043-.004-.036-.048zm1.083 6.438c0-.059-.026-.093-.121-.163-.098-.073-.17-.077-.228-.014-.056.062-.033.092.116.16.153.07.233.075.233.017zm12.47.018c0-.038-.18-.325-.277-.445l-.087-.106.188.058c.11.034.249.058.333.058h.144l-.094-.078a6.43 6.43 0 0 0-.282-.214l-.189-.136.06-.056c.064-.06.078-.12.029-.12a.573.573 0 0 0-.151.08c-.067.045-.21.129-.32.188a.992.992 0 0 0-.2.124c0 .009.106.093.236.185.13.093.306.24.392.328.146.148.218.192.218.134zm-25.85-.185c.102-.066.172-.2.15-.289a.608.608 0 0 0-.074-.145.344.344 0 0 1-.06-.145c0-.062-.052-.077-.091-.027a.465.465 0 0 0-.042.15.446.446 0 0 1-.092.215c-.09.113-.102.243-.03.296.055.04.112.026.238-.055zm-.44-.147a.652.652 0 0 0 .275-.417c.017-.082.016-.083-.03-.043a.71.71 0 0 1-.223.082c-.148.034-.194.057-.283.141-.12.116-.14.22-.057.303.075.075.153.059.319-.066zm11.258.02c0-.04-.071-.078-.12-.063-.06.02-.064.074-.007.106.043.024.127-.004.127-.043zm2.78-1.13c0-.077-.1-.137-.191-.117a.587.587 0 0 0-.168.085c-.093.068-.108.07-.482.087l-.386.017-.04.082a.637.637 0 0 0-.039.093c0 .006.154.011.342.011.3 0 .337.004.311.036-.024.03-.099.036-.382.036-.293 0-.359.007-.396.04-.024.022-.044.048-.044.057 0 .01.153.023.34.03.188.008.346.02.353.027.007.007.006.024-.003.038-.01.016-.143.02-.397.01l-.382-.015-.04.057a.242.242 0 0 0-.04.076c0 .01.102.019.226.019.124 0 .29.007.37.015l.145.015-.117.194c-.064.107-.117.21-.117.229 0 .019.256-.213.568-.516.417-.403.568-.565.568-.605zm13.93.945c.021-.02.038-.046.038-.057 0-.01-.114-.092-.253-.181a1.658 1.658 0 0 1-.254-.182c0-.01.063-.063.14-.117.146-.102.293-.25.344-.345.023-.042-.058-.009-.379.158-.39.204-.564.31-.564.346 0 .01.175.099.388.199.214.1.394.189.4.199.02.031.1.02.14-.02zm-15.242-.057c.03-.025.055-.052.055-.06a.97.97 0 0 0-.235-.014c-.248 0-.27.02-.088.085.127.046.204.042.268-.011zm14.188-.058c-.022-.071-.054-.105-.158-.164-.071-.041-.126-.083-.122-.093.004-.01.127-.117.273-.239.248-.206.392-.373.433-.505l.017-.055-.116.046a3.228 3.228 0 0 0-.523.25.423.423 0 0 1-.124.064 3.74 3.74 0 0 1-.071-.297 3.54 3.54 0 0 0-.073-.297c-.005-.005-.016.043-.026.107-.023.16-.158.904-.172.952-.009.03.015.046.096.067.06.015.214.081.343.148.13.066.239.117.243.113a.299.299 0 0 0-.02-.097zm-25.82.066c.02-.008.038-.027.038-.042 0-.032-.48-.27-.5-.249-.022.022.04.15.097.205.092.086.26.126.365.086zm9.394-.055c.522-.176.934-.39 1.045-.54.045-.062.046-.08.021-.27-.033-.247-.087-.36-.23-.479l-.108-.089v-.285c.003-.416-.052-.56-.25-.66-.117-.06-.171-.06-.417 0-.332.083-.35.1-.265.277.049.103.082.106.393.035.28-.065.29-.058.291.192 0 .102.012.226.025.276.021.074.019.098-.012.128-.054.055-.008.131.081.131.06 0 .078.02.156.175.047.097.094.216.102.265l.015.089-.141.039c-.425.117-1.11.392-1.21.486-.081.077-.082.08-.045.152.084.16.239.183.549.078zm13.096.015c0-.083-.09-.216-.14-.206-.09.019-.005.26.092.26.033 0 .048-.016.048-.054zm-.52-.11c-.049-.19-.042-.256.034-.353.058-.072.069-.1.048-.126-.05-.06-.112-.034-.237.102-.104.115-.123.149-.123.23 0 .108.052.225.114.26.03.016.063.012.111-.013.06-.03.068-.046.053-.1zm-24.268-.024c.045-.047.084-.068.115-.06.034.01.054-.006.076-.057.017-.038.047-.069.067-.069.026 0 .038-.033.043-.12.005-.09.02-.132.058-.16.056-.044.046-.119-.015-.119-.02 0-.142.07-.273.154-.13.084-.337.21-.46.28-.163.091-.223.138-.223.173 0 .065.049.078.17.046.079-.022.107-.021.12.002.012.017.043.023.08.013.034-.008.068-.005.077.01.02.031.078-.001.165-.092zm4.535.032c.217-.038 1.11-.282 1.111-.303 0-.007-.181-.11-.404-.23-.399-.216-.407-.222-.562-.415a3.507 3.507 0 0 1-.514-.913c-.126-.319-.194-.404-.353-.447a.478.478 0 0 0-.348.054c-.03.02-.217.186-.416.369-.47.43-.532.48-.69.554-.342.16-.535.028-.54-.367-.002-.083-.01-.151-.018-.151a.408.408 0 0 0-.069.125c-.09.212-.047.38.136.52.071.054.118.068.248.075.195.011.333-.036.643-.22.226-.134.683-.355.733-.355.015 0 .028.019.027.042 0 .027-.098.103-.272.212-.193.12-.34.237-.512.408-.298.296-.27.33.09.11.348-.215.938-.493.983-.465.02.012.039.033.042.045.004.012-.17.126-.385.252-.24.14-.44.277-.515.351-.108.107-.348.47-.348.527 0 .011.03-.003.066-.032.133-.103.819-.55.937-.61.066-.034.191-.09.278-.125.146-.06.158-.061.187-.022.038.052.04.05-.22.2-.334.192-.476.291-.622.435-.13.13-.28.33-.261.35.005.005.097-.045.203-.111.106-.066.26-.158.343-.205.177-.1.755-.308.76-.274l.006.045c.001.012-.152.137-.342.278-.19.14-.344.272-.344.292 0 .082.174.04.52-.122l.368-.172c.078-.033.015.073-.115.194-.08.074-.145.14-.145.148 0 .008.025.008.054.002.03-.007.147-.028.26-.049zm-3.434-.121c.319-.165.325-.171.182-.192a.693.693 0 0 1-.407-.195l-.078-.084-.111.07a.611.611 0 0 0-.151.132c-.036.053-.036.067-.004.128.062.12.223.247.314.249.024 0 .14-.049.255-.108zm12.368-.152c.36-.318.453-.491.296-.546-.147-.052-.222.027-.49.518-.155.282-.103.29.194.028zm9.697.113c.173-.096.268-.186.268-.252 0-.084-.147-.348-.257-.46-.137-.142-.225-.156-.417-.07-.135.06-.163.065-.334.05-.179-.017-.526-.116-.85-.243a.924.924 0 0 1-.272-.171 1.152 1.152 0 0 0-.253-.173c-.169-.077-.262-.068-.495.05a1.109 1.109 0 0 1-.2.087c-.03 0-.16-.122-.16-.15 0-.007.031-.026.07-.042.038-.016.1-.06.136-.099.054-.056.067-.091.066-.18-.001-.084.009-.115.044-.134.043-.023.046-.015.047.09 0 .159.022.23.067.22.05-.01.085-.149.071-.289-.01-.1-.004-.115.047-.139a.448.448 0 0 1 .066-.026c.024 0 .084.173.099.284.009.07.026.127.037.127.05 0 .077-.108.06-.24-.03-.227-.027-.272.016-.3.032-.02.052-.016.088.017.062.056.077.141.055.325l-.018.152.062-.007c.057-.007.064-.02.08-.152.024-.194.02-.189.109-.127.088.062.098.12.042.253-.033.079-.033.092 0 .125.02.02.04.031.045.025.021-.025.297-.548.327-.622.027-.063.027-.086.004-.109-.022-.022-.045-.01-.1.055-.078.093-.087.078-.036-.066.032-.09.031-.101-.01-.138-.043-.04-.047-.036-.095.058-.077.15-.106.127-.086-.068.015-.154.013-.17-.034-.195-.028-.014-.05-.024-.051-.02-.006.057-.096.273-.116.28-.037.012-.036-.051.006-.206.031-.118.03-.126-.013-.14-.054-.017-.094.003-.094.048 0 .017-.02.078-.046.134-.07.158-.094.058-.035-.151.009-.034-.003-.042-.06-.042-.076 0-.1.041-.1.175 0 .047-.013.066-.043.066a.348.348 0 0 0-.126.051c-.072.044-.111.05-.272.04l-.188-.01v.123c0 .108-.008.127-.067.162l-.272.165c-.206.126-.26.138-.39.086-.028-.011-.043.001-.054.044-.025.103-.142.198-.341.279-.284.115-.496.22-.496.246 0 .062.205.014.517-.121.293-.127.402-.155.402-.101 0 .009-.117.07-.26.139-.238.113-.254.125-.193.141.05.014.125-.005.31-.08.306-.124.385-.107.14.03l-.178.098.078.022c.067.02.1.011.226-.056.098-.052.155-.07.171-.055.016.016-.009.043-.075.08-.11.063-.12.082-.05.119.037.02.07.015.143-.023.096-.049.154-.033.086.024-.063.052-.039.091.08.13.573.186 1.93.577 2.035.586.086.007.202-.006.327-.037l.193-.049.103.05c.056.026.102.057.102.067 0 .036-.09.098-.164.113-.043.008-.077.024-.077.034 0 .052.238.163.36.167a.558.558 0 0 0 .193-.074zm1.35-.083c.107-.072.127-.096.127-.16 0-.106-.188-.523-.256-.567-.05-.033-.066-.032-.179.017-.1.043-.122.063-.116.104.006.04.023.05.082.048.068-.003.084.011.167.153.11.188.114.275.02.374-.057.059-.062.074-.032.093.05.032.047.033.187-.062zm2.09.013c.123-.04.28-.105.35-.145.122-.07.442-.35.442-.386 0-.03-.197-.046-.363-.028l-.157.016.01-.369c.004-.23-.001-.369-.016-.369-.013 0-.075.117-.139.26-.108.245-.23.444-.314.514-.031.026-.054.013-.148-.082-.121-.123-.166-.14-.146-.058.007.03.031.158.053.284.066.389.082.435.147.435.032 0 .158-.032.281-.072zm-24.309-.021c.164-.093.229-.287.132-.4-.094-.11-.19-.094-.32.051-.06.066-.17.162-.243.213a.66.66 0 0 0-.134.107c0 .03.327.093.41.08a.54.54 0 0 0 .155-.051zm9.03-.071a.116.116 0 0 0-.029-.072c-.021-.021-.014-.033.03-.05.033-.012.22-.09.417-.17.328-.137.366-.147.447-.124.192.053.193.033.005-.263-.15-.238-.178-.323-.207-.649-.026-.287-.108-.192-.108.126 0 .17-.002.177-.066.203-.134.053-.935.342-.95.342a.417.417 0 0 1-.057-.136c-.06-.189-.1-.14-.098.119.001.213.057.381.163.497.054.058.364.22.422.22.017 0 .03-.02.03-.043zm-.194-.267c0-.052.794-.355.832-.317.013.012.018.027.012.033a9.041 9.041 0 0 1-.37.157c-.337.138-.474.175-.474.127zm-.181-.246c-.008-.013-.001-.03.016-.036l.467-.166c.377-.134.437-.149.45-.115.009.022.009.047 0 .056-.025.028-.804.286-.863.286-.03 0-.062-.011-.07-.025zm-9.509.41c.112-.059-.003-.347-.18-.457-.086-.053-.253-.066-.328-.025-.048.025-.096.14-.08.187.017.048.099.036.128-.018.05-.095.08-.054.066.097-.007.08-.004.145.007.145.043 0 .09-.074.105-.167.028-.18.088-.109.088.105 0 .07.007.134.016.143.024.024.126.019.178-.01zm7.963-.058c.067-.16.047-.27-.096-.527-.072-.13-.118-.235-.103-.235.066 0 .428.154.428.183 0 .017-.01.058-.023.09-.031.083-.004.1.063.037.078-.073.098-.038.053.09-.042.116-.024.14.04.053.04-.054.04-.054.027.03-.027.16-.027.176 0 .186.032.011.154-.18.154-.241 0-.113-.111-.325-.235-.449-.087-.087-.123-.139-.107-.155.034-.033.132-.004.213.064a.35.35 0 0 0 .117.067c.038.008.046.026.04.09-.008.086.006.086.102.005.044-.037.046-.035.03.045a.316.316 0 0 1-.056.127c-.022.024-.034.05-.027.056.018.018.092-.014.092-.04 0-.011.016-.02.036-.02.054 0 .046.128-.012.18-.054.05-.065.133-.017.133.017 0 .061-.035.099-.078.058-.066.066-.093.056-.181a1.275 1.275 0 0 0-.107-.303c-.087-.18-.11-.207-.231-.28-.33-.197-.483-.242-1.24-.37-.392-.065-.738-.128-.77-.14-.036-.014-.08-.072-.12-.162-.064-.138-.096-.176-.15-.177-.032 0-.092.14-.116.27-.011.064-.054.128-.155.23a1.19 1.19 0 0 0-.21.29c-.061.127-.082.15-.137.15-.068.002-.066.005-.105-.227a.685.685 0 0 0-.05-.164l-.036-.069-.138.142a3.788 3.788 0 0 1-.395.328c-.318.23-.34.274-.191.362.122.072.191.053.459-.128.137-.093.259-.17.27-.17.053 0 .008.054-.154.183-.215.17-.345.292-.409.38-.065.09-.026.138.111.138.128 0 .272-.084.708-.416.178-.137.354-.267.39-.29.135-.088.103-.037-.082.132-.288.262-.382.357-.367.371.036.036.299-.083.56-.254.335-.22.622-.364.72-.364.037 0 .067.008.066.018 0 .01-.06.061-.135.115-.143.101-.209.175-.188.209.024.039.105.02.325-.076.127-.055.28-.102.363-.111l.143-.016-.054.1c-.044.08-.048.104-.022.12a.23.23 0 0 1 .061.078c.016.032.053.062.082.066.065.009.07.071.017.175-.045.087-.014.09.083.009l.073-.062.017.066a.28.28 0 0 1-.01.139c-.042.11-.01.11.085.003l.086-.097-.015.147c-.008.08-.021.165-.03.187-.011.03-.002.04.037.04.037 0 .062-.024.087-.083zm-7.722 0c0-.082.036-.095.068-.024.048.106.077.066.077-.11 0-.153.004-.169.048-.169.04 0 .048.016.048.095 0 .053.01.102.022.11.034.02.161-.098.196-.182.027-.066.025-.082-.017-.14a.477.477 0 0 0-.306-.183c-.262-.04-.334.138-.229.56.028.111.093.142.093.043zm22.33-.039a.914.914 0 0 0 .15-.067c.03-.028-.012-.065-.113-.102-.076-.027-.109-.059-.15-.144-.08-.161-.124-.343-.086-.356a.367.367 0 0 0 .084-.054c.041-.034.048-.052.027-.073-.06-.062-.347.154-.347.261 0 .065.06.316.102.428.063.169.12.187.333.107zm-18.198-.303c.075-.18.077-.227.01-.227-.065 0-.218.386-.172.432.041.042.08-.007.162-.205zm.251.17c.04-.102.001-.16-.073-.112-.025.015-.043.083-.036.132.006.034.095.018.11-.02zm-6.015-.143c.093-.02.251-.036.35-.038.156-.002.216-.016.421-.103.132-.055.25-.119.264-.14.04-.064-.11-.34-.226-.418-.118-.078-.152-.078-.201-.003-.036.055-.036.067.008.169.046.107.046.11.001.134-.066.036-.069.034-.097-.072-.028-.104-.042-.113-.102-.067-.03.025-.035.056-.02.158.016.121.014.126-.04.126-.044 0-.06-.016-.072-.073-.011-.058-.025-.072-.065-.067-.04.006-.053.027-.06.098-.003.05-.02.09-.035.091a.456.456 0 0 0-.086.016c-.056.015-.056.014-.018-.06.051-.099.05-.101-.033-.101-.055 0-.097.027-.175.112-.169.182-.18.203-.127.242.057.041.105.04.313-.003zm5.328-.036a.145.145 0 0 0 .059-.082.669.669 0 0 1 .099-.17c.049-.064.078-.125.07-.146-.03-.077-.096-.033-.19.126-.116.195-.138.245-.12.274.017.028.028.027.082-.002zm7.986-.08.192-.102.23-.623c.208-.564.226-.627.192-.66-.03-.03-.048-.033-.09-.011-.047.026-.05.022-.05-.064-.001-.136-.026-.161-.136-.14-.052.01-.368.023-.702.028l-.609.01-.016.073c-.017.078.059.22.205.384.045.05.074.108.074.15 0 .083.078.295.27.727.122.276.156.332.198.332.028 0 .137-.047.242-.103zm-.248-.105c-.029-.065-.028-.067.01-.03.023.023.037.054.031.07-.005.016-.024-.002-.04-.04zm-.092-.523a10.115 10.115 0 0 1-.237-.519c-.019-.064.012-.068.241-.03.128.02.169.016.35-.04.113-.034.248-.083.3-.11.083-.042.092-.043.079-.007a.254.254 0 0 0-.016.08c0 .03-.006.032-.029.01-.051-.052-.073-.031-.057.053a.274.274 0 0 1-.015.147l-.03.065-.025-.092c-.02-.068-.041-.095-.08-.101-.065-.01-.065-.02-.004.155.032.094.044.17.034.224-.02.108-.044.076-.106-.135-.054-.183-.072-.209-.13-.187-.028.011-.016.063.062.28.137.378.084.396-.065.021-.102-.257-.121-.29-.173-.29-.05 0-.054.007-.036.054l.145.377c.069.178.121.334.117.348-.005.014-.088-.156-.186-.377a3.789 3.789 0 0 0-.2-.417c-.013-.008-.035-.003-.049.011-.018.018.032.152.172.456.108.237.197.444.197.46-.001.081-.055-.009-.259-.436zm-.04.281c-.111-.221-.216-.52-.206-.59.005-.036.062.085.158.34.082.22.145.402.14.407a.666.666 0 0 1-.092-.157zm-.318-1.04a.227.227 0 0 1-.096-.033c-.014-.014.155-.023.435-.023.252 0 .518-.007.591-.015.099-.011.126-.008.107.012-.049.053-.784.094-1.037.058zm2.004 1.382c.054-.07.08-.084.155-.084.05 0 .112-.016.138-.036.053-.04.218-.05.24-.014.008.013-.025.03-.072.039-.124.023-.124.051.001.07.1.015.115.01.159-.046.059-.075.094-.08.076-.011-.011.042-.004.049.044.042.049-.007.058-.022.058-.093 0-.084 0-.084-.097-.077l-.096.008.07-.057c.064-.053.066-.06.03-.097-.042-.04-.217-.078-.297-.062-.052.01-.058.054-.007.06l.131.02c.09.016.093.019.05.05a.344.344 0 0 1-.161.035c-.11 0-.115-.003-.131-.079-.02-.09-.057-.122-.101-.086-.022.018-.04.018-.064-.002-.056-.046-.095.025-.05.09.055.078.024.1-.135.1-.153 0-.277.035-.255.071.008.013.074.017.147.01.144-.015.165.007.095.1-.039.051-.047.134-.014.134.012 0 .05-.038.086-.084zm-9.486-.17a.39.39 0 0 1 .09-.115c.08-.063.073-.114-.015-.114-.12 0-.259.2-.193.28.04.049.077.033.118-.052zm20.868-.033c.035-.038.076-.05.17-.052.117 0 .126-.006.203-.11.06-.08.091-.105.121-.093.078.033.149.04.149.016 0-.098-.26-.262-.52-.33a.601.601 0 0 0-.59.19l-.059.063h.248l-.014.117a.354.354 0 0 0 .01.16c.02.036.031.03.08-.051a4.57 4.57 0 0 1 .062-.102c.003-.005.029 0 .056.008.064.02.064.062.001.185-.046.089-.046.095-.006.073a.417.417 0 0 0 .09-.074zm-1.9-.024c.048-.058.035-.167-.046-.382-.084-.221-.16-.321-.244-.321a.944.944 0 0 0-.206.054c-.108.038-.151.066-.151.097 0 .047.02.051.1.021.189-.069.176-.077.324.217.135.27.138.287.049.319-.013.004-.016.026-.007.048.013.035.025.037.083.012a.307.307 0 0 0 .097-.065zm-18.384-.111c.05-.106.06-.182.023-.182-.035 0-.079.094-.113.242-.028.122-.027.129.007.085a.958.958 0 0 0 .083-.145zm8.698-.04.266-.199v-.45h.242v-.628h-.373c-.205 0-.39.007-.41.014-.034.013-.039.1-.039.721 0 .624.006.739.04.739.005 0 .128-.09.274-.198zm-.041-.293a.654.654 0 0 0-.015-.154c-.016-.065-.012-.077.034-.089l.052-.013-.052-.085a.647.647 0 0 1-.065-.386c.011-.047.036-.066.1-.078a.405.405 0 0 1 .143 0c.052.013.057.024.045.105a.656.656 0 0 1-.049.159c-.042.084-.026.105.054.068.055-.025.06-.037.045-.124-.01-.063-.005-.11.015-.133.043-.053.079-.045.05.01a.386.386 0 0 0-.026.144c0 .072-.012.104-.048.123-.07.038-.1.11-.11.27-.011.168-.016.178-.107.226l-.07.036.004-.079zm-14.761.406c.163-.049.278-.123.278-.179 0-.025.016-.06.037-.076.022-.018.03-.047.02-.07a.239.239 0 0 1-.013-.09c.002-.027-.019-.07-.045-.094-.034-.03-.048-.074-.048-.148v-.105h-.129c-.175 0-.213.043-.193.214.014.118.01.132-.059.204-.1.106-.199.257-.199.306 0 .106.093.116.35.038zm5.288-.019c.09-.12.19-.333.175-.372-.025-.065-.104.01-.207.198-.093.168-.11.253-.05.253.013 0 .05-.036.082-.079zm17.585-.034c.076-.171.125-.402.09-.424a.12.12 0 0 0-.041-.019c-.025 0-.22.491-.207.523.028.074.108.033.158-.08zm-6.77-.038a2.11 2.11 0 0 0 .302-.683c.074-.378.092-.547.062-.583-.022-.027-.131-.034-.532-.034h-.504v.154c0 .085-.007.22-.016.3l-.015.146.136.017.136.017v.249c0 .201.008.257.043.298.069.08.25.221.285.221.018 0 .064-.046.103-.103zm-.221-.27a1.677 1.677 0 0 1-.017-.29c0-.16-.01-.257-.029-.275-.016-.016-.085-.03-.154-.03-.081 0-.135-.012-.155-.036-.026-.03-.018-.036.056-.036.158 0 .217-.053.095-.085l-.066-.017.056-.026c.041-.019.069-.018.103.003a.216.216 0 0 0 .096.029h.05l-.052-.067-.052-.066.14-.007c.084-.004.152-.02.167-.04.033-.044.1.003.12.085.011.046-.002.075-.058.129a.27.27 0 0 0-.087.18 9.12 9.12 0 0 1-.024.177c-.02.125.057.046.084-.087.026-.127.196-.43.213-.379a.554.554 0 0 1-.062.178c-.04.083-.078.192-.086.243a.39.39 0 0 1-.1.187.44.44 0 0 0-.085.118c0 .012-.023.03-.05.038a.123.123 0 0 0-.069.066c-.016.045-.02.046-.034.008zm-15.392.295c.068-.068.004-.212-.08-.18-.06.023-.097.128-.06.172.036.044.1.048.14.008zm10.305.016a.424.424 0 0 0-.02-.15.53.53 0 0 1-.007-.276c.04-.197-.021-.47-.129-.575-.097-.095-.152-.094-.202.004-.046.092-.105.164-.134.164-.01 0-.036-.039-.055-.085-.074-.178-.145-.066-.13.205l.008.132.2.154c.149.114.216.185.261.274.06.12.165.196.208.153zm1.13-.08c.07-.051.125-.191.106-.267-.018-.069-.037-.064-.085.021-.05.089-.178.17-.268.17-.05 0-.073-.016-.092-.065-.027-.072-.059-.055-.083.043-.012.051-.002.074.053.118.057.045.087.051.189.04a.463.463 0 0 0 .18-.06zm10.64-.107a2.61 2.61 0 0 0 .13-.313c.041-.133.04-.14-.002-.187-.046-.051-.085-.064-.085-.029 0 .032-.185.414-.255.529l-.063.101.08.036a.89.89 0 0 0 .095.037.781.781 0 0 0 .1-.174zm-22.931-.01a.843.843 0 0 0 .136-.158c0-.05-.178-.087-.483-.101-.268-.013-.32-.01-.288.015.02.017.034.044.029.06-.012.035.051.07.166.092.058.01.092.032.1.062.009.033.034.047.087.047.064 0 .075.009.075.06 0 .033.01.06.02.06a.839.839 0 0 0 .158-.137zm6.725.095a.912.912 0 0 0 .115-.167c.074-.128.121-.172.326-.31.323-.22.349-.267.357-.653.003-.16.018-.328.031-.374.036-.119.032-.207-.01-.242-.05-.041-.096 0-.175.156a1.42 1.42 0 0 1-.183.255 1.28 1.28 0 0 0-.187.279c-.036.08-.138.279-.226.44-.146.267-.16.307-.16.435 0 .164.04.227.112.18zm12.209-.08c.234-.117.304-.207.3-.387a.474.474 0 0 0-.031-.17c-.027-.05-.03-.047-.073.049-.05.111-.166.18-.358.21-.118.019-.148.066-.148.236 0 .102.032.16.087.16.015 0 .116-.044.223-.097zm-16.787.008c.113-.121.333-.639.333-.785 0-.086-.068-.24-.112-.254-.015-.005-.094.045-.176.111-.1.08-.19.13-.27.149-.075.018-.13.047-.146.078-.023.043-.02.047.019.03.154-.065.395-.105.395-.065 0 .057-.077.099-.23.125-.152.027-.229.07-.229.126 0 .01.063.02.139.02.158 0 .208.022.186.08-.013.033-.052.04-.218.04-.202 0-.202 0-.241.076-.022.041-.03.084-.02.095.04.039.433.24.47.24.02 0 .066-.03.1-.066zm26.425-.218c.082-.072.087-.083.053-.117-.03-.031-.033-.052-.011-.11.034-.09.002-.145-.102-.175-.065-.018-.076-.033-.076-.1 0-.1-.044-.135-.173-.136-.111-.001-.14-.024-.14-.11-.001-.069-.078-.109-.19-.1-.076.008-.09 0-.096-.043a.183.183 0 0 0-.053-.093c-.04-.036-.057-.037-.161-.008l-.117.033-.049-.071c-.117-.173-.266-.204-.334-.07a1.074 1.074 0 0 0-.051.272 1.013 1.013 0 0 1-.088.36c-.039.085-.07.158-.07.162 0 .004.04.02.09.033.108.03.123.016.265-.265.05-.1.095-.186.098-.191.004-.006.02.003.036.018.022.023.006.075-.073.235-.056.113-.102.21-.102.217 0 .006.024.011.054.01.058 0 .157-.117.26-.307.054-.097.102-.127.13-.082.008.012-.018.071-.057.132-.115.182-.181.353-.149.385.037.038.196-.116.311-.303.057-.09.1-.137.126-.132.058.012.037.086-.095.333-.062.115-.085.217-.05.217.046 0 .26-.214.292-.29.033-.08.064-.089.132-.04.041.03.031.046-.14.225-.172.18-.18.194-.135.222.04.025.06.02.137-.036.05-.036.14-.113.201-.172l.111-.105.032.076c.03.07.028.08-.014.103a1.093 1.093 0 0 0-.155.133l-.109.11.073.03c.068.028.078.024.185-.071l.204-.18zm-27.496.227c.036-.044.009-.112-.045-.112-.056 0-.107.062-.089.109.018.045.097.047.134.003zm23.166-.02c.085-.038.077-.077-.022-.113-.126-.045-.19-.139-.174-.256.007-.053.032-.11.055-.127.052-.038.183-.04.22-.005.018.02.03.019.043 0 .028-.047-.01-.144-.072-.184-.05-.033-.078-.035-.193-.011-.157.033-.27.118-.298.224a.556.556 0 0 0 .06.375.34.34 0 0 0 .381.098zm-12.89-.083c.02-.018.118-.072.217-.12.212-.102.264-.145.264-.213 0-.077-.09-.208-.142-.208a1.09 1.09 0 0 0-.239.097c-.21.105-.222.123-.223.318 0 .188.022.211.122.126zm4.5-.004c.053-.056.065-.09.065-.19 0-.119-.003-.124-.075-.138a.541.541 0 0 0-.249 0c-.029.01-.038.049-.038.155 0 .123.008.147.064.19.086.069.156.063.233-.017zm-14.569.005c.034-.034.035-.046.005-.09-.071-.109-.207-.056-.175.068.018.072.109.083.17.022zm4.366-.132c.091-.093.166-.18.166-.193 0-.03-.12-.03-.21.002-.122.043-.269.285-.209.345.04.04.098.005.253-.154zm6.555.099c.044-.042.04-.052-.098-.318-.08-.151-.154-.275-.166-.275-.04 0-.039.132.002.333.052.258.094.34.165.318a.295.295 0 0 0 .097-.058zm10.437-.284.15-.303-.056-.045a.236.236 0 0 0-.073-.045c-.009 0-.088.151-.176.337-.159.336-.16.337-.107.372.035.024.061.027.081.01.017-.013.098-.16.18-.326zm-19.26.012.364-.293-.252-.067c-.346-.094-.458-.092-.565.009-.108.1-.254.347-.254.428 0 .128.161.257.286.229.031-.007.22-.145.42-.306zm-2.452.242c.04-.04.036-.108-.01-.125-.041-.016-.13.023-.13.057 0 .089.08.128.14.068zm5.366-.083c.229-.115.537-.527.577-.772.012-.074.007-.082-.043-.082-.037 0-.096.045-.178.138-.067.076-.221.242-.341.368-.221.233-.35.388-.35.423 0 .037.2-.008.335-.075zm1.623-.232c.084-.175.157-.366.164-.422.014-.13-.133-.756-.178-.756-.048 0-.107.07-.107.128 0 .03-.044.14-.098.246-.11.216-.112.273-.021.537.033.096.047.201.047.361 0 .124.009.226.02.226.011 0 .09-.144.173-.32zm-6.482.149c.008-.07-.049-.131-.103-.11-.043.016-.047.071-.011.14.035.065.105.047.114-.03zm-.285-.035c0-.064-.042-.087-.103-.056-.053.028-.054.084-.001.113.058.033.104.008.104-.057zm18.723.008c.166-.062.248-.16.248-.297a.219.219 0 0 0-.07-.18c-.084-.09-.136-.1-.111-.02.01.03.023.09.03.133.011.074.006.081-.101.129-.147.064-.361.088-.413.045a.355.355 0 0 1-.072-.112c-.044-.107-.084-.102-.084.01 0 .128.043.267.1.324.043.043.067.047.198.032.082-.01.206-.038.275-.064zm-19.134-.07c0-.08-.036-.11-.085-.07a.094.094 0 0 0-.009.138c.044.043.094.007.094-.067zm4.592-.053c0-.025-.013-.042-.029-.036-.048.016-.123.133-.104.163.024.038.133-.065.133-.127zm-4.362.028c0-.019-.03-.037-.067-.041-.077-.01-.113.048-.065.105.026.032.037.032.08.003.029-.019.052-.049.052-.067zm28.203-.022c.08-.053.218-.119.307-.146.09-.026.198-.065.242-.085.076-.035.068-.036-.15-.022a3.552 3.552 0 0 0-.423.055c-.19.04-.193.043-.2.119-.008.076.028.176.062.176.01 0 .082-.044.162-.097zm-27.552.035c.048-.048.048-.116 0-.156-.03-.025-.045-.022-.084.013-.053.049-.064.146-.017.165.05.02.061.018.1-.022zm17.275-.072a3.259 3.259 0 0 0-.02-.136c-.014-.08-.01-.092.053-.124.104-.053.372-.137.438-.137.045 0 .067.021.099.096.025.06.056.096.083.097.056 0 .054-.01-.04-.193-.068-.135-.093-.162-.173-.189-.255-.085-.625.095-.622.302 0 .038.025.13.054.208.04.103.065.138.094.132.024-.005.038-.028.035-.056zm-17.636-.023c0-.053-.076-.08-.115-.04-.018.018-.016.038.006.064.042.051.109.036.109-.024zm8.935-.068c.038-.08.037-.08-.04-.133a.447.447 0 0 0-.09-.053c-.007 0-.02.051-.03.114-.01.079-.005.119.016.132.06.038.106.019.144-.06zm-9.119.034c.05-.032.012-.099-.057-.099-.043 0-.061.013-.061.045 0 .074.05.097.118.054zm.36-.007c.041-.041.036-.139-.008-.156-.036-.014-.132.052-.132.09 0 .024.07.095.094.095.01 0 .03-.013.046-.029zm22.307-.043c.022-.04.049-.073.058-.073.01 0 .116-.096.236-.213.218-.213.218-.214.16-.245-.05-.027-.092-.022-.296.032l-.238.063-.057-.058-.057-.057.065-.198c.037-.108.062-.2.058-.203a.75.75 0 0 0-.081-.035c-.06-.023-.11-.018-.295.03-.217.055-.224.055-.263.012-.038-.042-.038-.057.009-.244.053-.212.05-.225-.06-.29-.068-.04-.071-.038-.286.09-.164.097-.233.126-.281.116-.063-.013-.065-.02-.094-.295-.017-.155-.043-.29-.057-.3-.053-.034-.13-.017-.223.05a3.076 3.076 0 0 1-.208.135c-.095.055-.122.062-.165.038-.043-.023-.05-.042-.037-.104.009-.042.022-.137.03-.211.014-.133.013-.135-.068-.187l-.081-.052-.17.17c-.197.198-.22.215-.303.215-.05 0-.09-.04-.216-.218a2.632 2.632 0 0 0-.174-.231c-.01-.007-.019.16-.018.37v.382l.056-.145c.051-.133.058-.14.084-.092a.53.53 0 0 1 .03.181l.002.128.024-.09c.027-.1.035-.105.1-.055.035.026.041.05.028.11-.022.102.027.075.075-.04.038-.09.094-.107.113-.033.013.047.014.047.117 0 .078-.034.11-.039.123-.017.033.052.02.083-.042.099-.084.021-.245.171-.264.247-.015.061.037.178.08.178.011 0 .033-.043.049-.096a.29.29 0 0 1 .081-.133c.078-.054.25-.048.309.011.057.058.06.117.012.234a.885.885 0 0 0-.037.095c0 .029.1.002.154-.04.054-.043.064-.07.064-.17 0-.11.004-.119.059-.119.073 0 .134.06.134.13 0 .097.074.16.34.294.145.073.38.219.522.324l.259.192.116-.098c.101-.084.119-.091.133-.054.012.03-.01.063-.076.12-.105.088-.077.146.032.065.075-.055.173-.09.172-.062 0 .01-.02.052-.047.09-.025.04-.04.08-.034.091.022.036.097.02.142-.028.045-.05.097-.063.118-.029.007.011-.017.061-.052.111l-.065.09.06.047c.08.06.091.059.14-.026zM93.4 180.37c.02-.032.018-.047-.01-.065-.047-.029-.109.03-.088.085.018.047.062.038.098-.02zm5.262-.015c.217-.102.504-.413.504-.546 0-.077-.024-.087-.094-.038-.124.087-.279.153-.552.233a2.015 2.015 0 0 0-.392.155.488.488 0 0 1-.185.076.648.648 0 0 0-.13.02l-.06.016.065.044c.167.11.646.133.844.04zm20.44.032c.114-.045.133-.088.1-.23-.026-.12-.128-.4-.187-.513-.037-.073-.194-.23-.231-.232-.03-.002-.02.194.019.374.029.131.058.435.06.622 0 .031.14.02.24-.02zm-23.972-.006c0-.04.196-.241.306-.315.133-.087.257-.096.528-.037.093.02.207.044.254.052l.084.014-.06-.065a.9.9 0 0 0-.211-.14c-.144-.07-.163-.074-.351-.06-.268.018-.354.047-.486.164-.112.098-.112.1-.112.253 0 .087.01.155.024.155.013 0 .024-.009.024-.02zm18.011-.164c.227-.133.293-.208.273-.309-.014-.071-.123-.207-.166-.207-.012 0-.016.03-.01.067.019.097-.01.133-.197.244-.192.114-.225.12-.337.051l-.08-.049.016.055c.044.147.2.3.277.271.02-.007.12-.062.224-.123zm-19.377.074c.087-.087-.019-.175-.11-.093-.053.049-.06.098-.016.116.055.022.086.016.126-.024zm-.555-.038c.063-.05.064-.054.021-.085-.039-.029-.04-.037-.01-.056.054-.034.064-.03.156.05.097.086.19.09.202.008.005-.033-.014-.065-.054-.09-.034-.023-.062-.057-.062-.077 0-.046.008-.045.125.014.054.028.104.044.112.036.035-.035.07-.294.047-.358-.024-.07-.126-.139-.208-.139-.044 0-.172.125-.172.168a.65.65 0 0 1-.169.108c-.192.102-.242.159-.242.28 0 .177.122.245.254.141zm.94.015c.05-.05.048-.067-.008-.118-.096-.087-.202.025-.11.116.049.05.07.05.119.001zm7.313-.148c0-.28-.123-.455-.453-.648a.989.989 0 0 0-.194-.099c-.017.018.171.366.315.582.177.265.23.326.288.326.038 0 .044-.021.044-.161zm19.945.122c.043-.022.158-.094.255-.16.098-.066.231-.142.296-.169.065-.027.119-.056.119-.064s-.112-.009-.248-.002c-.136.007-.252.01-.257.007a.599.599 0 0 1 .054-.149c.063-.139.177-.624.153-.648-.016-.015-.191.22-.254.343a4.03 4.03 0 0 1-.154.257l-.104.16-.242-.142a3.299 3.299 0 0 0-.255-.142c-.008 0-.007.047.002.105.027.178.23.5.379.598.084.056.156.058.257.006zm-28.964-.035c.082-.028.15-.059.15-.068 0-.034-.184-.19-.259-.219a.837.837 0 0 1-.155-.088.302.302 0 0 0-.16-.058c-.112 0-.19-.046-.344-.204-.114-.116-.194-.166-.194-.122 0 .048.078.18.142.24.041.039.075.084.075.101s.02.041.042.054c.024.013.043.043.043.066 0 .029.028.05.084.065.112.029.116.036.051.081-.075.053-.038.081.128.098.132.014.135.016.096.06-.039.042-.036.044.055.044a.978.978 0 0 0 .246-.05zm9.482-.324c.049-.16.09-.314.09-.343.003-.053-.098-.153-.154-.153a.838.838 0 0 1-.18-.098.559.559 0 0 0-.164-.086.55.55 0 0 0 .05.164c.075.19.137.484.137.656 0 .144.012.167.083.157.04-.006.065-.06.138-.297zm.954.266c.023-.06-.042-.381-.096-.48-.046-.083-.054-.088-.082-.05-.042.058-.039.223.006.35.066.188.14.264.172.18zm-.456-.019a2.23 2.23 0 0 0 .089-.354c.052-.266.058-.33.033-.355-.066-.063-.362-.209-.382-.188-.012.012.02.197.074.43.052.224.095.428.095.453 0 .05.055.06.09.014zm9.887.01c.023-.016.026-.034.009-.067-.045-.084.006-.144.179-.213l.165-.066.054.063c.042.049.068.06.115.048.034-.008.061-.02.061-.028 0-.043-.184-.25-.233-.263a.524.524 0 0 0-.367.08c-.186.115-.211.21-.102.388.052.083.066.09.119.057zm-17.748-.162c.264-.183.287-.213.24-.304a.892.892 0 0 0-.313-.273.649.649 0 0 0-.445.005c-.164.084-.214.22-.184.501.014.13.025.159.057.153.025-.005.047-.047.06-.117a.346.346 0 0 1 .058-.144c.034-.033.036-.024.024.09-.011.098-.007.127.019.127.03 0 .085-.181.085-.279 0-.021.024-.035.06-.035.075 0 .075.005 0 .192-.097.237-.034.237.086 0 .075-.148.085-.157.14-.122.045.028.02.1-.08.23-.068.09-.083.135-.045.135.005 0 .112-.071.238-.159zm8.63-.12c.043-.12.058-.191.042-.207-.047-.047-.102.01-.151.154-.063.185-.064.235-.004.235.035 0 .061-.043.112-.183zm.29-.074c.028-.128.032-.19.014-.209-.056-.056-.186.289-.138.366.043.07.084.018.123-.157zm-6.619.088c.114-.07.176-.21.176-.394a.645.645 0 0 0-.442-.613c-.2-.066-.564-.019-1.143.149-.03.009-.092.087-.152.192-.137.242-.219.308-.408.332l-.055.007.062.09c.037.055.059.117.055.156-.006.054.005.069.068.087.063.018.091.012.17-.04.096-.062.396-.136.556-.136.05 0 .244.043.43.095.51.143.562.149.683.075zm16.16-.154c-.015-.129-.015-.129.09-.219.125-.107.196-.128.3-.091.099.036.109.035.109-.011 0-.021-.039-.077-.086-.124-.074-.074-.096-.083-.17-.071-.137.022-.3.113-.352.195a.25.25 0 0 0-.038.172c.014.132.08.277.125.277.031 0 .035-.021.023-.128zm-14.364.045c.113-.03.154-.058.284-.197.088-.093.143-.171.131-.183a.288.288 0 0 0-.11-.036c-.096-.016-.263.052-.463.188a.588.588 0 0 1-.193.081c-.149.025-.278.067-.278.09 0 .084.39.12.629.057zm15.236-.022c.066-.066.166-.363.145-.43a.142.142 0 0 0-.06-.07c-.053-.028-.064-.018-.253.215a.798.798 0 0 1-.14.149.352.352 0 0 1-.088-.036c-.06-.03-.073-.03-.098 0-.038.045-.016.075.116.16.144.09.295.096.378.012zm-20.815-.031c.061-.056.056-.147-.028-.512a8.48 8.48 0 0 1-.074-.334c-.001-.046-.055.079-.098.23-.076.265-.05.463.08.601.062.066.064.066.12.015zm4.194-.015c.09-.098.11-.162.093-.293-.04-.313-.149-.59-.284-.732-.102-.106-.32-.197-.55-.23-.338-.05-1.092.047-1.257.162-.143.098-.158.087-.205-.15-.051-.256-.088-.333-.19-.395-.107-.065-.119-.06-.067.031.025.044.074.203.11.354.053.224.059.28.033.296-.07.044-.088.011-.153-.26-.082-.34-.15-.444-.362-.553-.179-.09-.355-.094-.617-.011l-.181.057.217.017c.12.01.247.029.283.043.141.055.205.255.165.52-.03.195.002.347.095.466.18.228.386.2.78-.107.176-.137.201-.148.4-.184.571-.103.967-.11 1.168-.022a.68.68 0 0 1 .333.304c.07.146.132.485.115.625-.015.13 0 .143.074.063zm10.665.019a.036.036 0 0 1 .072 0c0 .02.022.036.049.036.026 0 .048-.016.048-.036 0-.02.021-.037.048-.037s.049.016.049.037c0 .02.01.036.024.036.013 0 .024-.027.024-.06 0-.06-.004-.061-.181-.061-.178 0-.182.001-.182.06 0 .034.011.06.025.06.013 0 .024-.016.024-.035zm3.474-.38.007-.404-.1-.051-.1-.051.017.418c.009.23.022.439.029.463.009.03.031.041.077.036l.064-.007zm-11.737.228c.077-.087.082-.117.046-.288-.03-.142.005-.307.132-.632a1.08 1.08 0 0 0 .076-.238c-.024-.024-.254.121-.375.236-.19.182-.21.286-.12.635a.864.864 0 0 1 .035.325l-.015.129.075-.044a.725.725 0 0 0 .146-.123zm7.598-.948v-1.099l-.107.008c-.18.013-.454.094-.627.185-.187.098-.603.458-.723.625a1.65 1.65 0 0 0-.244.564c-.065.259-.133.787-.104.816.007.007.417.01.91.007l.895-.006zm-1.534.917c.081-.07.082-.071.016-.047-.085.03-.138.031-.09.002.028-.019.029-.029.002-.06-.025-.032-.026-.052 0-.114.031-.075.032-.075.166-.06.355.042.413.045.413.02 0-.015-.04-.03-.09-.036-.086-.01-.085-.01.02-.014.14-.005.167.026.163.183-.003.136.005.131-.274.165l-.097.012.097-.054c.074-.04.086-.056.052-.063-.05-.01-.185.04-.185.07 0 .022-.157.07-.23.07-.04-.001-.034-.013.036-.073zm.954.025c-.058-.014-.062-.019-.018-.02.03-.003.054-.019.054-.038 0-.021.039-.04.103-.05a.358.358 0 0 0 .157-.068l.055-.05-.09-.05a.383.383 0 0 1-.152-.171l-.06-.12-.008.104a.271.271 0 0 0 .03.162c.055.084.048.1-.047.119-.11.02-.147-.003-.087-.055.046-.04.046-.047.01-.213-.052-.23-.038-.261.104-.242l.111.016-.017-.067c-.019-.077-.105-.223-.131-.223-.047 0-.046.038.002.089.059.062.036.115-.043.1-.064-.012-.086-.166-.077-.551.007-.287.013-.327.05-.335.03-.006.042.008.042.05 0 .031-.012.069-.026.083-.02.019-.004.042.051.082.076.054.079.054.112.009.029-.04.028-.05-.005-.075-.052-.038-.076-.213-.034-.24.02-.01.036-.007.041.01.016.047.136.033.17-.02.081-.131.105.005.03.176-.072.16-.085.358-.04.596.022.112.045.209.052.215.022.022.012-.467-.012-.548a.196.196 0 0 1 .004-.14c.028-.06.088-.066.07-.006a4.953 4.953 0 0 0-.02.408c-.009.304-.018.38-.048.404-.035.026-.033.045.014.188.055.169.066.326.028.398-.044.082-.211.115-.375.073zm.146-1.137c.014-.046 0-.093-.022-.069-.026.028-.04.119-.018.119.013 0 .031-.023.04-.05zm-.134-.084c0-.046-.01-.084-.023-.084-.031 0-.059.11-.04.159.024.062.063.014.063-.075zm-.737.835c-.008-.014-.003-.024.01-.024.015 0 .026.01.026.024 0 .013-.005.024-.01.024-.006 0-.018-.01-.026-.024zm-.07-.155c.066-.049.023-.077-.047-.031-.072.047-.097.028-.052-.04.022-.034.026-.065.013-.087-.028-.046.036-.17.087-.17.022 0 .074.02.116.047a.57.57 0 0 0 .175.063c.13.02.161-.027.039-.061a.52.52 0 0 1-.128-.052c-.03-.022-.029-.024.008-.012.041.014.072.02.215.05.05.01.054.021.047.157l-.008.146-.113-.002c-.102-.001-.107-.004-.052-.027.038-.016.048-.03.029-.037-.018-.006-.085.01-.15.039a.622.622 0 0 1-.172.05c-.053 0-.054 0-.008-.034zm.082-.57c0-.014.016-.024.035-.024.046 0 .083-.068.068-.124-.018-.068.056-.082.13-.024.128.102.226.043.117-.071-.054-.056-.061-.077-.039-.104.033-.04.148-.068.148-.037 0 .012-.013.021-.03.021-.085.001-.094.04-.032.133.045.065.055.1.038.121a.077.077 0 0 0-.01.07c.023.059-.062.08-.102.026-.032-.043-.038-.044-.148-.004-.131.047-.175.05-.175.016zm1.624 1.13c-.006-.104 0-.137.04-.172.046-.042.053-.042.136-.002.048.023.094.034.102.026.03-.029-.051-.216-.127-.297-.086-.09-.182-.106-.271-.043-.047.033-.054.059-.054.216 0 .185.025.285.09.356.068.075.092.05.084-.085zm1.055.037c.049-.055.056-.083.046-.185-.015-.157-.075-.209-.24-.209-.094 0-.13.013-.178.06-.032.032-.06.081-.06.108 0 .043.016.05.122.05.131 0 .13-.001.121.166-.006.105-.005.106.064.09a.294.294 0 0 0 .125-.08zm3.158.076c.037-.01.064-.065.113-.236a4.44 4.44 0 0 0 .073-.267c.01-.064-.094-.133-.229-.151l-.114-.016v.304c0 .166-.007.32-.015.341-.011.03 0 .038.054.038.038 0 .091-.006.118-.013zm-10.424-.358a1.126 1.126 0 0 1-.125-.44v-.109l-.151-.07a2.92 2.92 0 0 1-.254-.133l-.103-.064v.12c0 .18.069.309.308.576.12.133.249.296.287.36l.07.12.007-.13a.455.455 0 0 0-.04-.23zm11.024.022c.085-.19.073-.21-.116-.2l-.12.005-.054.178a4.76 4.76 0 0 0-.069.247l-.015.07.15-.069c.145-.066.154-.075.224-.23zm-4.153.18c-.008-.013-.101-.024-.207-.024-.112 0-.192.01-.192.024s.085.024.207.024c.132 0 .202-.009.192-.024zm.616-.024c0-.027.016-.048.037-.048.02 0 .036.021.036.048 0 .038.016.048.072.048.057 0 .073-.01.073-.048 0-.027.01-.048.024-.048.013 0 .024.021.024.048 0 .028.016.048.038.048.028 0 .036-.02.03-.078l-.008-.079-.2-.007-.199-.007v.086c0 .06.011.085.037.085.02 0 .036-.021.036-.048zm-5.558-.107a.47.47 0 0 0-.086-.146 6.51 6.51 0 0 1-.256-.39c-.168-.273-.226-.336-.323-.352-.11-.018-.053.371.084.571.096.139.275.299.356.317.037.008.079.018.092.023.063.02.133.009.133-.023zm4.797-.006c.1-.1.113-.307.03-.455-.077-.135-.122-.135-.187 0-.063.13-.06.33.009.432.047.073.092.08.149.023zm4.678-.083c.027-.055.045-.104.038-.111-.034-.035-.163.027-.208.1-.065.105-.063.11.035.11.074 0 .09-.012.135-.099zm-9.216-.143.05-.12-.067-.049a.28.28 0 0 0-.092-.048c-.042 0-.075.284-.037.322.045.046.098.007.146-.105zm5.65.073c0-.03-.04-.036-.217-.036-.19 0-.219.006-.226.043-.008.04.012.042.217.036.182-.006.226-.014.226-.043zm-8.367-.016c.01-.009-.03-.056-.088-.107a.794.794 0 0 1-.183-.263c-.074-.16-.078-.18-.053-.279a.635.635 0 0 0-.03-.45.535.535 0 0 0-.324-.253c-.073-.015-.08-.01-.117.077-.036.085-.036.097 0 .154.023.034.058.098.078.144.036.08.034.088-.053.273-.117.25-.13.366-.055.476a.484.484 0 0 0 .302.21c.121.032.496.045.523.018zm8.623-.245c.036-.11.01-.19-.074-.234-.135-.07-.292-.031-.34.084-.033.082-.021.27.019.284.017.006.03-.01.03-.04 0-.06.077-.105.164-.095.059.007.066.019.073.115l.008.107.047-.07a.775.775 0 0 0 .073-.151zm6.685-.283c.262-.51.293-.62.184-.636-.063-.009-.083.02-.228.34-.058.129-.114.235-.123.235-.009 0-.024-.048-.033-.107-.014-.096 0-.147.134-.47.154-.372.164-.437.074-.485-.054-.03-.06-.023-.195.225-.076.14-.109.18-.123.155-.045-.08-.023-.185.086-.415.12-.25.132-.357.05-.425-.057-.047-.092-.017-.194.17l-.096.175-.042-.098-.043-.098.11-.226c.097-.197.11-.24.099-.338-.017-.146-.096-.301-.166-.325a1.507 1.507 0 0 0-.274-.02c-.257-.002-.336-.041-.458-.228l-.072-.112-.408-.007c-.327-.005-.42 0-.463.03-.03.019-.074.029-.1.022-.028-.007-.064.008-.091.038-.057.062-.11.064-.11.004a.108.108 0 0 0-.034-.073c-.027-.023-.044-.011-.087.058a.37.37 0 0 1-.097.11c-.064.033-.278.027-.447-.014-.08-.019-.2-.035-.269-.035-.122 0-.124 0-.205.126-.091.14-.13.158-.352.161-.19.003-.236.042-.217.182.01.072.036.12.099.177l.085.078.26-.002c.233-.002.27-.008.35-.06a.44.44 0 0 1 .113-.058c.034 0 .052.065.052.196 0 .164.053.183.16.058l.081-.093v.086c0 .058-.02.112-.06.159a.275.275 0 0 0-.06.098c0 .047.135.03.183-.024.04-.044.046-.09.046-.374 0-.231.008-.324.028-.324a.216.216 0 0 0 .063-.013c.047-.018.088.085.11.28l.018.156.065-.11a.766.766 0 0 0 .081-.189c.011-.054.028-.076.055-.07.033.006.04.046.04.257v.25l.084.072c.118.1.296.187.418.204.145.02.443-.03.573-.096.084-.042.132-.093.212-.223.073-.118.116-.165.145-.16.083.017.082.051-.002.19-.101.166-.218.284-.318.322a5.3 5.3 0 0 1-.55.131c-.1.018-.12.069-.045.11.063.034.34.032.48-.003.096-.024.157-.07.377-.284.145-.14.257-.234.25-.207-.089.316-.097.332-.247.442-.192.143-.251.166-.56.216-.251.041-.262.045-.27.106-.006.056.004.065.086.078.169.028.433.017.527-.022.05-.021.16-.08.247-.133.086-.052.16-.095.166-.095.005 0 .01.032.01.07 0 .06-.02.084-.14.155-.244.147-.33.181-.532.212-.179.027-.198.036-.198.084 0 .066.045.076.434.098l.29.016v.069c0 .053-.013.072-.06.083-.057.015-.06.025-.06.182 0 .092.009.167.021.167.012 0 .099-.034.193-.076l.173-.076.155.042.156.042.017.136c.045.368.088.34.39-.25zm-2.058-1.546c-.137-.037-.207-.107-.207-.21v-.071l.094.075c.07.057.126.079.227.089.18.019.228.003.393-.125.153-.119.152-.119.204-.086.03.02.03.033-.005.106-.104.217-.391.307-.707.222zm.796-.463c-.105-.044-.194-.05-.399-.022-.121.015-.142.01-.245-.056-.081-.052-.117-.093-.13-.148-.02-.096-.05-.107-.171-.064-.114.04-.18.016-.161-.057.009-.036.033-.049.088-.05a.275.275 0 0 0 .158-.068c.08-.067.085-.068.193-.034a.98.98 0 0 0 .29.026l.178-.008.033.11c.018.062.054.13.08.154.076.07.354.16.491.16.114 0 .122.003.087.037-.058.058-.37.07-.492.02zm-.332-.184c.042-.034.037-.115-.01-.167-.055-.061-.081-.056-.081.017 0 .083-.064.102-.125.037-.065-.07-.081-.05-.034.043.062.12.155.146.25.07zm-1.976-.064c0-.095.057-.135.187-.129.209.009.235.099.047.158-.192.06-.234.055-.234-.029zM99.13 179.1c.123-.057.173-.114.193-.224l.016-.087-.14-.018c-.077-.01-.143-.008-.147.003-.036.102-.085.15-.218.214a.59.59 0 0 0-.151.089c0 .029.13.064.241.066a.57.57 0 0 0 .206-.043zm9.857-.01a.58.58 0 0 0 .015-.12.91.91 0 0 1 .087-.247c.115-.24.121-.368.022-.473a1.204 1.204 0 0 0-.136-.122l-.064-.046-.087.167c-.1.189-.11.297-.042.432.025.05.065.174.089.277.043.186.088.237.116.133zm-14.782.011c.022-.014.014-.057-.034-.174-.06-.149-.062-.166-.037-.35.033-.248.008-.391-.08-.461-.055-.045-.098-.053-.274-.054-.13 0-.28-.02-.4-.051-.226-.06-.232-.06-.232-.018 0 .095.239.183.544.2.397.023.401.028.34.406l-.042.254.076.134c.08.138.089.146.139.114zm7.642-.299.002-.234-.109-.089c-.069-.056-.109-.108-.109-.142 0-.059-.077-.139-.241-.248-.13-.087-.315-.183-.328-.17-.005.004.077.137.183.295.106.158.193.301.193.32 0 .066.175.377.272.482.124.135.135.118.137-.214zm6.72.234c.007-.04.03-.075.052-.08.05-.01.117.058.117.118 0 .032.017.047.052.047.046 0 .05-.01.036-.098-.023-.141-.104-.3-.172-.337-.092-.05-.23.012-.286.127-.05.102-.04.154.045.246.076.082.14.072.156-.023zm-6.121-.105c-.033-.236-.211-.559-.353-.641-.106-.061-.39-.14-.39-.109a.67.67 0 0 0 .12.15c.066.07.174.21.24.31.146.225.327.42.367.395.017-.011.024-.052.016-.105zm5.493-.197c0-.063.039-.062.056.002.017.067.098.052.109-.02.01-.077.077-.07.077.008 0 .096.082.068.092-.032l.008-.079h-.414v.085c0 .059.01.084.036.084.02 0 .036-.021.036-.048zm-.376-.127c.007-.03.015-.092.019-.138.005-.067.02-.089.072-.107.051-.018.076-.014.11.017.025.023.07.041.1.041.051 0 .054-.007.038-.103-.04-.243-.15-.391-.291-.387-.102.003-.144.035-.208.16-.04.078-.046.12-.032.231.03.252.158.441.192.286zm1.076-.162c.134-.265.089-.533-.09-.532-.118 0-.22.085-.297.248a.76.76 0 0 0-.072.207c0 .055.004.056.143.04.129-.015.146-.011.17.032a.25.25 0 0 1 .026.1c0 .088.046.052.12-.095zm-7.37.092c0-.04-.113-.184-.231-.298a.531.531 0 0 1-.144-.23c-.055-.17-.162-.383-.228-.453-.058-.061-.27-.175-.326-.175a.558.558 0 0 0-.146.053c-.096.046-.11.063-.11.13 0 .072.01.08.151.133a.984.984 0 0 1 .54.558c.042.12.096.185.18.22.232.094.314.11.314.062zm7.02-.02c.01-.016-.068-.024-.216-.024-.138 0-.23.01-.23.024s.087.024.215.024c.12 0 .223-.011.231-.024zm-9.076-.099c.266-.114.664-.69.66-.957-.002-.133-.156-.455-.322-.674-.067-.089-.116-.166-.11-.173.028-.028.143.025.234.106.103.094.337.426.337.48 0 .018.01.06.023.093l.023.06.147-.05c.197-.067.273-.043.58.188.25.19.368.252.47.252.085 0 .077-.035-.021-.096a2.519 2.519 0 0 1-.32-.33 2.667 2.667 0 0 0-.346-.35c-.097-.065-.122-.071-.231-.058-.116.014-.124.012-.153-.05l-.03-.065.225.015c.248.018.202-.006.714.359.14.1.193.124.277.126.129.003.15-.052.044-.115-.127-.074-.308-.274-.414-.455-.135-.231-.267-.37-.4-.421-.102-.04-.115-.04-.245 0-.076.024-.201.077-.279.118-.117.062-.144.068-.162.04a.14.14 0 0 1-.022-.06c0-.012.113-.086.25-.163.27-.15.455-.296.511-.406.07-.133.02-.409-.073-.409-.02 0-.068.065-.108.144-.072.141-.075.144-.245.198a1.039 1.039 0 0 0-.372.218c-.19.153-.203.16-.24.12a.169.169 0 0 1-.038-.058c0-.018.35-.264.448-.314.085-.044.127-.123.148-.275.017-.124-.022-.142-.1-.044-.034.043-.095.072-.201.097-.245.056-.428.178-.488.325-.019.044-.048.072-.076.072-.037 0-.025-.026.066-.143.084-.108.115-.171.124-.252.018-.157-.014-.368-.065-.43-.039-.048-.049-.051-.085-.021-.034.028-.038.06-.025.195l.016.16-.137.204c-.166.244-.148.223-.179.204-.016-.01-.003-.05.035-.107.052-.078.061-.122.065-.295a.722.722 0 0 0-.026-.258c-.029-.053-.215-.165-.237-.143-.006.006.006.052.027.101a.478.478 0 0 1 .01.338 1.965 1.965 0 0 0-.042.206c-.013.087-.026.11-.068.116-.05.007-.051.002-.028-.083.064-.23-.043-.427-.263-.49-.126-.037-.14 0-.06.158.09.173.115.317.078.431-.034.103-.064.109-.084.016a.284.284 0 0 0-.072-.123c-.054-.05-.233-.128-.252-.109-.005.005.009.055.031.111.067.166.06.264-.03.384a.434.434 0 0 0-.077.141c0 .02-.057.096-.128.17-.13.137-.42.652-.352.626l.197-.08c.09-.036.172-.058.18-.05.01.01-.013.07-.05.136a1.587 1.587 0 0 0-.136.467c0 .012.047-.022.104-.075.143-.132.164-.141.453-.2.138-.028.255-.055.26-.06.021-.021-.124-.06-.221-.06-.106-.001-.185-.033-.155-.064.038-.038.28-.037.413.001.123.036.136.046.136.106 0 .096-.055.161-.166.195-.15.045-.269.228-.269.417 0 .08.012.102.078.142.115.07.2.081.29.038.115-.055.47-.364.514-.448a.62.62 0 0 0 .014-.372c-.028-.073.016-.12.1-.108.076.01.26.37.26.507 0 .116-.088.297-.196.4-.086.08-.482.318-.55.329-.071.011-.1.043-.1.113 0 .119.06.154.235.137.083-.008.205-.037.272-.066zm.35-.633a.571.571 0 0 0 .072-.304c0-.186-.03-.255-.258-.588-.08-.117-.141-.219-.134-.226.021-.02.406.455.478.591.068.13-.01.542-.118.623-.1.074-.11.048-.04-.096zm-.746-.16c-.007-.012-.007-.04.002-.062.016-.044.084-.041.099.003.012.035-.082.09-.101.058zm-.093-.162c-.024-.025-.021-.1.005-.117.011-.007.026 0 .032.017.016.04-.015.122-.037.1zm.185-.095c-.02-.051.033-.105.089-.09.057.014.063.092.009.112-.06.023-.083.018-.098-.021zm-.077-.182c.005-.015.02-.026.032-.026.013 0 .027.011.032.026.004.014-.01.026-.032.026s-.036-.012-.032-.026zm.145-.063c.01-.053.104-.06.104-.008 0 .02-.025.04-.056.044-.044.006-.055-.002-.048-.036zm-.27-.194a1.975 1.975 0 0 0-.3-.05l-.191-.018.005-.201c.007-.244.014-.267.096-.284a1.59 1.59 0 0 0 .17-.051c.088-.032.108-.033.126-.004.035.055.025.066-.081.097-.133.037-.163.077-.163.216v.113l.216.054c.216.053.28.088.247.136-.011.017-.051.014-.125-.007zm.251.008c-.02-.051.008-.088.066-.088.037 0 .047.014.041.055-.009.063-.086.087-.107.033zm-.408-.241c-.124-.037-.146-.118-.044-.156.201-.076.424-.177.516-.235l.105-.066.057.066.057.066-.12.126a.782.782 0 0 0-.135.179c-.015.048-.032.052-.178.05a1.17 1.17 0 0 1-.258-.03zm9.558 1.67c0-.03.04-.177.089-.328.084-.257.088-.28.06-.386-.035-.126-.133-.27-.186-.27-.044 0-.224.226-.244.306-.025.096.009.29.074.433.033.073.067.17.076.216.012.067.026.083.073.083.044 0 .058-.013.058-.054zm-5.727-.28c-.023-.175-.24-.48-.4-.56a1.647 1.647 0 0 1-.21-.13c-.133-.1-.177-.08-.174.083.004.212.052.276.295.392.153.073.247.138.343.238.073.075.14.127.147.115a.373.373 0 0 0-.001-.137zm-4.213.122c.015-.01.04-.05.055-.087.055-.146-.039-.262-.27-.332-.19-.058-.226-.051-.244.043-.027.144.09.289.294.362.103.036.126.038.165.014zm13.606-.104c.037-.015.19-.041.34-.058.313-.035.375-.07.418-.24.013-.054.045-.156.071-.226l.047-.126h-.056c-.031 0-.107.007-.17.015-.104.014-.115.023-.159.122-.042.095-.065.114-.21.178-.255.111-.28.127-.34.214-.09.135-.072.172.059.12zm-12.608-.265v-.171l-.072.051c-.04.029-.073.062-.073.074 0 .02.125.213.139.216.003 0 .006-.076.006-.17zm4.847-.135c.085-.021.156-.047.156-.058 0-.01.006-.035.013-.053.011-.03-.019-.03-.212.002-.123.02-.229.04-.234.044-.014.012.074.105.1.105.011 0 .09-.018.177-.04zm7.03-.108c.048-.045.045-.046-.174-.046h-.222l.028.062c.027.06.034.062.175.047.094-.01.163-.033.194-.063zm.194-.173c.037-.053.036-.054-.065-.069a7.177 7.177 0 0 0-.406-.03l-.302-.017.054.054c.042.042.103.06.266.082.342.046.409.043.453-.02zm-6.972-.017c.023-.044.005-.053-.246-.132a2.21 2.21 0 0 0-.279-.077c-.029.03.108.121.272.182.233.087.222.086.253.027zm8.036-.097c.06-.066.21-.103.337-.084.276.042.275-.093 0-.19-.092-.033-.11-.031-.264.022a1.426 1.426 0 0 1-.192.058c-.014 0-.05-.038-.08-.085-.06-.092-.09-.104-.112-.046-.026.068.159.373.226.373.023 0 .061-.022.085-.048zm-7.89-.062c.019-.022.022-.046.01-.058-.03-.028-.81-.27-.838-.261-.013.004-.002.032.022.061.03.036.163.094.395.173.192.065.357.12.365.12.008.002.03-.014.046-.035zm-1.981-.048c.095-.05.09-.078-.02-.098-.137-.025-.198-.064-.356-.232-.142-.15-.153-.157-.492-.28-.33-.122-.56-.178-.56-.139 0 .044.41.461.55.561.277.198.689.286.878.188zm8.025-.599a19.21 19.21 0 0 0-.042-.567l-.015-.129-.054.08-.054.08.044.52c.024.285.044.541.045.568.001.039.012.032.053-.032.05-.079.05-.089.023-.52zm.403.525a.222.222 0 0 0 .167-.098c.034-.045.057-.088.05-.094-.026-.027-.403.147-.414.19-.01.036-.001.043.04.032.03-.007.1-.02.157-.03zm-6.303-.537.03-.31-.081-.13-.082-.132-.015.157a7.795 7.795 0 0 0-.018.49c-.003.325 0 .334.052.353.067.025.072.004.114-.428zm6.69.086c.033-.05.056-.095.05-.1a2.518 2.518 0 0 0-.311.157c-.209.115-.304.181-.31.214-.007.042.022.035.252-.066.214-.095.269-.13.319-.205zm-6.478-.03c.018-.127.014-.154-.03-.217l-.049-.073-.015.145c-.01.08-.017.205-.018.278l-.002.133.047-.06a.552.552 0 0 0 .067-.206zm5.434-.392c-.008-.008-.04.01-.072.039-.052.049-.057.069-.046.216.008.11.025.171.052.193.036.028.041.01.06-.2.012-.128.015-.24.006-.248zm-8.062.022c.13-.064.206-.12.189-.138a.834.834 0 0 0-.168-.04 2.082 2.082 0 0 1-.352-.108 1.126 1.126 0 0 0-.266-.081c-.123 0-.597.1-.714.15-.18.077-.143.116.108.116.095 0 .224.024.366.07.314.1.297.097.523.09.155-.004.232-.018.314-.059zm3.704-.1a3.49 3.49 0 0 1 .912-.332c.287-.06 1.033-.06 1.338 0 .326.066.583.154.841.288.231.12.296.131.325.055.032-.082-.015-.147-.165-.233-.46-.262-1.158-.401-1.892-.376-.545.018-.967.12-1.47.352-.26.12-.355.186-.355.246s.083.144.143.144a1.8 1.8 0 0 0 .323-.144zm9.66.032a.635.635 0 0 0 .194-.384c0-.048-.044-.233-.098-.411-.09-.298-.096-.332-.069-.422.021-.07.022-.106.004-.124-.018-.019-.053.022-.121.14a.714.714 0 0 0-.113.322 1.046 1.046 0 0 1-.16.512.843.843 0 0 0-.096.198c0 .05.082.124.204.184.129.063.164.061.255-.015zm-1.28-.31c.139-.02.351-.037.47-.038l.218-.002-.097-.086a.758.758 0 0 0-.496-.202c-.168 0-.242.027-.456.166-.162.105-.252.122-.407.078-.072-.021-.076-.02-.054.022.056.105.12.126.35.112.12-.007.332-.03.471-.05zm-16.338.027c0-.005-.065-.05-.146-.1a.77.77 0 0 1-.183-.147c-.05-.077-.026-.214.052-.291.05-.05.08-.058.234-.058.097 0 .217.01.267.022.09.021.09.02.09-.057 0-.072-.008-.08-.129-.118-.157-.05-.352-.052-.462-.006-.094.04-.244.246-.27.372-.014.071-.004.09.091.18a.775.775 0 0 0 .251.155c.139.05.205.066.205.048zm3.169-.066c.085-.027.236-.058.336-.069.183-.019.29-.056.29-.1a.482.482 0 0 0-.137-.113c-.136-.09-.14-.091-.383-.091-.288 0-.326.019-.326.161a.424.424 0 0 1-.036.163c-.06.116.01.129.256.049zm4.539.027c.027-.017-.007-.06-.155-.199a1.28 1.28 0 0 1-.233-.273c-.086-.188-.046-.365.106-.481.277-.211.596-.213 1.047-.004.107.05.179.07.179.054 0-.016-.066-.107-.146-.203-.203-.242-.335-.305-.667-.318-.223-.008-.259-.003-.38.052-.376.172-.578.571-.432.851.066.127.244.297.452.434.184.12.18.118.229.087zm3.79-.195c.108-.08.238-.193.29-.252a.76.76 0 0 0 .175-.43c0-.226-.182-.475-.393-.538-.223-.066-.489-.032-.739.095-.135.068-.406.347-.371.381.014.015.12-.01.286-.067.464-.16.705-.14.857.07.142.196.076.38-.245.677-.126.116-.16.16-.138.182.046.046.075.034.278-.118zm-11.417.071c.048-.037.064-.072.064-.136 0-.054.016-.098.042-.117.04-.029.037-.034-.03-.06-.11-.045-.296-.058-.336-.025-.097.08-.053.28.077.35.088.048.109.047.183-.012zm8.31-.134c.137-.048.258-.096.27-.106.03-.028-.168-.326-.282-.423-.18-.155-.389-.167-.577-.033-.142.101-.187.323-.092.457a.66.66 0 0 0 .365.193c.037 0 .179-.04.316-.088zm2.736-.011c.094-.074.135-.172.135-.32 0-.216-.133-.33-.385-.33-.1 0-.135.012-.192.066-.109.102-.344.436-.318.452.012.008.124.052.247.097.267.098.419.109.513.035zm5.786-.128c.01-.086-.026-.127-.13-.147-.057-.01-.094-.035-.112-.073a.214.214 0 0 0-.1-.088 1.134 1.134 0 0 1-.217-.16c-.102-.09-.171-.132-.237-.142-.07-.011-.109-.037-.157-.103-.1-.133-.156-.17-.263-.172-.093 0-.1-.006-.17-.14-.07-.136-.073-.138-.17-.132-.095.006-.102.001-.143-.09-.038-.083-.055-.097-.119-.097-.057 0-.091-.021-.144-.087-.058-.073-.08-.085-.137-.074-.057.012-.076 0-.133-.082-.042-.061-.085-.096-.118-.096-.033 0-.069-.028-.096-.075-.031-.052-.05-.066-.063-.045-.027.044 0 .223.04.265.032.032.04.03.079-.016l.042-.052.07.12c.059.1.08.118.125.106.042-.01.057 0 .068.045.03.122.18.202.18.097 0-.062.043-.014.074.081.045.14.116.227.176.219.037-.005.052-.024.05-.063-.003-.09.048-.013.095.145.048.159.092.212.173.212.044 0 .06-.015.066-.066.008-.058.021-.042.099.122.076.162.097.188.143.182.048-.007.054-.02.046-.11-.004-.057-.002-.103.005-.103s.074.107.147.239c.129.229.165.268.249.268.03 0 .034-.02.024-.097-.007-.053-.005-.096.004-.096.046 0 .123.105.123.168 0 .082.007.087.127.11.074.014.09.01.09-.022 0-.052.047-.05.066.003.022.064.085.13.114.12.015-.005.03-.039.034-.075zm-7.778-.084c0-.12-.112-.52-.188-.67a1.498 1.498 0 0 0-.177-.261c-.11-.125-.324-.305-.363-.305-.03 0-.117.207-.117.28 0 .052.005.055.059.03.045-.02.077-.02.133.004.146.06.254.23.483.756.104.237.17.302.17.166zm.644-.019c.042-.167-.102-.284-.327-.267-.1.007-.142.022-.176.064-.043.053-.061.217-.028.25.01.01.129.017.266.017.249 0 .249 0 .265-.064zm.286-.172c.134-.342.192-.44.366-.612.142-.141.16-.152.205-.123.072.045.08.024.046-.121-.048-.203-.046-.202-.222-.056a1.508 1.508 0 0 0-.564 1.012c-.015.124-.013.136.03.136.037 0 .067-.05.14-.236zm-8.114.135c.09-.055.2-.179.2-.226 0-.04.088-.092.12-.072.014.008.017.061.01.118-.012.084-.006.107.026.12.045.017.157-.033.206-.092.064-.077-.188-.351-.323-.351-.044 0-.096.032-.167.103a.708.708 0 0 1-.18.136c-.077.032-.078.035-.078.188 0 .15.002.155.054.14a.737.737 0 0 0 .132-.064zm15.015-.31c0-.132-.053-.348-.095-.394-.034-.035-.096.011-.112.085a.628.628 0 0 1-.062.15l-.045.078.07.111c.053.082.09.114.14.12a.246.246 0 0 0 .086 0c.01-.005.018-.072.018-.15zm-16.29.037c.076-.04.098-.08.098-.186 0-.1-.137-.238-.236-.238-.177 0-.26.28-.12.401.078.067.159.074.257.023zm.837-.134c.02 0 .047.028.063.061l.027.06.059-.054a.372.372 0 0 0 .127-.29c0-.105-.032-.163-.088-.163-.097 0-.323.31-.323.444v.07l.05-.064c.027-.035.066-.064.085-.064zm5.327.052c0-.058-.061-.11-.109-.091-.037.014-.05.09-.02.12.009.009.041.016.072.016.04 0 .057-.014.057-.045zm2.555.006c.037-.01.055-.033.055-.071 0-.031.01-.063.022-.07.042-.026.098.016.098.073 0 .041.018.062.06.072.076.02.107-.002.15-.103.039-.095.025-.169-.036-.183-.062-.014-.521.01-.542.03-.01.008-.001.072.019.141.038.13.057.142.174.11zm2.86-.048c.042-.05 0-.118-.074-.118-.075 0-.117.067-.075.118.018.021.051.039.075.039a.112.112 0 0 0 .074-.039zm-10.977-.153c.148-.25.391-.436.524-.402.105.026.16.2.108.338-.028.075-.013.077.092.013a.206.206 0 0 1 .163-.033c.064.012.086.007.098-.025.02-.051.006-.064-.092-.084-.066-.013-.082-.03-.1-.105-.017-.07-.013-.098.017-.128.09-.089.017-.191-.093-.132-.093.05-.152.014-.149-.09.002-.064-.008-.091-.036-.097-.054-.011-.118.058-.118.126 0 .045-.02.06-.103.082-.092.024-.106.022-.136-.02-.044-.065-.124-.064-.124.001a.25.25 0 0 0 .027.1c.021.039.016.059-.029.106-.03.032-.079.058-.11.058-.07 0-.088.032-.055.104.021.047.019.075-.013.137-.034.065-.036.09-.012.149a.28.28 0 0 0 .035.07c.004 0 .052-.076.106-.168zm5.755-.137c0-.076-.05-.13-.119-.13-.087 0-.142.06-.107.116.063.1.226.11.226.014zm5.022-.09c.011-.056-.037-.113-.096-.113-.06 0-.08.055-.044.12.033.063.128.058.14-.007zm-2.231.009c.008-.013-.001-.06-.02-.105-.048-.113-.175-.171-.346-.157-.145.012-.252.09-.296.216l-.024.069h.336c.187 0 .342-.01.35-.023zm-2.54-.104c.041-.066-.01-.127-.108-.127s-.123.062-.056.136c.05.055.126.051.164-.01zm3.684-.085c.012-.023.017-.056.011-.072-.016-.045-.144-.038-.162.009-.034.088.108.147.151.063zm.728-.04c.046-.056.021-.123-.045-.123-.076 0-.12.067-.076.119.04.048.083.049.121.003zm-4.084-.025c.035-.043.013-.124-.04-.144-.064-.025-.128.009-.128.067 0 .101.107.15.168.077zm.421-.019c.036-.058-.032-.126-.103-.104-.05.016-.072.106-.034.143.028.029.11.006.137-.039zm3.3.019c.051-.06.021-.122-.059-.122-.074 0-.103.048-.075.122.017.045.097.045.135 0zm-1.291-.491a2.837 2.837 0 0 0-.332.272c-.032.044-.02.053.144.114l.164.06.015-.22a2.16 2.16 0 0 0 .009-.226zm-.453.374c.079-.061-.007-.186-.13-.186-.071 0-.154.05-.154.093 0 .009.016.04.036.069.053.075.167.087.248.024zm-.411-.056c.098-.026.064-.109-.098-.235l-.15-.117-.016.129a2.72 2.72 0 0 0-.018.218l-.002.09.115-.035c.063-.02.14-.042.17-.05zm.674-.533c-.023-.023-.765-.07-.765-.048 0 .012.05.091.11.176.109.152.111.154.203.14a.254.254 0 0 1 .138.011c.038.023.065.006.185-.12.077-.082.136-.153.13-.16zM157 183.904a12.65 12.65 0 0 1-1.67-.278l-.258-.06-.014-.163c-.047-.516-.14-1.967-.128-1.998.008-.021.044-.036.085-.036.06 0 .118.054.417.392.637.722 1.202 1.27 1.503 1.462.237.15.791.268 1.104.235.466-.048.808-.276.998-.663.073-.147.077-.172.077-.423 0-.227-.009-.292-.063-.44a1.737 1.737 0 0 0-.394-.605c-.127-.112-.564-.385-1.403-.878-.788-.462-.967-.575-1.211-.763a2.87 2.87 0 0 1-1.1-1.887c-.116-.874.332-1.783 1.106-2.245.757-.451 1.79-.514 3.494-.21l.356.063.012.075c.009.059.114 1.5.14 1.935.005.088 0 .098-.057.104-.055.006-.154-.089-.752-.725-.38-.403-.76-.799-.844-.88a1.196 1.196 0 0 0-.89-.354 1.126 1.126 0 0 0-1.023.654c-.07.147-.076.183-.075.392 0 .196.011.255.074.412.097.246.222.428.467.684.34.353.797.675 1.535 1.079.53.29.748.425 1.002.624.523.408.858.862 1.02 1.382.05.162.056.226.055.616 0 .402-.006.451-.066.647-.231.75-.743 1.293-1.524 1.615-.573.236-1.167.307-1.973.237zm-91.252-.184c.007-.059.062-.09.624-.362l.616-.298.006-3.69.006-3.688-.227.016c-.277.02-.546.086-.76.188-.145.069-.248.163-1.053.97-.846.849-.894.893-.954.872-.076-.028-.08.11.036-1.308l.092-1.117h7.576l.014.102c.023.166.23 2.2.23 2.257 0 .036-.02.057-.065.068-.06.016-.127-.045-.936-.865-.862-.872-.874-.883-1.077-.98-.21-.1-.438-.156-.731-.183l-.163-.014.006 3.687.006 3.688.628.288c.608.278.629.29.636.361l.008.073h-4.526Zm6.52.006c0-.051.065-.095.52-.354l.52-.295v-7.069l-.514-.3c-.394-.23-.515-.312-.521-.352l-.008-.053h4.04v.058c0 .051-.068.097-.52.353l-.52.295v3.193l.657-.016c.36-.01 1.231-.016 1.933-.016h1.277v-3.178l-.52-.29c-.442-.245-.519-.296-.519-.344v-.055H82.107l-.008.063c-.006.055-.076.103-.509.353l-.501.289.006 3.529.006 3.529.501.29c.472.271.502.293.502.36v.07h-4.012v-.067c0-.061.04-.089.52-.355l.52-.289v-3.398h-1.604c-.882 0-1.752-.007-1.934-.016l-.33-.016v3.414l.52.293c.489.277.52.298.52.364v.07h-4.036zm10.208.023a.105.105 0 0 1-.002-.066c.007-.017.248-.16.535-.32l.522-.29V176.012l-.526-.302c-.4-.23-.527-.314-.533-.354l-.008-.052h6.976l.068.997c.037.548.074 1.047.08 1.108.013.105.01.112-.05.128-.06.015-.12-.039-.767-.698-.779-.792-.927-.911-1.26-1.017-.21-.066-.379-.08-1.545-.12l-.478-.017v3.582l.357-.002c.196 0 .558-.01.804-.02.633-.025.621-.017 1.213-.757.231-.29.275-.333.336-.333h.07v2.828h-.069c-.06 0-.09-.03-.222-.224-.319-.462-.58-.81-.662-.883-.15-.132-.245-.145-1.07-.152l-.745-.007-.006 1.833-.006 1.833.53-.016c.618-.019 1.328-.076 1.538-.125.22-.05.392-.125.554-.24.177-.127.667-.628 1.172-1.198.348-.393.38-.423.454-.42a.244.244 0 0 1 .093.016c.008.007-.02.528-.061 1.157-.041.63-.075 1.163-.075 1.186 0 .04-.187.043-3.601.043-3.18 0-3.604-.004-3.616-.036zm41.757-.028c.007-.059.063-.091.624-.363l.616-.298.006-3.685.006-3.685h-.115c-.199 0-.577.068-.735.132-.084.034-.213.101-.286.149-.075.049-.493.45-.968.93-.772.781-.841.844-.9.83-.056-.014-.065-.03-.065-.105 0-.097.161-2.058.183-2.22l.013-.103 3.787.006 3.787.006.126 1.136c.07.624.124 1.162.12 1.195-.003.042-.025.068-.071.084-.065.022-.087.003-.638-.568-.726-.75-1.076-1.09-1.23-1.193-.229-.154-.476-.23-.875-.268l-.151-.014.006 3.689.006 3.689.604.277c.332.153.618.295.634.317.017.021.03.059.03.083 0 .042-.095.043-2.26.043h-2.262l.008-.064zm22.593-.002c0-.061.04-.089.52-.355l.518-.289v-7.068l-.52-.297c-.438-.25-.519-.305-.519-.352v-.055h6.96v.066c0 .037.033.528.073 1.092.04.564.072 1.034.072 1.043 0 .009-.027.024-.06.032-.053.013-.135-.06-.755-.69-.694-.702-.882-.867-1.108-.965-.273-.12-.42-.135-1.708-.18l-.477-.018v3.583l.356-.002c.196 0 .559-.01.805-.02.632-.025.619-.016 1.209-.749.252-.314.28-.34.354-.34h.08v2.827h-.079c-.075 0-.094-.023-.393-.453a6.937 6.937 0 0 0-.447-.59c-.196-.202-.227-.208-1.127-.217l-.746-.007v3.648l.508-.005c.57-.006 1.316-.063 1.57-.12.223-.051.353-.109.533-.237.18-.13.776-.742 1.22-1.254.316-.366.328-.377.407-.367a.293.293 0 0 1 .094.023c.007.007-.022.537-.064 1.18-.042.641-.075 1.174-.075 1.184 0 .01-1.62.019-3.6.019h-3.602v-.067zm-16.071-.012c0-.045.086-.103.513-.344l.513-.29v-7.08l-.513-.291c-.43-.243-.514-.3-.514-.345v-.054h2.006c1.894 0 2.006.002 2.005.042a.139.139 0 0 1-.018.068 7.68 7.68 0 0 1-.519.313l-.501.288v7.04l.477.272c.527.302.562.326.562.39 0 .044-.072.045-2.006.045h-2.006v-.054zm4.402.003c.006-.04.13-.121.521-.343l.514-.291v-7.084l-.514-.29c-.404-.229-.515-.302-.521-.345l-.008-.054h1.53l1.53.002 1.414 2.889c.778 1.588 1.42 2.892 1.426 2.896.007.004.589-1.296 1.293-2.889l1.281-2.897h2.84v.058c0 .05-.068.096-.52.353l-.52.294v7.05l.52.294c.447.253.52.302.52.352v.057h-4.04l.008-.052c.006-.039.133-.12.534-.344l.525-.293v-3.009l-.002-3.009-.056.109c-.03.06-.711 1.533-1.513 3.275a381.149 381.149 0 0 1-1.48 3.196c-.015.019-.087.03-.196.03h-.173l-1.619-3.36-1.619-3.36-.006 3.052c-.006 2.773-.003 3.054.033 3.08.02.016.255.15.52.3.409.232.48.28.48.328v.057h-2.71l.008-.052zm-17.284-.068c-.284-.038-.557-.231-.627-.443-.066-.201.02-.285.306-.302.354-.02.66.1.756.297.082.17.09.292.024.362-.076.082-.248.114-.46.086zm.178-.098c.032-.031-.176-.453-.258-.521-.097-.082-.283-.077-.283.008 0 .072.251.472.325.518.073.044.168.042.216-.004zm-22.884.013a2.675 2.675 0 0 0-.29-.036l-.096-.002.1-.046c.108-.048.179-.14.27-.348.064-.143.065-.175.01-.207-.063-.037.115-.033.49.01.624.072.66.093.584.335-.074.236-.212.308-.608.32a2.839 2.839 0 0 1-.46-.026zm.543-.08c.102-.05.16-.148.183-.3.019-.128.007-.139-.187-.174l-.09-.017-.122.243a4.37 4.37 0 0 0-.121.253c0 .016.076.032.169.035a.407.407 0 0 0 .168-.04zm.49.062c.006-.017.037-.034.069-.038.14-.017.19-.058.264-.211.107-.223.094-.302-.05-.302-.026 0-.047-.01-.047-.024 0-.013.053-.024.117-.024.065 0 .217-.007.339-.016.16-.011.22-.008.22.012 0 .016-.035.028-.08.028-.079 0-.082.004-.168.224l-.103.264c-.011.03.002.042.054.048.037.004.068.019.068.032 0 .015-.136.027-.346.031-.273.005-.345 0-.337-.024zm.768.007c0-.012.031-.029.07-.037.094-.02.138-.075.195-.242.062-.178.062-.245 0-.279-.086-.046-.031-.064.236-.08.143-.01.298-.021.345-.027l.084-.012-.08.028c-.082.028-.131.084-.16.182-.016.051-.01.055.09.055.081 0 .119-.014.162-.06.031-.034.06-.057.065-.052a.548.548 0 0 1-.043.143l-.051.135-.068-.05c-.098-.072-.177-.045-.226.077a.683.683 0 0 0-.04.117c0 .025.257-.009.353-.045a.496.496 0 0 0 .137-.09c.081-.077.104-.06.068.051-.025.076-.04.087-.151.11-.245.053-.986.11-.986.076zm20.12-.01c-.166-.027-.172-.03-.242-.141a.528.528 0 0 0-.185-.176c-.15-.082-.17-.08-.137.017.033.099.065.14.127.165.045.018.045.02-.01.02a2.77 2.77 0 0 1-.298-.044c-.232-.043-.32-.074-.212-.074.065 0 .064-.004-.052-.369-.062-.196-.088-.246-.157-.298-.045-.035-.078-.067-.073-.073.012-.011.939.174 1.057.212.185.059.224.153.114.278-.061.07-.069.09-.04.107.07.042.087.06.153.175a.535.535 0 0 0 .15.166.34.34 0 0 1 .082.058c0 .015-.09.007-.278-.023zm-.308-.56c.01-.098-.073-.174-.22-.201a.347.347 0 0 0-.123-.01.723.723 0 0 0 .067.241c.02.02.168.052.22.047.036-.003.051-.024.056-.077zm-24.017.198a17.21 17.21 0 0 1-.618-.303l-.34-.176-.099-.3a2.013 2.013 0 0 1-.087-.3c.007 0 .205.11.44.246.486.28.65.359 1.223.586.226.09.415.167.419.17.011.011-.583.206-.624.205-.02 0-.161-.058-.314-.128zm5.783.1c-.076-.037-.108-.135-.1-.311l.008-.155-.09-.008c-.15-.013-.103-.046.108-.077.11-.016.259-.05.33-.075.15-.052.19-.04.095.029-.096.07-.189.415-.137.51.037.07.135.05.24-.048.09-.084.098-.105.13-.308.048-.29.049-.282-.027-.263-.04.01-.059.007-.049-.009.009-.013.045-.03.082-.038.037-.008.14-.036.23-.062.136-.04.164-.042.164-.013a.034.034 0 0 1-.034.034.185.185 0 0 0-.086.043c-.041.033-.056.08-.071.236-.011.107-.032.217-.047.245-.106.198-.556.361-.746.27zm16.644-.118a7.875 7.875 0 0 1-.332-.082c-.055-.02-.032-.055.03-.043.037.007.065 0 .072-.021a1.357 1.357 0 0 0-.033-.287c-.044-.24-.052-.257-.14-.334-.068-.06-.079-.077-.04-.066.03.008.239.063.466.12.226.059.447.127.49.152a.45.45 0 0 1 .218.38c.006.139.004.145-.076.2-.11.075-.268.07-.655-.02zm.434-.044c.032-.06.009-.178-.062-.32-.051-.103-.18-.238-.227-.238a.23.23 0 0 1-.062-.016c-.034-.014-.04-.006-.028.042l.066.294c.05.227.055.236.129.257.119.035.157.03.184-.02zm-15.876-.067c0-.011.036-.042.078-.069a.344.344 0 0 0 .11-.117c.044-.09.126-.494.11-.537-.008-.019-.046-.034-.084-.034-.038 0-.07-.008-.07-.019 0-.02.988-.354 1.003-.34a.514.514 0 0 1-.02.142c-.03.139-.095.191-.12.097-.015-.06-.122-.067-.246-.015-.063.026-.088.056-.108.127a.84.84 0 0 0-.025.113c0 .034.128-.008.183-.059l.05-.047-.024.133c-.022.123-.028.13-.064.098a.196.196 0 0 0-.114-.037c-.07 0-.074.005-.088.127-.025.203-.023.212.046.212.087 0 .2-.063.319-.177l.102-.1v.1c0 .054-.013.109-.03.121-.016.013-.231.08-.477.15l-.49.138c-.023.007-.041.004-.04-.007zm-1.69-.13a.232.232 0 0 0-.108-.05c-.028 0 .001-.013.066-.025a.46.46 0 0 1 .126-.014c.005.005 0 .037-.009.071l-.017.064zm1.477-.053-.055-.1.103-.104.102-.105.045.087.045.087-.065.094c-.103.15-.115.152-.175.04zm15.121.011a16.03 16.03 0 0 1-.113-.127l-.054-.062.081-.078.08-.079.092.111c.084.103.088.116.061.182-.048.116-.08.128-.147.054zm-.372.01c-.084-.025-.13-.072-.35-.358a4.699 4.699 0 0 0-.26-.324 1.35 1.35 0 0 0 .019.198c.019.143.038.202.076.234.028.023.044.05.036.057-.013.014-.289-.062-.423-.117l-.065-.026.06-.016c.077-.02.089-.099.048-.328-.025-.14-.043-.182-.111-.246a.563.563 0 0 1-.081-.086c0-.012.484.156.523.181.015.01.107.135.203.278l.184.27c.023.028.024-.026.005-.166-.017-.124-.037-.172-.094-.231a.377.377 0 0 1-.072-.09c0-.008.114.023.253.07.14.047.254.095.254.106 0 .012-.032.015-.072.007-.065-.012-.073-.008-.073.043 0 .06.066.462.088.535.014.049-.011.05-.148.01zm-1.499-.446a.718.718 0 0 1-.186-.144c-.19-.211-.24-.415-.129-.526.05-.05.082-.06.213-.06.177 0 .358.077.487.205.134.135.182.422.085.51-.074.067-.341.076-.47.015zm.22-.238a1.31 1.31 0 0 0-.05-.289c-.035-.084-.117-.141-.171-.12-.078.03-.018.487.076.581.02.02.066.038.1.038h.062zm-1.996.19c0-.01.038-.033.085-.05.105-.038.106-.066.004-.353-.064-.181-.087-.22-.133-.226-.095-.013-.044-.062.106-.103.293-.079.256-.086.453.087.098.086.185.157.191.157.007 0 .05-.08.093-.179l.081-.179.23.014c.24.013.333.055.182.08a.318.318 0 0 0-.097.028c-.015.015.03.308.063.417.013.04.061.099.108.13.047.033.082.061.078.065a3.051 3.051 0 0 1-.27-.01c-.178-.01-.267-.026-.274-.046-.005-.017.009-.03.032-.03.037 0 .04-.021.028-.191-.02-.31-.045-.313-.15-.017-.077.215-.1.256-.142.256-.032 0-.133-.081-.266-.211l-.214-.212.016.097a.92.92 0 0 0 .07.205c.04.085.068.112.125.122.084.015.082.016-.192.11-.182.063-.207.068-.207.039zm5.672-2.857c-.136-.023-.186-.058-.186-.13.001-.11.034-.117.162-.033.067.043.164.103.216.133l.093.053-.084-.002a1.73 1.73 0 0 1-.201-.021zm.604-.064a4.986 4.986 0 0 1-.29-.121 9.266 9.266 0 0 0-.324-.139.49.49 0 0 1-.09-.04.681.681 0 0 1 .037-.179c.025-.092.046-.197.046-.233 0-.073.037-.093.165-.093.158 0 .552.069.642.112.085.04.096.04.311-.012a5.49 5.49 0 0 1 .798-.1c.01 0 .018.027.018.06v.06h-.29c-.283 0-.294.003-.585.11l-.296.111-.135-.038a1.22 1.22 0 0 0-.537-.012c-.14.039-.118.094.072.186.09.043.206.105.258.137a.633.633 0 0 0 .198.074c.09.013.132.002.291-.075a2.81 2.81 0 0 0 .263-.141c.063-.042.1-.05.207-.038.127.012.13.015.138.091l.008.079h-.15c-.124 0-.187.017-.36.096-.215.1-.318.127-.395.105zm.792-.878c-.332-.015-.373-.022-.46-.078a.78.78 0 0 0-.275-.089 1.72 1.72 0 0 1-.403-.13c-.239-.108-.25-.122-.25-.32v-.08l.17-.028c.16-.027.342-.023.671.015.108.012.138.007.181-.034a.732.732 0 0 1 .137-.09c.047-.023.134-.083.194-.132.172-.143.242-.17.446-.17.176 0 .182.002.182.058s-.008.058-.192.067l-.192.009-.242.238-.241.237-.457-.017c-.464-.018-.506-.012-.475.068.03.078.781.27.861.22.015-.009.094-.068.177-.13.152-.115.332-.193.443-.193.033 0 .13.012.213.026.148.026.154.03.154.099 0 .064-.006.07-.055.051-.03-.01-.165-.02-.3-.02h-.244l-.131.122a1.635 1.635 0 0 1-.178.147c-.036.021.018.025.23.016.233-.01.298-.004.4.034.13.05.163.115.06.12a9.274 9.274 0 0 1-.424-.015zm-.833-1.074c-.293-.17-.515-.26-.624-.25-.078.006-.086 0-.115-.084-.017-.05-.024-.09-.015-.09.067 0 .782-.1.843-.118.042-.013.167-.1.278-.194.222-.19.28-.214.564-.236.193-.014.195-.014.224.05a.34.34 0 0 1 .03.088c0 .013-.087.023-.193.023h-.193l-.202.19c-.21.199-.216.201-.512.245-.357.053-.373.066-.163.13.076.024.2.08.275.126.164.1.282.107.412.028a.567.567 0 0 0 .147-.139c.054-.08.064-.084.19-.082.2.004.307.03.336.083.023.045.017.048-.112.048-.113 0-.167.015-.297.087a2.702 2.702 0 0 0-.244.151c-.066.05-.118.064-.242.07-.153.007-.164.004-.387-.126zm-.247-.9c-.024-.006-.043-.024-.043-.041 0-.024.037-.024.175 0 .293.052.337.046.555-.08.172-.101.217-.116.364-.124.231-.014.265.032.039.053a.58.58 0 0 0-.213.05 1.12 1.12 0 0 1-.164.096c-.115.057-.15.062-.398.06a3.18 3.18 0 0 1-.315-.014zm-.757-.133c-.016-.073-.006-.088.18-.267.107-.104.224-.2.259-.213.035-.013.152-.022.26-.019.275.007.305-.013.306-.204 0-.229.01-.247.172-.317.18-.078.27-.083.104-.006-.186.086-.204.114-.204.304 0 .231-.03.264-.278.294-.159.019-.215.038-.316.107-.109.074-.254.205-.226.204.006 0 .08-.022.163-.048.11-.035.222-.048.391-.048.266 0 .226.023.418-.24.087-.12.186-.166.357-.17.09 0 .122.011.17.062l.058.062-.136-.016c-.1-.013-.154-.007-.205.019a.346.346 0 0 0-.195.249c-.024.155-.021.154-.464.155h-.402l-.193.084a6.735 6.735 0 0 1-.197.085.43.43 0 0 1-.022-.078z" style="fill:#000;stroke-width:.0241675" transform="translate(-63.95 -173.418)"/></svg>