<svg xmlns="http://www.w3.org/2000/svg" width="172" height="57" fill="none"><path fill="#1B202F" d="m39.082 30.385 2.998-1.564V5.04h-2.27l-5.54 7.41h-.625l.35-8.334h24.02l.35 8.34h-.664l-5.425-7.41h-2.333v23.715l3.016 1.605v.806H39.081v-.788Zm21.629-1.047V2.994l-2.334-.941v-.488L66.79 0h.921v12.505l.199-.2a11.186 11.186 0 0 1 7.215-2.7c3.687 0 5.314 2.1 5.314 6.011v13.722l1.972 1.082v.753H71.403v-.753l1.977-1.088V15.57c0-2.153-.933-3.012-2.677-3.012a4.579 4.579 0 0 0-2.917.971v15.845l1.943 1.083v.717H58.716v-.717l1.995-1.118Zm27.683-8.093c.228 4.352 2.165 7.723 6.75 7.723 2.216 0 3.79-1.036 5.249-1.824v.859a10.266 10.266 0 0 1-8.096 3.8c-7.105 0-10.733-3.982-10.733-10.876 0-6.74 3.972-10.94 10.389-10.94 6.037 0 9.169 3.041 9.169 11.058v.206l-12.728-.006Zm-.116-1.006 6.265-.382c0-5.394-.916-8.976-2.754-8.976-1.96.006-3.511 4.165-3.511 9.364v-.006ZM0 41.72c0-11.463 7.525-15.545 15.907-15.545 3.558 0 6.912.588 8.79 1.358l.164 8h-.8l-4.917-7.74a7.16 7.16 0 0 0-3.115-.507c-4.456 0-6.737 5.194-6.661 13.705.082 10.181 1.837 14.81 5.926 14.81a6.287 6.287 0 0 0 2.456-.412V44.484l-2.7-1.547v-.93h13.042v.977l-2.66 1.5v10.763a28.946 28.946 0 0 1-9.858 1.688C6.05 56.935 0 52.483 0 41.72Zm26.879-5.346v-.665l8.75-1.559.962.083v17.433c0 2.1 1.003 2.747 2.683 2.747a3.57 3.57 0 0 0 2.847-1.353V37.42l-2.404-1.052v-.682l8.75-1.56.88.083v19.998l2.363 1v.635L43.13 56.9l-.881-.082v-2.63h-.24a9.684 9.684 0 0 1-6.573 2.788c-4.206 0-6.13-2.505-6.13-6.305V37.42l-2.427-1.047Zm54.988-2.259.724.083v6.47h.198c.939-4.706 3.004-6.47 5.53-6.47.367-.018.733.038 1.079.164v6.552a7.44 7.44 0 0 0-1.803-.158 10.935 10.935 0 0 0-4.771.958v12.758l1.995 1.117v.877H73.444v-.87l2.048-1.124V37.055l-2.404-.724v-.588l8.78-1.629Zm22.008.541V27.85l-2.403-.847v-.535l8.855-1.641.84.123v29.227l2.444.894v.753L104.861 57l-.682-.082v-2.406h-.199a7.76 7.76 0 0 1-5.833 2.465c-4.771 0-8.253-3.677-8.253-11.176 0-7.923 4.048-11.816 10.178-11.816a8.618 8.618 0 0 1 3.803.67Zm0 18.722V35.879a3.217 3.217 0 0 0-2.42-.76c-2.368.083-3.833 3.689-3.833 10.117 0 5.776 1.05 9.011 4.206 8.9a3.092 3.092 0 0 0 2.047-.76Zm19.331-19.263.759.083V54.47l2 1.117v.877h-11.374v-.87l2.041-1.124V37.379l-2.444-.971v-.676l9.018-1.618Zm.799-5.482c-.066 2.103-1.798 3.76-3.884 3.718a3.742 3.742 0 0 1-3.371-1.846 3.805 3.805 0 0 1 0-3.867 3.742 3.742 0 0 1 3.371-1.845c2.117-.027 3.856 1.682 3.884 3.817v.023Zm25.543 25.839V37.19l-2.403-.848v-.835l8.75-1.64.881.081v2.588h.239a11.47 11.47 0 0 1 7.454-2.788c3.81 0 5.489 1.818 5.489 5.882v14.805L172 55.612v.853h-11.392v-.87l2.042-1.124V39.996c0-2.223-.963-3.112-2.765-3.112a4.75 4.75 0 0 0-3.004.965v16.616l2.006 1.117v.883h-11.38v-.87l2.041-1.124Zm-12.377-10.858v-2.9c0-4.364-.945-5.793-3.623-5.793a6.96 6.96 0 0 0-.904.082l-4.765 6.511h-.671v-5.999a25.476 25.476 0 0 1 7.997-1.4c5.833 0 9.21 1.63 9.21 6.552v14.117l2.089.553v.552a8.885 8.885 0 0 1-4.294.994c-2.875 0-4.252-.953-4.882-2.54h-.204c-1.219 1.664-2.952 2.617-5.67 2.617-3.465 0-5.833-2.182-5.833-5.953 0-3.652 2.246-5.634 6.813-6.51l4.737-.883Zm0 9.764v-8.735l-1.459.118c-2.286.2-3.109 1.67-3.109 4.923 0 3.53 1.167 4.447 2.754 4.447a2.11 2.11 0 0 0 1.814-.753Zm-73.853-9.764v-2.9c0-4.364-.945-5.793-3.622-5.793a6.935 6.935 0 0 0-.904.082l-4.766 6.505h-.665v-5.993a25.475 25.475 0 0 1 7.991-1.4c5.833 0 9.21 1.63 9.21 6.552v14.117l2.089.553v.552a8.88 8.88 0 0 1-4.293.994c-2.876 0-4.252-.953-4.882-2.54h-.199c-1.219 1.664-2.951 2.617-5.67 2.617-3.464 0-5.833-2.182-5.833-5.953 0-3.652 2.246-5.634 6.813-6.51l4.731-.883Zm0 9.764v-8.735l-1.458.118c-2.287.2-3.11 1.67-3.11 4.923 0 3.53 1.167 4.447 2.754 4.447a2.11 2.11 0 0 0 1.814-.753Z"/></svg>