<svg width="680" height="359" viewBox="0 0 680 359" fill="none" xmlns="http://www.w3.org/2000/svg">
<path d="M603.898 339.8C645.872 339.8 679.898 332.01 679.898 322.4C679.898 312.79 645.872 305 603.898 305C561.925 305 527.898 312.79 527.898 322.4C527.898 332.01 561.925 339.8 603.898 339.8Z" fill="url(#paint0_linear_2525_16423)"/>
<path d="M262.597 341.9C404.976 341.9 520.397 329.006 520.397 313.1C520.397 297.194 404.976 284.3 262.597 284.3C120.218 284.3 4.79688 297.194 4.79688 313.1C4.79688 329.006 120.218 341.9 262.597 341.9Z" fill="url(#paint1_linear_2525_16423)"/>
<path d="M585.2 142.5L574.6 140.2L572.2 129.6C572.1 129.2 571.8 129 571.4 129C571 129 570.7 129.3 570.6 129.6L568.2 140.3L557.6 142.8C557.2 142.9 557 143.2 557 143.6C557 144 557.3 144.3 557.7 144.4L568.3 146.7L570.7 157.3C570.8 157.7 571.1 157.9 571.5 157.9C571.9 157.9 572.2 157.6 572.3 157.3L574.7 146.6L585.3 144.1C585.7 144 585.9 143.7 585.9 143.3C585.9 142.9 585.6 142.5 585.2 142.5Z" fill="#163300"/>
<path d="M228.2 13.5L217.6 11.1997L215.2 0.600098C215.1 0.200098 214.8 0 214.4 0C214 0 213.7 0.300098 213.6 0.600098L211.2 11.2998L200.6 13.7998C200.2 13.8998 200 14.2001 200 14.6001C200 15.0001 200.3 15.2999 200.7 15.3999L211.3 17.6997L213.7 28.2998C213.8 28.6998 214.1 28.8999 214.5 28.8999C214.9 28.8999 215.2 28.5998 215.3 28.2998L217.7 17.6001L228.3 15.1001C228.7 15.0001 228.9 14.6998 228.9 14.2998C228.9 13.8998 228.6 13.5 228.2 13.5Z" fill="#163300"/>
<path d="M531.6 99.8999L526.1 98.6997L524.9 93.1997C524.9 92.9997 524.7 92.8999 524.5 92.8999C524.3 92.8999 524.1 92.9997 524.1 93.1997L522.8 98.6997L517.3 100C517.1 100 517 100.2 517 100.4C517 100.6 517.1 100.8 517.3 100.8L522.8 102L524 107.5C524 107.7 524.2 107.8 524.4 107.8C524.6 107.8 524.8 107.7 524.8 107.5L526.1 102L531.6 100.7C531.8 100.7 531.9 100.5 531.9 100.3C531.9 100.1 531.8 99.9999 531.6 99.8999Z" fill="#163300"/>
<path d="M503.053 309.625C498.493 306.735 494.248 303.574 490.364 300.187C483.636 294.362 482.914 288.943 483.501 285.466C484.178 281.492 486.978 277.925 490.68 276.435C495.557 274.448 498.628 272.642 499.892 271.061C500.57 270.203 500.66 269.481 500.615 267.404C500.57 264.288 495.286 259.275 480.475 254.489C469.321 250.876 457.987 249.115 457.852 249.07L459.251 240.129C459.748 240.219 471.353 242.025 483.184 245.819C500.931 251.508 509.556 258.553 509.646 267.268C509.737 274.674 507.343 279.415 494.067 284.789C493.525 285.015 492.622 285.782 492.397 286.911C492.126 288.627 493.525 290.93 496.28 293.324C506.801 302.445 520.348 309.896 534.483 314.367L531.773 322.992C521.703 319.831 511.859 315.225 503.053 309.625Z" fill="white"/>
<path d="M532.679 324.753L531.369 324.346C521.299 321.185 511.274 316.489 502.333 310.799C497.682 307.864 493.392 304.613 489.464 301.226C482.284 294.994 481.516 289.079 482.148 285.24C482.871 280.815 486.032 276.841 490.141 275.17C495.921 272.822 498.043 271.197 498.766 270.203C499.127 269.752 499.217 269.436 499.217 267.358C499.217 265.326 495.153 260.585 480.026 255.708C469.143 252.186 458.08 250.425 457.628 250.334L456.273 250.108L458.08 238.503L459.434 238.729C459.931 238.819 471.582 240.626 483.548 244.464C501.882 250.379 510.868 257.785 510.958 267.178C511.048 275.035 508.429 280.318 494.521 285.963C494.386 286.008 493.799 286.415 493.708 287.047C493.573 287.95 494.386 289.801 497.14 292.24C507.526 301.226 520.893 308.632 534.891 313.012L536.201 313.418L532.679 324.753ZM503.778 308.496C512.132 313.825 521.48 318.25 530.872 321.321L532.769 315.27C518.906 310.709 505.675 303.303 495.379 294.362C492.218 291.608 490.683 288.898 491.044 286.685C491.315 285.105 492.534 283.931 493.528 283.524C506.127 278.422 508.339 274.222 508.249 267.268C508.158 259.185 499.804 252.592 482.735 247.083C473.162 244.012 463.769 242.251 460.383 241.664L459.434 247.896C462.776 248.483 471.898 250.199 480.929 253.134C494.25 257.424 501.927 262.617 501.972 267.313C501.972 269.526 501.882 270.61 500.933 271.829C499.534 273.635 496.327 275.577 491.18 277.654C487.928 278.964 485.445 282.125 484.858 285.647C484.316 288.808 485.038 293.685 491.27 299.104C495.063 302.49 499.263 305.606 503.778 308.496Z" fill="#163300"/>
<path d="M440.112 194.611L417.489 186.799L390.711 264.513L413.335 272.326C434.784 279.731 458.175 268.307 465.581 246.857C472.987 225.363 461.562 201.971 440.112 194.611Z" fill="#22BE0D"/>
<path d="M426.7 275.893C422.139 275.893 417.488 275.125 412.927 273.59L389.039 265.371L416.675 185.083L440.563 193.301C462.69 200.933 474.476 225.137 466.89 247.264C460.793 264.83 444.311 275.893 426.7 275.893ZM392.426 263.655L413.785 271.016C418.075 272.506 422.41 273.184 426.7 273.184C443.182 273.184 458.626 262.843 464.316 246.406C471.45 225.679 460.387 203.01 439.705 195.875L418.346 188.515L392.426 263.655Z" fill="#163300"/>
<path d="M417.255 229.743C408.947 253.902 391.832 269.932 379.098 265.507C374.763 264.017 363.835 261.082 361.758 255.979C357.648 245.999 365.551 229.788 371.06 213.802C376.253 198.72 378.195 181.064 387.046 175.329C392.374 171.897 404.431 176.367 409.218 178.038C421.997 182.418 425.564 205.584 417.255 229.743Z" fill="#FF3838"/>
<path d="M383.529 267.629C381.858 267.629 380.233 267.358 378.652 266.817C378.155 266.636 377.523 266.455 376.846 266.229C371.517 264.514 362.576 261.578 360.499 256.521C356.977 247.986 361.583 235.658 366.415 222.653C367.544 219.628 368.718 216.467 369.756 213.396C371.201 209.196 372.421 204.771 373.549 200.481C376.575 189.237 379.465 178.625 386.284 174.2C391.883 170.587 403.353 174.561 408.862 176.458L409.675 176.729C416.358 179.032 420.919 185.941 422.499 196.236C424.035 206.216 422.635 218.273 418.571 230.149C414.462 242.025 408.139 252.411 400.779 259.275C394.954 264.784 388.993 267.629 383.529 267.629ZM392.38 175.419C390.529 175.419 388.948 175.735 387.774 176.458C381.858 180.296 379.104 190.456 376.168 201.159C374.994 205.494 373.775 209.964 372.33 214.209C371.246 217.325 370.072 220.486 368.943 223.511C364.292 236.02 359.867 247.896 362.983 255.392C364.608 259.275 373.098 262.075 377.659 263.565C378.336 263.791 378.968 264.017 379.51 264.197C385.2 266.139 392.064 263.701 398.882 257.288C405.927 250.696 411.978 240.716 415.952 229.246C419.925 217.776 421.28 206.171 419.79 196.643C418.345 187.386 414.416 181.244 408.772 179.257L407.959 178.987C404.482 177.812 397.573 175.419 392.38 175.419Z" fill="#163300"/>
<path d="M405.272 225.577C413.598 201.407 410.006 178.251 397.249 173.857C384.492 169.462 367.401 185.493 359.075 209.663C350.749 233.833 354.342 256.989 367.098 261.383C379.855 265.777 396.946 249.746 405.272 225.577Z" fill="white"/>
<path d="M371.473 263.475C369.802 263.475 368.176 263.204 366.596 262.662C359.913 260.359 355.352 253.45 353.771 243.154C352.236 233.175 353.636 221.118 357.7 209.242C361.809 197.365 368.131 186.979 375.492 180.115C383.078 172.981 390.935 170.362 397.618 172.619C404.302 174.922 408.863 181.831 410.443 192.127C411.978 202.107 410.579 214.164 406.514 226.04C402.405 237.916 396.083 248.302 388.723 255.166C382.897 260.63 376.937 263.475 371.473 263.475ZM392.742 174.516C387.955 174.516 382.626 177.09 377.343 182.057C370.299 188.65 364.248 198.63 360.274 210.1C356.3 221.569 354.945 233.175 356.436 242.703C357.881 251.96 361.809 258.101 367.454 260.088C373.144 262.03 380.007 259.591 386.826 253.179C393.87 246.586 399.922 236.607 403.895 225.137C407.869 213.667 409.224 202.062 407.734 192.534C406.289 183.276 402.36 177.135 396.715 175.148C395.451 174.742 394.096 174.516 392.742 174.516Z" fill="#163300"/>
<path d="M392.522 197.728C393.943 193.601 392.993 189.532 390.399 188.638C387.805 187.745 384.55 190.366 383.129 194.492C381.707 198.619 382.657 202.688 385.251 203.582C387.845 204.475 391.1 201.855 392.522 197.728Z" fill="#163300"/>
<path d="M378.115 239.613C379.537 235.487 378.586 231.417 375.993 230.524C373.399 229.63 370.144 232.251 368.722 236.378C367.301 240.504 368.251 244.574 370.845 245.467C373.439 246.361 376.694 243.74 378.115 239.613Z" fill="#163300"/>
<path d="M277.161 196.962L327.508 214.486C331.686 215.951 333.91 220.508 332.445 224.686C330.98 228.863 326.423 231.088 322.246 229.623L271.898 212.099L277.161 196.962Z" fill="white"/>
<path d="M324.849 231.684C323.818 231.684 322.733 231.522 321.702 231.142L269.836 213.076L276.183 194.901L328.05 212.967C330.491 213.835 332.444 215.571 333.529 217.85C334.669 220.183 334.777 222.787 333.963 225.228C332.553 229.189 328.809 231.684 324.849 231.684ZM273.959 211.068L322.733 228.104C326.042 229.243 329.677 227.507 330.871 224.197C331.414 222.57 331.359 220.834 330.6 219.315C329.84 217.796 328.592 216.602 326.965 216.059L278.191 199.024L273.959 211.068Z" fill="#163300"/>
<path d="M294.63 146.724L344.977 164.247C349.154 165.712 351.379 170.269 349.914 174.447C348.449 178.625 343.892 180.849 339.714 179.384L289.367 161.86L294.63 146.724Z" fill="white"/>
<path d="M342.318 181.5C341.287 181.5 340.202 181.337 339.171 180.957L287.305 162.891L293.652 144.716L345.519 162.783C347.96 163.651 349.913 165.387 350.998 167.665C352.138 169.998 352.246 172.602 351.432 175.044C350.076 179.004 346.333 181.5 342.318 181.5ZM291.428 160.884L340.202 177.919C343.511 179.059 347.146 177.322 348.34 174.013C348.882 172.385 348.828 170.649 348.068 169.13C347.309 167.611 346.061 166.418 344.434 165.875L295.66 148.839L291.428 160.884Z" fill="#163300"/>
<path d="M246.13 113.141L285.952 127.03C293.765 129.742 297.888 138.26 295.175 146.072L272.497 211.068C269.785 218.881 261.267 223.004 253.454 220.291L213.633 206.402C189.978 198.156 177.446 172.277 185.692 148.568L188.296 141.081C196.543 117.427 222.476 104.894 246.13 113.141Z" fill="#22BE0D"/>
<path d="M258.39 222.733C256.545 222.733 254.701 222.407 252.91 221.81L213.088 207.921C188.62 199.404 175.653 172.548 184.171 148.026L186.775 140.539C195.293 116.07 222.148 103.104 246.671 111.622L286.493 125.51C290.67 126.975 294.034 129.959 295.987 133.974C297.94 137.989 298.158 142.492 296.693 146.669L274.015 211.665C272.55 215.842 269.566 219.206 265.551 221.159C263.327 222.19 260.831 222.733 258.39 222.733ZM231.209 112.273C213.088 112.273 196.107 123.612 189.868 141.624L187.264 149.111C179.343 171.897 191.387 196.908 214.173 204.829L253.995 218.718C257.359 219.911 260.994 219.694 264.195 218.121C267.396 216.548 269.837 213.889 270.977 210.526L293.655 145.53C294.848 142.166 294.631 138.531 293.058 135.33C291.484 132.129 288.826 129.688 285.462 128.549L245.64 114.66C240.812 113.032 235.983 112.273 231.209 112.273Z" fill="#163300"/>
<path d="M295.284 181.988C285.518 209.983 267.669 229.243 250.741 223.329C250.687 223.329 246.564 221.864 246.564 221.864C243.092 220.617 242.82 215.842 246.076 214.106C257.415 208.247 266.746 193.056 273.257 174.284C279.767 155.513 281.937 137.826 276.729 126.216C275.21 122.852 278.411 119.271 281.937 120.465C281.991 120.465 286.115 121.93 286.115 121.93C303.042 127.843 305.049 153.993 295.284 181.988Z" fill="#FF3838"/>
<path d="M257.036 226.096C254.757 226.096 252.479 225.717 250.2 224.903C250.146 224.903 246.023 223.438 245.968 223.438C243.798 222.678 242.279 220.725 242.116 218.392C241.954 216.005 243.147 213.835 245.263 212.75C255.354 207.487 264.74 193.653 271.684 173.85C278.575 153.994 279.822 137.392 275.211 126.975C274.234 124.805 274.614 122.364 276.242 120.573C277.815 118.837 280.202 118.241 282.426 119C282.426 119 284.163 119.597 285.356 120.031L286.604 120.465C295.285 123.503 300.71 131.478 302.283 143.523C303.694 154.482 301.741 168.371 296.804 182.585C291.812 196.854 284.759 208.898 276.838 216.602C270.382 222.841 263.601 226.096 257.036 226.096ZM280.528 121.876C279.822 121.876 279.171 122.147 278.683 122.744C278.141 123.34 277.707 124.425 278.195 125.619C284.597 139.942 279.877 160.341 274.777 174.935C269.677 189.529 260.725 208.41 246.782 215.68C245.643 216.276 245.317 217.362 245.372 218.23C245.426 219.26 246.077 220.128 247.053 220.454C247.162 220.508 251.177 221.919 251.231 221.919C260.617 225.174 269.08 219.586 274.506 214.323C282.047 206.999 288.883 195.335 293.711 181.554C298.54 167.774 300.439 154.428 299.082 143.957C298.106 136.47 294.959 126.813 285.573 123.557L281.396 122.093C281.124 121.93 280.799 121.876 280.528 121.876Z" fill="#163300"/>
<path d="M139.029 124.751C119.986 112.598 111.36 101.042 112.716 89.5405C113.096 86.231 114.832 83.3013 117.653 81.077C126.008 74.5666 142.99 75.7059 152.375 76.9537C163.714 78.093 180.262 76.5739 181.998 70.606C183.083 66.8626 177.875 60.4064 166.047 55.9034C143.749 47.4399 120.583 45.4867 120.366 45.4867L121.234 34.6903C122.265 34.7446 146.19 36.8062 169.899 45.8123C190.299 53.5705 194.747 65.669 192.414 73.6985C190.081 81.6195 182.052 86.3395 168.543 87.7501C159.7 88.6724 151.507 87.8044 151.182 87.8044H151.019C136.751 85.9055 127.31 87.4246 124.272 89.7575C123.567 90.3 123.513 90.6798 123.458 90.8968C122.428 99.5774 135.503 111.622 159.266 123.937C173.209 131.153 187.586 136.795 194.91 139.508C197.677 140.539 199.088 143.577 198.165 146.344C197.189 149.219 193.988 150.738 191.167 149.707C183.625 146.886 169.031 141.19 154.437 133.648C148.686 130.556 143.532 127.626 139.029 124.751Z" fill="white"/>
<path d="M193.014 151.552C192.2 151.552 191.386 151.389 190.572 151.118C183.085 148.351 168.328 142.546 153.68 134.951C147.929 131.967 142.721 129.037 138.218 126.107C118.578 113.575 109.735 101.53 111.145 89.3234C111.579 85.5257 113.478 82.2705 116.679 79.7749C125.522 72.8847 142.992 74.024 152.649 75.3261C164.422 76.5196 179.179 74.5123 180.481 70.1177C181.241 67.5678 176.955 61.7627 165.507 57.4224C143.48 49.0132 120.477 47.1143 120.26 47.06L118.632 46.9515L119.772 32.8999L121.399 33.0084C122.43 33.1169 146.627 35.1243 170.499 44.2389C191.929 52.3769 196.54 65.3977 193.99 74.0782C191.44 82.7045 182.977 87.8044 168.708 89.2692C159.648 90.1915 151.347 89.3234 151.022 89.3234H150.859C137.078 87.4788 127.964 88.8894 125.305 90.951C125.197 91.0053 125.143 91.0596 125.088 91.1138C124.329 98.9806 137.35 110.645 160.028 122.364C173.916 129.579 188.185 135.168 195.455 137.88C199.036 139.237 200.935 143.143 199.687 146.778C199.09 148.622 197.788 150.033 196.052 150.901C195.075 151.335 194.045 151.552 193.014 151.552ZM138.706 77.6047C131.219 77.6047 123.352 78.6898 118.578 82.379C116.082 84.2779 114.617 86.8278 114.292 89.7575C112.99 100.608 121.399 111.622 139.9 123.395C144.348 126.216 149.502 129.145 155.145 132.075C169.685 139.616 184.279 145.313 191.712 148.08C192.688 148.46 193.719 148.405 194.641 147.971C195.564 147.537 196.269 146.724 196.594 145.747C197.246 143.794 196.269 141.678 194.316 140.973C186.992 138.26 172.56 132.563 158.508 125.293C133.769 112.49 120.748 100.174 121.833 90.6255C121.888 90.0287 122.104 89.2692 123.244 88.4011C127.259 85.3087 138.218 84.3864 151.184 86.1225H151.293C151.347 86.1225 159.594 86.9905 168.328 86.0682C181.132 84.7662 188.673 80.4259 190.789 73.2102C192.959 65.886 188.619 54.6555 169.251 47.3313C148.96 39.6273 128.506 37.0774 122.647 36.4806L122.05 44.0761C127.747 44.6729 147.441 47.1686 166.538 54.4385C180.047 59.5926 184.767 66.6998 183.465 71.0943C181.132 78.9611 161.33 79.5578 152.107 78.5813C148.526 78.093 143.697 77.6047 138.706 77.6047Z" fill="#163300"/>
<path d="M350.56 53.5123L347.648 54.968L358.906 77.4833L361.818 76.0275L350.56 53.5123Z" fill="#163300"/>
<path d="M412.172 48.2774L398.344 77.927L401.294 79.303L415.123 49.6534L412.172 48.2774Z" fill="#163300"/>
<path d="M449.069 104.949L429.141 112.68L430.318 115.715L450.247 107.984L449.069 104.949Z" fill="#163300"/>
<path d="M232.214 301.453L214.703 309.731L216.094 312.674L233.606 304.396L232.214 301.453Z" fill="#163300"/>
<path d="M269.245 330.67L252.031 356.688L254.746 358.484L271.96 332.467L269.245 330.67Z" fill="#163300"/>
<path d="M316.677 334.739L313.734 336.13L321.663 352.905L324.606 351.514L316.677 334.739Z" fill="#163300"/>
<path d="M100.488 102.507L92.0352 100.672L90.1213 92.2195C90.0416 91.9005 89.8023 91.741 89.4833 91.741C89.1644 91.741 88.9251 91.9803 88.8454 92.2195L86.9315 100.752L78.4785 102.746C78.1595 102.825 78 103.065 78 103.384C78 103.703 78.2392 103.942 78.5582 104.022L87.0112 105.856L88.9251 114.309C89.0049 114.628 89.2441 114.787 89.5631 114.787C89.8821 114.787 90.1213 114.548 90.2011 114.309L92.1149 105.776L100.568 103.783C100.887 103.703 101.046 103.463 101.046 103.144C101.046 102.825 100.807 102.507 100.488 102.507Z" fill="#163300"/>
<path d="M405.949 20.6655L397.496 18.8312L395.582 10.3785C395.503 10.0595 395.263 9.8999 394.944 9.8999C394.625 9.8999 394.386 10.1392 394.306 10.3785L392.392 18.911L383.939 20.9046C383.62 20.9844 383.461 21.2238 383.461 21.5428C383.461 21.8618 383.7 22.1009 384.019 22.1806L392.472 24.0146L394.386 32.4677C394.466 32.7867 394.705 32.9463 395.024 32.9463C395.343 32.9463 395.582 32.707 395.662 32.4677L397.576 23.9352L406.029 21.9416C406.348 21.8618 406.507 21.6223 406.507 21.3034C406.507 20.9844 406.268 20.6655 405.949 20.6655Z" fill="#163300"/>
<path d="M38.6428 123.856L34.2568 122.899L33.2999 118.513C33.2999 118.354 33.1404 118.274 32.9809 118.274C32.8214 118.274 32.6619 118.354 32.6619 118.513L31.6252 122.899L27.2392 123.936C27.0797 123.936 27 124.095 27 124.255C27 124.414 27.0797 124.574 27.2392 124.574L31.6252 125.531L32.5822 129.917C32.5822 130.076 32.7417 130.156 32.9012 130.156C33.0607 130.156 33.2201 130.076 33.2201 129.917L34.2568 125.531L38.6428 124.494C38.8023 124.494 38.8821 124.335 38.8821 124.175C38.8821 124.016 38.8023 123.936 38.6428 123.856Z" fill="#163300"/>
<path d="M382.082 80.689C362.507 77.1553 343.806 90.139 340.232 109.714C338.565 118.886 340.55 127.859 345.116 135.165L336.5 150.69L354.01 144.893C358.338 148.149 363.5 150.492 369.217 151.524C388.792 155.058 407.494 142.074 411.067 122.499C414.641 102.964 401.657 84.2228 382.082 80.689Z" fill="white"/>
<path d="M334 152.755L343.768 135.165C339.162 127.462 337.494 118.33 339.082 109.476C342.735 89.3053 362.112 75.8451 382.282 79.498C402.452 83.1509 415.913 102.527 412.26 122.698C408.607 142.868 389.23 156.328 369.06 152.675C363.501 151.683 358.379 149.499 353.853 146.164L334 152.755ZM381.845 81.8803C362.945 78.4657 344.8 91.0524 341.385 109.952C339.837 118.489 341.504 127.224 346.11 134.57L346.468 135.165L339.003 148.625L354.21 143.583L354.726 143.94C359.094 147.236 364.057 149.38 369.457 150.372C388.357 153.787 406.502 141.201 409.917 122.301C413.332 103.441 400.745 85.295 381.845 81.8803Z" fill="#163300"/>
<path d="M392.842 130.321C384.98 123.492 376.642 121.387 368.065 124.127C361.633 126.152 357.543 130.242 357.504 130.281L355.836 128.614C356.034 128.415 360.402 124.087 367.39 121.864C373.862 119.799 383.789 119.323 394.43 128.534L392.842 130.321Z" fill="#163300"/>
<path d="M363.26 113.129C360.52 113.129 358.297 110.905 358.297 108.165C358.297 105.426 360.52 103.202 363.26 103.202C366 103.202 368.223 105.426 368.223 108.165C368.223 110.905 366 113.129 363.26 113.129ZM363.26 105.585C361.831 105.585 360.679 106.736 360.679 108.165C360.679 109.595 361.831 110.746 363.26 110.746C364.689 110.746 365.841 109.595 365.841 108.165C365.841 106.736 364.689 105.585 363.26 105.585Z" fill="#163300"/>
<path d="M385.893 113.129C383.153 113.129 380.93 110.905 380.93 108.165C380.93 105.426 383.153 103.202 385.893 103.202C388.633 103.202 390.856 105.426 390.856 108.165C390.856 110.905 388.633 113.129 385.893 113.129ZM385.893 105.585C384.463 105.585 383.312 106.736 383.312 108.165C383.312 109.595 384.463 110.746 385.893 110.746C387.322 110.746 388.474 109.595 388.474 108.165C388.474 106.736 387.322 105.585 385.893 105.585Z" fill="#163300"/>
<path d="M108.097 157.547C109.821 156.008 112.16 155.331 115.053 155.454C117.946 155.639 121.578 156.439 125.826 157.855C130.135 159.332 133.397 160.932 135.675 162.718C137.952 164.503 139.306 166.534 139.737 168.873C140.168 171.212 140.168 173.244 139.861 174.967C139.491 176.691 138.814 179.092 137.706 182.231L99.0485 295.618C97.2633 300.912 95.232 304.606 93.1391 306.698C90.9846 308.791 88.4607 309.776 85.506 309.653C82.5513 309.53 79.1657 308.853 75.2261 307.499C71.2865 306.145 68.2702 304.729 66.1772 303.313C64.0843 301.835 62.607 300.42 61.6837 299.065C60.7603 297.711 60.391 296.049 60.4525 294.079C60.4525 291.494 61.1911 287.801 62.8532 283.061L71.348 258.192L16.0702 239.356C6.52889 236.093 1.78906 231.599 1.78906 225.813C1.85062 223.412 2.52771 220.396 3.75884 216.703C4.98998 213.009 6.15955 210.363 7.14446 208.762L47.3409 146.159C49.2492 143.327 50.7266 141.173 51.8961 139.757C53.0657 138.341 54.7893 137.172 57.19 136.31C59.5291 135.448 62.1145 135.51 65.0076 136.433C67.8393 137.418 70.8555 138.957 73.9334 141.05C82.5513 146.898 85.8753 152.869 83.7824 158.963C83.0437 161.117 81.5664 163.826 79.4119 167.027C79.1657 167.273 79.0426 167.457 78.981 167.581L49.557 213.132L82.7975 224.459L101.757 168.75C102.803 165.611 103.727 163.333 104.404 161.918C105.143 160.563 106.374 159.086 108.097 157.547Z" fill="white"/>
<path d="M85.933 311.5C85.8099 311.5 85.6868 311.5 85.5021 311.5C82.4243 311.377 78.7309 310.638 74.6682 309.284C70.4823 307.868 67.4045 306.391 65.1884 304.852C62.9109 303.251 61.3104 301.712 60.2639 300.112C59.1559 298.45 58.6634 296.418 58.725 294.079C58.725 291.248 59.5252 287.493 61.1873 282.507L69.0665 259.361L15.5123 241.141C5.23235 237.632 0 232.523 0 225.875C0.0615566 223.228 0.738694 220.027 2.09294 216.149C3.38563 212.332 4.55523 209.562 5.66325 207.839L45.8597 145.236C47.8295 142.281 49.3684 140.126 50.5379 138.649C51.8922 136.987 53.9236 135.633 56.5705 134.648C59.3406 133.601 62.3568 133.663 65.6193 134.771C68.6356 135.817 71.775 137.418 74.976 139.634C84.3326 145.974 87.9028 152.684 85.5021 159.64C84.7019 161.979 83.2245 164.749 80.9469 168.135L80.8238 168.319L80.7007 168.443C80.7007 168.443 80.7007 168.442 80.6391 168.504L52.3846 212.209L81.624 222.181L99.9679 168.258C101.076 164.995 101.999 162.718 102.738 161.179C103.538 159.517 104.892 157.916 106.862 156.193C108.955 154.346 111.725 153.484 115.172 153.669C118.25 153.854 122.067 154.654 126.437 156.193C130.869 157.731 134.378 159.455 136.84 161.302C139.487 163.333 141.088 165.795 141.58 168.627C142.011 171.212 142.073 173.49 141.642 175.398C141.272 177.183 140.534 179.646 139.426 182.847L100.768 296.234C98.8599 301.897 96.767 305.714 94.3663 308.053C92.0271 310.33 89.1955 311.5 85.933 311.5ZM60.6948 137.541C59.7099 137.541 58.725 137.726 57.8632 138.033C55.8318 138.772 54.3545 139.757 53.3696 140.927C52.2616 142.281 50.7226 144.374 48.9375 147.205L8.74108 209.747C7.81773 211.224 6.77122 213.748 5.54009 217.318C4.37052 220.827 3.6934 223.659 3.6934 225.875C3.6934 230.676 8.06396 234.677 16.7434 237.57L73.7448 257.022L64.696 283.676C63.157 288.231 62.3568 291.74 62.4184 294.079V294.141V294.202C62.3568 295.803 62.6646 297.034 63.4033 298.08C64.2035 299.25 65.4962 300.543 67.4045 301.835C69.3127 303.19 72.2059 304.544 75.9608 305.837C79.7158 307.129 82.9783 307.807 85.7484 307.868C88.1491 307.93 90.242 307.13 92.0271 305.406C93.9354 303.559 95.7821 300.05 97.5057 295.064L136.163 181.677C137.21 178.661 137.887 176.26 138.256 174.659C138.564 173.182 138.502 171.397 138.133 169.304C137.825 167.396 136.717 165.795 134.747 164.256C132.654 162.656 129.515 161.117 125.452 159.701C121.328 158.286 117.881 157.547 115.172 157.362C112.772 157.239 110.925 157.731 109.509 158.963C107.97 160.317 106.862 161.61 106.247 162.841C105.57 164.195 104.708 166.411 103.661 169.427L84.0863 226.86L46.8446 214.179L77.4382 166.78C77.5613 166.534 77.746 166.226 78.0538 165.98C80.0852 162.964 81.4394 160.44 82.1165 158.47C83.9016 153.176 80.9469 148.005 73.0061 142.65C70.0514 140.619 67.2198 139.142 64.5729 138.218C63.0955 137.787 61.8644 137.541 60.6948 137.541Z" fill="#163300"/>
<path d="M594.248 156.989C595.221 154.72 597.101 153.035 599.888 151.868C602.741 150.701 606.501 149.793 611.234 149.21C615.966 148.626 619.791 148.626 622.773 149.275C625.755 149.923 627.96 151.22 629.451 153.229C630.942 155.239 631.849 157.184 632.303 158.934C632.757 160.685 633.211 163.343 633.6 166.779L648.964 292.029C649.677 297.864 649.483 302.273 648.446 305.255C647.344 308.237 645.399 310.311 642.611 311.543C639.824 312.775 636.193 313.683 631.849 314.266C627.506 314.785 624.005 314.849 621.347 314.395C618.689 313.942 616.614 313.294 615.188 312.386C613.697 311.478 612.53 310.117 611.687 308.237C610.456 305.773 609.548 301.948 608.9 296.697L605.529 269.209L544.459 276.73C533.957 278.026 527.344 275.952 524.686 270.441C523.649 268.107 522.871 264.93 522.352 260.911C521.833 256.827 521.704 253.845 521.898 251.835L531.299 174.104C531.752 170.539 532.271 167.816 532.725 165.936C533.179 164.056 534.346 162.176 536.161 160.231C537.976 158.351 540.504 157.184 543.616 156.795C546.793 156.406 550.294 156.536 554.183 157.119C565.01 158.675 570.91 162.824 571.687 169.566C572.012 171.965 571.817 175.206 571.299 179.226C571.169 179.55 571.169 179.809 571.169 179.939L564.167 236.6L600.861 232.062L593.341 170.603C592.887 167.168 592.692 164.574 592.757 162.889C592.822 161.203 593.276 159.258 594.248 156.989Z" fill="white"/>
<path d="M625.434 316.6C623.813 316.6 622.322 316.47 621.026 316.276C618.108 315.822 615.839 315.044 614.154 314.071C612.338 312.969 610.912 311.284 609.94 309.08C608.643 306.422 607.671 302.467 606.958 296.956L603.846 271.414L544.721 278.675C533.311 280.101 526.05 277.572 523.003 271.349C521.836 268.82 521.058 265.514 520.54 261.171C520.021 256.957 519.891 253.845 520.086 251.641L529.551 173.845C530.07 170.15 530.523 167.427 530.977 165.482C531.496 163.278 532.792 161.074 534.867 158.934C537.006 156.73 539.924 155.368 543.489 154.915C546.796 154.526 550.491 154.59 554.575 155.239C566.374 156.924 572.792 161.722 573.765 169.437C574.089 172.03 573.959 175.336 573.376 179.615V179.809L573.311 180.004C573.311 180.004 573.311 180.004 573.311 180.069L566.569 234.461L598.854 230.506L591.528 170.928C591.074 167.362 590.88 164.769 590.88 162.954C590.88 161.009 591.398 158.804 592.501 156.341C593.668 153.618 595.872 151.543 599.178 150.117C602.16 148.885 606.18 147.913 611.042 147.33C615.969 146.746 620.053 146.746 623.23 147.395C626.666 148.108 629.324 149.728 631.074 152.127C632.695 154.331 633.732 156.47 634.251 158.48C634.705 160.36 635.158 163.018 635.612 166.584L650.977 291.835C651.755 298.059 651.496 302.661 650.329 305.968C649.032 309.404 646.763 311.932 643.457 313.423C640.474 314.784 636.649 315.692 632.111 316.276C629.583 316.47 627.379 316.6 625.434 316.6ZM607.217 267.07L610.847 296.503C611.431 301.495 612.338 305.19 613.441 307.394L613.505 307.459C614.154 308.95 615.061 310.052 616.228 310.7C617.525 311.478 619.34 312.062 621.739 312.451C624.202 312.84 627.509 312.775 631.658 312.321C635.807 311.803 639.243 310.96 641.836 309.793C644.17 308.756 645.726 307.07 646.633 304.606C647.606 301.948 647.735 297.799 647.087 292.289L631.723 167.038C631.334 163.667 630.88 161.138 630.491 159.453C630.102 157.962 629.259 156.211 627.897 154.396C626.731 152.775 624.915 151.738 622.387 151.155C619.664 150.571 615.969 150.571 611.496 151.09C606.958 151.673 603.327 152.516 600.669 153.618C598.335 154.59 596.779 155.952 596.066 157.702C595.223 159.712 594.77 161.463 594.77 162.889C594.77 164.445 594.964 166.973 595.353 170.344L603.133 233.747L562.031 238.804L569.292 179.809C569.292 179.485 569.356 179.161 569.486 178.772C570.005 175.012 570.134 171.965 569.875 169.825C569.162 163.991 563.976 160.49 553.992 159.064C550.296 158.48 546.925 158.416 543.943 158.74C541.22 159.064 539.146 160.036 537.655 161.592C536.099 163.213 535.126 164.834 534.737 166.39C534.284 168.205 533.83 170.863 533.376 174.363L523.976 252.094C523.781 253.91 523.911 256.827 524.429 260.717C524.883 264.542 525.596 267.589 526.569 269.728C528.773 274.266 534.737 276.016 544.332 274.849L607.217 267.07Z" fill="#163300"/>
<defs>
<linearGradient id="paint0_linear_2525_16423" x1="609.029" y1="346.204" x2="602.277" y2="282.708" gradientUnits="userSpaceOnUse">
<stop stop-color="#163300" stop-opacity="0.1"/>
<stop offset="1" stop-color="#429900" stop-opacity="0"/>
</linearGradient>
<linearGradient id="paint1_linear_2525_16423" x1="280" y1="352.5" x2="274.5" y2="246.5" gradientUnits="userSpaceOnUse">
<stop stop-color="#163300" stop-opacity="0.1"/>
<stop offset="1" stop-color="#429900" stop-opacity="0"/>
</linearGradient>
</defs>
</svg>
