<svg width="368" height="314" viewBox="0 0 368 314" fill="none" xmlns="http://www.w3.org/2000/svg">
<path d="M357.246 112.118L352.399 111.067L351.302 106.22C351.256 106.037 351.119 105.946 350.936 105.946C350.753 105.946 350.616 106.083 350.57 106.22L349.473 111.112L344.626 112.256C344.443 112.301 344.352 112.438 344.352 112.621C344.352 112.804 344.489 112.941 344.672 112.987L349.518 114.039L350.616 118.886C350.662 119.069 350.799 119.16 350.982 119.16C351.165 119.16 351.302 119.023 351.347 118.886L352.445 113.993L357.292 112.85C357.475 112.804 357.566 112.667 357.566 112.484C357.566 112.301 357.429 112.118 357.246 112.118Z" fill="#06131C"/>
<path d="M50.4257 149.156L45.5788 148.104L44.4814 143.257C44.4357 143.075 44.2985 142.983 44.1156 142.983C43.9327 142.983 43.7955 143.12 43.7498 143.257L42.6524 148.15L37.8055 149.293C37.6226 149.339 37.5312 149.476 37.5312 149.659C37.5312 149.842 37.6684 149.979 37.8513 150.025L42.6981 151.076L43.7956 155.923C43.8413 156.106 43.9785 156.198 44.1614 156.198C44.3443 156.198 44.4814 156.06 44.5271 155.923L45.6246 151.031L50.4714 149.888C50.6543 149.842 50.7458 149.705 50.7458 149.522C50.7458 149.339 50.6086 149.156 50.4257 149.156Z" fill="#06131C"/>
<path d="M332.754 92.6397L330.239 92.091L329.69 89.5762C329.69 89.4847 329.599 89.439 329.508 89.439C329.416 89.439 329.325 89.4847 329.325 89.5762L328.73 92.091L326.215 92.6855C326.124 92.6855 326.078 92.7769 326.078 92.8683C326.078 92.9598 326.124 93.0512 326.215 93.0512L328.73 93.6L329.279 96.1149C329.279 96.2063 329.37 96.252 329.462 96.252C329.553 96.252 329.645 96.2063 329.645 96.1149L330.239 93.6L332.754 93.0055C332.845 93.0055 332.891 92.914 332.891 92.8226C332.891 92.7311 332.845 92.6854 332.754 92.6397Z" fill="#06131C"/>
<path d="M0 313.034H63.4665C64.2896 304.621 57.6594 301.74 57.6594 301.74C59.2598 299.088 58.5282 297.396 58.5282 297.396C57.5222 295.979 56.4705 297.396 56.4705 297.396C56.5163 294.013 54.8244 293.373 54.8244 293.373C53.6355 293.052 53.224 295.43 53.224 295.43C49.6117 291.681 46.1366 293.738 46.1366 293.738C46.6396 292.138 46.3652 291.132 46.3652 291.132C45.7251 290.263 44.9935 291.361 44.9935 291.361C45.1764 286.788 43.5303 286.605 43.5303 286.605C41.8842 286.559 42.1585 290.08 42.1585 290.08C39.7351 286.788 36.9916 286.605 36.9916 286.605C32.6934 286.559 30.5444 291.04 30.5444 291.04C30.8645 285.691 28.8983 285.691 28.8983 285.691C26.7035 286.148 28.0752 291.955 28.0752 291.955C24.9659 289.486 22.2681 290.126 22.2681 290.126C17.0555 291.04 15.5923 298.311 15.5923 298.311C14.1291 296.253 13.1231 296.756 13.1231 296.756C11.7056 297.488 12.4372 299.637 12.4372 299.637C7.81897 300.78 11.4313 301.694 11.4313 301.694C10.5168 302.426 9.92233 303.798 9.92233 303.798C1.60036 303.706 0 313.034 0 313.034Z" fill="#06131C"/>
<path d="M277.133 313.035H367.12C368.263 301.1 358.889 296.985 358.889 296.985C361.176 293.236 360.078 290.812 360.078 290.812C358.661 288.846 357.152 290.812 357.152 290.812C357.243 285.965 354.82 285.142 354.82 285.142C353.128 284.731 352.534 288.069 352.534 288.069C347.412 282.765 342.474 285.645 342.474 285.645C343.206 283.359 342.84 281.941 342.84 281.941C341.925 280.753 340.919 282.307 340.919 282.307C341.194 275.86 338.862 275.586 338.862 275.586C336.53 275.494 336.941 280.478 336.941 280.478C333.512 275.814 329.625 275.586 329.625 275.586C323.498 275.494 320.48 281.896 320.48 281.896C320.892 274.305 318.148 274.305 318.148 274.305C315.039 274.946 317.005 283.176 317.005 283.176C312.615 279.701 308.775 280.57 308.775 280.57C301.413 281.85 299.355 292.23 299.355 292.23C297.298 289.303 295.88 290.035 295.88 290.035C293.914 291.086 294.874 294.15 294.874 294.15C288.335 295.796 293.457 297.077 293.457 297.077C292.176 298.128 291.308 300.049 291.308 300.049C279.419 299.82 277.133 313.035 277.133 313.035Z" fill="#06131C"/>
<path d="M151.613 312.029H15.9926C14.3008 294.059 28.3842 287.84 28.3842 287.84C24.9548 282.17 26.5552 278.512 26.5552 278.512C28.7043 275.495 30.9447 278.512 30.9447 278.512C30.8533 271.242 34.4655 269.962 34.4655 269.962C37.0262 269.322 37.8949 274.351 37.8949 274.351C45.5767 266.35 53.0758 270.693 53.0758 270.693C52.0241 267.264 52.527 265.115 52.527 265.115C53.8987 263.286 55.4077 265.664 55.4077 265.664C54.9961 255.924 58.517 255.513 58.517 255.513C62.0378 255.421 61.3977 262.875 61.3977 262.875C66.5189 255.833 72.4174 255.513 72.4174 255.513C81.6081 255.421 86.2265 265.024 86.2265 265.024C85.5863 253.592 89.7473 253.592 89.7473 253.592C94.457 254.553 91.4391 266.944 91.4391 266.944C98.0692 261.686 103.831 262.966 103.831 262.966C114.942 264.886 118.051 280.524 118.051 280.524C121.16 276.135 123.309 277.186 123.309 277.186C126.327 278.787 124.818 283.405 124.818 283.405C134.649 285.874 126.967 287.795 126.967 287.795C128.888 289.395 130.168 292.276 130.168 292.276C148.23 292.139 151.613 312.029 151.613 312.029Z" fill="#22BE0D"/>
<path d="M153.27 313.401H14.7233L14.5861 312.166C13.1229 296.802 22.8623 289.486 26.4746 287.292C23.6396 281.759 25.1944 278.147 25.2858 277.964L25.3315 277.827L25.423 277.689C26.5204 276.135 27.7549 275.815 28.578 275.769C28.9895 275.769 29.3096 275.815 29.6754 275.952C30.3612 270.007 33.8363 268.681 34.0192 268.636L34.1564 268.59C35.0252 268.361 35.8483 268.499 36.6257 269.002C37.5859 269.642 38.226 270.739 38.6375 271.791C43.6216 267.63 48.377 267.858 51.2119 268.544C50.8919 266.349 51.212 264.978 51.2577 264.795L51.3491 264.52L51.532 264.292C52.355 263.24 53.2696 263.012 53.864 263.057C53.9555 263.057 54.0012 263.057 54.0926 263.057C54.367 255.055 57.7049 254.187 58.4365 254.095H58.5737C59.5797 254.05 60.4941 254.461 61.2257 255.193C62.1859 256.199 62.5975 257.753 62.7804 259.216C67.5358 254.415 72.1997 254.095 72.4284 254.095H72.4741C72.5198 254.095 72.6113 254.095 72.657 254.095C78.4641 254.095 82.5337 257.525 84.9571 260.451C85.1857 257.204 85.963 254.872 87.289 253.455C88.4321 252.22 89.621 252.175 89.8497 252.175H89.9869L90.1241 252.22C91.1757 252.449 92.0902 253.089 92.6846 254.049C94.2393 256.473 93.9649 260.862 93.5077 263.972C99.1319 260.725 103.704 261.548 104.207 261.64C113.307 263.24 117.376 272.888 118.839 277.644C121.674 274.946 123.778 275.86 124.052 275.998C126.613 277.369 126.933 280.296 126.567 282.445C129.905 283.405 131.322 284.457 131.322 285.966C131.322 287.063 130.454 287.84 129.493 288.343C130.225 289.304 130.774 290.264 131.139 290.904C149.292 291.315 152.996 311.526 153.042 311.709L153.27 313.401ZM17.2381 310.657H149.887C148.698 306.13 144.125 293.693 130.499 293.693C130.408 293.693 130.316 293.693 130.225 293.693H129.31L128.945 292.87C128.945 292.824 127.756 290.264 126.11 288.892L124.052 287.154L126.658 286.514C127.161 286.377 127.664 286.194 128.076 286.011C127.573 285.737 126.521 285.325 124.509 284.822L123.092 284.457L123.549 283.039C123.549 282.993 124.601 279.61 122.818 278.512C122.406 278.421 121.034 278.832 119.251 281.347L117.422 283.954L116.782 280.844C116.736 280.707 113.718 266.121 103.659 264.383H103.613C103.43 264.338 98.3545 263.332 92.3646 268.087L89.2552 270.556L90.1697 266.715C90.9471 263.515 91.6787 257.707 90.3527 255.604C90.1698 255.284 89.9411 255.147 89.7582 255.055C88.9352 255.375 87.2433 257.616 87.6548 265.023L88.0664 271.974L85.0485 265.709C85.0028 265.618 80.7047 256.884 72.5199 256.976C72.1084 257.022 67.0786 257.525 62.5518 263.789L59.6711 267.767L60.0826 262.874C60.2197 261.091 60.0368 258.165 59.1681 257.204C59.0309 257.067 58.8938 257.022 58.7566 256.976C58.0707 257.296 56.5618 259.354 56.8362 265.709L57.0648 270.831L54.3213 266.487C54.1841 266.304 54.0012 266.121 53.864 265.984C53.8183 266.715 53.7726 268.27 54.4585 270.373L55.5101 273.757L52.4465 271.974C52.1721 271.837 45.7706 268.27 38.9576 275.357L37.0829 277.324L36.6257 274.626C36.4428 273.574 35.8483 271.836 35.1624 271.379C35.0709 271.334 35.0252 271.288 34.9338 271.334C34.5679 271.516 32.2818 272.934 32.3732 278.558L32.4189 282.765L29.904 279.381C29.7211 279.153 29.1267 278.604 28.7152 278.604C28.3951 278.604 28.075 278.97 27.8464 279.244C27.6635 279.838 26.9319 282.765 29.6297 287.2L30.4528 288.526L29.0353 289.166C28.4408 289.349 16.3694 294.882 17.2381 310.657Z" fill="#06131C"/>
<path d="M355.19 312.029H219.524C217.832 294.059 231.915 287.84 231.915 287.84C228.486 282.17 230.086 278.512 230.086 278.512C232.235 275.494 234.476 278.512 234.476 278.512C234.385 271.242 237.997 269.962 237.997 269.962C240.557 269.321 241.426 274.351 241.426 274.351C249.108 266.349 256.607 270.693 256.607 270.693C255.555 267.264 256.058 265.115 256.058 265.115C257.43 263.286 258.939 265.663 258.939 265.663C258.527 255.924 262.048 255.512 262.048 255.512C265.569 255.421 264.929 262.874 264.929 262.874C270.05 255.832 275.949 255.512 275.949 255.512C285.139 255.421 289.758 265.023 289.758 265.023C289.117 253.592 293.278 253.592 293.278 253.592C297.988 254.552 294.97 266.944 294.97 266.944C301.6 261.685 307.362 262.966 307.362 262.966C318.473 264.886 321.582 280.524 321.582 280.524C324.692 276.134 326.841 277.186 326.841 277.186C329.859 278.787 328.35 283.405 328.35 283.405C338.181 285.874 330.499 287.794 330.499 287.794C332.419 289.395 333.699 292.275 333.699 292.275C351.761 292.138 355.19 312.029 355.19 312.029Z" fill="#22BE0D"/>
<path d="M356.841 313.401H218.293L218.156 312.166C216.693 296.802 226.433 289.486 230.045 287.292C227.21 281.759 228.765 278.147 228.856 277.964L228.902 277.827L228.993 277.689C230.091 276.135 231.325 275.815 232.148 275.769C232.514 275.769 232.88 275.815 233.246 275.952C233.932 270.007 237.407 268.681 237.59 268.636L237.727 268.59C238.595 268.361 239.419 268.499 240.196 269.002C241.156 269.642 241.796 270.739 242.208 271.791C247.192 267.63 251.993 267.858 254.782 268.544C254.462 266.349 254.782 264.978 254.828 264.795L254.919 264.52L255.102 264.292C255.925 263.24 256.84 263.012 257.434 263.057C257.526 263.057 257.571 263.057 257.663 263.057C257.937 255.055 261.275 254.187 262.007 254.095H262.144C263.15 254.05 264.064 254.461 264.796 255.193C265.756 256.199 266.168 257.753 266.351 259.216C271.106 254.415 275.77 254.095 275.999 254.095H276.044C276.09 254.095 276.182 254.095 276.227 254.095C282.034 254.095 286.104 257.525 288.527 260.451C288.756 257.204 289.533 254.872 290.859 253.455C292.002 252.22 293.191 252.175 293.42 252.175H293.557L293.694 252.22C294.746 252.449 295.66 253.089 296.255 254.049C297.809 256.473 297.535 260.862 297.078 263.972C302.702 260.725 307.275 261.548 307.778 261.64C316.877 263.24 320.946 272.888 322.41 277.644C325.245 274.946 327.348 275.86 327.622 275.998C330.183 277.369 330.503 280.296 330.137 282.445C333.475 283.405 334.893 284.457 334.893 285.966C334.893 287.063 334.024 287.84 333.064 288.343C333.795 289.304 334.344 290.264 334.71 290.904C352.863 291.315 356.566 311.526 356.612 311.709L356.841 313.401ZM220.808 310.657H353.457C352.268 306.13 347.696 293.693 334.07 293.693C333.978 293.693 333.887 293.693 333.795 293.693H332.881L332.515 292.87C332.515 292.824 331.326 290.264 329.68 288.892L327.622 287.154L330.229 286.514C330.732 286.377 331.235 286.194 331.646 286.011C331.143 285.737 330.091 285.325 328.08 284.822L326.662 284.457L327.119 283.039C327.119 282.993 328.171 279.61 326.388 278.512C325.976 278.421 324.604 278.832 322.821 281.347L320.992 283.954L320.352 280.844C320.306 280.707 317.288 266.121 307.229 264.383H307.183C306.955 264.338 301.925 263.332 295.935 268.087L292.825 270.556L293.74 266.715C294.517 263.515 295.249 257.707 293.923 255.604C293.74 255.284 293.511 255.147 293.328 255.055C292.505 255.375 290.814 257.616 291.225 265.023L291.637 271.974L288.619 265.709C288.573 265.618 284.321 256.976 276.182 256.976C276.136 256.976 276.136 256.976 276.09 256.976C275.679 257.022 270.649 257.525 266.122 263.789L263.241 267.767L263.653 262.874C263.79 261.091 263.607 258.165 262.738 257.204C262.601 257.067 262.464 257.022 262.327 256.976C261.641 257.296 260.132 259.354 260.406 265.709L260.635 270.831L257.891 266.487C257.754 266.304 257.571 266.121 257.434 265.984C257.388 266.715 257.343 268.27 258.029 270.373L259.08 273.757L256.017 271.974C255.742 271.837 249.341 268.27 242.528 275.357L240.653 277.324L240.196 274.626C240.013 273.574 239.419 271.836 238.733 271.379C238.641 271.334 238.596 271.288 238.504 271.334C238.138 271.516 235.852 272.934 235.943 278.558L235.989 282.765L233.474 279.381C233.291 279.153 232.697 278.604 232.285 278.604C231.965 278.604 231.645 278.97 231.417 279.244C231.234 279.838 230.502 282.765 233.2 287.2L234.023 288.526L232.605 289.166C231.965 289.349 219.94 294.882 220.808 310.657ZM326.296 278.467C326.342 278.467 326.342 278.467 326.296 278.467C326.342 278.467 326.342 278.467 326.296 278.467Z" fill="#06131C"/>
<path d="M86.4222 304.85C83.3586 306.862 81.9411 310.062 81.301 312.029H59.4444C57.7068 306.542 58.3012 303.615 58.3012 303.615C59.7644 306.176 61.4106 306.907 61.4106 306.907C63.1938 303.615 62.5079 294.836 62.5079 294.836C65.8001 297.854 65.4801 304.667 65.4801 304.667C67.812 296.391 73.1162 293.876 73.2077 293.83C69.7783 299.454 69.6411 307.685 69.6411 307.685C73.8478 301.009 81.8497 301.786 81.8497 301.786C75.9969 303.752 75.7682 309.651 75.7682 309.651C79.7006 305.17 86.4222 304.85 86.4222 304.85Z" fill="#06131C"/>
<path d="M132.837 140.147L145.457 135.529L146.691 99.6349C131.236 87.9293 139.878 79.5159 139.878 79.5159L140.518 63.1005H202.156C213.633 130.042 184.46 123.641 184.46 123.641L185.192 137.587L200.19 142.937L200.098 171.423H130.688L132.837 140.147Z" fill="white"/>
<path d="M201.535 172.795H129.289L131.575 139.187L144.15 134.569L145.339 100.275C139.532 95.7482 136.468 91.0842 136.194 86.466C135.965 82.6251 137.794 79.9731 138.617 78.9671L139.303 61.7286H203.41L203.592 62.8718C208.668 92.5016 206.61 111.981 197.511 120.668C193.213 124.784 188.503 125.287 185.988 125.195L186.583 136.626L201.626 142.022L201.535 172.795ZM132.216 170.052H198.791L198.883 143.897L183.976 138.547L183.108 121.903L184.845 122.269C185.074 122.314 190.652 123.412 195.682 118.611C201.398 113.124 206.93 99.269 201.123 64.4265H142.001L141.361 80.1102L140.949 80.4759C140.858 80.5674 138.708 82.7165 138.983 86.3288C139.257 90.2154 142.229 94.4222 147.625 98.4917L148.174 98.9032L146.848 136.444L134.182 141.062L132.216 170.052Z" fill="#06131C"/>
<path d="M167.113 66.6665C167.113 66.6665 180.282 75.2171 202.779 66.6665L203.876 74.5312C203.876 74.5312 213.798 67.4895 211.146 54.4121C211.146 54.4121 209.82 46.1359 195.92 44.5355C195.92 44.5355 190.067 32.5099 177.264 37.5853C177.264 37.5853 167.662 31.7325 158.334 40.5117C158.334 40.5117 150.058 40.2374 148.731 46.9132C148.731 46.9132 139.952 45.8616 134.557 51.9888C132.362 54.5036 131.219 57.7958 131.219 61.1338C131.219 66.3007 131.722 75.2628 139.998 80.2468C139.998 80.2468 149.692 73.6624 152.71 86.6483L157.511 87.9744L158.562 80.5212C158.608 80.5212 165.787 78.4178 167.113 66.6665Z" fill="#06131C"/>
<path d="M199.009 94.7873C193.704 94.7873 189.406 90.4892 189.406 85.185C189.406 79.8809 193.704 75.5828 199.009 75.5828C204.313 75.5828 208.611 79.8809 208.611 85.185C208.611 90.4892 204.313 94.7873 199.009 94.7873ZM199.009 77.4575C194.71 77.4575 191.235 80.9326 191.235 85.2308C191.235 89.529 194.71 93.0041 199.009 93.0041C203.307 93.0041 206.782 89.529 206.782 85.2308C206.782 80.9326 203.307 77.4575 199.009 77.4575Z" fill="#06131C"/>
<path d="M178.204 94.7873C172.9 94.7873 168.602 90.4892 168.602 85.185C168.602 79.8809 172.9 75.5828 178.204 75.5828C183.508 75.5828 187.806 79.8809 187.806 85.185C187.806 90.4892 183.508 94.7873 178.204 94.7873ZM178.204 77.4575C173.906 77.4575 170.431 80.9326 170.431 85.2308C170.431 89.529 173.906 93.0041 178.204 93.0041C182.502 93.0041 185.977 89.529 185.977 85.2308C185.977 80.9326 182.502 77.4575 178.204 77.4575Z" fill="#06131C"/>
<path d="M198.876 88.8436C200.215 88.8436 201.3 87.7586 201.3 86.4202C201.3 85.0817 200.215 83.9968 198.876 83.9968C197.538 83.9968 196.453 85.0817 196.453 86.4202C196.453 87.7586 197.538 88.8436 198.876 88.8436Z" fill="#06131C"/>
<path d="M178.181 88.9807C179.52 88.9807 180.605 87.8957 180.605 86.5572C180.605 85.2188 179.52 84.1338 178.181 84.1338C176.843 84.1338 175.758 85.2188 175.758 86.5572C175.758 87.8957 176.843 88.9807 178.181 88.9807Z" fill="#06131C"/>
<path d="M157.217 82.0511L157.039 83.8713L169.417 85.0835L169.595 83.2633L157.217 82.0511Z" fill="#06131C"/>
<path d="M194.588 100.504L189.193 100.092L189.33 98.2631L191.982 98.446L187.227 84.2255L188.964 83.6768L194.588 100.504Z" fill="#06131C"/>
<path d="M191.049 76.4515L189.906 75.034C190.089 74.8968 194.707 71.1931 203.807 72.3363L203.578 74.1653C195.256 73.1136 191.095 76.4058 191.049 76.4515Z" fill="#06131C"/>
<path d="M184.878 76.2236C184.603 75.9493 178.339 69.5478 169.788 74.9433L168.828 73.3886C178.705 67.2157 186.158 74.8975 186.204 74.989L184.878 76.2236Z" fill="#06131C"/>
<path d="M192.544 110.334C193.459 109.374 193.321 107.865 192.224 107.088C191.538 106.631 190.669 106.265 189.572 106.219C187.103 106.128 183.811 107.728 182.256 108.551C181.799 108.78 181.753 109.374 182.119 109.694C183.856 111.295 189.115 113.947 192.544 110.334Z" fill="#06131C"/>
<path d="M231.787 111.386L238.645 123.777L248.751 174.258L223.328 158.94V212.987L292.372 225.379L255.564 113.352L239.697 68.1298C238.828 65.615 236.816 63.6946 234.302 62.8258L232.747 62.3228C229.455 61.2254 225.842 61.5911 222.825 63.3287L209.016 71.3306V96.0679C209.016 96.0679 215.874 100.961 219.121 105.533C219.075 105.533 224.608 111.752 231.787 111.386Z" fill="white"/>
<path d="M294.355 227.162L221.927 214.176V156.517L246.756 171.469L237.29 124.235L230.935 112.758C223.664 112.621 218.269 106.676 217.994 106.448L217.903 106.311C214.794 101.967 208.209 97.2113 208.118 97.1656L207.523 96.7541V70.5079L222.018 62.0944C225.356 60.174 229.38 59.7624 233.084 60.9513L234.638 61.4543C237.519 62.4146 239.851 64.7008 240.857 67.5814L256.724 112.804L294.355 227.162ZM224.67 211.89L290.332 223.641L254.254 113.81L238.388 68.6331C237.656 66.5298 235.964 64.8837 233.861 64.1978L232.306 63.6948C229.38 62.7346 226.179 63.0547 223.481 64.6093L210.358 72.1997V95.4738C212.096 96.7541 217.309 100.824 220.144 104.756C220.646 105.305 225.631 110.38 231.712 110.106L232.581 110.06L239.943 123.366L239.988 123.595L250.688 177.139L224.716 161.501V211.89H224.67Z" fill="#06131C"/>
<path d="M190.555 142.022C187.629 150.024 175.786 170.921 138.474 139.142C137.56 138.364 136.279 138.136 135.136 138.547L93.3434 154.414C87.5821 156.609 82.8266 160.815 79.9916 166.302L55.1172 214.131L95.9954 224.053L95.0352 311.663L250.363 311.983L235.869 192.32V155.1L194.259 140.33C192.75 139.782 191.104 140.559 190.555 142.022Z" fill="#FF3838"/>
<path d="M251.874 313.4L93.5739 313.08L94.5341 225.196L53.0156 215.091L78.7132 165.708C81.7311 159.946 86.715 155.465 92.7965 153.179L134.589 137.312C136.19 136.718 138.019 137.038 139.299 138.135C154.754 151.304 167.328 156.745 176.702 154.276C184.247 152.31 187.768 145.451 189.185 141.565C189.962 139.37 192.432 138.272 194.581 139.05L237.105 154.139V192.274L251.874 313.4ZM96.4088 310.336L248.811 310.656L234.499 192.411V156.06L193.803 141.61C193.026 141.336 192.157 141.748 191.883 142.525C190.283 146.915 186.259 154.642 177.48 156.928C167.237 159.626 153.794 154.002 137.607 140.193C137.058 139.736 136.327 139.599 135.641 139.827L93.8482 155.694C88.4069 157.751 83.9259 161.775 81.2281 166.942L57.1309 213.262L97.369 223.047L96.4088 310.336Z" fill="#06131C"/>
<path d="M237.359 144.628L195.109 169.229L196.207 292.824L238.457 269.504L237.359 144.628Z" fill="#06131C"/>
<path d="M281.458 170.189L238.477 146.412V269.504L281.458 290.994V170.189Z" fill="white"/>
<path d="M282.819 293.235L237.094 270.372V144.08L282.819 169.366V293.235ZM239.837 268.681L280.075 288.8V171.012L239.837 148.744V268.681Z" fill="#06131C"/>
<path d="M326.035 146.412L281.453 170.189L282.505 292.824L326.035 259.444V146.412Z" fill="#06131C"/>
<path d="M195.138 169.228V290.994L151.836 267.903V146.411L195.138 169.228Z" fill="white"/>
<path d="M196.506 293.281L150.461 268.681V144.125L196.506 168.36V293.281ZM153.204 267.08L193.763 288.754V170.051L153.204 148.698V267.08Z" fill="#06131C"/>
<path d="M217.27 74.4397L206.57 76.726C202.958 77.5033 200.352 80.7041 200.352 84.4078C200.352 88.1115 202.958 91.3123 206.57 92.0896L217.27 94.3759V74.4397Z" fill="#06131C"/>
<path d="M235.371 99.5434H228.924C219.871 99.5434 212.555 92.6846 212.555 83.631C212.555 74.5774 219.871 67.7186 228.924 67.7186H235.371V99.5434Z" fill="#22BE0D"/>
<path d="M236.732 100.915H228.913C218.945 100.915 211.172 93.3246 211.172 83.6309C211.172 73.9372 218.945 66.3468 228.913 66.3468H236.732V100.915ZM228.913 69.0903C220.5 69.0903 213.915 75.4918 213.915 83.6309C213.915 91.77 220.5 98.1715 228.913 98.1715H233.989V69.0903H228.913Z" fill="#06131C"/>
<path d="M235.484 100.046C244.576 100.046 251.946 92.6765 251.946 83.5853C251.946 74.4941 244.576 67.1243 235.484 67.1243C226.393 67.1243 219.023 74.4941 219.023 83.5853C219.023 92.6765 226.393 100.046 235.484 100.046Z" fill="white"/>
<path d="M235.501 100.915C225.944 100.915 218.125 93.142 218.125 83.5397C218.125 73.9375 225.898 66.1642 235.501 66.1642C245.103 66.1642 252.876 73.9375 252.876 83.5397C252.876 93.142 245.103 100.915 235.501 100.915ZM235.501 68.0388C226.95 68.0388 219.954 74.9891 219.954 83.5854C219.954 92.1817 226.904 99.1319 235.501 99.1319C244.097 99.1319 251.047 92.1817 251.047 83.5854C251.047 74.9891 244.097 68.0388 235.501 68.0388Z" fill="#06131C"/>
<path d="M235.498 97.3488C227.907 97.3488 221.734 91.1758 221.734 83.5855C221.734 75.9951 227.907 69.8223 235.498 69.8223C243.088 69.8223 249.261 75.9951 249.261 83.5855C249.307 91.1758 243.134 97.3488 235.498 97.3488ZM235.498 71.6055C228.913 71.6055 223.563 76.9554 223.563 83.5398C223.563 90.1242 228.913 95.474 235.498 95.474C242.082 95.474 247.432 90.1242 247.432 83.5398C247.478 76.9554 242.128 71.6055 235.498 71.6055Z" fill="#06131C"/>
<path d="M182.075 74.4401L171.375 76.7263C167.763 77.5036 165.156 80.7044 165.156 84.4082C165.156 88.1119 167.763 91.3127 171.375 92.09L182.075 94.3763V74.4401Z" fill="#22BE0D"/>
<path d="M183.45 96.0226L171.058 93.4163C166.806 92.5018 163.742 88.7523 163.742 84.4084C163.742 80.0646 166.806 76.3151 171.058 75.4006L183.45 72.7943V96.0226ZM180.706 76.1322L171.653 78.0527C168.68 78.6929 166.531 81.3448 166.531 84.3627C166.531 87.3805 168.68 90.0783 171.653 90.6728L180.706 92.5932V76.1322Z" fill="#06131C"/>
<path d="M200.184 99.5434H193.737C184.683 99.5434 177.367 92.6846 177.367 83.631C177.367 74.5774 184.683 67.7186 193.737 67.7186H200.184V99.5434Z" fill="#22BE0D"/>
<path d="M201.545 100.915H193.726C183.758 100.915 175.984 93.3249 175.984 83.6312C175.984 73.9374 183.758 66.347 193.726 66.347H201.545V100.915ZM193.726 69.0906C185.312 69.0906 178.728 75.4921 178.728 83.6312C178.728 91.7702 185.312 98.1718 193.726 98.1718H198.801V69.0906H193.726Z" fill="#06131C"/>
<path d="M200.32 100.046C209.412 100.046 216.781 92.6765 216.781 83.5853C216.781 74.4941 209.412 67.1243 200.32 67.1243C191.229 67.1243 183.859 74.4941 183.859 83.5853C183.859 92.6765 191.229 100.046 200.32 100.046Z" fill="white"/>
<path d="M200.321 100.915C190.764 100.915 182.945 93.142 182.945 83.5397C182.945 73.9375 190.719 66.1642 200.321 66.1642C209.923 66.1642 217.696 73.9375 217.696 83.5397C217.696 93.142 209.923 100.915 200.321 100.915ZM200.321 68.0388C191.77 68.0388 184.774 74.9891 184.774 83.5854C184.774 92.1817 191.725 99.1319 200.321 99.1319C208.917 99.1319 215.867 92.1817 215.867 83.5854C215.867 74.9891 208.917 68.0388 200.321 68.0388Z" fill="#06131C"/>
<path d="M200.326 97.3488C192.735 97.3488 186.562 91.1758 186.562 83.5855C186.562 75.9951 192.735 69.8223 200.326 69.8223C207.916 69.8223 214.089 75.9951 214.089 83.5855C214.135 91.1758 207.916 97.3488 200.326 97.3488ZM200.326 71.6055C193.741 71.6055 188.392 76.9554 188.392 83.5398C188.392 90.1242 193.741 95.474 200.326 95.474C206.91 95.474 212.26 90.1242 212.26 83.5398C212.306 76.9554 206.91 71.6055 200.326 71.6055Z" fill="#06131C"/>
<path d="M58.6765 214.817L95.8053 223.916L86.0201 238.914L126.716 233.701L137.827 215.731C138.924 213.994 140.524 212.622 142.445 211.89C149.167 209.238 165.719 207.364 178.614 212.851C179.802 213.354 181.174 217.149 177.882 218.886C177.882 218.886 185.564 221.721 178.202 226.568C178.202 226.568 182.089 231.461 176.556 233.747C176.556 233.747 177.836 237.634 168.737 238.96L152.779 241.246C152.779 241.246 144 256.564 120.222 261.776L53.8754 274.214C43.13 276.226 34.6708 265.206 39.3805 255.329L58.6765 214.817Z" fill="white"/>
<path d="M51.406 275.722C46.8792 275.722 42.5811 273.665 39.7461 269.961C36.3624 265.526 35.7223 259.673 38.1457 254.643L57.9447 213.17L98.0456 223.001L88.855 237.13L125.984 232.375L136.729 214.999C137.964 213.033 139.838 211.433 141.988 210.61C149.304 207.729 166.176 206.037 179.208 211.57C180.397 212.073 181.265 213.673 181.357 215.411C181.403 216.6 181.037 217.697 180.351 218.612C181.448 219.343 182.591 220.486 182.774 222.087C182.957 223.733 182.043 225.333 180.077 226.888C180.625 227.94 181.22 229.586 180.762 231.277C180.397 232.649 179.482 233.747 177.973 234.57C177.927 235.073 177.79 235.713 177.379 236.353C176.144 238.319 173.309 239.645 168.965 240.285L153.647 242.48C151.727 245.407 142.262 258.301 120.542 263.056L54.1495 275.494C53.235 275.631 52.2748 275.722 51.406 275.722ZM59.4537 216.417L40.615 255.878C38.6488 260.039 39.106 264.703 41.9409 268.315C44.7302 271.973 49.1198 273.619 53.6466 272.796L119.994 260.359C142.811 255.375 151.544 240.651 151.636 240.514L151.956 239.92L152.596 239.828L168.554 237.542C173.035 236.902 174.498 235.667 175.001 234.981C175.321 234.524 175.275 234.204 175.275 234.112L174.727 232.832L176.053 232.421C177.242 231.918 177.927 231.323 178.11 230.546C178.43 229.311 177.47 227.802 177.15 227.345L176.19 226.156L177.47 225.333C179.208 224.19 180.122 223.138 180.031 222.361C179.939 221.355 178.202 220.395 177.425 220.121L174.544 219.069L177.242 217.651C178.065 217.24 178.522 216.6 178.568 215.822C178.613 214.954 178.248 214.268 178.065 214.085C165.353 208.689 148.938 210.838 142.993 213.17C141.347 213.811 139.976 214.954 139.061 216.463L127.584 234.981L83.2765 240.651L93.6103 224.785L59.4537 216.417Z" fill="#06131C"/>
<path d="M165.289 217.697C165.289 217.697 172.879 217.743 178.366 219.023L165.289 217.697Z" fill="white"/>
<path d="M178.037 220.35C172.733 219.115 165.326 219.069 165.234 219.069V216.326C165.554 216.326 173.053 216.371 178.632 217.697L178.037 220.35Z" fill="#06131C"/>
<path d="M165.664 224.784C165.664 224.784 171.791 224.601 178.056 226.705L165.664 224.784Z" fill="white"/>
<path d="M177.613 227.985C171.669 225.973 165.77 226.156 165.724 226.156L165.633 223.413C165.907 223.413 172.08 223.276 178.482 225.379L177.613 227.985Z" fill="#06131C"/>
<path d="M165.172 231.918C165.172 231.918 172.168 231.278 176.695 233.884L165.172 231.918Z" fill="white"/>
<path d="M176.059 235.073C171.944 232.741 165.405 233.289 165.313 233.289L165.039 230.546C165.359 230.5 172.492 229.906 177.385 232.695L176.059 235.073Z" fill="#06131C"/>
<path d="M108.771 201.312L94.7656 223.778L97.0938 225.23L111.099 202.763L108.771 201.312Z" fill="#06131C"/>
<path d="M246.197 28.0296C247.34 26.3835 248.986 24.6002 251.135 22.6798C252.781 21.2166 254.016 19.9363 254.839 18.8389C255.662 17.7415 256.028 16.5069 256.028 15.1351C256.028 13.2147 255.25 11.6143 253.696 10.4254C252.141 9.23656 250.038 8.64218 247.386 8.64218C243.545 8.64218 240.435 9.69381 238.058 11.7972C236.732 12.9403 234.811 13.1232 233.348 12.163C231.107 10.6998 230.97 7.45335 233.074 5.80724C234.308 4.84701 235.634 4.02389 237.097 3.33802C240.252 1.87481 243.91 1.14319 248.163 1.14319C253.33 1.14319 257.445 2.24061 260.509 4.48115C263.572 6.72168 265.127 9.78524 265.127 13.7176C265.127 15.5923 264.807 17.2842 264.212 18.7017C263.572 20.1192 262.841 21.3537 261.972 22.3139C261.103 23.3199 259.96 24.463 258.497 25.7433C256.759 27.298 255.433 28.7155 254.61 29.9044C253.741 31.0932 253.33 32.5106 253.33 34.2025H244.551C244.505 31.7333 245.054 29.6757 246.197 28.0296ZM244.916 49.2003C243.865 48.1487 243.362 46.8684 243.362 45.3595C243.362 43.8505 243.865 42.5702 244.916 41.5643C245.968 40.5583 247.294 40.0553 248.894 40.0553C250.449 40.0553 251.775 40.5583 252.781 41.5643C253.833 42.5702 254.336 43.8505 254.336 45.3595C254.336 46.8684 253.833 48.1487 252.781 49.2003C251.729 50.252 250.449 50.755 248.894 50.755C247.294 50.755 245.968 50.2063 244.916 49.2003Z" fill="#FF3838"/>
<path d="M248.899 52.1266C246.933 52.1266 245.241 51.4866 243.961 50.1606C242.68 48.8803 241.994 47.2341 241.994 45.3594C241.994 43.4847 242.635 41.8386 243.961 40.5583C245.241 39.278 246.933 38.6377 248.899 38.6377C250.819 38.6377 252.465 39.278 253.746 40.5583C255.072 41.8386 255.712 43.439 255.712 45.3594C255.712 47.2341 255.072 48.8803 253.746 50.1606C252.511 51.4409 250.865 52.1266 248.899 52.1266ZM248.899 41.427C247.664 41.427 246.658 41.7928 245.881 42.5701C245.104 43.3017 244.738 44.2619 244.738 45.4051C244.738 46.5482 245.104 47.5085 245.881 48.2858C246.658 49.0631 247.619 49.4289 248.899 49.4289C250.088 49.4289 251.048 49.0631 251.825 48.2858C252.603 47.5085 252.968 46.5939 252.968 45.4051C252.968 44.2619 252.603 43.3475 251.825 42.5701C251.094 41.7928 250.134 41.427 248.899 41.427ZM254.66 35.6199H243.138V34.2482C243.138 31.5047 243.778 29.127 245.058 27.298C246.247 25.5604 247.984 23.6856 250.225 21.7194C251.825 20.302 252.968 19.0674 253.746 18.1072C254.386 17.2384 254.706 16.3239 254.706 15.2265C254.706 13.7176 254.112 12.5745 252.877 11.6143C251.551 10.6083 249.722 10.1053 247.436 10.1053C243.915 10.1053 241.171 11.0198 239.022 12.9402C237.239 14.4949 234.633 14.7236 232.667 13.4433C231.203 12.5288 230.335 10.9741 230.289 9.28222C230.197 7.54467 230.929 5.94436 232.301 4.89268C233.581 3.88673 235.044 2.97213 236.599 2.28626C239.891 0.777327 243.824 0 248.213 0C253.654 0 258.09 1.23465 261.336 3.61235C264.766 6.12723 266.503 9.60228 266.503 13.9462C266.503 16.0038 266.137 17.8786 265.451 19.479C264.766 21.0336 263.943 22.3596 262.982 23.457C262.068 24.463 260.879 25.6518 259.416 26.9778C257.724 28.4868 256.489 29.8128 255.712 30.9102C255.026 31.8705 254.706 33.0136 254.706 34.3854V35.6199H254.66ZM245.927 32.8764H251.963C252.145 31.5047 252.648 30.2701 253.426 29.1727C254.34 27.8924 255.712 26.4292 257.541 24.7831C258.913 23.5485 260.056 22.4053 260.879 21.4908C261.656 20.622 262.342 19.5247 262.891 18.2444C263.44 17.0098 263.714 15.5009 263.714 13.8091C263.714 10.334 262.388 7.68189 259.69 5.66998C256.901 3.61235 253.014 2.56065 248.167 2.56065C244.144 2.56065 240.623 3.24653 237.696 4.61828C236.325 5.25843 235.09 6.03576 233.947 6.90454C233.307 7.40752 232.941 8.18489 232.987 9.00794C233.032 9.83099 233.444 10.5625 234.13 11.0198C235.09 11.6142 236.325 11.5228 237.193 10.7912C239.845 8.45919 243.275 7.27036 247.436 7.27036C250.362 7.27036 252.74 7.95624 254.569 9.32799C256.489 10.7912 257.45 12.7574 257.45 15.1351C257.45 16.8269 256.947 18.3358 255.986 19.6618C255.118 20.8507 253.837 22.131 252.1 23.6856C250.042 25.5146 248.442 27.2522 247.39 28.8068C246.567 29.9042 246.11 31.2761 245.927 32.8764Z" fill="#06131C"/>
<path d="M90.8998 52.6757C92.0429 51.0296 93.6891 49.2462 95.8381 47.3258C97.4842 45.8626 98.7188 44.5823 99.5418 43.4849C100.365 42.3875 100.731 41.1529 100.731 39.7811C100.731 37.8607 99.9533 36.2604 98.3987 35.0715C96.844 33.8827 94.7406 33.2882 92.0886 33.2882C88.2477 33.2882 85.1384 34.3399 82.7607 36.4433C81.4347 37.5864 79.5142 37.7692 78.051 36.809C75.8105 35.3458 75.6734 32.0994 77.7767 30.4532C79.0113 29.493 80.3372 28.67 81.8004 27.9841C84.9555 26.5209 88.6136 25.7893 92.866 25.7893C98.0329 25.7893 102.148 26.8867 105.212 29.1273C108.275 31.3678 109.83 34.4314 109.83 38.3637C109.83 40.2384 109.51 41.9302 108.915 43.3477C108.275 44.7652 107.544 45.9998 106.675 46.9601C105.806 47.966 104.663 49.1091 103.2 50.3894C101.462 51.9441 100.136 53.3615 99.3132 54.5504C98.4444 55.7392 98.0329 57.1568 98.0329 58.8486H89.2537C89.2079 56.3337 89.7567 54.2761 90.8998 52.6757ZM89.6652 73.8007C88.6136 72.749 88.1105 71.4686 88.1105 69.9597C88.1105 68.4508 88.6136 67.1706 89.6652 66.1646C90.7169 65.1587 92.0429 64.6557 93.6433 64.6557C95.198 64.6557 96.524 65.1587 97.5299 66.1646C98.5816 67.1706 99.0846 68.4508 99.0846 69.9597C99.0846 71.4686 98.5816 72.749 97.5299 73.8007C96.4783 74.8524 95.198 75.3553 93.6433 75.3553C91.9972 75.3553 90.6712 74.8524 89.6652 73.8007Z" fill="#22BE0D"/>
<path d="M93.6479 76.7272C91.6817 76.7272 89.9899 76.0871 88.7096 74.761C87.4293 73.4807 86.7434 71.8346 86.7434 69.9599C86.7434 68.0852 87.3835 66.4391 88.7096 65.1588C89.9899 63.8784 91.6817 63.2383 93.6479 63.2383C95.5684 63.2383 97.2144 63.8784 98.4947 65.1588C99.8207 66.4391 100.461 68.0394 100.461 69.9599C100.461 71.8346 99.8207 73.4807 98.4947 74.761C97.2144 76.0871 95.5684 76.7272 93.6479 76.7272ZM90.63 72.8406C91.4073 73.6179 92.3676 73.9837 93.6479 73.9837C94.8368 73.9837 95.7969 73.6179 96.5743 72.8406C97.3516 72.0633 97.7174 71.1487 97.7174 69.9599C97.7174 68.8168 97.3516 67.9023 96.5743 67.125C95.7969 66.3476 94.8368 65.9818 93.6479 65.9818C92.4133 65.9818 91.4073 66.3476 90.63 67.125C89.8527 67.8566 89.4869 68.8168 89.4869 69.9599C89.4869 71.103 89.8527 72.0633 90.63 72.8406ZM99.3635 60.2205H87.8408V58.8488C87.8408 56.1053 88.481 53.7275 89.7613 51.8985C90.9501 50.1609 92.6877 48.2862 94.9282 46.32C96.5286 44.9025 97.6717 43.7137 98.449 42.7078C99.0892 41.839 99.4092 40.9245 99.4092 39.8271C99.4092 38.3181 98.8148 37.1751 97.5802 36.2148C96.2542 35.2089 94.4252 34.7059 92.1389 34.7059C88.6181 34.7059 85.8747 35.6203 83.7256 37.4951C81.9423 39.0497 79.3359 39.2784 77.3697 37.9981C75.9065 37.0836 75.0378 35.5289 74.992 33.837C74.9006 32.0995 75.6321 30.4992 77.0039 29.4475C78.2842 28.4415 79.7475 27.5271 81.3021 26.8412C84.5943 25.3323 88.5266 24.5549 92.9163 24.5549C98.3575 24.5549 102.793 25.7895 106.039 28.1672C109.469 30.6821 111.206 34.1572 111.206 38.5011C111.206 40.5587 110.84 42.4334 110.155 44.0338C109.469 45.5884 108.646 46.9144 107.685 48.0118C106.771 49.0178 105.582 50.2067 104.119 51.5328C102.427 53.0417 101.193 54.3676 100.415 55.465C99.7294 56.4253 99.4092 57.5685 99.4092 58.9402V60.2205H99.3635ZM90.63 57.477H96.6657C96.8486 56.1053 97.3517 54.8706 98.129 53.7732C99.0435 52.4929 100.37 51.0297 102.244 49.3836C103.616 48.149 104.759 47.0059 105.582 46.0914C106.359 45.2226 107.045 44.1253 107.594 42.845C108.143 41.6104 108.417 40.1014 108.417 38.4096C108.417 34.9344 107.091 32.2825 104.393 30.2706C101.604 28.2129 97.7175 27.1612 92.8706 27.1612C88.8468 27.1612 85.3259 27.8471 82.3995 29.2189C81.0277 29.859 79.7932 30.6364 78.65 31.5051C78.0099 32.0081 77.644 32.7854 77.6898 33.6084C77.7355 34.4315 78.147 35.1631 78.8329 35.6204C79.7931 36.2148 81.0278 36.1234 81.8966 35.3918C84.5486 33.0598 87.978 31.871 92.1389 31.871C95.0654 31.871 97.4431 32.5568 99.2721 33.9286C101.193 35.3918 102.153 37.3579 102.153 39.7357C102.153 41.4275 101.65 42.9364 100.69 44.2624C99.8207 45.4512 98.5404 46.7316 96.8029 48.2862C94.7453 50.1152 93.1449 51.8528 92.0932 53.4074C91.2701 54.5048 90.8129 55.8766 90.63 57.477Z" fill="#06131C"/>
</svg>
