<svg width="736" height="365" viewBox="0 0 736 365" fill="none" xmlns="http://www.w3.org/2000/svg">
<path d="M161.295 206.206L154.794 204.817L153.342 198.379C153.279 198.126 153.089 198 152.837 198C152.584 198 152.395 198.189 152.332 198.379L150.88 204.88L144.379 206.395C144.126 206.458 144 206.647 144 206.9C144 207.152 144.189 207.342 144.379 207.405L150.88 208.794L152.332 215.232C152.395 215.484 152.584 215.61 152.837 215.61C153.089 215.61 153.279 215.421 153.342 215.232L154.794 208.73L161.295 207.216C161.547 207.152 161.674 206.963 161.674 206.711C161.674 206.458 161.484 206.269 161.295 206.206Z" fill="#06131C"/>
<path d="M559.49 147.993L552.989 146.605L551.537 140.167C551.474 139.914 551.285 139.788 551.032 139.788C550.78 139.788 550.59 139.977 550.527 140.167L549.075 146.668L542.574 148.183C542.322 148.246 542.195 148.435 542.195 148.688C542.195 148.94 542.385 149.13 542.574 149.193L549.075 150.581L550.527 157.02C550.59 157.272 550.78 157.398 551.032 157.398C551.285 157.398 551.474 157.209 551.537 157.02L552.989 150.518L559.49 149.003C559.743 148.94 559.869 148.751 559.869 148.498C559.869 148.246 559.679 148.057 559.49 147.993Z" fill="#06131C"/>
<path d="M323.802 65.685L319.573 64.7382L318.626 60.5092C318.563 60.383 318.437 60.2567 318.31 60.2567C318.184 60.2567 317.995 60.383 317.995 60.5092L317.048 64.7382L312.819 65.7482C312.693 65.8113 312.566 65.9376 312.566 66.0638C312.566 66.19 312.693 66.3794 312.819 66.3794L317.048 67.3262L317.995 71.5552C318.058 71.6814 318.184 71.8077 318.31 71.8077C318.437 71.8077 318.626 71.6814 318.626 71.5552L319.573 67.3262L323.802 66.3162C323.928 66.2531 324.054 66.1269 324.054 66.0006C324.054 65.8113 323.928 65.685 323.802 65.685Z" fill="#06131C"/>
<path d="M599.001 193.187L594.772 192.241L593.825 188.012C593.762 187.885 593.636 187.759 593.51 187.759C593.383 187.759 593.194 187.885 593.194 188.012L592.247 192.241L588.018 193.251C587.892 193.314 587.766 193.44 587.766 193.566C587.766 193.692 587.892 193.882 588.018 193.882L592.247 194.829L593.194 199.058C593.257 199.184 593.383 199.31 593.51 199.31C593.636 199.31 593.825 199.184 593.825 199.058L594.772 194.829L599.001 193.819C599.127 193.755 599.253 193.629 599.253 193.503C599.253 193.314 599.127 193.187 599.001 193.187Z" fill="#06131C"/>
<path d="M127.941 364.432H234.614C235.94 350.293 224.831 345.433 224.831 345.433C227.545 340.951 226.282 338.111 226.282 338.111C224.578 335.775 222.811 338.111 222.811 338.111C222.874 332.367 220.034 331.357 220.034 331.357C218.014 330.852 217.319 334.829 217.319 334.829C211.26 328.517 205.39 331.988 205.39 331.988C206.21 329.274 205.832 327.633 205.832 327.633C204.759 326.181 203.559 328.075 203.559 328.075C203.875 320.437 201.098 320.058 201.098 320.058C198.32 319.995 198.825 325.865 198.825 325.865C194.786 320.311 190.178 320.058 190.178 320.058C182.919 319.995 179.321 327.57 179.321 327.57C179.826 318.544 176.544 318.544 176.544 318.544C172.82 319.301 175.218 329.085 175.218 329.085C169.979 324.982 165.435 325.992 165.435 325.992C156.661 327.507 154.262 339.815 154.262 339.815C151.801 336.343 150.16 337.227 150.16 337.227C147.824 338.489 148.96 342.087 148.96 342.087C141.197 344.044 147.256 345.559 147.256 345.559C145.741 346.821 144.731 349.094 144.731 349.094C130.656 348.778 127.941 364.432 127.941 364.432Z" fill="#06131C"/>
<path d="M183.926 362.98H17.8577C15.7747 340.951 33.0695 333.377 33.0695 333.377C28.9036 326.434 30.8603 321.952 30.8603 321.952C33.5114 318.291 36.2255 321.952 36.2255 321.952C36.0993 313.052 40.5177 311.474 40.5177 311.474C43.6737 310.717 44.6837 316.839 44.6837 316.839C54.0886 306.993 63.3041 312.358 63.3041 312.358C61.9786 308.192 62.6729 305.541 62.6729 305.541C64.3771 303.332 66.2075 306.172 66.2075 306.172C65.7026 294.242 69.9947 293.737 69.9947 293.737C74.2869 293.611 73.5295 302.764 73.5295 302.764C79.8415 294.116 87.0371 293.737 87.0371 293.737C98.2725 293.611 103.953 305.415 103.953 305.415C103.196 291.402 108.246 291.402 108.246 291.402C113.989 292.601 110.328 307.75 110.328 307.75C118.471 301.312 125.54 302.89 125.54 302.89C139.174 305.225 142.962 324.351 142.962 324.351C146.749 318.985 149.4 320.311 149.4 320.311C153.061 322.268 151.23 327.885 151.23 327.885C163.286 330.915 153.881 333.251 153.881 333.251C156.217 335.207 157.795 338.742 157.795 338.742C179.76 338.616 183.926 362.98 183.926 362.98Z" fill="#22BE0D"/>
<path d="M186.196 364.874H16.1512L15.9618 363.169C14.1945 344.486 25.8716 335.46 30.4794 332.619C27.134 325.866 29.0277 321.384 29.0908 321.195L29.1538 321.005L29.28 320.816C30.6687 318.859 32.2468 318.417 33.3198 318.417C33.6985 318.417 34.1404 318.481 34.456 318.544C35.4028 311.348 39.6317 309.707 39.8842 309.644L40.0736 309.581C41.2098 309.328 42.2828 309.518 43.2296 310.086C44.3658 310.843 45.1232 312.105 45.6282 313.305C51.4984 308.508 57.1791 308.634 60.7138 309.391C60.3982 306.803 60.7139 305.225 60.777 305.036L60.9032 304.657L61.1556 304.342C62.2287 302.953 63.428 302.701 64.1854 302.764H64.2486C64.6273 292.98 68.7932 291.907 69.74 291.844H69.9294C71.2549 291.781 72.391 292.286 73.3378 293.233C74.4109 294.369 74.979 296.136 75.2946 297.84C81.1016 292.223 86.6562 291.844 86.9718 291.781H87.0348C94.1043 291.718 99.0908 295.694 102.121 299.229C102.436 295.442 103.446 292.728 105.024 291.023C106.476 289.445 107.991 289.382 108.306 289.382H108.496L108.685 289.445C110.074 289.698 111.21 290.518 111.967 291.781C113.798 294.684 113.545 299.86 113.04 303.647C119.794 299.923 125.286 300.87 125.917 300.996C136.963 302.953 142.012 314.441 143.906 320.437C147.314 317.344 149.902 318.417 150.281 318.607C153.5 320.311 153.879 323.846 153.5 326.56C156.656 327.507 159.307 328.769 159.307 331.041C159.307 332.43 158.36 333.377 157.161 334.071C157.982 335.144 158.55 336.154 158.992 336.912C181.336 337.48 185.818 362.349 185.881 362.601L186.196 364.874ZM19.6228 361.087H181.589C180.011 355.406 174.393 340.762 158.108 340.762C157.982 340.762 157.919 340.762 157.792 340.762H156.53L156.025 339.626C156.025 339.626 154.573 336.47 152.617 334.829L149.776 332.43L153.374 331.546C153.816 331.42 154.258 331.294 154.636 331.105C153.942 330.789 152.743 330.347 150.723 329.842L148.766 329.337L149.397 327.38C149.397 327.317 150.597 323.404 148.64 322.141C148.135 322.078 146.62 322.646 144.537 325.55L142.012 329.148L141.129 324.856C141.066 324.666 137.405 306.993 125.222 304.847H125.159C124.907 304.783 118.784 303.584 111.525 309.328L107.233 312.737L108.496 307.435C109.442 303.584 110.326 296.515 108.748 293.99C108.559 293.674 108.369 293.548 108.243 293.422C107.549 293.801 105.34 295.884 105.845 305.352L106.413 314.946L102.247 306.298C102.184 306.172 97.0079 295.631 87.1612 295.694C86.6562 295.757 80.5966 296.389 75.1052 303.963L71.1286 309.454L71.6968 302.701C71.8862 300.618 71.6335 297.02 70.6236 295.947C70.4974 295.82 70.4343 295.757 70.308 295.757C69.8031 296.073 67.7832 298.03 68.0988 306.172L68.4144 313.242L64.6272 307.245C64.5641 307.182 64.5011 307.056 64.438 306.993C64.3749 307.939 64.501 309.644 65.1322 311.853L66.584 316.524L62.355 314.062C62.0394 313.873 54.2756 309.644 46.07 318.165L43.482 320.879L42.8508 317.155C42.5984 315.893 41.9041 313.81 41.1466 313.305C41.0835 313.305 41.0835 313.242 41.0204 313.242C40.5155 313.494 37.9276 315.261 38.0538 321.889L38.1168 327.696L34.6452 323.025C34.3928 322.646 33.7616 322.141 33.3198 322.141C33.0673 322.141 32.7516 322.394 32.436 322.773C32.1836 323.53 31.4262 327.002 34.5822 332.304L35.7184 334.134L33.7616 335.018C33.1304 335.397 18.676 342.087 19.6228 361.087Z" fill="#06131C"/>
<path d="M136.901 350.924C131.788 354.333 129.327 359.698 128.317 362.98H91.5809C88.6773 353.765 89.6241 348.841 89.6241 348.841C92.0857 353.134 94.8631 354.333 94.8631 354.333C97.8928 348.841 96.6935 334.008 96.6935 334.008C102.185 339.121 103.005 346.443 103.005 346.443C106.098 336.722 114.493 332.367 114.62 332.304C108.876 341.709 108.623 355.595 108.623 355.595C115.693 344.36 129.2 345.622 129.2 345.622C119.354 348.904 118.975 358.877 118.975 358.877C125.666 351.429 136.901 350.924 136.901 350.924Z" fill="white"/>
<path d="M129.711 364.874H90.1974L89.7556 363.548C86.7259 353.954 87.7358 348.652 87.7358 348.463L88.7458 343.539L91.2706 347.895C92.2174 349.536 93.2272 350.672 93.9846 351.366C95.3733 346.38 95.0577 337.606 94.8052 334.134L94.4266 329.274L97.9612 332.556C100.739 335.144 102.443 338.174 103.453 340.762C107.555 333.693 113.804 330.537 113.867 330.537L119.485 327.949L116.266 333.251C113.11 338.427 111.721 345.054 111.027 349.788C118.728 342.845 128.827 343.729 129.332 343.792L138.232 344.675L129.774 347.516C125.923 348.778 123.714 351.24 122.515 353.575C129.079 349.473 136.464 349.094 136.843 349.094L143.723 348.778L137.979 352.565C133.245 355.721 131.036 360.834 130.152 363.611L129.711 364.874ZM119.548 361.087H126.933C127.691 359.067 128.953 356.479 130.847 353.954C127.438 354.964 123.336 356.794 120.306 360.14L119.548 361.087ZM107.429 361.087H116.96L117.023 358.814C117.023 358.499 117.339 352.881 121.442 348.336C117.655 349.409 113.236 351.682 110.143 356.605L107.429 361.087ZM92.9748 361.087H106.609L106.735 355.595C106.735 355.153 106.924 346.948 109.702 338.742C107.871 340.825 105.978 343.539 104.841 347.074L102.127 355.595L101.117 346.758C101.117 346.695 100.675 343.476 98.7818 339.941C98.8449 344.928 98.4662 351.682 96.4464 355.28L95.6258 356.794L94.0478 356.1C93.8585 356.037 92.8485 355.532 91.523 354.333C91.7755 356.1 92.2174 358.372 92.9748 361.087Z" fill="#06131C"/>
<path d="M614.539 364.432H721.212C722.537 350.293 711.428 345.433 711.428 345.433C714.142 340.951 712.88 338.111 712.88 338.111C711.176 335.775 709.408 338.111 709.408 338.111C709.471 332.367 706.631 331.357 706.631 331.357C704.611 330.852 703.917 334.829 703.917 334.829C697.857 328.517 691.987 331.988 691.987 331.988C692.808 329.274 692.429 327.633 692.429 327.633C691.356 326.181 690.157 328.075 690.157 328.075C690.472 320.437 687.695 320.058 687.695 320.058C684.918 319.995 685.423 325.865 685.423 325.865C681.383 320.311 676.775 320.058 676.775 320.058C669.516 319.995 665.919 327.57 665.919 327.57C666.424 318.544 663.141 318.544 663.141 318.544C659.417 319.301 661.816 329.085 661.816 329.085C656.577 324.982 652.032 325.992 652.032 325.992C643.259 327.507 640.86 339.815 640.86 339.815C638.398 336.343 636.757 337.227 636.757 337.227C634.422 338.489 635.558 342.087 635.558 342.087C627.794 344.044 633.854 345.559 633.854 345.559C632.339 346.821 631.329 349.094 631.329 349.094C617.253 348.778 614.539 364.432 614.539 364.432Z" fill="#06131C"/>
<path d="M670.516 362.98H504.448C502.365 340.951 519.66 333.377 519.66 333.377C515.494 326.434 517.45 321.952 517.45 321.952C520.101 318.291 522.816 321.952 522.816 321.952C522.689 313.052 527.108 311.474 527.108 311.474C530.264 310.717 531.274 316.839 531.274 316.839C540.678 306.993 549.894 312.358 549.894 312.358C548.568 308.192 549.263 305.541 549.263 305.541C550.967 303.332 552.798 306.172 552.798 306.172C552.293 294.242 556.585 293.737 556.585 293.737C560.877 293.611 560.119 302.764 560.119 302.764C566.431 294.116 573.627 293.737 573.627 293.737C584.862 293.611 590.543 305.415 590.543 305.415C589.786 291.402 594.835 291.402 594.835 291.402C600.579 292.601 596.918 307.75 596.918 307.75C605.061 301.312 612.13 302.89 612.13 302.89C625.764 305.225 629.551 324.351 629.551 324.351C633.339 318.985 635.99 320.311 635.99 320.311C639.651 322.268 637.82 327.885 637.82 327.885C649.876 330.915 640.471 333.251 640.471 333.251C642.807 335.207 644.385 338.742 644.385 338.742C666.35 338.616 670.516 362.98 670.516 362.98Z" fill="#22BE0D"/>
<path d="M672.79 364.874H502.745L502.556 363.169C500.788 344.486 512.465 335.46 517.073 332.619C513.728 325.866 515.621 321.384 515.685 321.195L515.748 321.005L515.874 320.816C517.263 318.859 518.841 318.417 519.914 318.417C520.355 318.417 520.734 318.481 521.05 318.544C521.997 311.348 526.226 309.707 526.478 309.644L526.667 309.581C527.804 309.328 528.877 309.518 529.823 310.086C530.96 310.843 531.717 312.105 532.222 313.305C538.092 308.508 543.773 308.634 547.308 309.391C546.992 306.803 547.308 305.225 547.371 305.036L547.497 304.657L547.75 304.342C548.823 302.953 550.022 302.701 550.779 302.764H550.842C551.221 292.98 555.387 291.907 556.334 291.844H556.523C557.849 291.781 558.985 292.286 559.932 293.233C561.068 294.369 561.573 296.136 561.888 297.84C567.695 292.223 573.25 291.844 573.566 291.781H573.629C580.698 291.718 585.685 295.694 588.714 299.229C589.03 295.442 590.04 292.728 591.618 291.023C593.07 289.445 594.585 289.382 594.9 289.382H595.09L595.279 289.445C596.668 289.698 597.804 290.518 598.561 291.781C600.392 294.684 600.139 299.86 599.634 303.647C606.388 299.923 611.879 300.87 612.511 300.996C623.557 302.953 628.606 314.441 630.5 320.437C633.908 317.344 636.496 318.417 636.875 318.607C640.094 320.311 640.473 323.846 640.094 326.56C643.25 327.507 645.901 328.769 645.901 331.041C645.901 332.43 644.954 333.377 643.755 334.071C644.576 335.144 645.144 336.154 645.586 336.912C667.93 337.48 672.411 362.349 672.475 362.601L672.79 364.874ZM506.217 361.087H668.183C666.605 355.406 660.987 340.762 644.702 340.762C644.576 340.762 644.512 340.762 644.386 340.762H643.124L642.619 339.626C642.619 339.626 641.167 336.47 639.21 334.829L636.37 332.43L639.968 331.546C640.41 331.42 640.851 331.294 641.23 331.105C640.536 330.789 639.337 330.347 637.317 329.842L635.36 329.337L635.991 327.38C635.991 327.317 637.19 323.404 635.234 322.141C634.729 322.078 633.214 322.646 631.131 325.55L628.606 329.148L627.723 324.856C627.659 324.666 623.998 306.993 611.816 304.847H611.753C611.501 304.783 605.378 303.584 598.119 309.328L593.827 312.737L595.09 307.435C596.036 303.584 596.92 296.515 595.342 293.99C595.153 293.674 594.963 293.548 594.837 293.422C594.143 293.801 591.934 295.884 592.439 305.352L593.007 314.946L588.841 306.298C588.777 306.172 583.602 295.694 573.818 295.694C573.755 295.694 573.755 295.694 573.692 295.694C573.187 295.757 567.127 296.389 561.636 303.963L557.659 309.454L558.227 302.701C558.417 300.618 558.164 297.02 557.154 295.947C557.028 295.82 556.965 295.757 556.839 295.757C556.334 296.073 554.314 298.03 554.63 306.172L554.945 313.242L551.158 307.245C551.095 307.182 551.032 307.056 550.969 306.993C550.905 307.939 551.032 309.644 551.663 311.853L553.115 316.524L548.886 314.062C548.57 313.873 540.806 309.644 532.601 318.165L530.013 320.879L529.382 317.155C529.129 315.893 528.435 313.81 527.677 313.305C527.614 313.305 527.614 313.242 527.551 313.242C527.046 313.494 524.458 315.261 524.585 321.889L524.648 327.696L521.176 323.025C520.923 322.646 520.292 322.141 519.851 322.141C519.598 322.141 519.282 322.394 518.967 322.773C518.714 323.53 517.957 327.002 521.113 332.304L522.249 334.134L520.292 335.018C519.787 335.397 505.27 342.087 506.217 361.087Z" fill="#06131C"/>
<path d="M623.495 350.924C618.382 354.333 615.92 359.698 614.91 362.98H578.175C575.271 353.765 576.218 348.841 576.218 348.841C578.679 353.134 581.457 354.333 581.457 354.333C584.487 348.841 583.287 334.008 583.287 334.008C588.779 339.121 590.672 343.476 590.672 343.476C596.101 329.274 607.399 325.992 607.589 325.929C603.107 334.387 599.509 347.579 599.509 347.579C606.957 340.825 618.445 343.539 618.445 343.539C608.598 346.821 606.957 357.741 606.957 357.741C613.585 350.23 623.495 350.924 623.495 350.924Z" fill="white"/>
<path d="M616.3 364.874H576.787L576.346 363.548C573.316 353.954 574.326 348.652 574.326 348.463L575.336 343.539L577.86 347.895C578.807 349.536 579.817 350.672 580.575 351.366C581.963 346.38 581.648 337.606 581.395 334.134L581.016 329.274L584.551 332.556C587.265 335.081 589.159 337.48 590.421 339.247C595.976 328.264 604.876 324.73 606.832 324.035L611.819 321.763L609.231 326.686C606.58 331.673 604.245 338.427 602.793 342.971C610.178 339.563 618.383 341.393 618.825 341.519L625.327 343.034L619.015 345.117C615.038 346.443 612.576 349.22 611.062 351.871C617.184 348.463 623.37 348.841 623.686 348.904L629.24 349.283L624.569 352.376C619.835 355.532 617.626 360.645 616.742 363.422L616.3 364.874ZM606.391 361.087H613.586C614.407 358.941 615.796 356.037 618.005 353.386C614.975 354.08 611.314 355.658 608.347 358.941L606.391 361.087ZM579.565 361.087H604.434L605.002 357.426C605.065 357.047 606.264 349.725 612.008 344.928C608.474 345.054 604.055 345.938 600.71 349.031L595.85 353.449L597.617 347.137C597.743 346.695 600.142 337.922 603.55 330.095C600.015 332.367 595.345 336.659 592.441 344.234L590.8 348.589L588.97 344.297C588.97 344.297 587.96 342.088 585.435 339.058C585.498 344.107 585.245 351.429 583.162 355.28L582.342 356.794L580.764 356.1C580.575 356.037 579.565 355.532 578.239 354.333C578.365 356.1 578.807 358.372 579.565 361.087Z" fill="#06131C"/>
<path d="M485.647 180.374H449.984V362.728H485.647V180.374Z" fill="#06131C"/>
<path d="M284.362 180.374H248.699V362.728H284.362V180.374Z" fill="#06131C"/>
<path d="M502.19 230.807H231.152V303.143H502.19V230.807Z" fill="white"/>
<path d="M504.024 305.036H229.199V228.914H504.024V305.036ZM233.049 301.249H500.3V232.701H233.049V301.249Z" fill="#06131C"/>
<path d="M280.512 230.807L231.152 277.137V230.807H280.512Z" fill="#FF3838"/>
<path d="M229.258 281.492V228.914H285.308L229.258 281.492ZM233.045 232.701V272.719L275.714 232.701H233.045Z" fill="#06131C"/>
<path d="M378.595 230.807L309.668 303.143H257.531L329.109 230.807H378.595Z" fill="#FF3838"/>
<path d="M310.498 305.036H252.996L328.298 228.914H383.023L310.498 305.036ZM262.085 301.249H308.857L374.186 232.701H329.939L262.085 301.249Z" fill="#06131C"/>
<path d="M477.692 230.807L405.357 303.143H356.312L427.891 230.807H477.692Z" fill="#FF3838"/>
<path d="M406.116 305.036H351.77L427.072 228.914H482.239L406.116 305.036ZM360.859 301.249H404.538L473.086 232.701H428.65L360.859 301.249Z" fill="#06131C"/>
<path d="M502.121 257.633V303.142H454.844L502.121 257.633Z" fill="#FF3838"/>
<path d="M504.014 305.036H450.109L504.014 253.215V305.036ZM459.514 301.249H500.227V262.115L459.514 301.249Z" fill="#06131C"/>
<path d="M502.19 132.971H231.152V205.307H502.19V132.971Z" fill="white"/>
<path d="M504.024 207.2H229.199V131.077H504.024V207.2ZM233.049 203.413H500.3V134.865H233.049V203.413Z" fill="#06131C"/>
<path d="M280.512 132.971L231.152 179.301V132.971H280.512Z" fill="#FF3838"/>
<path d="M229.258 183.656V131.077H285.308L229.258 183.656ZM233.045 134.865V174.883L275.714 134.865H233.045Z" fill="#06131C"/>
<path d="M378.595 132.971L309.668 205.307H257.531L329.109 132.971H378.595Z" fill="#FF3838"/>
<path d="M310.498 207.2H252.996L328.298 131.077H383.023L310.498 207.2ZM262.085 203.413H308.857L374.186 134.865H329.939L262.085 203.413Z" fill="#06131C"/>
<path d="M477.692 132.971L405.357 205.307H356.312L427.891 132.971H477.692Z" fill="#FF3838"/>
<path d="M406.116 207.2H351.77L427.072 131.077H482.239L406.116 207.2ZM360.859 203.413H404.538L473.086 134.865H428.65L360.859 203.413Z" fill="#06131C"/>
<path d="M502.121 159.86V205.307H454.844L502.121 159.86Z" fill="#FF3838"/>
<path d="M504.014 207.2H450.109L504.014 155.379V207.2ZM459.514 203.413H500.227V164.279L459.514 203.413Z" fill="#06131C"/>
<path d="M298.688 217.867H435.848C442.476 217.867 446.578 210.672 443.233 204.991L374.622 88.7239C371.339 83.1062 363.197 83.1062 359.915 88.7239L291.303 204.991C287.958 210.672 292.061 217.867 298.688 217.867Z" fill="#22BE0D"/>
<path d="M435.841 219.761H298.681C294.894 219.761 291.486 217.804 289.592 214.522C287.699 211.24 287.762 207.327 289.655 204.044L358.267 87.7773C360.16 84.5581 363.506 82.6646 367.23 82.6646C370.954 82.6646 374.299 84.5581 376.193 87.7773L444.804 204.044C446.761 207.327 446.761 211.24 444.867 214.522C443.037 217.804 439.628 219.761 435.841 219.761ZM367.23 86.4518C364.831 86.4518 362.685 87.6511 361.486 89.734L292.874 206.001C291.675 208.084 291.612 210.609 292.811 212.692C294.011 214.775 296.157 216.037 298.555 216.037H435.715C438.114 216.037 440.26 214.775 441.459 212.692C442.658 210.609 442.658 208.084 441.396 206.001L372.784 89.734C371.774 87.6511 369.628 86.4518 367.23 86.4518Z" fill="#06131C"/>
<path d="M359.6 192.43C357.58 190.537 356.57 188.201 356.57 185.424C356.57 182.583 357.58 180.311 359.6 178.481C361.62 176.65 364.145 175.766 367.301 175.766C370.457 175.766 372.982 176.65 374.938 178.481C376.895 180.311 377.905 182.583 377.905 185.424C377.905 188.201 376.895 190.473 374.875 192.43C372.855 194.324 370.33 195.271 367.301 195.271C364.145 195.271 361.62 194.324 359.6 192.43ZM367.301 128.805C372.982 128.805 377.463 133.665 377.021 139.346L374.37 170.528H360.231L357.643 139.346C357.075 133.665 361.557 128.805 367.301 128.805Z" fill="white"/>
<path d="M367.3 197.164C363.702 197.164 360.672 196.028 358.274 193.755C355.875 191.483 354.676 188.706 354.676 185.424C354.676 182.078 355.875 179.238 358.274 177.092C360.609 174.946 363.639 173.873 367.237 173.873C370.835 173.873 373.864 174.946 376.137 177.092C378.472 179.301 379.671 182.078 379.671 185.424C379.671 188.706 378.472 191.483 376.074 193.755C373.864 196.028 370.834 197.164 367.3 197.164ZM367.3 177.66C364.649 177.66 362.566 178.417 360.862 179.869C359.284 181.321 358.463 183.151 358.463 185.424C358.463 187.633 359.284 189.463 360.862 191.041C362.503 192.619 364.586 193.377 367.237 193.377C369.825 193.377 371.908 192.619 373.549 191.041C375.19 189.463 375.947 187.633 375.947 185.424C375.947 183.151 375.19 181.321 373.612 179.869C372.034 178.354 369.951 177.66 367.3 177.66ZM376.074 172.421H358.4L355.686 139.472C355.433 136.253 356.506 133.034 358.716 130.635C360.925 128.237 364.018 126.848 367.3 126.848C370.519 126.848 373.675 128.237 375.884 130.635C378.093 133.034 379.166 136.253 378.914 139.472L376.074 172.421ZM361.935 168.634H372.602L375.127 139.22C375.316 137.011 374.622 134.864 373.107 133.223C371.592 131.582 369.572 130.699 367.3 130.699C365.091 130.699 363.008 131.582 361.556 133.223C360.041 134.864 359.347 136.947 359.536 139.22L361.935 168.634Z" fill="#06131C"/>
<path d="M735.979 361.213H0V365H735.979V361.213Z" fill="#06131C"/>
<path d="M597.794 76.3594L588.85 74.4187L586.825 65.475C586.741 65.1375 586.488 64.9688 586.15 64.9688C585.813 64.9688 585.559 65.2219 585.475 65.475L583.45 74.5031L574.506 76.6125C574.169 76.6969 574 76.95 574 77.2875C574 77.625 574.253 77.8781 574.591 77.9625L583.534 79.9031L585.559 88.8469C585.644 89.1844 585.897 89.3531 586.234 89.3531C586.572 89.3531 586.825 89.1 586.909 88.8469L588.934 79.8188L597.878 77.7094C598.216 77.625 598.384 77.3719 598.384 77.0344C598.384 76.6969 598.131 76.3594 597.794 76.3594Z" fill="#06131C"/>
<path d="M269.571 11.3906L260.627 9.44998L258.602 0.506255C258.518 0.168755 258.265 0 257.927 0C257.59 0 257.337 0.25313 257.252 0.506255L255.227 9.53436L246.284 11.6437C245.946 11.7281 245.777 11.9813 245.777 12.3188C245.777 12.6563 246.031 12.9094 246.368 12.9937L255.312 14.9344L257.337 23.8781C257.421 24.2156 257.674 24.3844 258.012 24.3844C258.349 24.3844 258.602 24.1312 258.687 23.8781L260.712 14.85L269.656 12.7406C269.993 12.6563 270.162 12.4031 270.162 12.0656C270.162 11.7281 269.909 11.3906 269.571 11.3906Z" fill="#06131C"/>
<path d="M639.475 50.625L634.834 49.6125L633.822 44.9719C633.822 44.8031 633.653 44.7188 633.484 44.7188C633.316 44.7188 633.147 44.8031 633.147 44.9719L632.05 49.6125L627.409 50.7094C627.241 50.7094 627.156 50.8781 627.156 51.0469C627.156 51.2156 627.241 51.3844 627.409 51.3844L632.05 52.3969L633.062 57.0375C633.062 57.2063 633.231 57.2906 633.4 57.2906C633.569 57.2906 633.738 57.2063 633.738 57.0375L634.834 52.3969L639.475 51.3C639.644 51.3 639.728 51.1312 639.728 50.9625C639.728 50.7937 639.644 50.7094 639.475 50.625Z" fill="#06131C"/>
<path d="M405.141 64.6906L398.306 63.1719L396.787 56.4219C396.703 56.1687 396.534 56 396.281 56C396.028 56 395.859 56.1687 395.775 56.4219L394.256 63.2563L387.422 64.8594C387.169 64.9438 387 65.1125 387 65.3656C387 65.6188 387.169 65.7875 387.422 65.8719L394.256 67.3906L395.775 74.1406C395.859 74.3937 396.028 74.5625 396.281 74.5625C396.534 74.5625 396.703 74.3937 396.787 74.1406L398.306 67.3062L405.141 65.7031C405.394 65.6187 405.562 65.45 405.562 65.1969C405.562 64.9437 405.394 64.775 405.141 64.6906Z" fill="#06131C"/>
<path d="M97.7487 160.215C109.577 160.215 119.165 150.626 119.165 138.798C119.165 126.97 109.577 117.382 97.7487 117.382C85.9206 117.382 76.332 126.97 76.332 138.798C76.332 150.626 85.9206 160.215 97.7487 160.215Z" fill="#FF3838"/>
<path d="M97.7476 161.597C85.1739 161.597 74.9492 151.372 74.9492 138.798C74.9492 126.225 85.1739 116 97.7476 116C110.321 116 120.546 126.225 120.546 138.798C120.546 151.372 110.321 161.597 97.7476 161.597ZM97.7476 118.763C86.6938 118.763 77.7127 127.745 77.7127 138.798C77.7127 149.852 86.6938 158.833 97.7476 158.833C108.801 158.833 117.782 149.852 117.782 138.798C117.782 127.745 108.801 118.763 97.7476 118.763Z" fill="#06131C"/>
<path d="M183.186 163.9C183.186 163.9 177.659 148.701 162.921 152.846C162.921 152.846 161.078 130.738 137.129 129.357C113.179 127.975 105.81 146.858 105.81 146.858C105.81 146.858 85.5444 135.805 71.7272 152.846C71.7272 152.846 56.0678 152.846 52.8438 163.9H183.186Z" fill="white"/>
<path d="M185.165 165.281H51L51.5066 163.531C54.6385 152.846 67.857 151.648 71.0349 151.51C78.4962 142.667 87.6155 141.516 94.0635 142.114C99.0838 142.575 103.137 144.141 105.117 145.016C106.038 143.22 108.019 139.858 111.519 136.587C116.125 132.258 124.323 127.238 137.173 127.975C150.161 128.712 156.84 135.436 160.156 140.917C162.643 145.016 163.656 149.023 164.025 151.142C178.671 148.102 184.382 163.255 184.428 163.439L185.165 165.281ZM54.8688 162.518H181.066C179.131 158.833 173.743 151.234 163.334 154.181L161.722 154.642L161.583 152.984C161.491 152.155 159.511 132.074 137.081 130.738C114.421 129.449 107.19 147.181 107.144 147.365L106.591 148.839L105.209 148.102C105.163 148.056 100.235 145.43 93.7872 144.878C85.3127 144.095 78.2659 147.089 72.8772 153.767L72.4627 154.273H71.8179C71.5876 154.227 58.8297 154.366 54.8688 162.518Z" fill="#06131C"/>
<path d="M717.117 148.498C717.117 148.498 711.97 134.408 698.386 138.289C698.386 138.289 696.698 117.786 674.508 116.52C652.317 115.255 645.483 132.72 645.483 132.72C645.483 132.72 626.752 122.511 613.927 138.289C613.927 138.289 599.414 138.289 596.461 148.498H717.117Z" fill="white"/>
<path d="M720.744 151.03H593L593.928 147.823C596.881 137.698 608.778 136.095 612.659 135.842C623.712 123.186 638.562 127.236 644.3 129.514C647.253 124.452 656.028 112.977 674.591 114.073C693.491 115.17 698.891 129.261 700.325 135.336C711.209 133.817 717.538 142.508 719.478 147.739L720.744 151.03ZM600.509 145.967H712.897C710.703 142.761 706.316 138.627 699.059 140.736L696.106 141.58L695.853 138.542C695.769 137.783 693.997 120.233 674.338 119.136C654.256 117.955 647.928 133.564 647.844 133.733L646.831 136.433L644.3 135.083C643.625 134.745 627.172 126.055 615.95 139.977L615.191 140.905H614.009C613.756 140.82 604.728 140.905 600.509 145.967Z" fill="#06131C"/>
</svg>
