<svg width="313" height="291" viewBox="0 0 313 291" fill="none" xmlns="http://www.w3.org/2000/svg">
<path d="M23.2523 153.399L18.9551 152.467L17.9822 148.17C17.9417 148.008 17.82 147.927 17.6579 147.927C17.4957 147.927 17.3741 148.048 17.3336 148.17L16.3607 152.507L12.0635 153.521C11.9013 153.561 11.8203 153.683 11.8203 153.845C11.8203 154.008 11.9419 154.129 12.1041 154.17L16.4011 155.102L17.3741 159.399C17.4147 159.561 17.5363 159.642 17.6985 159.642C17.8606 159.642 17.9822 159.521 18.0227 159.399L18.9957 155.062L23.2928 154.048C23.4549 154.008 23.536 153.886 23.536 153.724C23.536 153.561 23.4144 153.399 23.2523 153.399Z" fill="#06131C"/>
<path d="M132.079 4.01342L128.958 3.32418L128.228 0.202695C128.187 0.081078 128.106 0 127.985 0C127.863 0 127.782 0.081078 127.741 0.202695L127.012 3.36476L123.89 4.09448C123.769 4.13502 123.688 4.21604 123.688 4.33765C123.688 4.45927 123.769 4.54039 123.89 4.58093L127.012 5.27007L127.741 8.39156C127.782 8.51317 127.863 8.59425 127.985 8.59425C128.106 8.59425 128.187 8.51317 128.228 8.39156L128.958 5.22959L132.079 4.49987C132.201 4.45933 132.282 4.37821 132.282 4.2566C132.282 4.13498 132.201 4.01342 132.079 4.01342Z" fill="#06131C"/>
<path d="M216.368 92.9966L220.665 92.0641L221.638 87.7671C221.679 87.6049 221.8 87.5238 221.963 87.5238C222.125 87.5238 222.246 87.6455 222.287 87.7671L223.26 92.1046L227.557 93.1181C227.719 93.1586 227.8 93.2804 227.8 93.4425C227.8 93.6047 227.679 93.7262 227.557 93.7668L223.26 94.6991L222.287 98.9963C222.246 99.1584 222.125 99.2395 221.963 99.2395C221.8 99.2395 221.679 99.1179 221.638 98.9963L220.665 94.6587L216.368 93.6452C216.206 93.6047 216.125 93.483 216.125 93.3208C216.085 93.1586 216.206 92.9966 216.368 92.9966Z" fill="#06131C"/>
<path d="M234.45 56.6734L236.679 56.1869L237.166 53.9572C237.166 53.8762 237.247 53.8357 237.328 53.8357C237.409 53.8357 237.49 53.8762 237.49 53.9572L238.017 56.1869L240.247 56.714C240.328 56.714 240.368 56.795 240.368 56.8761C240.368 56.9572 240.328 57.0382 240.247 57.0382L238.017 57.5248L237.531 59.7544C237.531 59.8355 237.45 59.876 237.369 59.876C237.287 59.876 237.206 59.8355 237.206 59.7544L236.679 57.5248L234.45 56.9977C234.369 56.9977 234.328 56.9166 234.328 56.8355C234.328 56.7545 234.369 56.714 234.45 56.6734Z" fill="#06131C"/>
<path d="M91.75 275.503V142.616C91.75 135.116 97.8309 129.036 105.331 129.036H146.68C152.032 129.036 156.856 132.157 159.045 137.022L163.464 146.711C165.653 151.575 170.517 154.697 175.828 154.697H240.893C248.393 154.697 254.474 160.777 254.474 168.277V275.503C254.474 283.003 248.393 289.083 240.893 289.083H105.29C97.8715 289.083 91.75 283.003 91.75 275.503Z" fill="#FF3838"/>
<path d="M240.97 290.3H105.367C97.1782 290.3 90.5703 283.651 90.5703 275.503V142.616C90.5703 134.427 97.2187 127.819 105.367 127.819H146.717C152.514 127.819 157.825 131.225 160.216 136.495L164.635 146.183C166.622 150.602 171.081 153.44 175.905 153.44H240.97C249.159 153.44 255.767 160.088 255.767 168.237V275.463C255.767 283.651 249.159 290.3 240.97 290.3ZM105.367 130.211C98.5565 130.211 93.0027 135.765 93.0027 142.575V275.463C93.0027 282.273 98.5565 287.827 105.367 287.827H240.97C247.781 287.827 253.334 282.273 253.334 275.463V168.237C253.334 161.426 247.781 155.872 240.97 155.872H175.905C170.108 155.872 164.797 152.467 162.406 147.197L157.987 137.508C156 133.089 151.541 130.252 146.717 130.252H105.367V130.211Z" fill="#06131C"/>
<path d="M233.967 289.084C233.967 289.084 218.035 288.313 214.143 268.084L200.198 189.155C199.063 182.669 193.387 177.926 186.82 177.926H63.5003C54.9871 177.926 48.5414 185.669 50.1224 194.06L65.9732 277.976C67.1894 284.381 72.7838 289.043 79.3511 289.043H233.967V289.084Z" fill="#22BE0D"/>
<path d="M233.972 290.3H79.3161C72.1813 290.3 66.0599 285.232 64.7627 278.219L48.9119 194.303C48.1011 189.966 49.2361 185.506 52.0738 182.101C54.9116 178.696 59.0466 176.75 63.4653 176.75H186.785C194.001 176.75 200.122 181.898 201.379 188.993L215.325 267.922C218.973 286.935 233.851 287.908 234.013 287.908L233.972 290.3ZM63.5059 179.182C59.8169 179.182 56.3305 180.804 53.9792 183.682C51.628 186.56 50.655 190.249 51.3442 193.898L67.195 277.814C68.2896 283.651 73.3975 287.908 79.3567 287.908H226.067C225.703 287.705 225.297 287.502 224.892 287.259C220.595 284.665 215.041 279.273 212.973 268.368L199.028 189.439C197.974 183.52 192.866 179.223 186.825 179.223H63.5059V179.182Z" fill="#06131C"/>
<path d="M143.436 54.4032L103.789 70.3351L134.477 82.3751C134.518 82.3751 162.084 74.5916 143.436 54.4032Z" fill="#06131C"/>
<path d="M1.22656 41.5926C1.22656 41.5926 1.22649 168.642 138.775 79.6589C138.775 79.6589 105.736 85.8613 91.3853 11.2695L1.22656 41.5926Z" fill="white"/>
<path d="M57.1194 112.536C47.5117 112.536 38.9986 110.509 31.5394 106.455C18.6074 99.4013 9.04024 85.9425 3.89178 67.4973C0.0405786 53.6329 0 42.0792 0 41.5927V40.7009L92.3074 9.6886L92.5505 11.0669C99.888 49.2141 112.171 65.5514 121.212 72.5241C130.738 79.8616 138.481 78.5238 138.562 78.5238L144.643 77.3887L139.454 80.7534C106.658 101.874 79.0916 112.536 57.1194 112.536ZM2.43234 42.444C2.51342 45.4034 3.04039 55.4977 6.24297 66.8892C9.72932 79.2941 17.1074 95.834 32.715 104.307C55.7817 116.874 90.0777 108.969 134.59 80.8751C131.022 80.4697 125.671 79.0103 119.712 74.3889C113.752 69.7675 108.361 62.9162 103.739 53.9571C98.1854 43.1737 93.6857 29.3499 90.402 12.8506L2.43234 42.444Z" fill="#06131C"/>
<path d="M44.736 101.429L44.0469 99.1179C44.3306 99.0369 72.6268 90.4425 98.288 78.97L99.3015 81.1996C73.4781 92.7127 45.0198 101.347 44.736 101.429Z" fill="#06131C"/>
<path d="M36.5344 90.929L35.8047 88.6182C36.0479 88.5371 60.1685 81.1185 89.3161 68.8352L90.2486 71.0649C61.0605 83.3887 36.7776 90.8479 36.5344 90.929Z" fill="#06131C"/>
<path d="M27.6203 79.2535L26.8906 76.9427C27.1339 76.8616 50.1194 69.8079 80.4426 57.9299L81.3345 60.2002C50.9303 72.1186 27.8636 79.213 27.6203 79.2535Z" fill="#06131C"/>
<path d="M21.3766 66.4432L20.6875 64.0918C20.9307 64.0107 44.4433 57.0787 55.5105 52.0924L56.5239 54.3221C45.2946 59.3894 21.6199 66.3621 21.3766 66.4432Z" fill="#06131C"/>
<path d="M263.323 186.073L253.789 192.083L272.854 222.332L282.388 216.323L263.323 186.073Z" fill="#06131C"/>
<path d="M262.266 195.058C282.059 182.583 287.992 156.424 275.517 136.631C263.042 116.837 236.883 110.905 217.089 123.38C197.296 135.855 191.363 162.014 203.838 181.807C216.313 201.601 242.472 207.533 262.266 195.058Z" fill="#22BE0D"/>
<path d="M239.761 202.817C236.518 202.817 233.275 202.452 230.031 201.723C218.681 199.169 209.032 192.318 202.789 182.467C196.546 172.616 194.6 160.941 197.154 149.59C199.749 138.239 206.559 128.59 216.41 122.347C236.72 109.537 263.679 115.658 276.489 135.968C282.692 145.819 284.678 157.495 282.124 168.846C279.57 180.197 272.719 189.845 262.868 196.088C255.855 200.506 247.869 202.817 239.761 202.817ZM239.599 118.091C232.099 118.091 224.518 120.118 217.748 124.415C208.465 130.293 201.979 139.414 199.546 150.117C197.114 160.819 199.019 171.845 204.857 181.169C210.694 190.493 219.856 196.939 230.559 199.371C241.261 201.804 252.287 199.898 261.611 194.061C270.895 188.183 277.381 179.061 279.814 168.359C282.246 157.657 280.34 146.63 274.503 137.306C266.638 124.901 253.26 118.091 239.599 118.091Z" fill="#06131C"/>
<path d="M256.906 186.553C272.002 177.038 276.527 157.087 267.013 141.991C257.498 126.895 237.547 122.37 222.451 131.885C207.355 141.399 202.83 161.35 212.345 176.446C221.859 191.542 241.81 196.067 256.906 186.553Z" fill="white"/>
<path d="M239.726 192.723C228.578 192.723 217.673 187.169 211.308 177.075C206.525 169.494 204.984 160.535 206.971 151.778C208.957 143.022 214.227 135.603 221.767 130.819C229.348 126.036 238.307 124.495 247.064 126.482C255.82 128.468 263.239 133.738 268.022 141.279C277.873 156.927 273.171 177.642 257.523 187.493C252.009 191.061 245.807 192.723 239.726 192.723ZM239.604 128.144C233.807 128.144 228.132 129.766 223.105 132.928C216.092 137.346 211.187 144.238 209.362 152.346C207.538 160.454 208.957 168.764 213.376 175.777C222.497 190.29 241.753 194.628 256.266 185.507C270.779 176.385 275.117 157.129 265.995 142.616C261.577 135.603 254.685 130.698 246.577 128.874C244.226 128.387 241.915 128.144 239.604 128.144Z" fill="#06131C"/>
<path d="M270.112 226.816L293.098 263.301C296.057 268.004 302.3 269.422 307.043 266.463C311.746 263.504 313.165 257.261 310.206 252.518L287.22 216.033C284.26 211.33 278.017 209.911 273.274 212.87C268.531 215.87 267.112 222.073 270.112 226.816Z" fill="#22BE0D"/>
<path d="M301.661 269.22C297.891 269.22 294.202 267.355 292.053 263.95L269.068 227.465C267.446 224.911 266.919 221.87 267.608 218.911C268.257 215.952 270.04 213.438 272.594 211.857C275.148 210.235 278.189 209.709 281.148 210.398C284.108 211.046 286.621 212.83 288.202 215.384L311.188 251.869C314.512 257.139 312.931 264.152 307.661 267.477C305.836 268.652 303.728 269.22 301.661 269.22ZM278.635 212.546C276.973 212.546 275.351 213.033 273.932 213.925C271.905 215.181 270.527 217.168 270 219.479C269.473 221.789 269.878 224.181 271.135 226.167L294.121 262.653C296.715 266.788 302.229 268.044 306.364 265.45C310.499 262.855 311.755 257.342 309.161 253.207L286.175 216.722C284.918 214.695 282.932 213.317 280.621 212.79C279.973 212.627 279.283 212.546 278.635 212.546Z" fill="#06131C"/>
</svg>
