<svg width="479" height="414" viewBox="0 0 479 414" fill="none" xmlns="http://www.w3.org/2000/svg">
<path d="M428.996 412.624C456.491 412.624 478.781 407.521 478.781 401.226C478.781 394.931 456.491 389.828 428.996 389.828C401.5 389.828 379.211 394.931 379.211 401.226C379.211 407.521 401.5 412.624 428.996 412.624Z" fill="url(#paint0_linear_2525_17831)"/>
<path d="M205.414 414C298.682 414 374.29 405.554 374.29 395.134C374.29 384.715 298.682 376.268 205.414 376.268C112.147 376.268 36.5391 384.715 36.5391 395.134C36.5391 405.554 112.147 414 205.414 414Z" fill="url(#paint1_linear_2525_17831)"/>
<path d="M437.035 135.336L430.092 133.829L428.519 126.886C428.454 126.624 428.257 126.493 427.995 126.493C427.733 126.493 427.537 126.689 427.471 126.886L425.899 133.895L418.955 135.533C418.693 135.598 418.562 135.795 418.562 136.057C418.562 136.319 418.759 136.515 419.021 136.581L425.965 138.087L427.537 145.031C427.602 145.293 427.799 145.424 428.061 145.424C428.323 145.424 428.519 145.227 428.585 145.031L430.157 138.022L437.101 136.384C437.363 136.319 437.494 136.122 437.494 135.86C437.494 135.598 437.297 135.336 437.035 135.336Z" fill="#06131C"/>
<path d="M102.309 120.27L95.365 118.763L93.7929 111.819C93.7274 111.557 93.5309 111.426 93.2689 111.426C93.0068 111.426 92.8103 111.623 92.7448 111.819L91.1727 118.828L84.229 120.466C83.9669 120.532 83.8359 120.728 83.8359 120.99C83.8359 121.252 84.0325 121.449 84.2945 121.514L91.2382 123.021L92.8104 129.965C92.8759 130.227 93.0723 130.358 93.3344 130.358C93.5964 130.358 93.7929 130.161 93.8584 129.965L95.4306 122.956L102.374 121.318C102.636 121.252 102.767 121.056 102.767 120.794C102.767 120.532 102.571 120.27 102.309 120.27Z" fill="#06131C"/>
<path d="M401.947 107.43L398.344 106.644L397.558 103.041C397.558 102.91 397.427 102.845 397.296 102.845C397.165 102.845 397.034 102.91 397.034 103.041L396.182 106.644L392.579 107.496C392.448 107.496 392.383 107.627 392.383 107.758C392.383 107.889 392.448 108.02 392.579 108.02L396.182 108.806L396.968 112.409C396.968 112.54 397.099 112.605 397.23 112.605C397.361 112.605 397.492 112.54 397.492 112.409L398.344 108.806L401.947 107.954C402.078 107.954 402.143 107.823 402.143 107.692C402.143 107.561 402.078 107.496 401.947 107.43Z" fill="#06131C"/>
<path d="M229.679 126.737C229.365 126.267 222.627 115.506 221.53 100.148C220.485 85.9387 224.246 64.9913 248.014 45.9765L248.903 45.2451C260.395 36.1034 265.671 28.7901 258.514 18.5514C255.119 13.6932 249.373 10.9245 243.104 11.029C239.343 11.0812 235.843 12.0216 232.761 13.6932C230.776 14.7902 228.268 14.2678 226.806 12.4917C224.925 10.1932 225.604 6.74551 228.164 5.33508C232.604 2.87988 237.619 1.57384 242.895 1.46937C252.298 1.31265 261.074 5.5963 266.298 13.0664C272.149 21.4245 272.828 30.2528 268.231 38.5064C264.678 44.8795 258.776 49.5809 254.858 52.7152L253.97 53.3942C237.515 66.6105 229.783 82.1254 231.037 99.4686C231.977 112.424 237.671 121.513 237.723 121.618L229.679 126.737Z" fill="#22BE0D"/>
<path d="M229.204 128.931L228.368 127.625C228.055 127.155 221.107 116.08 219.958 100.357C218.913 85.7822 222.726 64.3121 247.017 44.8272L247.905 44.0959C260.651 33.9617 262.95 27.7453 257.204 19.4916C254.121 15.1036 248.845 12.544 243.151 12.6485C239.651 12.7007 236.413 13.5365 233.54 15.1037C230.875 16.5663 227.532 15.8872 225.599 13.5365C224.398 12.0738 223.928 10.141 224.293 8.31268C224.659 6.48433 225.808 4.91721 227.428 4.02916C232.129 1.46948 237.301 0.111307 242.89 0.00682996C252.868 -0.202123 262.114 4.3948 267.599 12.2306C273.815 21.1111 274.547 30.5139 269.636 39.3422C265.927 46.0287 259.868 50.8347 255.845 54.0212L254.957 54.7002C238.92 67.5509 231.398 82.5956 232.599 99.4163C233.487 111.901 238.972 120.73 239.077 120.834L239.913 122.14L229.204 128.931ZM243.413 9.46189C250.099 9.46189 256.159 12.4917 259.763 17.6633C267.599 28.8945 261.801 36.9916 249.89 46.499L249.002 47.2302C225.808 65.8271 222.099 86.2524 223.092 100.096C223.98 112.11 228.368 121.252 230.196 124.595L235.629 121.147C233.957 118.065 230.196 110.073 229.465 99.6775C228.159 81.7597 236.099 65.8272 252.972 52.2975L253.86 51.6182C257.674 48.5884 263.472 43.9915 266.868 37.8796C271.151 30.2006 270.524 21.9469 265.039 14.1112C260.129 7.11125 251.875 3.03658 242.942 3.19329C237.928 3.29777 233.174 4.55149 228.943 6.84998C228.159 7.26788 227.584 8.05151 227.375 8.9918C227.166 9.93209 227.428 10.9245 228.055 11.6559C229.047 12.8574 230.719 13.1708 232.025 12.4395C235.316 10.6111 239.077 9.67082 243.099 9.56635C243.151 9.51411 243.308 9.46189 243.413 9.46189Z" fill="#06131C"/>
<path d="M207.43 98.9985L205.863 68.2302C205.602 63.1108 201.266 59.1928 196.147 59.454C191.027 59.7152 187.109 64.051 187.371 69.1704L188.938 100.096L183.609 162.311C183.609 162.311 209.624 172.498 220.542 159.334C230.258 147.737 226.445 113.73 207.43 98.9985Z" fill="#22BE0D"/>
<path d="M203.201 167.692C193.223 167.692 183.768 164.088 183.089 163.826L181.992 163.408L187.425 100.148L185.858 69.327C185.701 66.4539 186.694 63.6853 188.626 61.5435C190.559 59.4018 193.223 58.1482 196.097 57.9914C198.97 57.8347 201.738 58.8271 203.88 60.76C206.022 62.6928 207.276 65.3571 207.432 68.2302L208.947 98.2673C218.611 106.051 225.298 119.528 226.917 134.416C228.119 145.386 226.186 155.103 221.798 160.379C217.096 165.968 210.044 167.692 203.201 167.692ZM185.335 161.267C190.246 162.938 210.514 168.998 219.395 158.341C223.26 153.692 224.932 144.864 223.835 134.73C222.268 120.364 215.79 107.461 206.492 100.252L205.917 99.8344L204.298 68.3868C204.193 66.3495 203.305 64.4689 201.791 63.1107C200.276 61.7525 198.291 61.0213 196.253 61.1257C194.216 61.2302 192.335 62.1182 190.977 63.6331C189.619 65.148 188.888 67.1331 188.992 69.1704L190.559 100.2V100.305L185.335 161.267Z" fill="#06131C"/>
<path d="M286.098 140.319L284.427 107.305C284.165 102.185 279.83 98.2674 274.71 98.5286C269.591 98.7898 265.673 103.125 265.934 108.245L267.606 141.259L286.098 140.319Z" fill="#22BE0D"/>
<path d="M266.197 142.931L264.421 108.349C264.108 102.394 268.705 97.3268 274.66 97.0134C280.615 96.7 285.682 101.297 285.996 107.252L287.772 141.834L266.197 142.931ZM275.235 100.148C275.078 100.148 274.973 100.148 274.817 100.148C270.585 100.357 267.347 103.961 267.556 108.193L269.175 139.64L284.481 138.856L282.862 107.409C282.653 103.334 279.257 100.148 275.235 100.148Z" fill="#06131C"/>
<path d="M279.704 99.1603L277.617 99.2667L278.362 113.874L280.449 113.768L279.704 99.1603Z" fill="#06131C"/>
<path d="M274.29 98.5846L272.203 98.691L272.932 112.986L275.019 112.879L274.29 98.5846Z" fill="#06131C"/>
<path d="M193.36 60.5033L191.273 60.6097L192.018 75.2175L194.105 75.111L193.36 60.5033Z" fill="#06131C"/>
<path d="M198.696 59.354L196.609 59.4604L197.339 73.7554L199.425 73.6489L198.696 59.354Z" fill="#06131C"/>
<path d="M316.694 294.735C315.023 284.758 310.896 275.303 304.784 267.206C295.642 255.087 292.038 248.714 292.038 248.714L245.285 248.452V248.4L239.643 248.452L234.001 248.4V248.452L187.248 248.714C187.248 248.714 183.643 255.087 174.502 267.206C168.39 275.303 164.263 284.758 162.591 294.735C159.248 314.952 161.285 353.869 186.934 378.891C186.934 378.891 195.24 389.287 236.091 387.72C238.494 387.615 240.844 387.615 243.247 387.72C284.098 389.235 292.404 378.891 292.404 378.891C317.948 353.869 320.038 314.952 316.694 294.735Z" fill="white"/>
<path d="M251.089 389.444C248.581 389.444 245.917 389.391 243.148 389.287C240.798 389.182 238.447 389.182 236.096 389.287C196.5 390.749 186.783 381.085 185.739 379.936C159.306 354.078 157.739 314.012 161.03 294.422C162.701 284.34 166.933 274.572 173.254 266.213C182.186 254.355 185.843 247.982 185.843 247.93L186.313 247.146L232.44 246.885V246.833L239.649 246.885L246.857 246.833V246.885L292.984 247.146L293.454 247.93C293.506 247.982 297.111 254.408 306.043 266.213C312.364 274.572 316.543 284.34 318.267 294.422C321.506 314.012 319.991 354.026 293.559 379.936C292.566 381.033 284.051 389.444 251.089 389.444ZM188.089 250.281C186.836 252.318 183.074 258.378 175.709 268.146C169.701 276.086 165.679 285.385 164.112 294.997C160.925 314.011 162.44 352.824 187.985 377.794L188.089 377.951C188.142 378.056 196.813 387.667 235.94 386.205C238.343 386.1 240.798 386.1 243.201 386.205C282.327 387.667 290.999 378.003 291.103 377.899L291.208 377.794C316.752 352.824 318.267 314.011 315.081 294.997C313.461 285.385 309.491 276.086 303.484 268.146C296.118 258.378 292.357 252.318 291.103 250.281L243.671 250.02V249.967H239.596H235.522V250.02L188.089 250.281Z" fill="#06131C"/>
<path d="M192.067 361.914L191.336 358.884C193.739 358.31 251.201 345.25 287.559 358.937L286.462 361.862C250.992 348.489 192.642 361.81 192.067 361.914Z" fill="#06131C"/>
<path d="M301.043 289.46C299.894 286.534 298.536 283.557 296.969 280.736L299.737 279.221C301.357 282.198 302.767 285.228 303.969 288.31L301.043 289.46Z" fill="#06131C"/>
<path d="M297.893 328.952L294.758 328.691C295.385 320.489 294.445 312.497 291.938 304.87L294.915 303.877C297.527 311.922 298.52 320.332 297.893 328.952Z" fill="#06131C"/>
<path d="M197.65 124.491C197.65 124.491 155.337 148.938 182.135 230.534C182.135 230.534 181.56 268.042 190.493 288.937C190.493 288.937 185.112 307.429 188.09 320.489C188.09 320.489 211.336 316.937 219.642 306.802C219.642 306.802 244.664 313.332 263.731 306.802C263.731 306.802 278.619 314.534 289.328 314.534C289.328 314.534 289.903 303.825 286.925 285.959C286.925 285.959 294.082 253.206 291.104 232.363C291.104 232.363 309.596 172.811 287.552 137.655C287.604 137.603 254.224 95.9162 197.65 124.491Z" fill="#22BE0D"/>
<path d="M186.899 322.265L186.586 320.855C183.817 308.631 187.944 292.28 188.832 289.042C180.369 268.721 180.526 234.452 180.578 230.796C174.466 212.094 171.489 194.856 171.698 179.55C171.854 167.169 174.153 155.991 178.437 146.327C185.802 129.767 196.459 123.446 196.877 123.185L196.929 123.133C226.705 108.088 250.108 112.528 264.473 118.953C280.04 125.901 288.45 136.245 288.816 136.662L288.921 136.819C300.518 155.364 300.935 180.49 299.212 198.356C297.488 215.96 293.465 230.169 292.786 232.52C295.555 252.579 289.339 282.564 288.607 286.064C291.533 303.721 291.01 314.273 290.958 314.691L290.853 316.153H289.391C279.518 316.153 266.615 309.989 263.637 308.527C246.346 314.168 225.033 309.728 220.227 308.579C211.138 318.452 189.302 321.952 188.362 322.056L186.899 322.265ZM198.392 125.849C197.765 126.215 187.892 132.431 181.153 147.737C174.728 162.364 169.974 188.483 183.608 230.012L183.713 230.273V230.535C183.713 230.9 183.242 267.99 191.914 288.258L192.123 288.78L191.966 289.303C191.914 289.459 187.16 306.176 189.302 318.609C194.474 317.616 211.765 313.855 218.451 305.706L219.078 304.922L220.07 305.183C220.332 305.235 244.884 311.556 263.272 305.235L263.898 305.027L264.473 305.34C264.63 305.392 277.794 312.183 287.824 312.862C287.876 309.31 287.719 299.803 285.421 286.168L285.368 285.855L285.421 285.542C285.473 285.228 292.473 252.788 289.547 232.468L289.495 232.102L289.6 231.788C289.756 231.214 307.57 172.602 286.256 138.439C285.525 137.55 277.324 127.938 263.01 121.618C243.108 112.894 221.376 114.304 198.392 125.849Z" fill="#06131C"/>
<path d="M217.047 300.952C216.629 300.952 216.368 300.952 216.316 300.952H216.159L216.003 300.9C201.533 296.512 194.376 256.706 194.062 254.982L197.145 254.46C199.077 265.43 206.339 294.422 216.734 297.87C217.518 297.87 221.174 297.922 223.003 295.519C224.57 293.43 224.465 289.825 222.741 285.071L222.689 284.967C222.532 284.392 218.458 270.915 218.458 257.699H221.592C221.592 270.079 225.458 283.191 225.667 284.027C227.808 289.877 227.756 294.422 225.458 297.4C223.003 300.586 218.771 300.952 217.047 300.952Z" fill="#06131C"/>
<path d="M274.495 299.437C273.973 299.437 273.712 299.385 273.66 299.385H273.607C270.839 298.81 268.697 297.452 267.339 295.31C264.727 291.288 265.667 285.855 265.824 285.071C267.548 269.975 265.824 258.273 265.824 258.169L268.906 257.699C268.958 258.169 270.682 269.975 268.906 285.49L268.854 285.646C268.854 285.698 267.861 290.452 269.898 293.586C270.839 294.997 272.197 295.885 274.13 296.251C274.391 296.303 277.003 296.512 279.98 294.004C283.637 290.922 288.13 283.452 288.809 265.273L291.943 265.378C291.316 281.049 287.921 291.497 281.861 296.512C278.779 299.124 275.906 299.437 274.495 299.437Z" fill="#06131C"/>
<path d="M247.001 276.287C249.795 276.145 251.98 274.441 251.88 272.482C251.78 270.523 249.434 269.05 246.639 269.192C243.844 269.335 241.659 271.039 241.759 272.998C241.859 274.957 244.206 276.43 247.001 276.287Z" fill="#06131C"/>
<path d="M245.462 270.967C245.41 266.266 246.768 262.557 249.432 259.997C253.559 256.027 259.306 256.236 259.514 256.236L259.358 259.37C259.306 259.37 254.709 259.214 251.574 262.296C249.537 264.281 248.544 267.206 248.544 270.967H245.462Z" fill="#06131C"/>
<path d="M244.878 271.124C244.512 267.31 243.206 264.542 240.96 262.765C237.512 260.049 232.968 260.676 232.915 260.676L232.445 257.594C232.707 257.542 238.348 256.758 242.893 260.31C245.818 262.609 247.542 266.161 247.96 270.81L244.878 271.124Z" fill="#06131C"/>
<path d="M182.978 230.953C196.403 231.579 262.276 232.624 290.171 231.214C291.477 231.161 292.679 232.049 292.679 233.408V246.467C292.679 248.661 290.903 250.49 288.656 250.49H184.702C182.508 250.49 180.68 248.713 180.68 246.467V233.146C180.68 231.893 181.724 230.9 182.978 230.953Z" fill="white"/>
<path d="M288.653 252.005H184.699C181.617 252.005 179.109 249.497 179.109 246.415V233.094C179.109 232.05 179.527 231.057 180.259 230.378C180.99 229.647 181.982 229.281 183.027 229.333C197.027 229.96 262.9 231.005 290.064 229.594C291.161 229.542 292.258 229.908 293.041 230.692C293.773 231.371 294.19 232.363 294.19 233.355V246.415C294.243 249.549 291.735 252.005 288.653 252.005ZM182.871 232.52C182.662 232.52 182.505 232.624 182.453 232.676C182.4 232.729 182.244 232.885 182.244 233.147V246.467C182.244 247.826 183.341 248.923 184.699 248.923H288.653C290.011 248.923 291.108 247.826 291.108 246.467V233.408C291.108 233.251 291.056 233.094 290.952 232.99C290.795 232.833 290.534 232.729 290.273 232.781C262.952 234.139 196.923 233.147 182.871 232.52Z" fill="#06131C"/>
<path d="M248.902 239.52C221.999 239.52 185.015 238.632 184.492 238.632L184.544 235.497C185.171 235.497 247.596 236.96 269.014 236.072L269.118 239.206C264.208 239.467 256.999 239.52 248.902 239.52Z" fill="#06131C"/>
<path d="M240.375 246.676C220.838 246.676 203.86 246.415 203.547 246.415L203.599 243.281C204.174 243.281 261.322 244.169 286.867 242.706L287.024 245.841C275.322 246.467 256.934 246.676 240.375 246.676Z" fill="#06131C"/>
<path d="M231.235 288.624C233.716 288.624 235.727 286.612 235.727 284.131C235.727 281.65 233.716 279.639 231.235 279.639C228.754 279.639 226.742 281.65 226.742 284.131C226.742 286.612 228.754 288.624 231.235 288.624Z" fill="#06131C"/>
<path d="M261.391 288.624C263.872 288.624 265.883 286.612 265.883 284.131C265.883 281.65 263.872 279.639 261.391 279.639C258.91 279.639 256.898 281.65 256.898 284.131C256.898 286.612 258.91 288.624 261.391 288.624Z" fill="#06131C"/>
<path d="M212.229 341.019C213.21 341.019 214.005 340.224 214.005 339.243C214.005 338.262 213.21 337.467 212.229 337.467C211.248 337.467 210.453 338.262 210.453 339.243C210.453 340.224 211.248 341.019 212.229 341.019Z" fill="#06131C"/>
<path d="M207.18 334.489C208.651 334.489 209.844 333.296 209.844 331.825C209.844 330.353 208.651 329.161 207.18 329.161C205.708 329.161 204.516 330.353 204.516 331.825C204.516 333.296 205.708 334.489 207.18 334.489Z" fill="#06131C"/>
<path d="M163.96 333.235L162.602 330.415L167.407 328.064C169.81 326.862 172.684 327.123 174.878 328.69L175.295 329.004C176.758 330.049 178.691 330.049 180.154 329.004C182.609 327.228 185.952 327.176 188.46 328.847L189.295 329.37C190.654 330.258 192.377 330.31 193.736 329.474L198.385 326.601L200.004 329.265L195.355 332.138C192.952 333.601 189.87 333.549 187.519 331.982L186.683 331.459C185.273 330.519 183.34 330.519 181.982 331.564C179.422 333.444 175.975 333.444 173.467 331.564L173.049 331.25C171.796 330.362 170.176 330.206 168.818 330.885L163.96 333.235Z" fill="#06131C"/>
<path d="M281.296 334.437L279.938 331.616L284.743 329.265C287.146 328.064 290.02 328.325 292.214 329.892L292.631 330.206C294.094 331.251 296.027 331.251 297.49 330.206C299.945 328.43 303.288 328.377 305.795 330.049L306.631 330.571C307.989 331.459 309.713 331.512 311.072 330.676L315.721 327.803L317.34 330.467L312.691 333.34C310.288 334.803 307.206 334.75 304.855 333.183L304.019 332.661C302.609 331.721 300.676 331.721 299.318 332.765C296.758 334.646 293.311 334.646 290.803 332.765L290.385 332.452C289.131 331.564 287.512 331.407 286.154 332.086L281.296 334.437Z" fill="#06131C"/>
<path d="M123.466 189.711L117.928 188.509L116.675 182.972C116.622 182.763 116.466 182.658 116.257 182.658C116.048 182.658 115.891 182.815 115.839 182.972L114.585 188.561L109.048 189.867C108.839 189.919 108.734 190.076 108.734 190.285C108.734 190.494 108.891 190.651 109.1 190.703L114.637 191.904L115.891 197.442C115.943 197.651 116.1 197.755 116.309 197.755C116.518 197.755 116.675 197.599 116.727 197.442L117.981 191.852L123.518 190.546C123.727 190.494 123.831 190.337 123.831 190.128C123.831 189.919 123.675 189.711 123.466 189.711Z" fill="#06131C"/>
<path d="M323.552 136.1L318.014 134.898L316.761 129.361C316.708 129.152 316.552 129.047 316.343 129.047C316.134 129.047 315.977 129.204 315.925 129.361L314.671 134.95L309.134 136.256C308.925 136.308 308.82 136.465 308.82 136.674C308.82 136.883 308.977 137.04 309.186 137.092L314.723 138.293L315.977 143.831C316.029 144.04 316.186 144.144 316.395 144.144C316.604 144.144 316.761 143.987 316.813 143.831L318.067 138.241L323.604 136.935C323.813 136.883 323.917 136.726 323.917 136.517C323.917 136.308 323.76 136.1 323.552 136.1Z" fill="#06131C"/>
<path d="M82.9471 203.696L80.074 203.069L79.4471 200.196C79.4471 200.091 79.3427 200.039 79.2382 200.039C79.1337 200.039 79.0292 200.091 79.0292 200.196L78.3501 203.069L75.477 203.748C75.3725 203.748 75.3203 203.853 75.3203 203.957C75.3203 204.062 75.3725 204.166 75.477 204.166L78.3501 204.793L78.977 207.666C78.977 207.771 79.0815 207.823 79.1859 207.823C79.2904 207.823 79.3949 207.771 79.3949 207.666L80.074 204.793L82.9471 204.114C83.0516 204.114 83.1038 204.009 83.1038 203.905C83.1038 203.8 83.0516 203.748 82.9471 203.696Z" fill="#06131C"/>
<path d="M237.254 357.213C237.254 357.213 236.157 363.377 239.448 368.026C239.448 368.026 248.276 366.093 244.254 355.854L237.254 357.213Z" fill="#06131C"/>
<path d="M241.329 357.004C241.329 357.004 241.068 371.422 250.366 377.429C250.366 377.429 256.008 364.996 245.821 355.907L241.329 357.004Z" fill="#FF3838"/>
<path d="M251.044 379.675L249.529 378.683C239.656 372.257 239.761 357.526 239.813 356.951V355.75L246.291 354.183L246.918 354.705C257.835 364.422 251.88 377.899 251.828 378.004L251.044 379.675ZM242.947 358.205C243.104 361.339 244.097 369.959 249.582 374.869C250.574 371.369 251.723 363.795 245.35 357.631L242.947 358.205Z" fill="#06131C"/>
<path d="M254.553 349.69C254.553 349.69 263.381 339.243 277.015 339.243C277.015 339.243 279.888 346.765 266.933 353.713C266.933 353.713 271.687 363.115 270.381 370.742C270.381 370.742 260.456 368.496 254.344 355.123L254.553 349.69Z" fill="#FF3838"/>
<path d="M271.684 372.675L270.064 372.31C269.646 372.205 259.303 369.75 252.93 355.802L252.773 355.437L253.035 349.064L253.4 348.646C253.766 348.176 262.908 337.676 277.064 337.676H278.161L278.527 338.668C278.684 339.034 281.557 347.026 269.02 354.392C270.326 357.37 273.042 364.683 271.997 371.004L271.684 372.675ZM255.908 354.81C260.139 363.847 266.146 367.347 269.02 368.601C269.281 361.967 265.572 354.496 265.52 354.444L264.84 353.086L266.199 352.355C275.027 347.601 275.863 342.9 275.758 340.862C265.154 341.385 257.788 348.594 256.117 350.317L255.908 354.81Z" fill="#06131C"/>
<path d="M234.492 334.019C234.492 334.019 241.701 322.735 254.447 330.414C255.858 331.25 255.805 333.288 254.395 334.123C252.305 335.325 250.007 337.937 249.328 343.578L234.492 334.019Z" fill="#FF3838"/>
<path d="M250.567 346.19L232.336 334.489L233.172 333.183C233.276 333.079 241.373 320.698 255.269 329.056C256.418 329.735 257.097 330.937 257.045 332.243C257.045 333.549 256.366 334.75 255.216 335.429C252.918 336.788 251.403 339.661 250.881 343.735L250.567 346.19ZM236.776 333.601L248.216 340.967C249.366 336.161 251.716 333.862 253.649 332.765C253.91 332.609 253.963 332.4 253.963 332.243C253.963 332.138 253.91 331.877 253.701 331.72C244.716 326.34 238.918 331.146 236.776 333.601Z" fill="#06131C"/>
<path d="M216.411 343.004C216.202 345.459 222.836 362.593 241.956 358.832C243.366 358.571 244.411 357.735 247.127 356.586C248.799 355.855 252.769 355.907 254.284 355.907C254.284 355.907 257 352.981 255.903 348.332C255.903 348.332 251.411 345.564 248.12 339.817C248.12 339.817 240.65 328.325 228.112 334.907C221.948 338.041 216.672 340.026 216.411 343.004Z" fill="#FF3838"/>
<path d="M236.627 360.921C229.679 360.921 224.873 358.101 221.896 355.384C216.933 350.944 214.687 344.884 214.844 342.847C215.157 339.556 218.918 337.675 224.142 335.063C225.187 334.541 226.232 334.019 227.381 333.444C241.067 326.34 249.373 338.772 249.425 338.929L249.478 338.981C252.56 344.31 256.687 346.922 256.739 346.922L257.313 347.287L257.47 347.914C258.724 353.347 255.59 356.795 255.433 356.899L254.963 357.421H254.231C250.836 357.421 248.642 357.63 247.754 357.996C246.709 358.414 245.925 358.832 245.246 359.145C244.149 359.668 243.314 360.086 242.216 360.347C240.231 360.712 238.403 360.921 236.627 360.921ZM217.978 343.108C217.978 343.944 219.597 349.325 224.455 353.451C229.052 357.317 234.851 358.623 241.642 357.265C242.321 357.108 242.896 356.847 243.888 356.377C244.567 356.063 245.403 355.645 246.552 355.123C248.119 354.444 250.888 354.287 253.552 354.287C254.075 353.451 254.963 351.675 254.545 349.22C253.134 348.228 249.634 345.407 246.813 340.601C246.343 339.922 239.814 330.519 228.843 336.213C227.694 336.787 226.597 337.362 225.552 337.884C221.739 339.765 218.135 341.593 217.978 343.108Z" fill="#06131C"/>
<path d="M227.477 343.055C228.225 342.138 228.089 340.789 227.172 340.041C226.256 339.293 224.907 339.43 224.159 340.346C223.411 341.262 223.548 342.612 224.464 343.36C225.38 344.108 226.73 343.971 227.477 343.055Z" fill="#06131C"/>
<path d="M379.657 138.607C353.904 133.958 329.299 151.04 324.598 176.793C322.404 188.86 325.016 200.666 331.023 210.278L319.688 230.703L342.725 223.077C348.419 227.36 355.21 230.442 362.732 231.8C388.485 236.45 413.09 219.368 417.791 193.614C422.493 167.913 405.411 143.256 379.657 138.607Z" fill="white"/>
<path d="M316.398 233.42L329.249 210.278C323.189 200.144 320.995 188.129 323.085 176.48C327.891 149.943 353.383 132.234 379.92 137.04C406.457 141.846 424.166 167.339 419.36 193.876C414.554 220.413 389.062 238.122 362.525 233.316C355.212 232.01 348.473 229.137 342.518 224.749L316.398 233.42ZM379.346 140.174C354.48 135.682 330.607 152.242 326.115 177.107C324.077 188.338 326.271 199.831 332.331 209.495L332.801 210.278L322.98 227.987L342.988 221.353L343.667 221.823C349.413 226.159 355.943 228.98 363.047 230.286C387.913 234.778 411.786 218.219 416.278 193.353C420.771 168.54 404.211 144.667 379.346 140.174Z" fill="#06131C"/>
<path d="M393.811 203.905C383.468 194.92 372.498 192.152 361.214 195.756C352.752 198.42 347.371 203.801 347.319 203.853L345.125 201.659C345.386 201.398 351.132 195.704 360.326 192.779C368.841 190.062 381.901 189.435 395.901 201.554L393.811 203.905Z" fill="#06131C"/>
<path d="M354.889 181.286C351.285 181.286 348.359 178.361 348.359 174.756C348.359 171.152 351.285 168.227 354.889 168.227C358.494 168.227 361.419 171.152 361.419 174.756C361.419 178.361 358.494 181.286 354.889 181.286ZM354.889 171.361C353.009 171.361 351.494 172.876 351.494 174.756C351.494 176.637 353.009 178.152 354.889 178.152C356.77 178.152 358.285 176.637 358.285 174.756C358.285 172.876 356.77 171.361 354.889 171.361Z" fill="#06131C"/>
<path d="M384.663 181.286C381.058 181.286 378.133 178.361 378.133 174.756C378.133 171.152 381.058 168.227 384.663 168.227C388.267 168.227 391.192 171.152 391.192 174.756C391.192 178.361 388.267 181.286 384.663 181.286ZM384.663 171.361C382.782 171.361 381.267 172.876 381.267 174.756C381.267 176.637 382.782 178.152 384.663 178.152C386.543 178.152 388.058 176.637 388.058 174.756C388.058 172.876 386.543 171.361 384.663 171.361Z" fill="#06131C"/>
<path d="M115.028 227.635C116.862 225.997 119.351 225.276 122.43 225.407C125.509 225.604 129.374 226.456 133.894 227.962C138.479 229.534 141.951 231.237 144.375 233.137C146.798 235.037 148.24 237.198 148.698 239.688C149.157 242.177 149.157 244.339 148.829 246.173C148.436 248.007 147.716 250.562 146.536 253.903L105.398 374.565C103.499 380.199 101.337 384.129 99.1098 386.356C96.8171 388.584 94.1313 389.632 90.987 389.501C87.8427 389.37 84.2399 388.649 80.0475 387.208C75.8551 385.767 72.6453 384.26 70.418 382.754C68.1908 381.181 66.6187 379.675 65.6361 378.234C64.6535 376.792 64.2605 375.024 64.326 372.928C64.326 370.176 65.112 366.246 66.8807 361.202L75.9206 334.737L17.0959 314.692C6.94239 311.221 1.89844 306.439 1.89844 300.281C1.96394 297.726 2.68448 294.517 3.99461 290.586C5.30473 286.656 6.54935 283.839 7.59746 282.136L50.3731 215.516C52.4038 212.503 53.976 210.21 55.2206 208.703C56.4652 207.197 58.2994 205.952 60.8541 205.035C63.3434 204.118 66.0946 204.183 69.1734 205.166C72.1867 206.214 75.3965 207.852 78.6718 210.079C87.8427 216.302 91.3801 222.656 89.1528 229.141C88.3668 231.434 86.7946 234.316 84.5019 237.723C84.2399 237.985 84.1089 238.181 84.0434 238.312L52.7313 286.787L88.1048 298.84L108.281 239.557C109.394 236.216 110.377 233.792 111.097 232.286C111.884 230.845 113.194 229.272 115.028 227.635Z" fill="white"/>
<path d="M91.4468 391.466C91.3158 391.466 91.1848 391.466 90.9883 391.466C87.713 391.335 83.7826 390.549 79.4592 389.108C75.0048 387.601 71.7294 386.029 69.3712 384.391C66.9475 382.688 65.2443 381.05 64.1307 379.347C62.9516 377.579 62.4275 375.417 62.4931 372.928C62.4931 369.914 63.3446 365.918 65.1133 360.612L73.4981 335.982L16.5076 316.592C5.56809 312.858 0 307.421 0 300.347C0.0655063 297.53 0.786092 294.124 2.22723 289.997C3.60286 285.935 4.84752 282.988 6.02663 281.153L48.8022 214.533C50.8984 211.389 52.5361 209.096 53.7807 207.524C55.2218 205.755 57.3836 204.314 60.2003 203.266C63.1481 202.153 66.3579 202.218 69.8297 203.397C73.0395 204.511 76.3804 206.214 79.7867 208.572C89.7437 215.319 93.5431 222.46 90.9883 229.862C90.1367 232.351 88.5646 235.299 86.1408 238.902L86.0098 239.098L85.8788 239.229C85.8788 239.229 85.8788 239.229 85.8133 239.295L55.7459 285.804L86.8614 296.416L106.382 239.033C107.561 235.561 108.544 233.137 109.33 231.499C110.182 229.731 111.623 228.028 113.719 226.193C115.946 224.228 118.894 223.311 122.562 223.508C125.838 223.704 129.899 224.556 134.55 226.193C139.266 227.831 143 229.665 145.621 231.631C148.437 233.792 150.141 236.412 150.665 239.426C151.123 242.177 151.189 244.601 150.73 246.631C150.337 248.531 149.551 251.151 148.372 254.558L107.234 375.22C105.203 381.247 102.976 385.308 100.421 387.798C97.932 390.221 94.9187 391.466 91.4468 391.466ZM64.5892 206.345C63.5411 206.345 62.493 206.541 61.5759 206.869C59.4142 207.655 57.8421 208.703 56.794 209.948C55.6149 211.389 53.9772 213.616 52.0775 216.63L9.30195 283.184C8.31935 284.756 7.2057 287.442 5.89557 291.241C4.65095 294.975 3.93038 297.988 3.93038 300.347C3.93038 305.456 8.58138 309.714 17.8178 312.793L78.4766 333.493L68.8471 361.857C67.2095 366.704 66.3579 370.438 66.4234 372.928V372.993V373.059C66.3579 374.762 66.6854 376.072 67.4715 377.185C68.3231 378.43 69.6987 379.806 71.7294 381.181C73.7601 382.623 76.8389 384.064 80.8348 385.439C84.8307 386.815 88.3026 387.536 91.2503 387.601C93.8051 387.667 96.0323 386.815 97.932 384.981C99.9627 383.016 101.928 379.282 103.762 373.976L144.9 253.313C146.014 250.103 146.734 247.548 147.127 245.845C147.455 244.273 147.389 242.374 146.996 240.146C146.669 238.116 145.49 236.412 143.393 234.775C141.166 233.072 137.825 231.434 133.502 229.927C129.113 228.421 125.445 227.635 122.562 227.438C120.008 227.307 118.042 227.831 116.536 229.141C114.898 230.582 113.719 231.958 113.064 233.268C112.343 234.709 111.426 237.067 110.313 240.277L89.4816 301.395L49.8503 287.9L82.407 237.461C82.538 237.199 82.7345 236.871 83.0621 236.609C85.2238 233.399 86.6649 230.713 87.3855 228.617C89.2851 222.984 86.1408 217.481 77.6905 211.782C74.5462 209.62 71.5329 208.048 68.7162 207.066C67.144 206.607 65.8338 206.345 64.5892 206.345Z" fill="#06131C"/>
<path d="M409.661 240.736C410.643 238.443 412.543 236.74 415.36 235.561C418.242 234.382 422.041 233.465 426.823 232.875C431.605 232.285 435.47 232.285 438.483 232.941C441.497 233.596 443.724 234.906 445.231 236.936C446.737 238.967 447.654 240.932 448.113 242.701C448.571 244.47 449.03 247.155 449.423 250.627L464.948 377.185C465.668 383.081 465.472 387.536 464.424 390.549C463.31 393.562 461.345 395.658 458.528 396.903C455.712 398.147 452.043 399.065 447.654 399.654C443.265 400.178 439.728 400.243 437.042 399.785C434.356 399.326 432.26 398.672 430.819 397.755C429.312 396.837 428.133 395.462 427.282 393.562C426.037 391.073 425.12 387.208 424.465 381.902L421.059 354.127L359.352 361.726C348.74 363.036 342.058 360.94 339.372 355.372C338.324 353.014 337.538 349.804 337.014 345.742C336.49 341.615 336.359 338.602 336.555 336.571L346.054 258.029C346.512 254.426 347.036 251.675 347.495 249.775C347.954 247.876 349.133 245.976 350.967 244.011C352.801 242.111 355.356 240.932 358.5 240.539C361.71 240.146 365.247 240.277 369.178 240.867C380.117 242.439 386.078 246.631 386.864 253.444C387.192 255.868 386.995 259.143 386.471 263.204C386.34 263.532 386.34 263.794 386.34 263.925L379.266 321.177L416.342 316.592L408.744 254.492C408.285 251.02 408.088 248.4 408.154 246.697C408.219 244.994 408.678 243.028 409.661 240.736Z" fill="white"/>
<path d="M441.167 402.012C439.53 402.012 438.023 401.881 436.713 401.685C433.765 401.226 431.472 400.44 429.769 399.457C427.935 398.344 426.494 396.641 425.511 394.414C424.201 391.728 423.219 387.732 422.498 382.164L419.354 356.354L359.612 363.691C348.083 365.132 340.746 362.577 337.667 356.289C336.488 353.734 335.702 350.393 335.178 346.004C334.654 341.747 334.523 338.602 334.72 336.375L344.283 257.767C344.808 254.033 345.266 251.282 345.725 249.317C346.249 247.09 347.559 244.863 349.655 242.701C351.817 240.474 354.764 239.098 358.367 238.639C361.708 238.246 365.442 238.312 369.569 238.967C381.491 240.67 387.976 245.518 388.959 253.313C389.286 255.933 389.155 259.274 388.566 263.597V263.794L388.5 263.99C388.5 263.99 388.5 263.99 388.5 264.056L381.688 319.016L414.31 315.02L406.908 254.82C406.449 251.217 406.253 248.597 406.253 246.762C406.253 244.797 406.777 242.57 407.89 240.081C409.069 237.329 411.297 235.233 414.637 233.792C417.651 232.547 421.712 231.565 426.625 230.975C431.603 230.386 435.73 230.386 438.94 231.041C442.412 231.761 445.098 233.399 446.866 235.823C448.504 238.05 449.552 240.211 450.076 242.242C450.535 244.142 450.993 246.828 451.452 250.43L466.977 376.989C467.763 383.277 467.501 387.928 466.322 391.269C465.012 394.741 462.719 397.296 459.378 398.802C456.365 400.178 452.5 401.095 447.914 401.685C445.36 401.881 443.133 402.012 441.167 402.012ZM422.76 351.965L426.428 381.705C427.018 386.749 427.935 390.483 429.049 392.71L429.114 392.776C429.769 394.283 430.686 395.396 431.865 396.051C433.176 396.837 435.01 397.427 437.433 397.82C439.923 398.213 443.264 398.147 447.456 397.689C451.648 397.165 455.12 396.313 457.74 395.134C460.099 394.086 461.671 392.383 462.588 389.894C463.571 387.208 463.702 383.016 463.046 377.448L447.521 250.889C447.128 247.483 446.67 244.928 446.277 243.225C445.884 241.718 445.032 239.95 443.657 238.115C442.477 236.478 440.643 235.43 438.088 234.84C435.337 234.251 431.603 234.25 427.084 234.775C422.498 235.364 418.83 236.216 416.144 237.329C413.786 238.312 412.214 239.688 411.493 241.456C410.641 243.487 410.183 245.256 410.183 246.697C410.183 248.269 410.379 250.824 410.772 254.23L418.633 318.295L377.102 323.405L384.439 263.794C384.439 263.466 384.504 263.139 384.635 262.746C385.159 258.946 385.29 255.868 385.028 253.706C384.308 247.81 379.067 244.273 368.979 242.832C365.246 242.242 361.839 242.177 358.826 242.504C356.075 242.832 353.978 243.815 352.472 245.387C350.9 247.024 349.917 248.662 349.524 250.234C349.065 252.068 348.607 254.754 348.148 258.291L338.65 336.834C338.453 338.668 338.584 341.615 339.109 345.546C339.567 349.411 340.288 352.489 341.27 354.651C343.497 359.237 349.524 361.005 359.219 359.826L422.76 351.965Z" fill="#06131C"/>
<defs>
<linearGradient id="paint0_linear_2525_17831" x1="432.357" y1="416.819" x2="427.934" y2="375.226" gradientUnits="userSpaceOnUse">
<stop stop-color="#163300" stop-opacity="0.1"/>
<stop offset="1" stop-color="#429900" stop-opacity="0"/>
</linearGradient>
<linearGradient id="paint1_linear_2525_17831" x1="216.815" y1="420.944" x2="213.212" y2="351.507" gradientUnits="userSpaceOnUse">
<stop stop-color="#163300" stop-opacity="0.1"/>
<stop offset="1" stop-color="#429900" stop-opacity="0"/>
</linearGradient>
</defs>
</svg>
